M48
; DRILL file {KiCad 9.0.1} date 2025-04-01T19:12:09+1000
; FORMAT={-:-/ absolute / metric / decimal}
; #@! TF.CreationDate,2025-04-01T19:12:09+10:00
; #@! TF.GenerationSoftware,Kicad,Pcbnew,9.0.1
; #@! TF.FileFunction,Plated,1,2,PTH
FMAT,2
METRIC
; #@! TA.AperFunction,Plated,PTH,ViaDrill
T1C0.300
; #@! TA.AperFunction,Plated,PTH,ComponentDrill
T2C0.800
; #@! TA.AperFunction,Plated,PTH,ComponentDrill
T3C0.900
; #@! TA.AperFunction,Plated,PTH,ComponentDrill
T4C1.000
; #@! TA.AperFunction,Plated,PTH,ComponentDrill
T5C1.100
%
G90
G05
T1
X149.5Y-115.5
T2
X113.5Y-91.0
X113.5Y-101.16
T3
X112.46Y-107.5
X115.0Y-107.5
T4
X107.5Y-87.3
X107.5Y-89.84
X107.5Y-92.38
X107.5Y-94.92
X107.5Y-97.46
X107.5Y-100.0
X107.5Y-102.54
X147.5Y-83.475
X147.5Y-86.015
X147.5Y-88.555
X147.5Y-92.475
X147.5Y-95.015
X147.5Y-97.555
X147.5Y-101.475
X147.5Y-104.015
X147.5Y-106.555
X162.5Y-87.42
X162.5Y-89.96
X162.5Y-92.5
X162.5Y-95.04
X162.5Y-97.58
X162.5Y-100.12
X162.5Y-102.66
T5
X119.88Y-81.53
X119.88Y-84.07
X119.88Y-86.61
X119.88Y-89.15
X119.88Y-91.69
X119.88Y-94.23
X119.88Y-96.77
X119.88Y-99.31
X119.88Y-101.85
X119.88Y-104.39
X119.88Y-106.93
X119.88Y-109.47
X122.42Y-91.69
X122.42Y-109.47
X124.96Y-109.47
X127.5Y-109.47
X130.04Y-109.47
X132.58Y-91.69
X132.58Y-109.47
X135.12Y-81.53
X135.12Y-84.07
X135.12Y-86.61
X135.12Y-89.15
X135.12Y-91.69
X135.12Y-94.23
X135.12Y-96.77
X135.12Y-99.31
X135.12Y-101.85
X135.12Y-104.39
X135.12Y-106.93
X135.12Y-109.47
M30
