%TF.GenerationSoftware,KiCad,Pcbnew,8.0.7*%
%TF.CreationDate,2025-03-24T22:32:13+10:00*%
%TF.ProjectId,Sensor_array,53656e73-6f72-45f6-9172-7261792e6b69,rev?*%
%TF.SameCoordinates,Original*%
%TF.FileFunction,Copper,L2,Bot*%
%TF.FilePolarity,Positive*%
%FSLAX46Y46*%
G04 Gerber Fmt 4.6, Leading zero omitted, Abs format (unit mm)*
G04 Created by KiCad (PCBNEW 8.0.7) date 2025-03-24 22:32:13*
%MOMM*%
%LPD*%
G01*
G04 APERTURE LIST*
G04 Aperture macros list*
%AMRoundRect*
0 Rectangle with rounded corners*
0 $1 Rounding radius*
0 $2 $3 $4 $5 $6 $7 $8 $9 X,Y pos of 4 corners*
0 Add a 4 corners polygon primitive as box body*
4,1,4,$2,$3,$4,$5,$6,$7,$8,$9,$2,$3,0*
0 Add four circle primitives for the rounded corners*
1,1,$1+$1,$2,$3*
1,1,$1+$1,$4,$5*
1,1,$1+$1,$6,$7*
1,1,$1+$1,$8,$9*
0 Add four rect primitives between the rounded corners*
20,1,$1+$1,$2,$3,$4,$5,0*
20,1,$1+$1,$4,$5,$6,$7,0*
20,1,$1+$1,$6,$7,$8,$9,0*
20,1,$1+$1,$8,$9,$2,$3,0*%
G04 Aperture macros list end*
%TA.AperFunction,SMDPad,CuDef*%
%ADD10RoundRect,0.250000X-0.450000X0.262500X-0.450000X-0.262500X0.450000X-0.262500X0.450000X0.262500X0*%
%TD*%
%TA.AperFunction,SMDPad,CuDef*%
%ADD11RoundRect,0.250000X-0.250000X-0.475000X0.250000X-0.475000X0.250000X0.475000X-0.250000X0.475000X0*%
%TD*%
%TA.AperFunction,SMDPad,CuDef*%
%ADD12RoundRect,0.112500X0.112500X0.237500X-0.112500X0.237500X-0.112500X-0.237500X0.112500X-0.237500X0*%
%TD*%
%TA.AperFunction,ComponentPad*%
%ADD13O,1.700000X1.700000*%
%TD*%
%TA.AperFunction,ComponentPad*%
%ADD14R,1.700000X1.700000*%
%TD*%
%TA.AperFunction,ViaPad*%
%ADD15C,0.600000*%
%TD*%
%TA.AperFunction,Conductor*%
%ADD16C,0.300000*%
%TD*%
G04 APERTURE END LIST*
D10*
%TO.P,R5,2*%
%TO.N,/SENSOR_LED*%
X119250000Y-92775000D03*
%TO.P,R5,1*%
%TO.N,VCC*%
X119250000Y-90950000D03*
%TD*%
D11*
%TO.P,C1,2*%
%TO.N,VCC*%
X128450000Y-95000000D03*
%TO.P,C1,1*%
%TO.N,GND*%
X126550000Y-95000000D03*
%TD*%
%TO.P,C2,2*%
%TO.N,VCC*%
X128450000Y-93000000D03*
%TO.P,C2,1*%
%TO.N,GND*%
X126550000Y-93000000D03*
%TD*%
D10*
%TO.P,R15,2*%
%TO.N,Net-(Q1-D)*%
X118250000Y-88912500D03*
%TO.P,R15,1*%
%TO.N,Net-(U10-K)*%
X118250000Y-87087500D03*
%TD*%
%TO.P,R14,2*%
%TO.N,Net-(Q1-D)*%
X116250000Y-88862500D03*
%TO.P,R14,1*%
%TO.N,Net-(U10-K)*%
X116250000Y-87037500D03*
%TD*%
D12*
%TO.P,Q1,3,D*%
%TO.N,Net-(Q1-D)*%
X116250000Y-90950000D03*
%TO.P,Q1,2,S*%
%TO.N,GND*%
X115600000Y-92950000D03*
%TO.P,Q1,1,G*%
%TO.N,/SENSOR_LED*%
X116900000Y-92950000D03*
%TD*%
D13*
%TO.P,J2,16,Pin_16*%
%TO.N,/S8*%
X131090000Y-92235000D03*
%TO.P,J2,15,Pin_15*%
%TO.N,/SENSOR_LED*%
X131090000Y-94775000D03*
%TO.P,J2,14,Pin_14*%
%TO.N,/S7*%
X133630000Y-92235000D03*
%TO.P,J2,13,Pin_13*%
%TO.N,VCC*%
X133630000Y-94775000D03*
%TO.P,J2,12,Pin_12*%
%TO.N,/S6*%
X136170000Y-92235000D03*
%TO.P,J2,11,Pin_11*%
%TO.N,GND*%
X136170000Y-94775000D03*
%TO.P,J2,10,Pin_10*%
%TO.N,/S5*%
X138710000Y-92235000D03*
%TO.P,J2,9,Pin_9*%
%TO.N,GND*%
X138710000Y-94775000D03*
%TO.P,J2,8,Pin_8*%
%TO.N,/S4*%
X141250000Y-92235000D03*
%TO.P,J2,7,Pin_7*%
%TO.N,GND*%
X141250000Y-94775000D03*
%TO.P,J2,6,Pin_6*%
%TO.N,/S3*%
X143790000Y-92235000D03*
%TO.P,J2,5,Pin_5*%
%TO.N,GND*%
X143790000Y-94775000D03*
%TO.P,J2,4,Pin_4*%
%TO.N,/S2*%
X146330000Y-92235000D03*
%TO.P,J2,3,Pin_3*%
%TO.N,GND*%
X146330000Y-94775000D03*
%TO.P,J2,2,Pin_2*%
%TO.N,/S1*%
X148870000Y-92235000D03*
D14*
%TO.P,J2,1,Pin_1*%
%TO.N,GND*%
X148870000Y-94775000D03*
%TD*%
D15*
%TO.N,VCC*%
X128500000Y-96500000D03*
X120750000Y-90750000D03*
%TO.N,GND*%
X137000000Y-83500000D03*
X167000000Y-83500000D03*
X157000000Y-83500000D03*
X177000000Y-83500000D03*
X147000000Y-83500000D03*
X127000000Y-83500000D03*
X107000000Y-83500000D03*
X117000000Y-83500000D03*
%TO.N,Net-(U10-K)*%
X174000000Y-86500000D03*
X154000000Y-86500000D03*
X114000000Y-86500000D03*
X134000000Y-86500000D03*
%TD*%
D16*
%TO.N,/SENSOR_LED*%
X131090000Y-94775000D02*
X129890000Y-93575000D01*
X129890000Y-93575000D02*
X129890000Y-92640000D01*
X129890000Y-92640000D02*
X129175000Y-91925000D01*
X120100000Y-91925000D02*
X119250000Y-92775000D01*
X129175000Y-91925000D02*
X120100000Y-91925000D01*
%TO.N,VCC*%
X128500000Y-96500000D02*
X128500000Y-95050000D01*
X128500000Y-95050000D02*
X128450000Y-95000000D01*
X120750000Y-90750000D02*
X119450000Y-90750000D01*
X119450000Y-90750000D02*
X119250000Y-90950000D01*
%TO.N,Net-(U10-K)*%
X117250000Y-86500000D02*
X114000000Y-86500000D01*
X134000000Y-86500000D02*
X117250000Y-86500000D01*
X117250000Y-86500000D02*
X117837500Y-87087500D01*
X117837500Y-87087500D02*
X118250000Y-87087500D01*
%TO.N,GND*%
X126550000Y-93000000D02*
X126550000Y-95000000D01*
%TO.N,VCC*%
X128450000Y-93000000D02*
X128450000Y-95000000D01*
%TO.N,/SENSOR_LED*%
X117075000Y-92775000D02*
X116900000Y-92950000D01*
X119250000Y-92775000D02*
X117075000Y-92775000D01*
%TO.N,Net-(Q1-D)*%
X118250000Y-88912500D02*
X116300000Y-88912500D01*
X116300000Y-88912500D02*
X116250000Y-88862500D01*
X116250000Y-90950000D02*
X116250000Y-88862500D01*
%TO.N,Net-(U10-K)*%
X116250000Y-87037500D02*
X118200000Y-87037500D01*
X118200000Y-87037500D02*
X118250000Y-87087500D01*
X174000000Y-86500000D02*
X154000000Y-86500000D01*
X154000000Y-86500000D02*
X134000000Y-86500000D01*
%TD*%
%TA.AperFunction,Conductor*%
%TO.N,GND*%
G36*
X179442539Y-82020185D02*
G01*
X179488294Y-82072989D01*
X179499500Y-82124500D01*
X179499500Y-97375500D01*
X179479815Y-97442539D01*
X179427011Y-97488294D01*
X179375500Y-97499500D01*
X128797114Y-97499500D01*
X128730075Y-97479815D01*
X128684320Y-97427011D01*
X128674376Y-97357853D01*
X128703401Y-97294297D01*
X128756160Y-97258458D01*
X128792531Y-97245730D01*
X128849522Y-97225789D01*
X129002262Y-97129816D01*
X129129816Y-97002262D01*
X129225789Y-96849522D01*
X129285368Y-96679255D01*
X129305565Y-96500000D01*
X129285368Y-96320745D01*
X129285367Y-96320743D01*
X129285366Y-96320737D01*
X129225790Y-96150481D01*
X129225789Y-96150478D01*
X129224416Y-96148293D01*
X129223960Y-96146681D01*
X129222768Y-96144205D01*
X129223201Y-96143996D01*
X129205415Y-96081060D01*
X129225781Y-96014224D01*
X129241729Y-95994639D01*
X129292709Y-95943659D01*
X129292709Y-95943658D01*
X129292712Y-95943656D01*
X129384814Y-95794334D01*
X129439999Y-95627797D01*
X129450500Y-95525009D01*
X129450499Y-94474992D01*
X129449683Y-94467008D01*
X129439999Y-94372204D01*
X129438723Y-94366244D01*
X129443936Y-94296569D01*
X129485991Y-94240773D01*
X129551535Y-94216572D01*
X129619759Y-94231648D01*
X129647656Y-94252602D01*
X129742291Y-94347237D01*
X129775775Y-94408558D01*
X129774384Y-94467008D01*
X129754937Y-94539589D01*
X129754937Y-94539590D01*
X129734341Y-94774999D01*
X129734341Y-94775000D01*
X129754936Y-95010403D01*
X129754938Y-95010413D01*
X129816094Y-95238655D01*
X129816096Y-95238659D01*
X129816097Y-95238663D01*
X129896004Y-95410023D01*
X129915965Y-95452830D01*
X129915967Y-95452834D01*
X129966505Y-95525009D01*
X130051505Y-95646401D01*
X130218599Y-95813495D01*
X130313272Y-95879786D01*
X130412165Y-95949032D01*
X130412167Y-95949033D01*
X130412170Y-95949035D01*
X130626337Y-96048903D01*
X130854592Y-96110063D01*
X131042918Y-96126539D01*
X131089999Y-96130659D01*
X131090000Y-96130659D01*
X131090001Y-96130659D01*
X131130107Y-96127150D01*
X131325408Y-96110063D01*
X131553663Y-96048903D01*
X131767830Y-95949035D01*
X131961401Y-95813495D01*
X132128495Y-95646401D01*
X132258425Y-95460842D01*
X132313002Y-95417217D01*
X132382500Y-95410023D01*
X132444855Y-95441546D01*
X132461575Y-95460842D01*
X132591500Y-95646395D01*
X132591505Y-95646401D01*
X132758599Y-95813495D01*
X132853272Y-95879786D01*
X132952165Y-95949032D01*
X132952167Y-95949033D01*
X132952170Y-95949035D01*
X133166337Y-96048903D01*
X133394592Y-96110063D01*
X133582918Y-96126539D01*
X133629999Y-96130659D01*
X133630000Y-96130659D01*
X133630001Y-96130659D01*
X133670107Y-96127150D01*
X133865408Y-96110063D01*
X134093663Y-96048903D01*
X134307830Y-95949035D01*
X134501401Y-95813495D01*
X134668495Y-95646401D01*
X134804035Y-95452830D01*
X134903903Y-95238663D01*
X134965063Y-95010408D01*
X134975273Y-94893713D01*
X175649500Y-94893713D01*
X175649500Y-95106286D01*
X175670466Y-95238664D01*
X175682754Y-95316243D01*
X175729737Y-95460842D01*
X175748444Y-95518414D01*
X175844951Y-95707820D01*
X175969890Y-95879786D01*
X176120213Y-96030109D01*
X176292179Y-96155048D01*
X176292181Y-96155049D01*
X176292184Y-96155051D01*
X176481588Y-96251557D01*
X176683757Y-96317246D01*
X176893713Y-96350500D01*
X176893714Y-96350500D01*
X177106286Y-96350500D01*
X177106287Y-96350500D01*
X177316243Y-96317246D01*
X177518412Y-96251557D01*
X177707816Y-96155051D01*
X177769740Y-96110061D01*
X177879786Y-96030109D01*
X177879788Y-96030106D01*
X177879792Y-96030104D01*
X178030104Y-95879792D01*
X178030106Y-95879788D01*
X178030109Y-95879786D01*
X178155048Y-95707820D01*
X178155047Y-95707820D01*
X178155051Y-95707816D01*
X178251557Y-95518412D01*
X178317246Y-95316243D01*
X178350500Y-95106287D01*
X178350500Y-94893713D01*
X178317246Y-94683757D01*
X178251557Y-94481588D01*
X178155051Y-94292184D01*
X178155049Y-94292181D01*
X178155048Y-94292179D01*
X178030109Y-94120213D01*
X177879786Y-93969890D01*
X177707820Y-93844951D01*
X177518414Y-93748444D01*
X177518413Y-93748443D01*
X177518412Y-93748443D01*
X177316243Y-93682754D01*
X177316241Y-93682753D01*
X177316240Y-93682753D01*
X177154957Y-93657208D01*
X177106287Y-93649500D01*
X176893713Y-93649500D01*
X176845042Y-93657208D01*
X176683760Y-93682753D01*
X176481585Y-93748444D01*
X176292179Y-93844951D01*
X176120213Y-93969890D01*
X175969890Y-94120213D01*
X175844951Y-94292179D01*
X175748444Y-94481585D01*
X175682753Y-94683760D01*
X175649500Y-94893713D01*
X134975273Y-94893713D01*
X134985659Y-94775000D01*
X134965063Y-94539592D01*
X134903903Y-94311337D01*
X134804035Y-94097171D01*
X134798425Y-94089158D01*
X134668494Y-93903597D01*
X134501402Y-93736506D01*
X134501396Y-93736501D01*
X134315842Y-93606575D01*
X134272217Y-93551998D01*
X134265023Y-93482500D01*
X134296546Y-93420145D01*
X134315842Y-93403425D01*
X134382378Y-93356836D01*
X134501401Y-93273495D01*
X134668495Y-93106401D01*
X134798425Y-92920842D01*
X134853002Y-92877217D01*
X134922500Y-92870023D01*
X134984855Y-92901546D01*
X135001575Y-92920842D01*
X135131500Y-93106395D01*
X135131505Y-93106401D01*
X135298599Y-93273495D01*
X135395384Y-93341265D01*
X135492165Y-93409032D01*
X135492167Y-93409033D01*
X135492170Y-93409035D01*
X135706337Y-93508903D01*
X135934592Y-93570063D01*
X136122918Y-93586539D01*
X136169999Y-93590659D01*
X136170000Y-93590659D01*
X136170001Y-93590659D01*
X136209234Y-93587226D01*
X136405408Y-93570063D01*
X136633663Y-93508903D01*
X136847830Y-93409035D01*
X137041401Y-93273495D01*
X137208495Y-93106401D01*
X137338425Y-92920842D01*
X137393002Y-92877217D01*
X137462500Y-92870023D01*
X137524855Y-92901546D01*
X137541575Y-92920842D01*
X137671500Y-93106395D01*
X137671505Y-93106401D01*
X137838599Y-93273495D01*
X137935384Y-93341265D01*
X138032165Y-93409032D01*
X138032167Y-93409033D01*
X138032170Y-93409035D01*
X138246337Y-93508903D01*
X138474592Y-93570063D01*
X138662918Y-93586539D01*
X138709999Y-93590659D01*
X138710000Y-93590659D01*
X138710001Y-93590659D01*
X138749234Y-93587226D01*
X138945408Y-93570063D01*
X139173663Y-93508903D01*
X139387830Y-93409035D01*
X139581401Y-93273495D01*
X139748495Y-93106401D01*
X139878425Y-92920842D01*
X139933002Y-92877217D01*
X140002500Y-92870023D01*
X140064855Y-92901546D01*
X140081575Y-92920842D01*
X140211500Y-93106395D01*
X140211505Y-93106401D01*
X140378599Y-93273495D01*
X140475384Y-93341265D01*
X140572165Y-93409032D01*
X140572167Y-93409033D01*
X140572170Y-93409035D01*
X140786337Y-93508903D01*
X141014592Y-93570063D01*
X141202918Y-93586539D01*
X141249999Y-93590659D01*
X141250000Y-93590659D01*
X141250001Y-93590659D01*
X141289234Y-93587226D01*
X141485408Y-93570063D01*
X141713663Y-93508903D01*
X141927830Y-93409035D01*
X142121401Y-93273495D01*
X142288495Y-93106401D01*
X142418425Y-92920842D01*
X142473002Y-92877217D01*
X142542500Y-92870023D01*
X142604855Y-92901546D01*
X142621575Y-92920842D01*
X142751500Y-93106395D01*
X142751505Y-93106401D01*
X142918599Y-93273495D01*
X143015384Y-93341265D01*
X143112165Y-93409032D01*
X143112167Y-93409033D01*
X143112170Y-93409035D01*
X143326337Y-93508903D01*
X143554592Y-93570063D01*
X143742918Y-93586539D01*
X143789999Y-93590659D01*
X143790000Y-93590659D01*
X143790001Y-93590659D01*
X143829234Y-93587226D01*
X144025408Y-93570063D01*
X144253663Y-93508903D01*
X144467830Y-93409035D01*
X144661401Y-93273495D01*
X144828495Y-93106401D01*
X144958425Y-92920842D01*
X145013002Y-92877217D01*
X145082500Y-92870023D01*
X145144855Y-92901546D01*
X145161575Y-92920842D01*
X145291500Y-93106395D01*
X145291505Y-93106401D01*
X145458599Y-93273495D01*
X145555384Y-93341265D01*
X145652165Y-93409032D01*
X145652167Y-93409033D01*
X145652170Y-93409035D01*
X145866337Y-93508903D01*
X146094592Y-93570063D01*
X146282918Y-93586539D01*
X146329999Y-93590659D01*
X146330000Y-93590659D01*
X146330001Y-93590659D01*
X146369234Y-93587226D01*
X146565408Y-93570063D01*
X146793663Y-93508903D01*
X147007830Y-93409035D01*
X147201401Y-93273495D01*
X147368495Y-93106401D01*
X147498425Y-92920842D01*
X147553002Y-92877217D01*
X147622500Y-92870023D01*
X147684855Y-92901546D01*
X147701575Y-92920842D01*
X147831500Y-93106395D01*
X147831505Y-93106401D01*
X147998599Y-93273495D01*
X148095384Y-93341265D01*
X148192165Y-93409032D01*
X148192167Y-93409033D01*
X148192170Y-93409035D01*
X148406337Y-93508903D01*
X148634592Y-93570063D01*
X148822918Y-93586539D01*
X148869999Y-93590659D01*
X148870000Y-93590659D01*
X148870001Y-93590659D01*
X148909234Y-93587226D01*
X149105408Y-93570063D01*
X149333663Y-93508903D01*
X149547830Y-93409035D01*
X149741401Y-93273495D01*
X149908495Y-93106401D01*
X150044035Y-92912830D01*
X150143903Y-92698663D01*
X150205063Y-92470408D01*
X150225659Y-92235000D01*
X150205063Y-91999592D01*
X150143903Y-91771337D01*
X150044035Y-91557171D01*
X150038425Y-91549158D01*
X149908494Y-91363597D01*
X149741402Y-91196506D01*
X149741395Y-91196501D01*
X149547834Y-91060967D01*
X149547830Y-91060965D01*
X149547828Y-91060964D01*
X149333663Y-90961097D01*
X149333659Y-90961096D01*
X149333655Y-90961094D01*
X149105413Y-90899938D01*
X149105403Y-90899936D01*
X148870001Y-90879341D01*
X148869999Y-90879341D01*
X148634596Y-90899936D01*
X148634586Y-90899938D01*
X148406344Y-90961094D01*
X148406335Y-90961098D01*
X148192171Y-91060964D01*
X148192169Y-91060965D01*
X147998597Y-91196505D01*
X147831505Y-91363597D01*
X147701575Y-91549158D01*
X147646998Y-91592783D01*
X147577500Y-91599977D01*
X147515145Y-91568454D01*
X147498425Y-91549158D01*
X147368494Y-91363597D01*
X147201402Y-91196506D01*
X147201395Y-91196501D01*
X147007834Y-91060967D01*
X147007830Y-91060965D01*
X147007828Y-91060964D01*
X146793663Y-90961097D01*
X146793659Y-90961096D01*
X146793655Y-90961094D01*
X146565413Y-90899938D01*
X146565403Y-90899936D01*
X146330001Y-90879341D01*
X146329999Y-90879341D01*
X146094596Y-90899936D01*
X146094586Y-90899938D01*
X145866344Y-90961094D01*
X145866335Y-90961098D01*
X145652171Y-91060964D01*
X145652169Y-91060965D01*
X145458597Y-91196505D01*
X145291505Y-91363597D01*
X145161575Y-91549158D01*
X145106998Y-91592783D01*
X145037500Y-91599977D01*
X144975145Y-91568454D01*
X144958425Y-91549158D01*
X144828494Y-91363597D01*
X144661402Y-91196506D01*
X144661395Y-91196501D01*
X144467834Y-91060967D01*
X144467830Y-91060965D01*
X144467828Y-91060964D01*
X144253663Y-90961097D01*
X144253659Y-90961096D01*
X144253655Y-90961094D01*
X144025413Y-90899938D01*
X144025403Y-90899936D01*
X143790001Y-90879341D01*
X143789999Y-90879341D01*
X143554596Y-90899936D01*
X143554586Y-90899938D01*
X143326344Y-90961094D01*
X143326335Y-90961098D01*
X143112171Y-91060964D01*
X143112169Y-91060965D01*
X142918597Y-91196505D01*
X142751505Y-91363597D01*
X142621575Y-91549158D01*
X142566998Y-91592783D01*
X142497500Y-91599977D01*
X142435145Y-91568454D01*
X142418425Y-91549158D01*
X142288494Y-91363597D01*
X142121402Y-91196506D01*
X142121395Y-91196501D01*
X141927834Y-91060967D01*
X141927830Y-91060965D01*
X141927828Y-91060964D01*
X141713663Y-90961097D01*
X141713659Y-90961096D01*
X141713655Y-90961094D01*
X141485413Y-90899938D01*
X141485403Y-90899936D01*
X141250001Y-90879341D01*
X141249999Y-90879341D01*
X141014596Y-90899936D01*
X141014586Y-90899938D01*
X140786344Y-90961094D01*
X140786335Y-90961098D01*
X140572171Y-91060964D01*
X140572169Y-91060965D01*
X140378597Y-91196505D01*
X140211505Y-91363597D01*
X140081575Y-91549158D01*
X140026998Y-91592783D01*
X139957500Y-91599977D01*
X139895145Y-91568454D01*
X139878425Y-91549158D01*
X139748494Y-91363597D01*
X139581402Y-91196506D01*
X139581395Y-91196501D01*
X139387834Y-91060967D01*
X139387830Y-91060965D01*
X139387828Y-91060964D01*
X139173663Y-90961097D01*
X139173659Y-90961096D01*
X139173655Y-90961094D01*
X138945413Y-90899938D01*
X138945403Y-90899936D01*
X138710001Y-90879341D01*
X138709999Y-90879341D01*
X138474596Y-90899936D01*
X138474586Y-90899938D01*
X138246344Y-90961094D01*
X138246335Y-90961098D01*
X138032171Y-91060964D01*
X138032169Y-91060965D01*
X137838597Y-91196505D01*
X137671505Y-91363597D01*
X137541575Y-91549158D01*
X137486998Y-91592783D01*
X137417500Y-91599977D01*
X137355145Y-91568454D01*
X137338425Y-91549158D01*
X137208494Y-91363597D01*
X137041402Y-91196506D01*
X137041395Y-91196501D01*
X136847834Y-91060967D01*
X136847830Y-91060965D01*
X136847828Y-91060964D01*
X136633663Y-90961097D01*
X136633659Y-90961096D01*
X136633655Y-90961094D01*
X136405413Y-90899938D01*
X136405403Y-90899936D01*
X136170001Y-90879341D01*
X136169999Y-90879341D01*
X135934596Y-90899936D01*
X135934586Y-90899938D01*
X135706344Y-90961094D01*
X135706335Y-90961098D01*
X135492171Y-91060964D01*
X135492169Y-91060965D01*
X135298597Y-91196505D01*
X135131505Y-91363597D01*
X135001575Y-91549158D01*
X134946998Y-91592783D01*
X134877500Y-91599977D01*
X134815145Y-91568454D01*
X134798425Y-91549158D01*
X134668494Y-91363597D01*
X134501402Y-91196506D01*
X134501395Y-91196501D01*
X134307834Y-91060967D01*
X134307830Y-91060965D01*
X134307828Y-91060964D01*
X134093663Y-90961097D01*
X134093659Y-90961096D01*
X134093655Y-90961094D01*
X133865413Y-90899938D01*
X133865403Y-90899936D01*
X133630001Y-90879341D01*
X133629999Y-90879341D01*
X133394596Y-90899936D01*
X133394586Y-90899938D01*
X133166344Y-90961094D01*
X133166335Y-90961098D01*
X132952171Y-91060964D01*
X132952169Y-91060965D01*
X132758597Y-91196505D01*
X132591505Y-91363597D01*
X132461575Y-91549158D01*
X132406998Y-91592783D01*
X132337500Y-91599977D01*
X132275145Y-91568454D01*
X132258425Y-91549158D01*
X132128494Y-91363597D01*
X131961402Y-91196506D01*
X131961395Y-91196501D01*
X131767834Y-91060967D01*
X131767830Y-91060965D01*
X131767828Y-91060964D01*
X131553663Y-90961097D01*
X131553659Y-90961096D01*
X131553655Y-90961094D01*
X131325413Y-90899938D01*
X131325403Y-90899936D01*
X131090001Y-90879341D01*
X131089999Y-90879341D01*
X130854596Y-90899936D01*
X130854586Y-90899938D01*
X130626344Y-90961094D01*
X130626335Y-90961098D01*
X130412171Y-91060964D01*
X130412169Y-91060965D01*
X130218597Y-91196505D01*
X130051508Y-91363594D01*
X129922952Y-91547192D01*
X129868375Y-91590816D01*
X129798876Y-91598009D01*
X129736522Y-91566487D01*
X129733696Y-91563749D01*
X129589673Y-91419726D01*
X129508213Y-91365297D01*
X129483127Y-91348535D01*
X129364744Y-91299499D01*
X129364738Y-91299497D01*
X129239071Y-91274500D01*
X129239069Y-91274500D01*
X121588870Y-91274500D01*
X121521831Y-91254815D01*
X121476076Y-91202011D01*
X121466132Y-91132853D01*
X121474207Y-91106346D01*
X121473489Y-91106095D01*
X121489281Y-91060964D01*
X121535368Y-90929255D01*
X121535369Y-90929249D01*
X121555565Y-90750003D01*
X121555565Y-90749996D01*
X121535369Y-90570750D01*
X121535368Y-90570745D01*
X121522756Y-90534703D01*
X121475789Y-90400478D01*
X121379816Y-90247738D01*
X121252262Y-90120184D01*
X121211845Y-90094788D01*
X121099523Y-90024211D01*
X120929254Y-89964631D01*
X120929249Y-89964630D01*
X120750004Y-89944435D01*
X120749996Y-89944435D01*
X120570750Y-89964630D01*
X120570737Y-89964633D01*
X120400481Y-90024209D01*
X120400477Y-90024210D01*
X120310904Y-90080494D01*
X120244932Y-90099500D01*
X120211461Y-90099500D01*
X120146366Y-90081039D01*
X120019334Y-90002686D01*
X119852797Y-89947501D01*
X119852795Y-89947500D01*
X119750016Y-89937000D01*
X119298729Y-89937000D01*
X119231690Y-89917315D01*
X119185935Y-89864511D01*
X119175991Y-89795353D01*
X119205016Y-89731797D01*
X119211021Y-89725346D01*
X119292712Y-89643656D01*
X119384814Y-89494334D01*
X119439999Y-89327797D01*
X119450500Y-89225009D01*
X119450499Y-88599992D01*
X119439999Y-88497203D01*
X119384814Y-88330666D01*
X119292712Y-88181344D01*
X119199049Y-88087681D01*
X119165564Y-88026358D01*
X119170548Y-87956666D01*
X119199049Y-87912319D01*
X119218656Y-87892712D01*
X119292712Y-87818656D01*
X119384814Y-87669334D01*
X119439999Y-87502797D01*
X119450500Y-87400009D01*
X119450500Y-87274500D01*
X119470185Y-87207461D01*
X119522989Y-87161706D01*
X119574500Y-87150500D01*
X133494932Y-87150500D01*
X133560904Y-87169506D01*
X133650477Y-87225789D01*
X133650481Y-87225790D01*
X133820737Y-87285366D01*
X133820743Y-87285367D01*
X133820745Y-87285368D01*
X133820746Y-87285368D01*
X133820750Y-87285369D01*
X133999996Y-87305565D01*
X134000000Y-87305565D01*
X134000004Y-87305565D01*
X134179249Y-87285369D01*
X134179251Y-87285368D01*
X134179255Y-87285368D01*
X134179258Y-87285366D01*
X134179262Y-87285366D01*
X134269377Y-87253832D01*
X134349522Y-87225789D01*
X134439096Y-87169505D01*
X134505068Y-87150500D01*
X153494932Y-87150500D01*
X153560904Y-87169506D01*
X153650477Y-87225789D01*
X153650481Y-87225790D01*
X153820737Y-87285366D01*
X153820743Y-87285367D01*
X153820745Y-87285368D01*
X153820746Y-87285368D01*
X153820750Y-87285369D01*
X153999996Y-87305565D01*
X154000000Y-87305565D01*
X154000004Y-87305565D01*
X154179249Y-87285369D01*
X154179251Y-87285368D01*
X154179255Y-87285368D01*
X154179258Y-87285366D01*
X154179262Y-87285366D01*
X154269377Y-87253832D01*
X154349522Y-87225789D01*
X154439096Y-87169505D01*
X154505068Y-87150500D01*
X173494932Y-87150500D01*
X173560904Y-87169506D01*
X173650477Y-87225789D01*
X173650481Y-87225790D01*
X173820737Y-87285366D01*
X173820743Y-87285367D01*
X173820745Y-87285368D01*
X173820746Y-87285368D01*
X173820750Y-87285369D01*
X173999996Y-87305565D01*
X174000000Y-87305565D01*
X174000004Y-87305565D01*
X174179249Y-87285369D01*
X174179252Y-87285368D01*
X174179255Y-87285368D01*
X174349522Y-87225789D01*
X174502262Y-87129816D01*
X174629816Y-87002262D01*
X174725789Y-86849522D01*
X174785368Y-86679255D01*
X174805565Y-86500000D01*
X174785368Y-86320745D01*
X174725789Y-86150478D01*
X174629816Y-85997738D01*
X174502262Y-85870184D01*
X174439096Y-85830494D01*
X174349523Y-85774211D01*
X174179254Y-85714631D01*
X174179249Y-85714630D01*
X174000004Y-85694435D01*
X173999996Y-85694435D01*
X173820750Y-85714630D01*
X173820737Y-85714633D01*
X173650481Y-85774209D01*
X173650477Y-85774210D01*
X173560904Y-85830494D01*
X173494932Y-85849500D01*
X154505068Y-85849500D01*
X154439096Y-85830494D01*
X154349522Y-85774210D01*
X154349518Y-85774209D01*
X154179262Y-85714633D01*
X154179249Y-85714630D01*
X154000004Y-85694435D01*
X153999996Y-85694435D01*
X153820750Y-85714630D01*
X153820737Y-85714633D01*
X153650481Y-85774209D01*
X153650477Y-85774210D01*
X153560904Y-85830494D01*
X153494932Y-85849500D01*
X134505068Y-85849500D01*
X134439096Y-85830494D01*
X134349522Y-85774210D01*
X134349518Y-85774209D01*
X134179262Y-85714633D01*
X134179249Y-85714630D01*
X134000004Y-85694435D01*
X133999996Y-85694435D01*
X133820750Y-85714630D01*
X133820737Y-85714633D01*
X133650481Y-85774209D01*
X133650477Y-85774210D01*
X133560904Y-85830494D01*
X133494932Y-85849500D01*
X114505068Y-85849500D01*
X114439096Y-85830494D01*
X114349522Y-85774210D01*
X114349518Y-85774209D01*
X114179262Y-85714633D01*
X114179249Y-85714630D01*
X114000004Y-85694435D01*
X113999996Y-85694435D01*
X113820750Y-85714630D01*
X113820745Y-85714631D01*
X113650476Y-85774211D01*
X113497737Y-85870184D01*
X113370184Y-85997737D01*
X113274211Y-86150476D01*
X113214631Y-86320745D01*
X113214630Y-86320750D01*
X113194435Y-86499996D01*
X113194435Y-86500003D01*
X113214630Y-86679249D01*
X113214631Y-86679254D01*
X113274211Y-86849523D01*
X113370184Y-87002262D01*
X113497738Y-87129816D01*
X113548491Y-87161706D01*
X113646021Y-87222989D01*
X113650478Y-87225789D01*
X113789686Y-87274500D01*
X113820745Y-87285368D01*
X113820750Y-87285369D01*
X113999996Y-87305565D01*
X114000000Y-87305565D01*
X114000004Y-87305565D01*
X114179249Y-87285369D01*
X114179251Y-87285368D01*
X114179255Y-87285368D01*
X114179258Y-87285366D01*
X114179262Y-87285366D01*
X114269377Y-87253832D01*
X114349522Y-87225789D01*
X114439096Y-87169505D01*
X114505068Y-87150500D01*
X114925501Y-87150500D01*
X114992540Y-87170185D01*
X115038295Y-87222989D01*
X115049501Y-87274500D01*
X115049501Y-87350018D01*
X115060000Y-87452796D01*
X115060001Y-87452799D01*
X115115185Y-87619331D01*
X115115187Y-87619336D01*
X115207289Y-87768657D01*
X115300951Y-87862319D01*
X115334436Y-87923642D01*
X115329452Y-87993334D01*
X115300951Y-88037681D01*
X115207289Y-88131342D01*
X115115187Y-88280663D01*
X115115185Y-88280668D01*
X115098617Y-88330668D01*
X115060001Y-88447203D01*
X115060001Y-88447204D01*
X115060000Y-88447204D01*
X115049500Y-88549983D01*
X115049500Y-89175001D01*
X115049501Y-89175019D01*
X115060000Y-89277796D01*
X115060001Y-89277799D01*
X115076569Y-89327797D01*
X115115186Y-89444334D01*
X115207288Y-89593656D01*
X115331344Y-89717712D01*
X115480666Y-89809814D01*
X115514500Y-89821025D01*
X115571947Y-89860796D01*
X115598772Y-89925311D01*
X115599500Y-89938732D01*
X115599500Y-90384060D01*
X115582232Y-90447181D01*
X115570447Y-90467108D01*
X115570446Y-90467111D01*
X115570445Y-90467113D01*
X115550808Y-90534704D01*
X115527234Y-90615847D01*
X115527234Y-90615849D01*
X115524500Y-90650589D01*
X115524500Y-91249393D01*
X115524501Y-91249415D01*
X115527234Y-91284152D01*
X115527234Y-91284155D01*
X115527235Y-91284156D01*
X115570445Y-91432887D01*
X115570446Y-91432888D01*
X115649282Y-91566194D01*
X115649289Y-91566203D01*
X115758796Y-91675710D01*
X115758800Y-91675713D01*
X115758802Y-91675715D01*
X115892113Y-91754555D01*
X116040844Y-91797765D01*
X116075595Y-91800500D01*
X116424404Y-91800499D01*
X116459156Y-91797765D01*
X116607887Y-91754555D01*
X116741198Y-91675715D01*
X116850715Y-91566198D01*
X116929555Y-91432887D01*
X116972765Y-91284156D01*
X116975500Y-91249405D01*
X116975499Y-90650596D01*
X116972765Y-90615844D01*
X116929555Y-90467113D01*
X116928749Y-90465751D01*
X116917768Y-90447181D01*
X116900500Y-90384060D01*
X116900500Y-89938732D01*
X116920185Y-89871693D01*
X116972989Y-89825938D01*
X116985495Y-89821026D01*
X117019334Y-89809814D01*
X117154906Y-89726192D01*
X117222298Y-89707753D01*
X117288961Y-89728676D01*
X117307683Y-89744051D01*
X117331344Y-89767712D01*
X117480666Y-89859814D01*
X117647203Y-89914999D01*
X117749991Y-89925500D01*
X118201271Y-89925499D01*
X118268309Y-89945183D01*
X118314064Y-89997987D01*
X118324008Y-90067146D01*
X118294983Y-90130702D01*
X118288952Y-90137180D01*
X118207287Y-90218845D01*
X118115187Y-90368163D01*
X118115185Y-90368168D01*
X118104479Y-90400478D01*
X118060001Y-90534703D01*
X118060001Y-90534704D01*
X118060000Y-90534704D01*
X118049500Y-90637483D01*
X118049500Y-91262501D01*
X118049501Y-91262519D01*
X118060000Y-91365296D01*
X118060001Y-91365299D01*
X118078036Y-91419723D01*
X118115186Y-91531834D01*
X118203933Y-91675717D01*
X118207289Y-91681157D01*
X118300951Y-91774819D01*
X118334436Y-91836142D01*
X118329452Y-91905834D01*
X118300951Y-91950181D01*
X118207288Y-92043843D01*
X118207285Y-92043847D01*
X118193870Y-92065597D01*
X118141922Y-92112322D01*
X118088332Y-92124500D01*
X117203440Y-92124500D01*
X117168845Y-92119576D01*
X117109160Y-92102235D01*
X117109154Y-92102234D01*
X117077372Y-92099733D01*
X117074405Y-92099500D01*
X117074404Y-92099500D01*
X116725606Y-92099500D01*
X116725584Y-92099501D01*
X116690847Y-92102234D01*
X116690844Y-92102235D01*
X116542113Y-92145445D01*
X116542111Y-92145445D01*
X116542111Y-92145446D01*
X116408805Y-92224282D01*
X116408796Y-92224289D01*
X116299289Y-92333796D01*
X116299282Y-92333805D01*
X116220446Y-92467111D01*
X116220445Y-92467113D01*
X116188956Y-92575500D01*
X116177234Y-92615847D01*
X116177234Y-92615849D01*
X116174500Y-92650589D01*
X116174500Y-93249393D01*
X116174501Y-93249415D01*
X116177234Y-93284152D01*
X116177234Y-93284155D01*
X116177235Y-93284156D01*
X116220445Y-93432887D01*
X116220446Y-93432888D01*
X116299282Y-93566194D01*
X116299289Y-93566203D01*
X116408796Y-93675710D01*
X116408805Y-93675717D01*
X116420704Y-93682754D01*
X116542113Y-93754555D01*
X116690844Y-93797765D01*
X116725595Y-93800500D01*
X117074404Y-93800499D01*
X117109156Y-93797765D01*
X117257887Y-93754555D01*
X117391198Y-93675715D01*
X117500715Y-93566198D01*
X117547920Y-93486379D01*
X117598989Y-93438695D01*
X117654652Y-93425500D01*
X118088332Y-93425500D01*
X118155371Y-93445185D01*
X118193870Y-93484403D01*
X118207285Y-93506152D01*
X118207288Y-93506156D01*
X118331344Y-93630212D01*
X118480666Y-93722314D01*
X118647203Y-93777499D01*
X118749991Y-93788000D01*
X119750008Y-93787999D01*
X119750016Y-93787998D01*
X119750019Y-93787998D01*
X119806302Y-93782248D01*
X119852797Y-93777499D01*
X120019334Y-93722314D01*
X120168656Y-93630212D01*
X120292712Y-93506156D01*
X120384814Y-93356834D01*
X120439999Y-93190297D01*
X120450500Y-93087509D01*
X120450499Y-92699499D01*
X120470183Y-92632461D01*
X120522987Y-92586706D01*
X120574499Y-92575500D01*
X127325500Y-92575500D01*
X127392539Y-92595185D01*
X127438294Y-92647989D01*
X127449500Y-92699500D01*
X127449500Y-93525001D01*
X127449501Y-93525019D01*
X127460000Y-93627796D01*
X127460001Y-93627799D01*
X127515185Y-93794331D01*
X127515189Y-93794340D01*
X127601889Y-93934904D01*
X127620329Y-94002296D01*
X127601889Y-94065096D01*
X127515189Y-94205659D01*
X127515185Y-94205668D01*
X127499633Y-94252602D01*
X127460001Y-94372203D01*
X127460001Y-94372204D01*
X127460000Y-94372204D01*
X127449500Y-94474983D01*
X127449500Y-95525001D01*
X127449501Y-95525019D01*
X127460000Y-95627796D01*
X127460001Y-95627799D01*
X127515185Y-95794331D01*
X127515187Y-95794336D01*
X127607289Y-95943657D01*
X127729459Y-96065827D01*
X127762944Y-96127150D01*
X127758820Y-96194463D01*
X127714631Y-96320745D01*
X127714630Y-96320750D01*
X127694435Y-96499996D01*
X127694435Y-96500003D01*
X127714630Y-96679249D01*
X127714631Y-96679254D01*
X127774211Y-96849523D01*
X127870184Y-97002262D01*
X127997738Y-97129816D01*
X128150478Y-97225789D01*
X128243840Y-97258458D01*
X128300617Y-97299180D01*
X128326364Y-97364133D01*
X128312908Y-97432694D01*
X128264521Y-97483097D01*
X128202886Y-97499500D01*
X100624500Y-97499500D01*
X100557461Y-97479815D01*
X100511706Y-97427011D01*
X100500500Y-97375500D01*
X100500500Y-94893713D01*
X101649500Y-94893713D01*
X101649500Y-95106286D01*
X101670466Y-95238664D01*
X101682754Y-95316243D01*
X101729737Y-95460842D01*
X101748444Y-95518414D01*
X101844951Y-95707820D01*
X101969890Y-95879786D01*
X102120213Y-96030109D01*
X102292179Y-96155048D01*
X102292181Y-96155049D01*
X102292184Y-96155051D01*
X102481588Y-96251557D01*
X102683757Y-96317246D01*
X102893713Y-96350500D01*
X102893714Y-96350500D01*
X103106286Y-96350500D01*
X103106287Y-96350500D01*
X103316243Y-96317246D01*
X103518412Y-96251557D01*
X103707816Y-96155051D01*
X103769740Y-96110061D01*
X103879786Y-96030109D01*
X103879788Y-96030106D01*
X103879792Y-96030104D01*
X104030104Y-95879792D01*
X104030106Y-95879788D01*
X104030109Y-95879786D01*
X104155048Y-95707820D01*
X104155047Y-95707820D01*
X104155051Y-95707816D01*
X104251557Y-95518412D01*
X104317246Y-95316243D01*
X104350500Y-95106287D01*
X104350500Y-94893713D01*
X104317246Y-94683757D01*
X104251557Y-94481588D01*
X104155051Y-94292184D01*
X104155049Y-94292181D01*
X104155048Y-94292179D01*
X104030109Y-94120213D01*
X103879786Y-93969890D01*
X103707820Y-93844951D01*
X103518414Y-93748444D01*
X103518413Y-93748443D01*
X103518412Y-93748443D01*
X103316243Y-93682754D01*
X103316241Y-93682753D01*
X103316240Y-93682753D01*
X103154957Y-93657208D01*
X103106287Y-93649500D01*
X102893713Y-93649500D01*
X102845042Y-93657208D01*
X102683760Y-93682753D01*
X102481585Y-93748444D01*
X102292179Y-93844951D01*
X102120213Y-93969890D01*
X101969890Y-94120213D01*
X101844951Y-94292179D01*
X101748444Y-94481585D01*
X101682753Y-94683760D01*
X101649500Y-94893713D01*
X100500500Y-94893713D01*
X100500500Y-82124500D01*
X100520185Y-82057461D01*
X100572989Y-82011706D01*
X100624500Y-82000500D01*
X179375500Y-82000500D01*
X179442539Y-82020185D01*
G37*
%TD.AperFunction*%
%TD*%
M02*
