%TF.GenerationSoftware,KiCad,Pcbnew,8.0.7*%
%TF.CreationDate,2025-03-24T20:12:37+10:00*%
%TF.ProjectId,Sensor_array,53656e73-6f72-45f6-9172-7261792e6b69,rev?*%
%TF.SameCoordinates,Original*%
%TF.FileFunction,Copper,L2,Bot*%
%TF.FilePolarity,Positive*%
%FSLAX46Y46*%
G04 Gerber Fmt 4.6, Leading zero omitted, Abs format (unit mm)*
G04 Created by KiCad (PCBNEW 8.0.7) date 2025-03-24 20:12:37*
%MOMM*%
%LPD*%
G01*
G04 APERTURE LIST*
%TA.AperFunction,ComponentPad*%
%ADD10R,1.700000X1.700000*%
%TD*%
%TA.AperFunction,ComponentPad*%
%ADD11O,1.700000X1.700000*%
%TD*%
%TA.AperFunction,ViaPad*%
%ADD12C,0.600000*%
%TD*%
%TA.AperFunction,Conductor*%
%ADD13C,0.300000*%
%TD*%
G04 APERTURE END LIST*
D10*
%TO.P,J2,1,Pin_1*%
%TO.N,GND*%
X131050000Y-94775000D03*
D11*
%TO.P,J2,2,Pin_2*%
%TO.N,/S1*%
X131050000Y-92235000D03*
%TO.P,J2,3,Pin_3*%
%TO.N,GND*%
X133590000Y-94775000D03*
%TO.P,J2,4,Pin_4*%
%TO.N,/S2*%
X133590000Y-92235000D03*
%TO.P,J2,5,Pin_5*%
%TO.N,GND*%
X136130000Y-94775000D03*
%TO.P,J2,6,Pin_6*%
%TO.N,/S3*%
X136130000Y-92235000D03*
%TO.P,J2,7,Pin_7*%
%TO.N,GND*%
X138670000Y-94775000D03*
%TO.P,J2,8,Pin_8*%
%TO.N,/S4*%
X138670000Y-92235000D03*
%TO.P,J2,9,Pin_9*%
%TO.N,GND*%
X141210000Y-94775000D03*
%TO.P,J2,10,Pin_10*%
%TO.N,/S5*%
X141210000Y-92235000D03*
%TO.P,J2,11,Pin_11*%
%TO.N,GND*%
X143750000Y-94775000D03*
%TO.P,J2,12,Pin_12*%
%TO.N,/S6*%
X143750000Y-92235000D03*
%TO.P,J2,13,Pin_13*%
%TO.N,VCC*%
X146290000Y-94775000D03*
%TO.P,J2,14,Pin_14*%
%TO.N,/S7*%
X146290000Y-92235000D03*
%TO.P,J2,15,Pin_15*%
%TO.N,/SENSOR_LED*%
X148830000Y-94775000D03*
%TO.P,J2,16,Pin_16*%
%TO.N,/S8*%
X148830000Y-92235000D03*
%TD*%
D12*
%TO.N,GND*%
X137000000Y-83500000D03*
X155000000Y-95000000D03*
X167000000Y-83500000D03*
X157000000Y-83500000D03*
X177000000Y-83500000D03*
X147000000Y-83500000D03*
X127000000Y-83500000D03*
X107000000Y-83500000D03*
X117000000Y-83500000D03*
X160000000Y-96000000D03*
%TO.N,Net-(U10-K)*%
X174000000Y-86500000D03*
X154000000Y-86500000D03*
X168000000Y-95000000D03*
X114000000Y-86500000D03*
X134000000Y-86500000D03*
%TD*%
D13*
%TO.N,Net-(U10-K)*%
X174000000Y-89000000D02*
X174000000Y-86500000D01*
X134000000Y-86500000D02*
X114000000Y-86500000D01*
X168000000Y-95000000D02*
X174000000Y-89000000D01*
X174000000Y-86500000D02*
X154000000Y-86500000D01*
X154000000Y-86500000D02*
X134000000Y-86500000D01*
%TD*%
%TA.AperFunction,Conductor*%
%TO.N,GND*%
G36*
X133124075Y-94582007D02*
G01*
X133090000Y-94709174D01*
X133090000Y-94840826D01*
X133124075Y-94967993D01*
X133156988Y-95025000D01*
X131483012Y-95025000D01*
X131515925Y-94967993D01*
X131550000Y-94840826D01*
X131550000Y-94709174D01*
X131515925Y-94582007D01*
X131483012Y-94525000D01*
X133156988Y-94525000D01*
X133124075Y-94582007D01*
G37*
%TD.AperFunction*%
%TA.AperFunction,Conductor*%
G36*
X135664075Y-94582007D02*
G01*
X135630000Y-94709174D01*
X135630000Y-94840826D01*
X135664075Y-94967993D01*
X135696988Y-95025000D01*
X134023012Y-95025000D01*
X134055925Y-94967993D01*
X134090000Y-94840826D01*
X134090000Y-94709174D01*
X134055925Y-94582007D01*
X134023012Y-94525000D01*
X135696988Y-94525000D01*
X135664075Y-94582007D01*
G37*
%TD.AperFunction*%
%TA.AperFunction,Conductor*%
G36*
X138204075Y-94582007D02*
G01*
X138170000Y-94709174D01*
X138170000Y-94840826D01*
X138204075Y-94967993D01*
X138236988Y-95025000D01*
X136563012Y-95025000D01*
X136595925Y-94967993D01*
X136630000Y-94840826D01*
X136630000Y-94709174D01*
X136595925Y-94582007D01*
X136563012Y-94525000D01*
X138236988Y-94525000D01*
X138204075Y-94582007D01*
G37*
%TD.AperFunction*%
%TA.AperFunction,Conductor*%
G36*
X140744075Y-94582007D02*
G01*
X140710000Y-94709174D01*
X140710000Y-94840826D01*
X140744075Y-94967993D01*
X140776988Y-95025000D01*
X139103012Y-95025000D01*
X139135925Y-94967993D01*
X139170000Y-94840826D01*
X139170000Y-94709174D01*
X139135925Y-94582007D01*
X139103012Y-94525000D01*
X140776988Y-94525000D01*
X140744075Y-94582007D01*
G37*
%TD.AperFunction*%
%TA.AperFunction,Conductor*%
G36*
X143284075Y-94582007D02*
G01*
X143250000Y-94709174D01*
X143250000Y-94840826D01*
X143284075Y-94967993D01*
X143316988Y-95025000D01*
X141643012Y-95025000D01*
X141675925Y-94967993D01*
X141710000Y-94840826D01*
X141710000Y-94709174D01*
X141675925Y-94582007D01*
X141643012Y-94525000D01*
X143316988Y-94525000D01*
X143284075Y-94582007D01*
G37*
%TD.AperFunction*%
%TA.AperFunction,Conductor*%
G36*
X179442539Y-82020185D02*
G01*
X179488294Y-82072989D01*
X179499500Y-82124500D01*
X179499500Y-97375500D01*
X179479815Y-97442539D01*
X179427011Y-97488294D01*
X179375500Y-97499500D01*
X100624500Y-97499500D01*
X100557461Y-97479815D01*
X100511706Y-97427011D01*
X100500500Y-97375500D01*
X100500500Y-94893713D01*
X101649500Y-94893713D01*
X101649500Y-95106286D01*
X101676221Y-95275000D01*
X101682754Y-95316243D01*
X101729737Y-95460842D01*
X101748444Y-95518414D01*
X101844951Y-95707820D01*
X101969890Y-95879786D01*
X102120213Y-96030109D01*
X102292179Y-96155048D01*
X102292181Y-96155049D01*
X102292184Y-96155051D01*
X102481588Y-96251557D01*
X102683757Y-96317246D01*
X102893713Y-96350500D01*
X102893714Y-96350500D01*
X103106286Y-96350500D01*
X103106287Y-96350500D01*
X103316243Y-96317246D01*
X103518412Y-96251557D01*
X103707816Y-96155051D01*
X103757990Y-96118598D01*
X103879786Y-96030109D01*
X103879788Y-96030106D01*
X103879792Y-96030104D01*
X104030104Y-95879792D01*
X104030106Y-95879788D01*
X104030109Y-95879786D01*
X104155048Y-95707820D01*
X104155047Y-95707820D01*
X104155051Y-95707816D01*
X104251557Y-95518412D01*
X104317246Y-95316243D01*
X104350500Y-95106287D01*
X104350500Y-94893713D01*
X104317246Y-94683757D01*
X104251557Y-94481588D01*
X104155051Y-94292184D01*
X104155049Y-94292181D01*
X104155048Y-94292179D01*
X104030109Y-94120213D01*
X103879786Y-93969890D01*
X103707820Y-93844951D01*
X103518414Y-93748444D01*
X103518413Y-93748443D01*
X103518412Y-93748443D01*
X103316243Y-93682754D01*
X103316241Y-93682753D01*
X103316240Y-93682753D01*
X103154957Y-93657208D01*
X103106287Y-93649500D01*
X102893713Y-93649500D01*
X102845042Y-93657208D01*
X102683760Y-93682753D01*
X102683757Y-93682754D01*
X102517151Y-93736888D01*
X102481585Y-93748444D01*
X102292179Y-93844951D01*
X102120213Y-93969890D01*
X101969890Y-94120213D01*
X101844951Y-94292179D01*
X101748444Y-94481585D01*
X101682753Y-94683760D01*
X101649500Y-94893713D01*
X100500500Y-94893713D01*
X100500500Y-92234999D01*
X129694341Y-92234999D01*
X129694341Y-92235000D01*
X129714936Y-92470403D01*
X129714938Y-92470413D01*
X129776094Y-92698655D01*
X129776096Y-92698659D01*
X129776097Y-92698663D01*
X129780000Y-92707032D01*
X129875965Y-92912830D01*
X129875967Y-92912834D01*
X129984281Y-93067521D01*
X130011501Y-93106396D01*
X130011506Y-93106402D01*
X130133818Y-93228714D01*
X130167303Y-93290037D01*
X130162319Y-93359729D01*
X130120447Y-93415662D01*
X130089471Y-93432577D01*
X129957912Y-93481646D01*
X129957906Y-93481649D01*
X129842812Y-93567809D01*
X129842809Y-93567812D01*
X129756649Y-93682906D01*
X129756645Y-93682913D01*
X129706403Y-93817620D01*
X129706401Y-93817627D01*
X129700000Y-93877155D01*
X129700000Y-94525000D01*
X130616988Y-94525000D01*
X130584075Y-94582007D01*
X130550000Y-94709174D01*
X130550000Y-94840826D01*
X130584075Y-94967993D01*
X130616988Y-95025000D01*
X129700000Y-95025000D01*
X129700000Y-95672844D01*
X129706401Y-95732372D01*
X129706403Y-95732379D01*
X129756645Y-95867086D01*
X129756649Y-95867093D01*
X129842809Y-95982187D01*
X129842812Y-95982190D01*
X129957906Y-96068350D01*
X129957913Y-96068354D01*
X130092620Y-96118596D01*
X130092627Y-96118598D01*
X130152155Y-96124999D01*
X130152172Y-96125000D01*
X130800000Y-96125000D01*
X130800000Y-95208012D01*
X130857007Y-95240925D01*
X130984174Y-95275000D01*
X131115826Y-95275000D01*
X131242993Y-95240925D01*
X131300000Y-95208012D01*
X131300000Y-96125000D01*
X131947828Y-96125000D01*
X131947844Y-96124999D01*
X132007372Y-96118598D01*
X132007379Y-96118596D01*
X132142086Y-96068354D01*
X132142093Y-96068350D01*
X132257187Y-95982190D01*
X132257190Y-95982187D01*
X132343350Y-95867093D01*
X132343354Y-95867086D01*
X132392614Y-95735013D01*
X132434485Y-95679079D01*
X132499949Y-95654662D01*
X132568222Y-95669513D01*
X132596477Y-95690665D01*
X132718917Y-95813105D01*
X132912421Y-95948600D01*
X133126507Y-96048429D01*
X133126516Y-96048433D01*
X133340000Y-96105634D01*
X133340000Y-95208012D01*
X133397007Y-95240925D01*
X133524174Y-95275000D01*
X133655826Y-95275000D01*
X133782993Y-95240925D01*
X133840000Y-95208012D01*
X133840000Y-96105634D01*
X134053483Y-96048433D01*
X134053492Y-96048429D01*
X134267578Y-95948600D01*
X134461082Y-95813105D01*
X134628105Y-95646082D01*
X134758425Y-95459968D01*
X134813002Y-95416344D01*
X134882501Y-95409151D01*
X134944855Y-95440673D01*
X134961575Y-95459968D01*
X135091894Y-95646082D01*
X135258917Y-95813105D01*
X135452421Y-95948600D01*
X135666507Y-96048429D01*
X135666516Y-96048433D01*
X135880000Y-96105634D01*
X135880000Y-95208012D01*
X135937007Y-95240925D01*
X136064174Y-95275000D01*
X136195826Y-95275000D01*
X136322993Y-95240925D01*
X136380000Y-95208012D01*
X136380000Y-96105634D01*
X136593483Y-96048433D01*
X136593492Y-96048429D01*
X136807578Y-95948600D01*
X137001082Y-95813105D01*
X137168105Y-95646082D01*
X137298425Y-95459968D01*
X137353002Y-95416344D01*
X137422501Y-95409151D01*
X137484855Y-95440673D01*
X137501575Y-95459968D01*
X137631894Y-95646082D01*
X137798917Y-95813105D01*
X137992421Y-95948600D01*
X138206507Y-96048429D01*
X138206516Y-96048433D01*
X138420000Y-96105634D01*
X138420000Y-95208012D01*
X138477007Y-95240925D01*
X138604174Y-95275000D01*
X138735826Y-95275000D01*
X138862993Y-95240925D01*
X138920000Y-95208012D01*
X138920000Y-96105633D01*
X139133483Y-96048433D01*
X139133492Y-96048429D01*
X139347578Y-95948600D01*
X139541082Y-95813105D01*
X139708105Y-95646082D01*
X139838425Y-95459968D01*
X139893002Y-95416344D01*
X139962501Y-95409151D01*
X140024855Y-95440673D01*
X140041575Y-95459968D01*
X140171894Y-95646082D01*
X140338917Y-95813105D01*
X140532421Y-95948600D01*
X140746507Y-96048429D01*
X140746516Y-96048433D01*
X140960000Y-96105634D01*
X140960000Y-95208012D01*
X141017007Y-95240925D01*
X141144174Y-95275000D01*
X141275826Y-95275000D01*
X141402993Y-95240925D01*
X141460000Y-95208012D01*
X141460000Y-96105633D01*
X141673483Y-96048433D01*
X141673492Y-96048429D01*
X141887578Y-95948600D01*
X142081082Y-95813105D01*
X142248105Y-95646082D01*
X142378425Y-95459968D01*
X142433002Y-95416344D01*
X142502501Y-95409151D01*
X142564855Y-95440673D01*
X142581575Y-95459968D01*
X142711894Y-95646082D01*
X142878917Y-95813105D01*
X143072421Y-95948600D01*
X143286507Y-96048429D01*
X143286516Y-96048433D01*
X143500000Y-96105634D01*
X143500000Y-95208012D01*
X143557007Y-95240925D01*
X143684174Y-95275000D01*
X143815826Y-95275000D01*
X143942993Y-95240925D01*
X144000000Y-95208012D01*
X144000000Y-96105633D01*
X144213483Y-96048433D01*
X144213492Y-96048429D01*
X144427578Y-95948600D01*
X144621082Y-95813105D01*
X144788105Y-95646082D01*
X144918119Y-95460405D01*
X144972696Y-95416781D01*
X145042195Y-95409588D01*
X145104549Y-95441110D01*
X145121269Y-95460405D01*
X145251505Y-95646401D01*
X145418599Y-95813495D01*
X145495135Y-95867086D01*
X145612165Y-95949032D01*
X145612167Y-95949033D01*
X145612170Y-95949035D01*
X145826337Y-96048903D01*
X146054592Y-96110063D01*
X146225319Y-96125000D01*
X146289999Y-96130659D01*
X146290000Y-96130659D01*
X146290001Y-96130659D01*
X146354681Y-96125000D01*
X146525408Y-96110063D01*
X146753663Y-96048903D01*
X146967830Y-95949035D01*
X147161401Y-95813495D01*
X147328495Y-95646401D01*
X147458425Y-95460842D01*
X147513002Y-95417217D01*
X147582500Y-95410023D01*
X147644855Y-95441546D01*
X147661575Y-95460842D01*
X147791500Y-95646395D01*
X147791505Y-95646401D01*
X147958599Y-95813495D01*
X148035135Y-95867086D01*
X148152165Y-95949032D01*
X148152167Y-95949033D01*
X148152170Y-95949035D01*
X148366337Y-96048903D01*
X148594592Y-96110063D01*
X148765319Y-96125000D01*
X148829999Y-96130659D01*
X148830000Y-96130659D01*
X148830001Y-96130659D01*
X148894681Y-96125000D01*
X149065408Y-96110063D01*
X149293663Y-96048903D01*
X149507830Y-95949035D01*
X149701401Y-95813495D01*
X149868495Y-95646401D01*
X150004035Y-95452830D01*
X150103903Y-95238663D01*
X150165063Y-95010408D01*
X150185659Y-94775000D01*
X150165063Y-94539592D01*
X150103903Y-94311337D01*
X150004035Y-94097171D01*
X149998731Y-94089595D01*
X149868494Y-93903597D01*
X149701402Y-93736506D01*
X149701396Y-93736501D01*
X149515842Y-93606575D01*
X149472217Y-93551998D01*
X149465023Y-93482500D01*
X149496546Y-93420145D01*
X149515842Y-93403425D01*
X149627500Y-93325241D01*
X149701401Y-93273495D01*
X149868495Y-93106401D01*
X150004035Y-92912830D01*
X150103903Y-92698663D01*
X150165063Y-92470408D01*
X150185659Y-92235000D01*
X150165063Y-91999592D01*
X150103903Y-91771337D01*
X150004035Y-91557171D01*
X149998425Y-91549158D01*
X149868494Y-91363597D01*
X149701402Y-91196506D01*
X149701395Y-91196501D01*
X149507834Y-91060967D01*
X149507830Y-91060965D01*
X149507828Y-91060964D01*
X149293663Y-90961097D01*
X149293659Y-90961096D01*
X149293655Y-90961094D01*
X149065413Y-90899938D01*
X149065403Y-90899936D01*
X148830001Y-90879341D01*
X148829999Y-90879341D01*
X148594596Y-90899936D01*
X148594586Y-90899938D01*
X148366344Y-90961094D01*
X148366335Y-90961098D01*
X148152171Y-91060964D01*
X148152169Y-91060965D01*
X147958597Y-91196505D01*
X147791505Y-91363597D01*
X147661575Y-91549158D01*
X147606998Y-91592783D01*
X147537500Y-91599977D01*
X147475145Y-91568454D01*
X147458425Y-91549158D01*
X147328494Y-91363597D01*
X147161402Y-91196506D01*
X147161395Y-91196501D01*
X146967834Y-91060967D01*
X146967830Y-91060965D01*
X146967828Y-91060964D01*
X146753663Y-90961097D01*
X146753659Y-90961096D01*
X146753655Y-90961094D01*
X146525413Y-90899938D01*
X146525403Y-90899936D01*
X146290001Y-90879341D01*
X146289999Y-90879341D01*
X146054596Y-90899936D01*
X146054586Y-90899938D01*
X145826344Y-90961094D01*
X145826335Y-90961098D01*
X145612171Y-91060964D01*
X145612169Y-91060965D01*
X145418597Y-91196505D01*
X145251505Y-91363597D01*
X145121575Y-91549158D01*
X145066998Y-91592783D01*
X144997500Y-91599977D01*
X144935145Y-91568454D01*
X144918425Y-91549158D01*
X144788494Y-91363597D01*
X144621402Y-91196506D01*
X144621395Y-91196501D01*
X144427834Y-91060967D01*
X144427830Y-91060965D01*
X144427828Y-91060964D01*
X144213663Y-90961097D01*
X144213659Y-90961096D01*
X144213655Y-90961094D01*
X143985413Y-90899938D01*
X143985403Y-90899936D01*
X143750001Y-90879341D01*
X143749999Y-90879341D01*
X143514596Y-90899936D01*
X143514586Y-90899938D01*
X143286344Y-90961094D01*
X143286335Y-90961098D01*
X143072171Y-91060964D01*
X143072169Y-91060965D01*
X142878597Y-91196505D01*
X142711505Y-91363597D01*
X142581575Y-91549158D01*
X142526998Y-91592783D01*
X142457500Y-91599977D01*
X142395145Y-91568454D01*
X142378425Y-91549158D01*
X142248494Y-91363597D01*
X142081402Y-91196506D01*
X142081395Y-91196501D01*
X141887834Y-91060967D01*
X141887830Y-91060965D01*
X141887828Y-91060964D01*
X141673663Y-90961097D01*
X141673659Y-90961096D01*
X141673655Y-90961094D01*
X141445413Y-90899938D01*
X141445403Y-90899936D01*
X141210001Y-90879341D01*
X141209999Y-90879341D01*
X140974596Y-90899936D01*
X140974586Y-90899938D01*
X140746344Y-90961094D01*
X140746335Y-90961098D01*
X140532171Y-91060964D01*
X140532169Y-91060965D01*
X140338597Y-91196505D01*
X140171505Y-91363597D01*
X140041575Y-91549158D01*
X139986998Y-91592783D01*
X139917500Y-91599977D01*
X139855145Y-91568454D01*
X139838425Y-91549158D01*
X139708494Y-91363597D01*
X139541402Y-91196506D01*
X139541395Y-91196501D01*
X139347834Y-91060967D01*
X139347830Y-91060965D01*
X139347828Y-91060964D01*
X139133663Y-90961097D01*
X139133659Y-90961096D01*
X139133655Y-90961094D01*
X138905413Y-90899938D01*
X138905403Y-90899936D01*
X138670001Y-90879341D01*
X138669999Y-90879341D01*
X138434596Y-90899936D01*
X138434586Y-90899938D01*
X138206344Y-90961094D01*
X138206335Y-90961098D01*
X137992171Y-91060964D01*
X137992169Y-91060965D01*
X137798597Y-91196505D01*
X137631505Y-91363597D01*
X137501575Y-91549158D01*
X137446998Y-91592783D01*
X137377500Y-91599977D01*
X137315145Y-91568454D01*
X137298425Y-91549158D01*
X137168494Y-91363597D01*
X137001402Y-91196506D01*
X137001395Y-91196501D01*
X136807834Y-91060967D01*
X136807830Y-91060965D01*
X136807828Y-91060964D01*
X136593663Y-90961097D01*
X136593659Y-90961096D01*
X136593655Y-90961094D01*
X136365413Y-90899938D01*
X136365403Y-90899936D01*
X136130001Y-90879341D01*
X136129999Y-90879341D01*
X135894596Y-90899936D01*
X135894586Y-90899938D01*
X135666344Y-90961094D01*
X135666335Y-90961098D01*
X135452171Y-91060964D01*
X135452169Y-91060965D01*
X135258597Y-91196505D01*
X135091505Y-91363597D01*
X134961575Y-91549158D01*
X134906998Y-91592783D01*
X134837500Y-91599977D01*
X134775145Y-91568454D01*
X134758425Y-91549158D01*
X134628494Y-91363597D01*
X134461402Y-91196506D01*
X134461395Y-91196501D01*
X134267834Y-91060967D01*
X134267830Y-91060965D01*
X134267828Y-91060964D01*
X134053663Y-90961097D01*
X134053659Y-90961096D01*
X134053655Y-90961094D01*
X133825413Y-90899938D01*
X133825403Y-90899936D01*
X133590001Y-90879341D01*
X133589999Y-90879341D01*
X133354596Y-90899936D01*
X133354586Y-90899938D01*
X133126344Y-90961094D01*
X133126335Y-90961098D01*
X132912171Y-91060964D01*
X132912169Y-91060965D01*
X132718597Y-91196505D01*
X132551505Y-91363597D01*
X132421575Y-91549158D01*
X132366998Y-91592783D01*
X132297500Y-91599977D01*
X132235145Y-91568454D01*
X132218425Y-91549158D01*
X132088494Y-91363597D01*
X131921402Y-91196506D01*
X131921395Y-91196501D01*
X131727834Y-91060967D01*
X131727830Y-91060965D01*
X131727828Y-91060964D01*
X131513663Y-90961097D01*
X131513659Y-90961096D01*
X131513655Y-90961094D01*
X131285413Y-90899938D01*
X131285403Y-90899936D01*
X131050001Y-90879341D01*
X131049999Y-90879341D01*
X130814596Y-90899936D01*
X130814586Y-90899938D01*
X130586344Y-90961094D01*
X130586335Y-90961098D01*
X130372171Y-91060964D01*
X130372169Y-91060965D01*
X130178597Y-91196505D01*
X130011505Y-91363597D01*
X129875965Y-91557169D01*
X129875964Y-91557171D01*
X129776098Y-91771335D01*
X129776094Y-91771344D01*
X129714938Y-91999586D01*
X129714936Y-91999596D01*
X129694341Y-92234999D01*
X100500500Y-92234999D01*
X100500500Y-86499996D01*
X113194435Y-86499996D01*
X113194435Y-86500003D01*
X113214630Y-86679249D01*
X113214631Y-86679254D01*
X113274211Y-86849523D01*
X113370184Y-87002262D01*
X113497738Y-87129816D01*
X113560904Y-87169506D01*
X113646021Y-87222989D01*
X113650478Y-87225789D01*
X113789686Y-87274500D01*
X113820745Y-87285368D01*
X113820750Y-87285369D01*
X113999996Y-87305565D01*
X114000000Y-87305565D01*
X114000004Y-87305565D01*
X114179249Y-87285369D01*
X114179251Y-87285368D01*
X114179255Y-87285368D01*
X114179258Y-87285366D01*
X114179262Y-87285366D01*
X114269377Y-87253832D01*
X114349522Y-87225789D01*
X114439096Y-87169505D01*
X114505068Y-87150500D01*
X133494932Y-87150500D01*
X133560904Y-87169506D01*
X133650477Y-87225789D01*
X133650481Y-87225790D01*
X133820737Y-87285366D01*
X133820743Y-87285367D01*
X133820745Y-87285368D01*
X133820746Y-87285368D01*
X133820750Y-87285369D01*
X133999996Y-87305565D01*
X134000000Y-87305565D01*
X134000004Y-87305565D01*
X134179249Y-87285369D01*
X134179251Y-87285368D01*
X134179255Y-87285368D01*
X134179258Y-87285366D01*
X134179262Y-87285366D01*
X134269377Y-87253832D01*
X134349522Y-87225789D01*
X134439096Y-87169505D01*
X134505068Y-87150500D01*
X153494932Y-87150500D01*
X153560904Y-87169506D01*
X153650477Y-87225789D01*
X153650481Y-87225790D01*
X153820737Y-87285366D01*
X153820743Y-87285367D01*
X153820745Y-87285368D01*
X153820746Y-87285368D01*
X153820750Y-87285369D01*
X153999996Y-87305565D01*
X154000000Y-87305565D01*
X154000004Y-87305565D01*
X154179249Y-87285369D01*
X154179251Y-87285368D01*
X154179255Y-87285368D01*
X154179258Y-87285366D01*
X154179262Y-87285366D01*
X154269377Y-87253832D01*
X154349522Y-87225789D01*
X154439096Y-87169505D01*
X154505068Y-87150500D01*
X173225500Y-87150500D01*
X173292539Y-87170185D01*
X173338294Y-87222989D01*
X173349500Y-87274500D01*
X173349500Y-88679191D01*
X173329815Y-88746230D01*
X173313181Y-88766872D01*
X167901775Y-94178277D01*
X167840452Y-94211762D01*
X167827988Y-94213815D01*
X167820752Y-94214630D01*
X167820744Y-94214632D01*
X167650478Y-94274210D01*
X167497737Y-94370184D01*
X167370184Y-94497737D01*
X167274211Y-94650476D01*
X167214631Y-94820745D01*
X167214630Y-94820750D01*
X167194435Y-94999996D01*
X167194435Y-95000003D01*
X167214630Y-95179249D01*
X167214631Y-95179254D01*
X167274211Y-95349523D01*
X167339124Y-95452830D01*
X167370184Y-95502262D01*
X167497738Y-95629816D01*
X167566217Y-95672844D01*
X167621880Y-95707820D01*
X167650478Y-95725789D01*
X167676839Y-95735013D01*
X167820745Y-95785368D01*
X167820750Y-95785369D01*
X167999996Y-95805565D01*
X168000000Y-95805565D01*
X168000004Y-95805565D01*
X168179249Y-95785369D01*
X168179252Y-95785368D01*
X168179255Y-95785368D01*
X168349522Y-95725789D01*
X168502262Y-95629816D01*
X168629816Y-95502262D01*
X168725789Y-95349522D01*
X168785368Y-95179255D01*
X168786182Y-95172025D01*
X168813245Y-95107611D01*
X168821712Y-95098232D01*
X169026231Y-94893713D01*
X175649500Y-94893713D01*
X175649500Y-95106286D01*
X175676221Y-95275000D01*
X175682754Y-95316243D01*
X175729737Y-95460842D01*
X175748444Y-95518414D01*
X175844951Y-95707820D01*
X175969890Y-95879786D01*
X176120213Y-96030109D01*
X176292179Y-96155048D01*
X176292181Y-96155049D01*
X176292184Y-96155051D01*
X176481588Y-96251557D01*
X176683757Y-96317246D01*
X176893713Y-96350500D01*
X176893714Y-96350500D01*
X177106286Y-96350500D01*
X177106287Y-96350500D01*
X177316243Y-96317246D01*
X177518412Y-96251557D01*
X177707816Y-96155051D01*
X177757990Y-96118598D01*
X177879786Y-96030109D01*
X177879788Y-96030106D01*
X177879792Y-96030104D01*
X178030104Y-95879792D01*
X178030106Y-95879788D01*
X178030109Y-95879786D01*
X178155048Y-95707820D01*
X178155047Y-95707820D01*
X178155051Y-95707816D01*
X178251557Y-95518412D01*
X178317246Y-95316243D01*
X178350500Y-95106287D01*
X178350500Y-94893713D01*
X178317246Y-94683757D01*
X178251557Y-94481588D01*
X178155051Y-94292184D01*
X178155049Y-94292181D01*
X178155048Y-94292179D01*
X178030109Y-94120213D01*
X177879786Y-93969890D01*
X177707820Y-93844951D01*
X177518414Y-93748444D01*
X177518413Y-93748443D01*
X177518412Y-93748443D01*
X177316243Y-93682754D01*
X177316241Y-93682753D01*
X177316240Y-93682753D01*
X177154957Y-93657208D01*
X177106287Y-93649500D01*
X176893713Y-93649500D01*
X176845042Y-93657208D01*
X176683760Y-93682753D01*
X176683757Y-93682754D01*
X176517151Y-93736888D01*
X176481585Y-93748444D01*
X176292179Y-93844951D01*
X176120213Y-93969890D01*
X175969890Y-94120213D01*
X175844951Y-94292179D01*
X175748444Y-94481585D01*
X175682753Y-94683760D01*
X175649500Y-94893713D01*
X169026231Y-94893713D01*
X174505276Y-89414670D01*
X174576465Y-89308127D01*
X174625501Y-89189744D01*
X174650500Y-89064069D01*
X174650500Y-87005067D01*
X174669507Y-86939094D01*
X174725788Y-86849524D01*
X174785368Y-86679254D01*
X174785369Y-86679249D01*
X174805565Y-86500003D01*
X174805565Y-86499996D01*
X174785369Y-86320750D01*
X174785368Y-86320745D01*
X174725788Y-86150476D01*
X174629815Y-85997737D01*
X174502262Y-85870184D01*
X174349523Y-85774211D01*
X174179254Y-85714631D01*
X174179249Y-85714630D01*
X174000004Y-85694435D01*
X173999996Y-85694435D01*
X173820750Y-85714630D01*
X173820737Y-85714633D01*
X173650481Y-85774209D01*
X173650477Y-85774210D01*
X173560904Y-85830494D01*
X173494932Y-85849500D01*
X154505068Y-85849500D01*
X154439096Y-85830494D01*
X154349522Y-85774210D01*
X154349518Y-85774209D01*
X154179262Y-85714633D01*
X154179249Y-85714630D01*
X154000004Y-85694435D01*
X153999996Y-85694435D01*
X153820750Y-85714630D01*
X153820737Y-85714633D01*
X153650481Y-85774209D01*
X153650477Y-85774210D01*
X153560904Y-85830494D01*
X153494932Y-85849500D01*
X134505068Y-85849500D01*
X134439096Y-85830494D01*
X134349522Y-85774210D01*
X134349518Y-85774209D01*
X134179262Y-85714633D01*
X134179249Y-85714630D01*
X134000004Y-85694435D01*
X133999996Y-85694435D01*
X133820750Y-85714630D01*
X133820737Y-85714633D01*
X133650481Y-85774209D01*
X133650477Y-85774210D01*
X133560904Y-85830494D01*
X133494932Y-85849500D01*
X114505068Y-85849500D01*
X114439096Y-85830494D01*
X114349522Y-85774210D01*
X114349518Y-85774209D01*
X114179262Y-85714633D01*
X114179249Y-85714630D01*
X114000004Y-85694435D01*
X113999996Y-85694435D01*
X113820750Y-85714630D01*
X113820745Y-85714631D01*
X113650476Y-85774211D01*
X113497737Y-85870184D01*
X113370184Y-85997737D01*
X113274211Y-86150476D01*
X113214631Y-86320745D01*
X113214630Y-86320750D01*
X113194435Y-86499996D01*
X100500500Y-86499996D01*
X100500500Y-82124500D01*
X100520185Y-82057461D01*
X100572989Y-82011706D01*
X100624500Y-82000500D01*
X179375500Y-82000500D01*
X179442539Y-82020185D01*
G37*
%TD.AperFunction*%
%TD*%
M02*
