%TF.GenerationSoftware,KiCad,Pcbnew,8.0.7*%
%TF.CreationDate,2025-03-24T20:12:37+10:00*%
%TF.ProjectId,Sensor_array,53656e73-6f72-45f6-9172-7261792e6b69,rev?*%
%TF.SameCoordinates,Original*%
%TF.FileFunction,Soldermask,Top*%
%TF.FilePolarity,Negative*%
%FSLAX46Y46*%
G04 Gerber Fmt 4.6, Leading zero omitted, Abs format (unit mm)*
G04 Created by KiCad (PCBNEW 8.0.7) date 2025-03-24 20:12:37*
%MOMM*%
%LPD*%
G01*
G04 APERTURE LIST*
G04 Aperture macros list*
%AMRoundRect*
0 Rectangle with rounded corners*
0 $1 Rounding radius*
0 $2 $3 $4 $5 $6 $7 $8 $9 X,Y pos of 4 corners*
0 Add a 4 corners polygon primitive as box body*
4,1,4,$2,$3,$4,$5,$6,$7,$8,$9,$2,$3,0*
0 Add four circle primitives for the rounded corners*
1,1,$1+$1,$2,$3*
1,1,$1+$1,$4,$5*
1,1,$1+$1,$6,$7*
1,1,$1+$1,$8,$9*
0 Add four rect primitives between the rounded corners*
20,1,$1+$1,$2,$3,$4,$5,0*
20,1,$1+$1,$4,$5,$6,$7,0*
20,1,$1+$1,$6,$7,$8,$9,0*
20,1,$1+$1,$8,$9,$2,$3,0*%
G04 Aperture macros list end*
%ADD10RoundRect,0.250000X0.450000X-0.262500X0.450000X0.262500X-0.450000X0.262500X-0.450000X-0.262500X0*%
%ADD11C,2.200000*%
%ADD12RoundRect,0.250000X-0.450000X0.262500X-0.450000X-0.262500X0.450000X-0.262500X0.450000X0.262500X0*%
%ADD13RoundRect,0.197500X-0.197500X-0.632500X0.197500X-0.632500X0.197500X0.632500X-0.197500X0.632500X0*%
%ADD14RoundRect,0.250000X0.262500X0.450000X-0.262500X0.450000X-0.262500X-0.450000X0.262500X-0.450000X0*%
%ADD15RoundRect,0.250000X0.250000X0.475000X-0.250000X0.475000X-0.250000X-0.475000X0.250000X-0.475000X0*%
%ADD16RoundRect,0.112500X-0.237500X0.112500X-0.237500X-0.112500X0.237500X-0.112500X0.237500X0.112500X0*%
%ADD17R,1.700000X1.700000*%
%ADD18O,1.700000X1.700000*%
G04 APERTURE END LIST*
D10*
%TO.C,R3*%
X152000000Y-85912500D03*
X152000000Y-84087500D03*
%TD*%
D11*
%TO.C,H1*%
X177000000Y-95000000D03*
%TD*%
D12*
%TO.C,R6*%
X178000000Y-86087500D03*
X178000000Y-87912500D03*
%TD*%
D13*
%TO.C,U7*%
X144100000Y-84000000D03*
X144100000Y-88000000D03*
X145900000Y-88000000D03*
X145900000Y-84000000D03*
%TD*%
D14*
%TO.C,R5*%
X163000000Y-93000000D03*
X161175000Y-93000000D03*
%TD*%
D10*
%TO.C,R1*%
X112000000Y-85912500D03*
X112000000Y-84087500D03*
%TD*%
D13*
%TO.C,U3*%
X124100000Y-84000000D03*
X124100000Y-88000000D03*
X125900000Y-88000000D03*
X125900000Y-84000000D03*
%TD*%
D11*
%TO.C,H2*%
X103000000Y-95000000D03*
%TD*%
D13*
%TO.C,U2*%
X114200000Y-84000000D03*
X114200000Y-88000000D03*
X116000000Y-88000000D03*
X116000000Y-84000000D03*
%TD*%
D15*
%TO.C,C1*%
X154000000Y-96000000D03*
X152100000Y-96000000D03*
%TD*%
D13*
%TO.C,U1*%
X104100000Y-84000000D03*
X104100000Y-88000000D03*
X105900000Y-88000000D03*
X105900000Y-84000000D03*
%TD*%
D15*
%TO.C,C2*%
X154000000Y-94000000D03*
X152100000Y-94000000D03*
%TD*%
D13*
%TO.C,U10*%
X174100000Y-84000000D03*
X174100000Y-88000000D03*
X175900000Y-88000000D03*
X175900000Y-84000000D03*
%TD*%
D10*
%TO.C,R4*%
X172000000Y-85825000D03*
X172000000Y-84000000D03*
%TD*%
D14*
%TO.C,R15*%
X166862500Y-94000000D03*
X165037500Y-94000000D03*
%TD*%
%TO.C,R14*%
X166912500Y-96000000D03*
X165087500Y-96000000D03*
%TD*%
D12*
%TO.C,R13*%
X118000000Y-86087500D03*
X118000000Y-87912500D03*
%TD*%
D16*
%TO.C,Q1*%
X161000000Y-95350000D03*
X161000000Y-96650000D03*
X163000000Y-96000000D03*
%TD*%
D10*
%TO.C,R2*%
X132000000Y-85825000D03*
X132000000Y-84000000D03*
%TD*%
D13*
%TO.C,U9*%
X164100000Y-84000000D03*
X164100000Y-88000000D03*
X165900000Y-88000000D03*
X165900000Y-84000000D03*
%TD*%
%TO.C,U8*%
X154100000Y-84000000D03*
X154100000Y-88000000D03*
X155900000Y-88000000D03*
X155900000Y-84000000D03*
%TD*%
D17*
%TO.C,J2*%
X131050000Y-94775000D03*
D18*
X131050000Y-92235000D03*
X133590000Y-94775000D03*
X133590000Y-92235000D03*
X136130000Y-94775000D03*
X136130000Y-92235000D03*
X138670000Y-94775000D03*
X138670000Y-92235000D03*
X141210000Y-94775000D03*
X141210000Y-92235000D03*
X143750000Y-94775000D03*
X143750000Y-92235000D03*
X146290000Y-94775000D03*
X146290000Y-92235000D03*
X148830000Y-94775000D03*
X148830000Y-92235000D03*
%TD*%
D12*
%TO.C,R8*%
X148000000Y-86087500D03*
X148000000Y-87912500D03*
%TD*%
%TO.C,R12*%
X108000000Y-86087500D03*
X108000000Y-87912500D03*
%TD*%
%TO.C,R9*%
X158000000Y-86087500D03*
X158000000Y-87912500D03*
%TD*%
%TO.C,R7*%
X168000000Y-86087500D03*
X168000000Y-87912500D03*
%TD*%
D13*
%TO.C,U6*%
X134200000Y-84000000D03*
X134200000Y-88000000D03*
X136000000Y-88000000D03*
X136000000Y-84000000D03*
%TD*%
D12*
%TO.C,R10*%
X128000000Y-86175000D03*
X128000000Y-88000000D03*
%TD*%
%TO.C,R11*%
X138000000Y-86087500D03*
X138000000Y-87912500D03*
%TD*%
M02*
