%TF.GenerationSoftware,KiCad,Pcbnew,8.0.7*%
%TF.CreationDate,2025-03-24T20:12:37+10:00*%
%TF.ProjectId,Sensor_array,53656e73-6f72-45f6-9172-7261792e6b69,rev?*%
%TF.SameCoordinates,Original*%
%TF.FileFunction,Copper,L1,Top*%
%TF.FilePolarity,Positive*%
%FSLAX46Y46*%
G04 Gerber Fmt 4.6, Leading zero omitted, Abs format (unit mm)*
G04 Created by KiCad (PCBNEW 8.0.7) date 2025-03-24 20:12:37*
%MOMM*%
%LPD*%
G01*
G04 APERTURE LIST*
G04 Aperture macros list*
%AMRoundRect*
0 Rectangle with rounded corners*
0 $1 Rounding radius*
0 $2 $3 $4 $5 $6 $7 $8 $9 X,Y pos of 4 corners*
0 Add a 4 corners polygon primitive as box body*
4,1,4,$2,$3,$4,$5,$6,$7,$8,$9,$2,$3,0*
0 Add four circle primitives for the rounded corners*
1,1,$1+$1,$2,$3*
1,1,$1+$1,$4,$5*
1,1,$1+$1,$6,$7*
1,1,$1+$1,$8,$9*
0 Add four rect primitives between the rounded corners*
20,1,$1+$1,$2,$3,$4,$5,0*
20,1,$1+$1,$4,$5,$6,$7,0*
20,1,$1+$1,$6,$7,$8,$9,0*
20,1,$1+$1,$8,$9,$2,$3,0*%
G04 Aperture macros list end*
%TA.AperFunction,SMDPad,CuDef*%
%ADD10RoundRect,0.250000X0.450000X-0.262500X0.450000X0.262500X-0.450000X0.262500X-0.450000X-0.262500X0*%
%TD*%
%TA.AperFunction,SMDPad,CuDef*%
%ADD11RoundRect,0.250000X-0.450000X0.262500X-0.450000X-0.262500X0.450000X-0.262500X0.450000X0.262500X0*%
%TD*%
%TA.AperFunction,SMDPad,CuDef*%
%ADD12RoundRect,0.197500X-0.197500X-0.632500X0.197500X-0.632500X0.197500X0.632500X-0.197500X0.632500X0*%
%TD*%
%TA.AperFunction,SMDPad,CuDef*%
%ADD13RoundRect,0.250000X0.262500X0.450000X-0.262500X0.450000X-0.262500X-0.450000X0.262500X-0.450000X0*%
%TD*%
%TA.AperFunction,SMDPad,CuDef*%
%ADD14RoundRect,0.250000X0.250000X0.475000X-0.250000X0.475000X-0.250000X-0.475000X0.250000X-0.475000X0*%
%TD*%
%TA.AperFunction,SMDPad,CuDef*%
%ADD15RoundRect,0.112500X-0.237500X0.112500X-0.237500X-0.112500X0.237500X-0.112500X0.237500X0.112500X0*%
%TD*%
%TA.AperFunction,ComponentPad*%
%ADD16R,1.700000X1.700000*%
%TD*%
%TA.AperFunction,ComponentPad*%
%ADD17O,1.700000X1.700000*%
%TD*%
%TA.AperFunction,ViaPad*%
%ADD18C,0.600000*%
%TD*%
%TA.AperFunction,Conductor*%
%ADD19C,0.300000*%
%TD*%
G04 APERTURE END LIST*
D10*
%TO.P,R3,1*%
%TO.N,Net-(U7-K)*%
X152000000Y-85912500D03*
%TO.P,R3,2*%
%TO.N,Net-(U8-A)*%
X152000000Y-84087500D03*
%TD*%
D11*
%TO.P,R6,1*%
%TO.N,VCC*%
X178000000Y-86087500D03*
%TO.P,R6,2*%
%TO.N,/S8*%
X178000000Y-87912500D03*
%TD*%
D12*
%TO.P,U7,1,A*%
%TO.N,VCC*%
X144100000Y-84000000D03*
%TO.P,U7,2,K*%
%TO.N,Net-(U7-K)*%
X144100000Y-88000000D03*
%TO.P,U7,3*%
%TO.N,/S5*%
X145900000Y-88000000D03*
%TO.P,U7,4*%
%TO.N,GND*%
X145900000Y-84000000D03*
%TD*%
D13*
%TO.P,R5,1*%
%TO.N,VCC*%
X163000000Y-93000000D03*
%TO.P,R5,2*%
%TO.N,/SENSOR_LED*%
X161175000Y-93000000D03*
%TD*%
D10*
%TO.P,R1,1*%
%TO.N,Net-(U1-K)*%
X112000000Y-85912500D03*
%TO.P,R1,2*%
%TO.N,Net-(U2-A)*%
X112000000Y-84087500D03*
%TD*%
D12*
%TO.P,U3,1,A*%
%TO.N,VCC*%
X124100000Y-84000000D03*
%TO.P,U3,2,K*%
%TO.N,Net-(U3-K)*%
X124100000Y-88000000D03*
%TO.P,U3,3*%
%TO.N,/S3*%
X125900000Y-88000000D03*
%TO.P,U3,4*%
%TO.N,GND*%
X125900000Y-84000000D03*
%TD*%
%TO.P,U2,1,A*%
%TO.N,Net-(U2-A)*%
X114200000Y-84000000D03*
%TO.P,U2,2,K*%
%TO.N,Net-(U10-K)*%
X114200000Y-88000000D03*
%TO.P,U2,3*%
%TO.N,/S2*%
X116000000Y-88000000D03*
%TO.P,U2,4*%
%TO.N,GND*%
X116000000Y-84000000D03*
%TD*%
D14*
%TO.P,C1,1*%
%TO.N,GND*%
X154000000Y-96000000D03*
%TO.P,C1,2*%
%TO.N,VCC*%
X152100000Y-96000000D03*
%TD*%
D12*
%TO.P,U1,1,A*%
%TO.N,VCC*%
X104100000Y-84000000D03*
%TO.P,U1,2,K*%
%TO.N,Net-(U1-K)*%
X104100000Y-88000000D03*
%TO.P,U1,3*%
%TO.N,/S1*%
X105900000Y-88000000D03*
%TO.P,U1,4*%
%TO.N,GND*%
X105900000Y-84000000D03*
%TD*%
D14*
%TO.P,C2,1*%
%TO.N,GND*%
X154000000Y-94000000D03*
%TO.P,C2,2*%
%TO.N,VCC*%
X152100000Y-94000000D03*
%TD*%
D12*
%TO.P,U10,1,A*%
%TO.N,Net-(U10-A)*%
X174100000Y-84000000D03*
%TO.P,U10,2,K*%
%TO.N,Net-(U10-K)*%
X174100000Y-88000000D03*
%TO.P,U10,3*%
%TO.N,/S8*%
X175900000Y-88000000D03*
%TO.P,U10,4*%
%TO.N,GND*%
X175900000Y-84000000D03*
%TD*%
D10*
%TO.P,R4,1*%
%TO.N,Net-(U9-K)*%
X172000000Y-85825000D03*
%TO.P,R4,2*%
%TO.N,Net-(U10-A)*%
X172000000Y-84000000D03*
%TD*%
D13*
%TO.P,R15,1*%
%TO.N,Net-(U10-K)*%
X166862500Y-94000000D03*
%TO.P,R15,2*%
%TO.N,Net-(Q1-D)*%
X165037500Y-94000000D03*
%TD*%
%TO.P,R14,1*%
%TO.N,Net-(U10-K)*%
X166912500Y-96000000D03*
%TO.P,R14,2*%
%TO.N,Net-(Q1-D)*%
X165087500Y-96000000D03*
%TD*%
D11*
%TO.P,R13,1*%
%TO.N,VCC*%
X118000000Y-86087500D03*
%TO.P,R13,2*%
%TO.N,/S2*%
X118000000Y-87912500D03*
%TD*%
D15*
%TO.P,Q1,1,G*%
%TO.N,/SENSOR_LED*%
X161000000Y-95350000D03*
%TO.P,Q1,2,S*%
%TO.N,GND*%
X161000000Y-96650000D03*
%TO.P,Q1,3,D*%
%TO.N,Net-(Q1-D)*%
X163000000Y-96000000D03*
%TD*%
D10*
%TO.P,R2,1*%
%TO.N,Net-(U3-K)*%
X132000000Y-85825000D03*
%TO.P,R2,2*%
%TO.N,Net-(U6-A)*%
X132000000Y-84000000D03*
%TD*%
D12*
%TO.P,U9,1,A*%
%TO.N,VCC*%
X164100000Y-84000000D03*
%TO.P,U9,2,K*%
%TO.N,Net-(U9-K)*%
X164100000Y-88000000D03*
%TO.P,U9,3*%
%TO.N,/S7*%
X165900000Y-88000000D03*
%TO.P,U9,4*%
%TO.N,GND*%
X165900000Y-84000000D03*
%TD*%
%TO.P,U8,1,A*%
%TO.N,Net-(U8-A)*%
X154100000Y-84000000D03*
%TO.P,U8,2,K*%
%TO.N,Net-(U10-K)*%
X154100000Y-88000000D03*
%TO.P,U8,3*%
%TO.N,/S6*%
X155900000Y-88000000D03*
%TO.P,U8,4*%
%TO.N,GND*%
X155900000Y-84000000D03*
%TD*%
D16*
%TO.P,J2,1,Pin_1*%
%TO.N,GND*%
X131050000Y-94775000D03*
D17*
%TO.P,J2,2,Pin_2*%
%TO.N,/S1*%
X131050000Y-92235000D03*
%TO.P,J2,3,Pin_3*%
%TO.N,GND*%
X133590000Y-94775000D03*
%TO.P,J2,4,Pin_4*%
%TO.N,/S2*%
X133590000Y-92235000D03*
%TO.P,J2,5,Pin_5*%
%TO.N,GND*%
X136130000Y-94775000D03*
%TO.P,J2,6,Pin_6*%
%TO.N,/S3*%
X136130000Y-92235000D03*
%TO.P,J2,7,Pin_7*%
%TO.N,GND*%
X138670000Y-94775000D03*
%TO.P,J2,8,Pin_8*%
%TO.N,/S4*%
X138670000Y-92235000D03*
%TO.P,J2,9,Pin_9*%
%TO.N,GND*%
X141210000Y-94775000D03*
%TO.P,J2,10,Pin_10*%
%TO.N,/S5*%
X141210000Y-92235000D03*
%TO.P,J2,11,Pin_11*%
%TO.N,GND*%
X143750000Y-94775000D03*
%TO.P,J2,12,Pin_12*%
%TO.N,/S6*%
X143750000Y-92235000D03*
%TO.P,J2,13,Pin_13*%
%TO.N,VCC*%
X146290000Y-94775000D03*
%TO.P,J2,14,Pin_14*%
%TO.N,/S7*%
X146290000Y-92235000D03*
%TO.P,J2,15,Pin_15*%
%TO.N,/SENSOR_LED*%
X148830000Y-94775000D03*
%TO.P,J2,16,Pin_16*%
%TO.N,/S8*%
X148830000Y-92235000D03*
%TD*%
D11*
%TO.P,R8,1*%
%TO.N,VCC*%
X148000000Y-86087500D03*
%TO.P,R8,2*%
%TO.N,/S5*%
X148000000Y-87912500D03*
%TD*%
%TO.P,R12,1*%
%TO.N,VCC*%
X108000000Y-86087500D03*
%TO.P,R12,2*%
%TO.N,/S1*%
X108000000Y-87912500D03*
%TD*%
%TO.P,R9,1*%
%TO.N,VCC*%
X158000000Y-86087500D03*
%TO.P,R9,2*%
%TO.N,/S6*%
X158000000Y-87912500D03*
%TD*%
%TO.P,R7,1*%
%TO.N,VCC*%
X168000000Y-86087500D03*
%TO.P,R7,2*%
%TO.N,/S7*%
X168000000Y-87912500D03*
%TD*%
D12*
%TO.P,U6,1,A*%
%TO.N,Net-(U6-A)*%
X134200000Y-84000000D03*
%TO.P,U6,2,K*%
%TO.N,Net-(U10-K)*%
X134200000Y-88000000D03*
%TO.P,U6,3*%
%TO.N,/S4*%
X136000000Y-88000000D03*
%TO.P,U6,4*%
%TO.N,GND*%
X136000000Y-84000000D03*
%TD*%
D11*
%TO.P,R10,1*%
%TO.N,VCC*%
X128000000Y-86175000D03*
%TO.P,R10,2*%
%TO.N,/S3*%
X128000000Y-88000000D03*
%TD*%
%TO.P,R11,1*%
%TO.N,VCC*%
X138000000Y-86087500D03*
%TO.P,R11,2*%
%TO.N,/S4*%
X138000000Y-87912500D03*
%TD*%
D18*
%TO.N,GND*%
X137000000Y-83500000D03*
X155000000Y-95000000D03*
X167000000Y-83500000D03*
X157000000Y-83500000D03*
X177000000Y-83500000D03*
X147000000Y-83500000D03*
X127000000Y-83500000D03*
X107000000Y-83500000D03*
X117000000Y-83500000D03*
X160000000Y-96000000D03*
%TO.N,Net-(U10-K)*%
X174000000Y-86500000D03*
X154000000Y-86500000D03*
X168000000Y-95000000D03*
X114000000Y-86500000D03*
X134000000Y-86500000D03*
%TD*%
D19*
%TO.N,GND*%
X157000000Y-83500000D02*
X156400000Y-83500000D01*
X176400000Y-83500000D02*
X175900000Y-84000000D01*
X117000000Y-83500000D02*
X116500000Y-83500000D01*
X166400000Y-83500000D02*
X165900000Y-84000000D01*
X116500000Y-83500000D02*
X116000000Y-84000000D01*
X127000000Y-83500000D02*
X126400000Y-83500000D01*
X136500000Y-83500000D02*
X136000000Y-84000000D01*
X107000000Y-83500000D02*
X106400000Y-83500000D01*
X167000000Y-83500000D02*
X166400000Y-83500000D01*
X160650000Y-96650000D02*
X161000000Y-96650000D01*
X154000000Y-94000000D02*
X154000000Y-96000000D01*
X156400000Y-83500000D02*
X155900000Y-84000000D01*
X137000000Y-83500000D02*
X136500000Y-83500000D01*
X146400000Y-83500000D02*
X145900000Y-84000000D01*
X106400000Y-83500000D02*
X105900000Y-84000000D01*
X177000000Y-83500000D02*
X176400000Y-83500000D01*
X155000000Y-95000000D02*
X154000000Y-96000000D01*
X126400000Y-83500000D02*
X125900000Y-84000000D01*
X147000000Y-83500000D02*
X146400000Y-83500000D01*
X160000000Y-96000000D02*
X160650000Y-96650000D01*
%TO.N,VCC*%
X142920000Y-82820000D02*
X144100000Y-84000000D01*
X158000000Y-86087500D02*
X158000000Y-83580761D01*
X108000000Y-86087500D02*
X108000000Y-83580761D01*
X104100000Y-84000000D02*
X103100000Y-83000000D01*
X128000000Y-86175000D02*
X128000000Y-83580761D01*
X168000000Y-83580761D02*
X168000000Y-86087500D01*
X138000000Y-86087500D02*
X138000000Y-83580761D01*
X103100000Y-83000000D02*
X102500000Y-83000000D01*
X164000000Y-92000000D02*
X164500000Y-92000000D01*
X152100000Y-94000000D02*
X152100000Y-96000000D01*
X118000000Y-86087500D02*
X118000000Y-83580761D01*
X148000000Y-86087500D02*
X148000000Y-83580761D01*
X163000000Y-93000000D02*
X164000000Y-92000000D01*
X146290000Y-94775000D02*
X147515000Y-96000000D01*
X122920000Y-82820000D02*
X124100000Y-84000000D01*
X147515000Y-96000000D02*
X152100000Y-96000000D01*
X162920000Y-82820000D02*
X164100000Y-84000000D01*
X178000000Y-86087500D02*
X178000000Y-85000000D01*
%TO.N,/S4*%
X138670000Y-89170000D02*
X138670000Y-92235000D01*
X138000000Y-87912500D02*
X138000000Y-88500000D01*
X137912500Y-88000000D02*
X138000000Y-87912500D01*
X136000000Y-88000000D02*
X137912500Y-88000000D01*
X138000000Y-88500000D02*
X138670000Y-89170000D01*
%TO.N,/S6*%
X157912500Y-88000000D02*
X158000000Y-87912500D01*
X155900000Y-88000000D02*
X157912500Y-88000000D01*
X146805000Y-89180000D02*
X143750000Y-92235000D01*
X155900000Y-88000000D02*
X154720000Y-89180000D01*
X154720000Y-89180000D02*
X146805000Y-89180000D01*
%TO.N,/SENSOR_LED*%
X160500000Y-91500000D02*
X161175000Y-92175000D01*
X148830000Y-94775000D02*
X152105000Y-91500000D01*
X161175000Y-92175000D02*
X161175000Y-93000000D01*
X152105000Y-91500000D02*
X160500000Y-91500000D01*
X161175000Y-95175000D02*
X161000000Y-95350000D01*
X161175000Y-93000000D02*
X161175000Y-95175000D01*
%TO.N,/S3*%
X128500000Y-88500000D02*
X132395000Y-88500000D01*
X132395000Y-88500000D02*
X136130000Y-92235000D01*
X125900000Y-88000000D02*
X128000000Y-88000000D01*
X128000000Y-88000000D02*
X128500000Y-88500000D01*
%TO.N,/S7*%
X165900000Y-88000000D02*
X167912500Y-88000000D01*
X163900000Y-90000000D02*
X148500000Y-90000000D01*
X167912500Y-88000000D02*
X168000000Y-87912500D01*
X148500000Y-90025000D02*
X146290000Y-92235000D01*
X148500000Y-90000000D02*
X148500000Y-90025000D01*
X165900000Y-88000000D02*
X163900000Y-90000000D01*
%TO.N,/S8*%
X175900000Y-88000000D02*
X172975000Y-90925000D01*
X150140000Y-90925000D02*
X148830000Y-92235000D01*
X175900000Y-88000000D02*
X177912500Y-88000000D01*
X172975000Y-90925000D02*
X150140000Y-90925000D01*
X177912500Y-88000000D02*
X178000000Y-87912500D01*
%TO.N,/S2*%
X132390000Y-91035000D02*
X133590000Y-92235000D01*
X117912500Y-88000000D02*
X118000000Y-87912500D01*
X116000000Y-88000000D02*
X117912500Y-88000000D01*
X121122500Y-91035000D02*
X132390000Y-91035000D01*
X118000000Y-87912500D02*
X121122500Y-91035000D01*
%TO.N,/S1*%
X105900000Y-88000000D02*
X107912500Y-88000000D01*
X107912500Y-88000000D02*
X108000000Y-87912500D01*
X108000000Y-87912500D02*
X112322500Y-92235000D01*
X112322500Y-92235000D02*
X131050000Y-92235000D01*
%TO.N,/S5*%
X147912500Y-88000000D02*
X148000000Y-87912500D01*
X145900000Y-88000000D02*
X147912500Y-88000000D01*
X141665000Y-92235000D02*
X141210000Y-92235000D01*
X145900000Y-88000000D02*
X141665000Y-92235000D01*
%TO.N,Net-(Q1-D)*%
X165037500Y-94000000D02*
X165037500Y-95950000D01*
X165037500Y-95950000D02*
X165087500Y-96000000D01*
X163000000Y-96000000D02*
X165087500Y-96000000D01*
%TO.N,Net-(U2-A)*%
X114112500Y-84087500D02*
X114200000Y-84000000D01*
X112000000Y-84087500D02*
X114112500Y-84087500D01*
%TO.N,Net-(U1-K)*%
X106820000Y-86820000D02*
X106950000Y-86950000D01*
X110962500Y-86950000D02*
X112000000Y-85912500D01*
X105280000Y-86820000D02*
X106820000Y-86820000D01*
X106950000Y-86950000D02*
X110962500Y-86950000D01*
X104100000Y-88000000D02*
X105280000Y-86820000D01*
%TO.N,Net-(U8-A)*%
X154012500Y-84087500D02*
X154100000Y-84000000D01*
X152000000Y-84087500D02*
X154012500Y-84087500D01*
%TO.N,Net-(U6-A)*%
X132000000Y-84000000D02*
X134200000Y-84000000D01*
%TO.N,Net-(U3-K)*%
X125600000Y-86500000D02*
X126757044Y-86500000D01*
X127294544Y-87037500D02*
X130787500Y-87037500D01*
X130787500Y-87037500D02*
X132000000Y-85825000D01*
X126757044Y-86500000D02*
X127294544Y-87037500D01*
X124100000Y-88000000D02*
X125600000Y-86500000D01*
%TO.N,Net-(U7-K)*%
X144100000Y-88000000D02*
X145280000Y-86820000D01*
X150962500Y-86950000D02*
X152000000Y-85912500D01*
X145280000Y-86820000D02*
X147164544Y-86820000D01*
X147164544Y-86820000D02*
X147294544Y-86950000D01*
X147294544Y-86950000D02*
X150962500Y-86950000D01*
%TO.N,Net-(U10-A)*%
X172000000Y-84000000D02*
X174100000Y-84000000D01*
%TO.N,Net-(U9-K)*%
X165280000Y-86820000D02*
X167164544Y-86820000D01*
X164100000Y-88000000D02*
X165280000Y-86820000D01*
X167164544Y-86820000D02*
X167294544Y-86950000D01*
X170875000Y-86950000D02*
X172000000Y-85825000D01*
X167294544Y-86950000D02*
X170875000Y-86950000D01*
%TO.N,Net-(U10-K)*%
X134200000Y-86700000D02*
X134000000Y-86500000D01*
X154000000Y-87900000D02*
X154100000Y-88000000D01*
X166862500Y-94000000D02*
X167000000Y-94000000D01*
X166912500Y-96000000D02*
X166912500Y-94050000D01*
X134200000Y-88000000D02*
X134200000Y-86700000D01*
X174000000Y-87900000D02*
X174100000Y-88000000D01*
X167000000Y-94000000D02*
X168000000Y-95000000D01*
X154000000Y-86500000D02*
X154000000Y-87900000D01*
X114200000Y-88000000D02*
X114200000Y-86700000D01*
X114200000Y-88000000D02*
X114200000Y-87219239D01*
X174000000Y-86500000D02*
X174000000Y-87900000D01*
X166912500Y-94050000D02*
X166862500Y-94000000D01*
X114200000Y-86700000D02*
X114000000Y-86500000D01*
%TD*%
%TA.AperFunction,Conductor*%
%TO.N,VCC*%
G36*
X179442539Y-82020185D02*
G01*
X179488294Y-82072989D01*
X179499500Y-82124500D01*
X179499500Y-97375500D01*
X179479815Y-97442539D01*
X179427011Y-97488294D01*
X179375500Y-97499500D01*
X161648793Y-97499500D01*
X161581754Y-97479815D01*
X161535999Y-97427011D01*
X161526055Y-97357853D01*
X161555080Y-97294297D01*
X161585672Y-97268768D01*
X161616198Y-97250715D01*
X161725715Y-97141198D01*
X161804555Y-97007887D01*
X161847765Y-96859156D01*
X161850500Y-96824405D01*
X161850499Y-96475596D01*
X161847765Y-96440844D01*
X161804555Y-96292113D01*
X161725715Y-96158802D01*
X161725713Y-96158800D01*
X161725710Y-96158796D01*
X161654595Y-96087681D01*
X161621110Y-96026358D01*
X161626094Y-95956666D01*
X161654595Y-95912319D01*
X161725710Y-95841203D01*
X161725715Y-95841198D01*
X161804555Y-95707887D01*
X161847765Y-95559156D01*
X161850500Y-95524405D01*
X161850499Y-95175596D01*
X161847765Y-95140844D01*
X161838520Y-95109023D01*
X161830423Y-95081150D01*
X161825500Y-95046557D01*
X161825500Y-94161667D01*
X161845185Y-94094628D01*
X161884405Y-94056127D01*
X161906156Y-94042712D01*
X162000175Y-93948692D01*
X162061494Y-93915210D01*
X162131186Y-93920194D01*
X162175534Y-93948695D01*
X162269154Y-94042315D01*
X162418375Y-94134356D01*
X162418380Y-94134358D01*
X162584802Y-94189505D01*
X162584809Y-94189506D01*
X162687519Y-94199999D01*
X163312471Y-94199999D01*
X163312487Y-94199998D01*
X163415197Y-94189505D01*
X163581619Y-94134358D01*
X163581624Y-94134356D01*
X163730842Y-94042317D01*
X163812818Y-93960341D01*
X163874141Y-93926856D01*
X163943833Y-93931840D01*
X163999767Y-93973711D01*
X164024184Y-94039175D01*
X164024500Y-94048022D01*
X164024500Y-94500001D01*
X164024501Y-94500019D01*
X164035000Y-94602796D01*
X164035001Y-94602799D01*
X164090185Y-94769331D01*
X164090187Y-94769336D01*
X164182289Y-94918657D01*
X164205948Y-94942316D01*
X164239433Y-95003639D01*
X164234449Y-95073331D01*
X164223806Y-95095093D01*
X164140190Y-95230659D01*
X164140184Y-95230671D01*
X164128972Y-95264506D01*
X164089199Y-95321950D01*
X164024683Y-95348772D01*
X164011267Y-95349500D01*
X163565938Y-95349500D01*
X163502818Y-95332232D01*
X163482887Y-95320445D01*
X163334156Y-95277235D01*
X163334153Y-95277234D01*
X163334151Y-95277234D01*
X163303395Y-95274814D01*
X163299405Y-95274500D01*
X163299404Y-95274500D01*
X162700606Y-95274500D01*
X162700584Y-95274501D01*
X162665847Y-95277234D01*
X162665844Y-95277235D01*
X162517113Y-95320445D01*
X162517111Y-95320445D01*
X162517111Y-95320446D01*
X162383805Y-95399282D01*
X162383796Y-95399289D01*
X162274289Y-95508796D01*
X162274282Y-95508805D01*
X162202718Y-95629815D01*
X162195445Y-95642113D01*
X162186508Y-95672876D01*
X162152234Y-95790847D01*
X162152234Y-95790849D01*
X162149500Y-95825589D01*
X162149500Y-96174393D01*
X162149501Y-96174415D01*
X162152234Y-96209152D01*
X162152234Y-96209155D01*
X162152235Y-96209156D01*
X162195445Y-96357887D01*
X162195446Y-96357888D01*
X162274282Y-96491194D01*
X162274289Y-96491203D01*
X162383796Y-96600710D01*
X162383800Y-96600713D01*
X162383802Y-96600715D01*
X162517113Y-96679555D01*
X162665844Y-96722765D01*
X162700595Y-96725500D01*
X163299404Y-96725499D01*
X163334156Y-96722765D01*
X163482887Y-96679555D01*
X163502818Y-96667767D01*
X163565938Y-96650500D01*
X164011267Y-96650500D01*
X164078306Y-96670185D01*
X164124061Y-96722989D01*
X164128972Y-96735494D01*
X164140184Y-96769328D01*
X164140187Y-96769336D01*
X164155604Y-96794331D01*
X164232288Y-96918656D01*
X164356344Y-97042712D01*
X164505666Y-97134814D01*
X164672203Y-97189999D01*
X164774991Y-97200500D01*
X165400008Y-97200499D01*
X165400016Y-97200498D01*
X165400019Y-97200498D01*
X165456302Y-97194748D01*
X165502797Y-97189999D01*
X165669334Y-97134814D01*
X165818656Y-97042712D01*
X165912319Y-96949049D01*
X165973642Y-96915564D01*
X166043334Y-96920548D01*
X166087681Y-96949049D01*
X166181344Y-97042712D01*
X166330666Y-97134814D01*
X166497203Y-97189999D01*
X166599991Y-97200500D01*
X167225008Y-97200499D01*
X167225016Y-97200498D01*
X167225019Y-97200498D01*
X167281302Y-97194748D01*
X167327797Y-97189999D01*
X167494334Y-97134814D01*
X167643656Y-97042712D01*
X167767712Y-96918656D01*
X167859814Y-96769334D01*
X167914999Y-96602797D01*
X167925500Y-96500009D01*
X167925499Y-95924771D01*
X167945183Y-95857733D01*
X167997987Y-95811978D01*
X168035615Y-95801552D01*
X168063456Y-95798415D01*
X168179249Y-95785369D01*
X168179252Y-95785368D01*
X168179255Y-95785368D01*
X168349522Y-95725789D01*
X168502262Y-95629816D01*
X168629816Y-95502262D01*
X168725789Y-95349522D01*
X168785368Y-95179255D01*
X168785779Y-95175606D01*
X168805565Y-95000003D01*
X168805565Y-94999996D01*
X168793590Y-94893713D01*
X175649500Y-94893713D01*
X175649500Y-95106287D01*
X175659260Y-95167909D01*
X175676575Y-95277235D01*
X175682754Y-95316243D01*
X175745321Y-95508805D01*
X175748444Y-95518414D01*
X175844951Y-95707820D01*
X175969890Y-95879786D01*
X176120213Y-96030109D01*
X176292179Y-96155048D01*
X176292181Y-96155049D01*
X176292184Y-96155051D01*
X176481588Y-96251557D01*
X176683757Y-96317246D01*
X176893713Y-96350500D01*
X176893714Y-96350500D01*
X177106286Y-96350500D01*
X177106287Y-96350500D01*
X177316243Y-96317246D01*
X177518412Y-96251557D01*
X177707816Y-96155051D01*
X177800544Y-96087681D01*
X177879786Y-96030109D01*
X177879788Y-96030106D01*
X177879792Y-96030104D01*
X178030104Y-95879792D01*
X178030106Y-95879788D01*
X178030109Y-95879786D01*
X178155048Y-95707820D01*
X178155047Y-95707820D01*
X178155051Y-95707816D01*
X178251557Y-95518412D01*
X178317246Y-95316243D01*
X178350500Y-95106287D01*
X178350500Y-94893713D01*
X178317246Y-94683757D01*
X178251557Y-94481588D01*
X178155051Y-94292184D01*
X178155049Y-94292181D01*
X178155048Y-94292179D01*
X178030109Y-94120213D01*
X177879786Y-93969890D01*
X177707820Y-93844951D01*
X177518414Y-93748444D01*
X177518413Y-93748443D01*
X177518412Y-93748443D01*
X177316243Y-93682754D01*
X177316241Y-93682753D01*
X177316240Y-93682753D01*
X177154957Y-93657208D01*
X177106287Y-93649500D01*
X176893713Y-93649500D01*
X176845042Y-93657208D01*
X176683760Y-93682753D01*
X176481585Y-93748444D01*
X176292179Y-93844951D01*
X176120213Y-93969890D01*
X175969890Y-94120213D01*
X175844951Y-94292179D01*
X175748444Y-94481585D01*
X175682753Y-94683760D01*
X175668302Y-94775000D01*
X175649500Y-94893713D01*
X168793590Y-94893713D01*
X168785369Y-94820750D01*
X168785368Y-94820745D01*
X168767379Y-94769336D01*
X168725789Y-94650478D01*
X168691148Y-94595348D01*
X168656117Y-94539596D01*
X168629816Y-94497738D01*
X168502262Y-94370184D01*
X168378118Y-94292179D01*
X168349521Y-94274210D01*
X168179255Y-94214632D01*
X168179246Y-94214630D01*
X168172012Y-94213815D01*
X168107600Y-94186744D01*
X168098223Y-94178277D01*
X167911818Y-93991872D01*
X167878333Y-93930549D01*
X167875499Y-93904191D01*
X167875499Y-93499998D01*
X167875498Y-93499981D01*
X167864999Y-93397203D01*
X167864998Y-93397200D01*
X167809814Y-93230666D01*
X167717712Y-93081344D01*
X167593656Y-92957288D01*
X167500888Y-92900069D01*
X167444336Y-92865187D01*
X167444331Y-92865185D01*
X167442862Y-92864698D01*
X167277797Y-92810001D01*
X167277795Y-92810000D01*
X167175010Y-92799500D01*
X166549998Y-92799500D01*
X166549980Y-92799501D01*
X166447203Y-92810000D01*
X166447200Y-92810001D01*
X166280668Y-92865185D01*
X166280663Y-92865187D01*
X166131342Y-92957289D01*
X166037681Y-93050951D01*
X165976358Y-93084436D01*
X165906666Y-93079452D01*
X165862319Y-93050951D01*
X165768657Y-92957289D01*
X165768656Y-92957288D01*
X165675888Y-92900069D01*
X165619336Y-92865187D01*
X165619331Y-92865185D01*
X165617862Y-92864698D01*
X165452797Y-92810001D01*
X165452795Y-92810000D01*
X165350010Y-92799500D01*
X164724998Y-92799500D01*
X164724980Y-92799501D01*
X164622203Y-92810000D01*
X164622200Y-92810001D01*
X164455668Y-92865185D01*
X164455663Y-92865187D01*
X164306345Y-92957287D01*
X164224180Y-93039452D01*
X164162856Y-93072936D01*
X164093165Y-93067952D01*
X164037231Y-93026080D01*
X164012815Y-92960615D01*
X164012499Y-92951770D01*
X164012499Y-92500028D01*
X164012498Y-92500012D01*
X164002005Y-92397302D01*
X163946858Y-92230880D01*
X163946856Y-92230875D01*
X163854815Y-92081654D01*
X163730845Y-91957684D01*
X163581624Y-91865643D01*
X163581619Y-91865641D01*
X163435450Y-91817206D01*
X163378005Y-91777434D01*
X163351182Y-91712918D01*
X163363497Y-91644142D01*
X163411040Y-91592942D01*
X163474454Y-91575500D01*
X173039071Y-91575500D01*
X173123615Y-91558682D01*
X173164744Y-91550501D01*
X173283127Y-91501465D01*
X173389669Y-91430277D01*
X175462230Y-89357714D01*
X175523551Y-89324231D01*
X175569195Y-89323823D01*
X175569223Y-89323516D01*
X175572304Y-89323796D01*
X175574103Y-89323780D01*
X175575749Y-89324107D01*
X175575758Y-89324110D01*
X175646079Y-89330500D01*
X176153920Y-89330499D01*
X176153927Y-89330499D01*
X176224235Y-89324111D01*
X176224236Y-89324110D01*
X176224242Y-89324110D01*
X176386072Y-89273681D01*
X176531132Y-89185990D01*
X176650990Y-89066132D01*
X176738681Y-88921072D01*
X176789110Y-88759242D01*
X176789111Y-88759230D01*
X176790389Y-88752809D01*
X176792697Y-88753268D01*
X176814414Y-88698295D01*
X176871142Y-88657507D01*
X176912234Y-88650500D01*
X176912770Y-88650500D01*
X176979809Y-88670185D01*
X177000451Y-88686819D01*
X177081344Y-88767712D01*
X177230666Y-88859814D01*
X177397203Y-88914999D01*
X177499991Y-88925500D01*
X178500008Y-88925499D01*
X178500016Y-88925498D01*
X178500019Y-88925498D01*
X178556302Y-88919748D01*
X178602797Y-88914999D01*
X178769334Y-88859814D01*
X178918656Y-88767712D01*
X179042712Y-88643656D01*
X179134814Y-88494334D01*
X179189999Y-88327797D01*
X179200500Y-88225009D01*
X179200499Y-87599992D01*
X179194654Y-87542777D01*
X179189999Y-87497203D01*
X179189998Y-87497200D01*
X179176104Y-87455272D01*
X179134814Y-87330666D01*
X179042712Y-87181344D01*
X178948695Y-87087327D01*
X178915210Y-87026004D01*
X178920194Y-86956312D01*
X178948695Y-86911964D01*
X179042317Y-86818342D01*
X179134356Y-86669124D01*
X179134358Y-86669119D01*
X179189505Y-86502697D01*
X179189506Y-86502690D01*
X179199999Y-86399986D01*
X179199999Y-85775028D01*
X179199998Y-85775012D01*
X179189505Y-85672302D01*
X179134358Y-85505880D01*
X179134356Y-85505875D01*
X179042315Y-85356654D01*
X178918345Y-85232684D01*
X178769124Y-85140643D01*
X178769119Y-85140641D01*
X178602697Y-85085494D01*
X178602690Y-85085493D01*
X178499980Y-85075000D01*
X177500028Y-85075000D01*
X177500012Y-85075001D01*
X177397302Y-85085494D01*
X177230880Y-85140641D01*
X177230875Y-85140643D01*
X177081654Y-85232684D01*
X176957684Y-85356654D01*
X176865643Y-85505875D01*
X176865641Y-85505880D01*
X176810494Y-85672302D01*
X176810493Y-85672309D01*
X176800000Y-85775013D01*
X176800000Y-86399971D01*
X176800001Y-86399987D01*
X176810494Y-86502697D01*
X176865641Y-86669119D01*
X176865643Y-86669124D01*
X176957684Y-86818345D01*
X177051304Y-86911965D01*
X177084789Y-86973288D01*
X177079805Y-87042980D01*
X177051304Y-87087327D01*
X176959992Y-87178639D01*
X176898669Y-87212124D01*
X176828977Y-87207140D01*
X176773044Y-87165268D01*
X176753926Y-87127849D01*
X176738682Y-87078931D01*
X176738680Y-87078926D01*
X176650992Y-86933871D01*
X176650989Y-86933867D01*
X176531132Y-86814010D01*
X176531128Y-86814007D01*
X176386073Y-86726319D01*
X176386068Y-86726317D01*
X176224246Y-86675891D01*
X176224238Y-86675889D01*
X176175003Y-86671415D01*
X176153921Y-86669500D01*
X176153918Y-86669500D01*
X175646071Y-86669500D01*
X175575764Y-86675888D01*
X175575757Y-86675890D01*
X175413934Y-86726316D01*
X175413926Y-86726319D01*
X175268871Y-86814007D01*
X175268867Y-86814010D01*
X175149010Y-86933867D01*
X175106117Y-87004822D01*
X175054589Y-87052009D01*
X174985730Y-87063848D01*
X174921401Y-87036579D01*
X174893883Y-87004822D01*
X174863205Y-86954074D01*
X174850990Y-86933868D01*
X174791472Y-86874350D01*
X174757987Y-86813027D01*
X174762111Y-86745717D01*
X174785368Y-86679255D01*
X174804409Y-86510259D01*
X174805565Y-86500003D01*
X174805565Y-86499996D01*
X174785369Y-86320750D01*
X174785368Y-86320745D01*
X174757218Y-86240297D01*
X174725789Y-86150478D01*
X174720381Y-86141872D01*
X174629815Y-85997737D01*
X174502262Y-85870184D01*
X174349523Y-85774211D01*
X174179254Y-85714631D01*
X174179249Y-85714630D01*
X174000004Y-85694435D01*
X173999996Y-85694435D01*
X173820750Y-85714630D01*
X173820745Y-85714631D01*
X173650476Y-85774211D01*
X173497739Y-85870183D01*
X173412180Y-85955742D01*
X173350856Y-85989226D01*
X173281165Y-85984242D01*
X173225231Y-85942370D01*
X173200815Y-85876905D01*
X173200499Y-85868075D01*
X173200499Y-85512492D01*
X173198937Y-85497204D01*
X173189999Y-85409703D01*
X173189998Y-85409700D01*
X173163809Y-85330668D01*
X173134814Y-85243166D01*
X173042712Y-85093844D01*
X172949049Y-85000181D01*
X172915564Y-84938858D01*
X172920548Y-84869166D01*
X172949046Y-84824821D01*
X173019222Y-84754645D01*
X173080541Y-84721163D01*
X173150233Y-84726147D01*
X173206167Y-84768018D01*
X173225285Y-84805438D01*
X173261317Y-84921067D01*
X173261319Y-84921073D01*
X173349007Y-85066128D01*
X173349010Y-85066132D01*
X173468867Y-85185989D01*
X173468871Y-85185992D01*
X173563449Y-85243166D01*
X173613928Y-85273681D01*
X173775758Y-85324110D01*
X173846079Y-85330500D01*
X174353920Y-85330499D01*
X174353927Y-85330499D01*
X174424235Y-85324111D01*
X174424236Y-85324110D01*
X174424242Y-85324110D01*
X174586072Y-85273681D01*
X174731132Y-85185990D01*
X174850990Y-85066132D01*
X174879261Y-85019364D01*
X174893883Y-84995178D01*
X174945410Y-84947990D01*
X175014270Y-84936151D01*
X175078598Y-84963419D01*
X175106117Y-84995178D01*
X175149007Y-85066128D01*
X175149010Y-85066132D01*
X175268867Y-85185989D01*
X175268871Y-85185992D01*
X175363449Y-85243166D01*
X175413928Y-85273681D01*
X175575758Y-85324110D01*
X175646079Y-85330500D01*
X176153920Y-85330499D01*
X176153927Y-85330499D01*
X176224235Y-85324111D01*
X176224236Y-85324110D01*
X176224242Y-85324110D01*
X176386072Y-85273681D01*
X176531132Y-85185990D01*
X176650990Y-85066132D01*
X176738681Y-84921072D01*
X176789110Y-84759242D01*
X176795500Y-84688921D01*
X176795499Y-84421277D01*
X176815183Y-84354240D01*
X176867987Y-84308485D01*
X176933382Y-84298059D01*
X176958520Y-84300891D01*
X176999998Y-84305565D01*
X177000000Y-84305565D01*
X177000004Y-84305565D01*
X177179249Y-84285369D01*
X177179252Y-84285368D01*
X177179255Y-84285368D01*
X177349522Y-84225789D01*
X177502262Y-84129816D01*
X177629816Y-84002262D01*
X177725789Y-83849522D01*
X177785368Y-83679255D01*
X177785369Y-83679249D01*
X177805565Y-83500003D01*
X177805565Y-83499996D01*
X177785369Y-83320750D01*
X177785368Y-83320745D01*
X177759630Y-83247191D01*
X177725789Y-83150478D01*
X177722214Y-83144789D01*
X177664342Y-83052686D01*
X177629816Y-82997738D01*
X177502262Y-82870184D01*
X177349523Y-82774211D01*
X177179254Y-82714631D01*
X177179249Y-82714630D01*
X177000004Y-82694435D01*
X176999996Y-82694435D01*
X176820750Y-82714630D01*
X176820737Y-82714633D01*
X176650478Y-82774210D01*
X176624386Y-82790604D01*
X176557149Y-82809602D01*
X176494269Y-82791725D01*
X176386074Y-82726320D01*
X176386068Y-82726317D01*
X176224246Y-82675891D01*
X176224238Y-82675889D01*
X176175003Y-82671415D01*
X176153921Y-82669500D01*
X176153918Y-82669500D01*
X175646071Y-82669500D01*
X175575764Y-82675888D01*
X175575757Y-82675890D01*
X175413934Y-82726316D01*
X175413926Y-82726319D01*
X175268871Y-82814007D01*
X175268867Y-82814010D01*
X175149010Y-82933867D01*
X175106117Y-83004822D01*
X175054589Y-83052009D01*
X174985730Y-83063848D01*
X174921401Y-83036579D01*
X174893883Y-83004822D01*
X174851179Y-82934181D01*
X174850990Y-82933868D01*
X174731132Y-82814010D01*
X174731128Y-82814007D01*
X174586073Y-82726319D01*
X174586068Y-82726317D01*
X174424246Y-82675891D01*
X174424238Y-82675889D01*
X174375003Y-82671415D01*
X174353921Y-82669500D01*
X174353918Y-82669500D01*
X173846071Y-82669500D01*
X173775764Y-82675888D01*
X173775757Y-82675890D01*
X173613934Y-82726316D01*
X173613926Y-82726319D01*
X173468871Y-82814007D01*
X173468867Y-82814010D01*
X173349010Y-82933867D01*
X173349007Y-82933871D01*
X173261319Y-83078926D01*
X173261317Y-83078932D01*
X173225285Y-83194561D01*
X173186547Y-83252709D01*
X173122522Y-83280682D01*
X173053536Y-83269600D01*
X173019219Y-83245351D01*
X172918657Y-83144789D01*
X172918656Y-83144788D01*
X172804700Y-83074500D01*
X172769336Y-83052687D01*
X172769331Y-83052685D01*
X172767291Y-83052009D01*
X172602797Y-82997501D01*
X172602795Y-82997500D01*
X172500010Y-82987000D01*
X171499998Y-82987000D01*
X171499980Y-82987001D01*
X171397203Y-82997500D01*
X171397200Y-82997501D01*
X171230668Y-83052685D01*
X171230663Y-83052687D01*
X171081342Y-83144789D01*
X170957289Y-83268842D01*
X170865187Y-83418163D01*
X170865186Y-83418166D01*
X170810001Y-83584703D01*
X170810001Y-83584704D01*
X170810000Y-83584704D01*
X170799500Y-83687483D01*
X170799500Y-84312501D01*
X170799501Y-84312519D01*
X170810000Y-84415296D01*
X170810001Y-84415299D01*
X170838996Y-84502799D01*
X170865186Y-84581834D01*
X170954198Y-84726147D01*
X170957289Y-84731157D01*
X171050951Y-84824819D01*
X171084436Y-84886142D01*
X171079452Y-84955834D01*
X171050951Y-85000181D01*
X170957289Y-85093842D01*
X170865187Y-85243163D01*
X170865185Y-85243168D01*
X170839665Y-85320184D01*
X170810001Y-85409703D01*
X170810001Y-85409704D01*
X170810000Y-85409704D01*
X170799500Y-85512483D01*
X170799500Y-86054191D01*
X170779815Y-86121230D01*
X170763185Y-86141867D01*
X170641871Y-86263182D01*
X170580551Y-86296666D01*
X170554192Y-86299500D01*
X169324000Y-86299500D01*
X169256961Y-86279815D01*
X169211206Y-86227011D01*
X169200000Y-86175500D01*
X169199999Y-85775028D01*
X169199998Y-85775012D01*
X169189505Y-85672302D01*
X169134358Y-85505880D01*
X169134356Y-85505875D01*
X169042315Y-85356654D01*
X168918345Y-85232684D01*
X168769124Y-85140643D01*
X168769119Y-85140641D01*
X168602697Y-85085494D01*
X168602690Y-85085493D01*
X168499980Y-85075000D01*
X167500028Y-85075000D01*
X167500012Y-85075001D01*
X167397302Y-85085494D01*
X167230880Y-85140641D01*
X167230875Y-85140643D01*
X167081654Y-85232684D01*
X166957684Y-85356654D01*
X166865643Y-85505875D01*
X166865641Y-85505880D01*
X166810494Y-85672302D01*
X166810493Y-85672309D01*
X166800000Y-85775013D01*
X166800000Y-85775026D01*
X166800001Y-86045500D01*
X166780317Y-86112539D01*
X166727513Y-86158294D01*
X166676001Y-86169500D01*
X165215929Y-86169500D01*
X165090261Y-86194497D01*
X165090255Y-86194499D01*
X164971874Y-86243534D01*
X164865331Y-86314723D01*
X164537769Y-86642284D01*
X164476446Y-86675768D01*
X164430804Y-86676176D01*
X164430777Y-86676484D01*
X164427695Y-86676203D01*
X164425900Y-86676220D01*
X164424243Y-86675890D01*
X164424242Y-86675890D01*
X164353921Y-86669500D01*
X164353918Y-86669500D01*
X163846071Y-86669500D01*
X163775764Y-86675888D01*
X163775757Y-86675890D01*
X163613934Y-86726316D01*
X163613926Y-86726319D01*
X163468871Y-86814007D01*
X163468867Y-86814010D01*
X163349010Y-86933867D01*
X163349007Y-86933871D01*
X163261319Y-87078926D01*
X163261317Y-87078931D01*
X163210891Y-87240753D01*
X163210889Y-87240761D01*
X163204500Y-87311081D01*
X163204500Y-88688928D01*
X163210888Y-88759235D01*
X163210890Y-88759242D01*
X163261316Y-88921065D01*
X163261319Y-88921073D01*
X163349007Y-89066128D01*
X163349010Y-89066132D01*
X163420697Y-89137819D01*
X163454182Y-89199142D01*
X163449198Y-89268834D01*
X163407326Y-89324767D01*
X163341862Y-89349184D01*
X163333016Y-89349500D01*
X156666984Y-89349500D01*
X156599945Y-89329815D01*
X156554190Y-89277011D01*
X156544246Y-89207853D01*
X156573271Y-89144297D01*
X156579303Y-89137819D01*
X156611194Y-89105928D01*
X156650990Y-89066132D01*
X156738681Y-88921072D01*
X156789110Y-88759242D01*
X156789111Y-88759230D01*
X156790389Y-88752809D01*
X156792697Y-88753268D01*
X156814414Y-88698295D01*
X156871142Y-88657507D01*
X156912234Y-88650500D01*
X156912770Y-88650500D01*
X156979809Y-88670185D01*
X157000451Y-88686819D01*
X157081344Y-88767712D01*
X157230666Y-88859814D01*
X157397203Y-88914999D01*
X157499991Y-88925500D01*
X158500008Y-88925499D01*
X158500016Y-88925498D01*
X158500019Y-88925498D01*
X158556302Y-88919748D01*
X158602797Y-88914999D01*
X158769334Y-88859814D01*
X158918656Y-88767712D01*
X159042712Y-88643656D01*
X159134814Y-88494334D01*
X159189999Y-88327797D01*
X159200500Y-88225009D01*
X159200499Y-87599992D01*
X159194654Y-87542777D01*
X159189999Y-87497203D01*
X159189998Y-87497200D01*
X159176104Y-87455272D01*
X159134814Y-87330666D01*
X159042712Y-87181344D01*
X158948695Y-87087327D01*
X158915210Y-87026004D01*
X158920194Y-86956312D01*
X158948695Y-86911964D01*
X159042317Y-86818342D01*
X159134356Y-86669124D01*
X159134358Y-86669119D01*
X159189505Y-86502697D01*
X159189506Y-86502690D01*
X159199999Y-86399986D01*
X159199999Y-85775028D01*
X159199998Y-85775012D01*
X159189505Y-85672302D01*
X159134358Y-85505880D01*
X159134356Y-85505875D01*
X159042315Y-85356654D01*
X158918345Y-85232684D01*
X158769124Y-85140643D01*
X158769119Y-85140641D01*
X158602697Y-85085494D01*
X158602690Y-85085493D01*
X158499980Y-85075000D01*
X157500028Y-85075000D01*
X157500012Y-85075001D01*
X157397302Y-85085494D01*
X157230880Y-85140641D01*
X157230875Y-85140643D01*
X157081654Y-85232684D01*
X156957684Y-85356654D01*
X156865643Y-85505875D01*
X156865641Y-85505880D01*
X156810494Y-85672302D01*
X156810493Y-85672309D01*
X156800000Y-85775013D01*
X156800000Y-86399971D01*
X156800001Y-86399987D01*
X156810494Y-86502697D01*
X156865641Y-86669119D01*
X156865643Y-86669124D01*
X156957684Y-86818345D01*
X157051304Y-86911965D01*
X157084789Y-86973288D01*
X157079805Y-87042980D01*
X157051304Y-87087327D01*
X156959992Y-87178639D01*
X156898669Y-87212124D01*
X156828977Y-87207140D01*
X156773044Y-87165268D01*
X156753926Y-87127849D01*
X156738682Y-87078931D01*
X156738680Y-87078926D01*
X156650992Y-86933871D01*
X156650989Y-86933867D01*
X156531132Y-86814010D01*
X156531128Y-86814007D01*
X156386073Y-86726319D01*
X156386068Y-86726317D01*
X156224246Y-86675891D01*
X156224238Y-86675889D01*
X156175003Y-86671415D01*
X156153921Y-86669500D01*
X156153918Y-86669500D01*
X155646071Y-86669500D01*
X155575764Y-86675888D01*
X155575757Y-86675890D01*
X155413934Y-86726316D01*
X155413926Y-86726319D01*
X155268871Y-86814007D01*
X155268867Y-86814010D01*
X155149010Y-86933867D01*
X155106117Y-87004822D01*
X155054589Y-87052009D01*
X154985730Y-87063848D01*
X154921401Y-87036579D01*
X154893883Y-87004822D01*
X154863205Y-86954074D01*
X154850990Y-86933868D01*
X154791472Y-86874350D01*
X154757987Y-86813027D01*
X154762111Y-86745717D01*
X154785368Y-86679255D01*
X154804409Y-86510259D01*
X154805565Y-86500003D01*
X154805565Y-86499996D01*
X154785369Y-86320750D01*
X154785368Y-86320745D01*
X154757218Y-86240297D01*
X154725789Y-86150478D01*
X154720381Y-86141872D01*
X154629815Y-85997737D01*
X154502262Y-85870184D01*
X154349523Y-85774211D01*
X154179254Y-85714631D01*
X154179249Y-85714630D01*
X154000004Y-85694435D01*
X153999996Y-85694435D01*
X153820750Y-85714630D01*
X153820745Y-85714631D01*
X153650476Y-85774211D01*
X153497739Y-85870183D01*
X153412180Y-85955742D01*
X153350856Y-85989226D01*
X153281165Y-85984242D01*
X153225231Y-85942370D01*
X153200815Y-85876905D01*
X153200499Y-85868060D01*
X153200499Y-85599998D01*
X153200498Y-85599980D01*
X153189999Y-85497203D01*
X153189998Y-85497200D01*
X153172420Y-85444154D01*
X153134814Y-85330666D01*
X153042712Y-85181344D01*
X152949049Y-85087681D01*
X152915564Y-85026358D01*
X152920548Y-84956666D01*
X152949046Y-84912321D01*
X153040010Y-84821357D01*
X153101329Y-84787875D01*
X153171021Y-84792859D01*
X153226955Y-84834730D01*
X153246073Y-84872149D01*
X153261318Y-84921069D01*
X153261319Y-84921073D01*
X153349007Y-85066128D01*
X153349010Y-85066132D01*
X153468867Y-85185989D01*
X153468871Y-85185992D01*
X153563449Y-85243166D01*
X153613928Y-85273681D01*
X153775758Y-85324110D01*
X153846079Y-85330500D01*
X154353920Y-85330499D01*
X154353927Y-85330499D01*
X154424235Y-85324111D01*
X154424236Y-85324110D01*
X154424242Y-85324110D01*
X154586072Y-85273681D01*
X154731132Y-85185990D01*
X154850990Y-85066132D01*
X154879261Y-85019364D01*
X154893883Y-84995178D01*
X154945410Y-84947990D01*
X155014270Y-84936151D01*
X155078598Y-84963419D01*
X155106117Y-84995178D01*
X155149007Y-85066128D01*
X155149010Y-85066132D01*
X155268867Y-85185989D01*
X155268871Y-85185992D01*
X155363449Y-85243166D01*
X155413928Y-85273681D01*
X155575758Y-85324110D01*
X155646079Y-85330500D01*
X156153920Y-85330499D01*
X156153927Y-85330499D01*
X156224235Y-85324111D01*
X156224236Y-85324110D01*
X156224242Y-85324110D01*
X156386072Y-85273681D01*
X156531132Y-85185990D01*
X156650990Y-85066132D01*
X156738681Y-84921072D01*
X156789110Y-84759242D01*
X156795500Y-84688921D01*
X156795499Y-84421277D01*
X156815183Y-84354240D01*
X156867987Y-84308485D01*
X156933382Y-84298059D01*
X156958520Y-84300891D01*
X156999998Y-84305565D01*
X157000000Y-84305565D01*
X157000004Y-84305565D01*
X157179249Y-84285369D01*
X157179252Y-84285368D01*
X157179255Y-84285368D01*
X157349522Y-84225789D01*
X157502262Y-84129816D01*
X157629816Y-84002262D01*
X157725789Y-83849522D01*
X157785368Y-83679255D01*
X157785369Y-83679249D01*
X157805565Y-83500003D01*
X157805565Y-83499996D01*
X157785369Y-83320750D01*
X157785368Y-83320745D01*
X157782002Y-83311126D01*
X163205000Y-83311126D01*
X163205000Y-84688873D01*
X163211386Y-84759152D01*
X163261776Y-84920862D01*
X163261778Y-84920866D01*
X163349404Y-85065818D01*
X163349407Y-85065822D01*
X163469177Y-85185592D01*
X163469181Y-85185595D01*
X163614133Y-85273221D01*
X163614137Y-85273223D01*
X163775848Y-85323613D01*
X163775846Y-85323613D01*
X163846127Y-85330000D01*
X164353873Y-85330000D01*
X164424152Y-85323613D01*
X164585862Y-85273223D01*
X164585866Y-85273221D01*
X164730818Y-85185595D01*
X164730822Y-85185592D01*
X164850593Y-85065821D01*
X164893589Y-84994695D01*
X164945116Y-84947506D01*
X165013975Y-84935667D01*
X165078304Y-84962934D01*
X165105824Y-84994693D01*
X165149010Y-85066132D01*
X165268867Y-85185989D01*
X165268871Y-85185992D01*
X165363449Y-85243166D01*
X165413928Y-85273681D01*
X165575758Y-85324110D01*
X165646079Y-85330500D01*
X166153920Y-85330499D01*
X166153927Y-85330499D01*
X166224235Y-85324111D01*
X166224236Y-85324110D01*
X166224242Y-85324110D01*
X166386072Y-85273681D01*
X166531132Y-85185990D01*
X166650990Y-85066132D01*
X166738681Y-84921072D01*
X166789110Y-84759242D01*
X166795500Y-84688921D01*
X166795499Y-84421277D01*
X166815183Y-84354240D01*
X166867987Y-84308485D01*
X166933382Y-84298059D01*
X166958520Y-84300891D01*
X166999998Y-84305565D01*
X167000000Y-84305565D01*
X167000004Y-84305565D01*
X167179249Y-84285369D01*
X167179252Y-84285368D01*
X167179255Y-84285368D01*
X167349522Y-84225789D01*
X167502262Y-84129816D01*
X167629816Y-84002262D01*
X167725789Y-83849522D01*
X167785368Y-83679255D01*
X167785369Y-83679249D01*
X167805565Y-83500003D01*
X167805565Y-83499996D01*
X167785369Y-83320750D01*
X167785368Y-83320745D01*
X167759630Y-83247191D01*
X167725789Y-83150478D01*
X167722214Y-83144789D01*
X167664342Y-83052686D01*
X167629816Y-82997738D01*
X167502262Y-82870184D01*
X167349523Y-82774211D01*
X167179254Y-82714631D01*
X167179249Y-82714630D01*
X167000004Y-82694435D01*
X166999996Y-82694435D01*
X166820750Y-82714630D01*
X166820737Y-82714633D01*
X166650478Y-82774210D01*
X166624386Y-82790604D01*
X166557149Y-82809602D01*
X166494269Y-82791725D01*
X166386074Y-82726320D01*
X166386068Y-82726317D01*
X166224246Y-82675891D01*
X166224238Y-82675889D01*
X166175003Y-82671415D01*
X166153921Y-82669500D01*
X166153918Y-82669500D01*
X165646071Y-82669500D01*
X165575764Y-82675888D01*
X165575757Y-82675890D01*
X165413934Y-82726316D01*
X165413926Y-82726319D01*
X165268871Y-82814007D01*
X165268867Y-82814010D01*
X165149010Y-82933867D01*
X165149010Y-82933868D01*
X165105824Y-83005306D01*
X165054296Y-83052494D01*
X164985436Y-83064332D01*
X164921108Y-83037063D01*
X164893589Y-83005305D01*
X164850591Y-82934176D01*
X164730822Y-82814407D01*
X164730818Y-82814404D01*
X164585866Y-82726778D01*
X164585862Y-82726776D01*
X164424151Y-82676386D01*
X164424153Y-82676386D01*
X164353873Y-82670000D01*
X163846127Y-82670000D01*
X163775847Y-82676386D01*
X163614137Y-82726776D01*
X163614133Y-82726778D01*
X163469181Y-82814404D01*
X163469177Y-82814407D01*
X163349407Y-82934177D01*
X163349404Y-82934181D01*
X163261778Y-83079133D01*
X163261776Y-83079137D01*
X163211386Y-83240847D01*
X163205000Y-83311126D01*
X157782002Y-83311126D01*
X157759630Y-83247191D01*
X157725789Y-83150478D01*
X157722214Y-83144789D01*
X157664342Y-83052686D01*
X157629816Y-82997738D01*
X157502262Y-82870184D01*
X157349523Y-82774211D01*
X157179254Y-82714631D01*
X157179249Y-82714630D01*
X157000004Y-82694435D01*
X156999996Y-82694435D01*
X156820750Y-82714630D01*
X156820737Y-82714633D01*
X156650478Y-82774210D01*
X156624386Y-82790604D01*
X156557149Y-82809602D01*
X156494269Y-82791725D01*
X156386074Y-82726320D01*
X156386068Y-82726317D01*
X156224246Y-82675891D01*
X156224238Y-82675889D01*
X156175003Y-82671415D01*
X156153921Y-82669500D01*
X156153918Y-82669500D01*
X155646071Y-82669500D01*
X155575764Y-82675888D01*
X155575757Y-82675890D01*
X155413934Y-82726316D01*
X155413926Y-82726319D01*
X155268871Y-82814007D01*
X155268867Y-82814010D01*
X155149010Y-82933867D01*
X155106117Y-83004822D01*
X155054589Y-83052009D01*
X154985730Y-83063848D01*
X154921401Y-83036579D01*
X154893883Y-83004822D01*
X154851179Y-82934181D01*
X154850990Y-82933868D01*
X154731132Y-82814010D01*
X154731128Y-82814007D01*
X154586073Y-82726319D01*
X154586068Y-82726317D01*
X154424246Y-82675891D01*
X154424238Y-82675889D01*
X154375003Y-82671415D01*
X154353921Y-82669500D01*
X154353918Y-82669500D01*
X153846071Y-82669500D01*
X153775764Y-82675888D01*
X153775757Y-82675890D01*
X153613934Y-82726316D01*
X153613926Y-82726319D01*
X153468871Y-82814007D01*
X153468867Y-82814010D01*
X153349010Y-82933867D01*
X153349007Y-82933871D01*
X153261319Y-83078926D01*
X153261317Y-83078931D01*
X153210891Y-83240753D01*
X153209611Y-83247191D01*
X153207444Y-83246760D01*
X153185532Y-83302208D01*
X153128798Y-83342989D01*
X153059023Y-83346625D01*
X153000040Y-83313672D01*
X152918657Y-83232289D01*
X152918656Y-83232288D01*
X152769334Y-83140186D01*
X152602797Y-83085001D01*
X152602795Y-83085000D01*
X152500010Y-83074500D01*
X151499998Y-83074500D01*
X151499980Y-83074501D01*
X151397203Y-83085000D01*
X151397200Y-83085001D01*
X151230668Y-83140185D01*
X151230663Y-83140187D01*
X151081342Y-83232289D01*
X150957289Y-83356342D01*
X150865187Y-83505663D01*
X150865186Y-83505666D01*
X150810001Y-83672203D01*
X150810001Y-83672204D01*
X150810000Y-83672204D01*
X150799500Y-83774983D01*
X150799500Y-84400001D01*
X150799501Y-84400019D01*
X150810000Y-84502796D01*
X150810001Y-84502799D01*
X150836190Y-84581831D01*
X150865186Y-84669334D01*
X150941376Y-84792859D01*
X150957289Y-84818657D01*
X151050951Y-84912319D01*
X151084436Y-84973642D01*
X151079452Y-85043334D01*
X151050951Y-85087681D01*
X150957289Y-85181342D01*
X150865187Y-85330663D01*
X150865186Y-85330666D01*
X150810001Y-85497203D01*
X150810001Y-85497204D01*
X150810000Y-85497204D01*
X150799500Y-85599983D01*
X150799500Y-86141690D01*
X150779815Y-86208729D01*
X150763183Y-86229370D01*
X150729374Y-86263180D01*
X150668051Y-86296666D01*
X150641691Y-86299500D01*
X149324000Y-86299500D01*
X149256961Y-86279815D01*
X149211206Y-86227011D01*
X149200000Y-86175500D01*
X149199999Y-85775028D01*
X149199998Y-85775012D01*
X149189505Y-85672302D01*
X149134358Y-85505880D01*
X149134356Y-85505875D01*
X149042315Y-85356654D01*
X148918345Y-85232684D01*
X148769124Y-85140643D01*
X148769119Y-85140641D01*
X148602697Y-85085494D01*
X148602690Y-85085493D01*
X148499980Y-85075000D01*
X147500028Y-85075000D01*
X147500012Y-85075001D01*
X147397302Y-85085494D01*
X147230880Y-85140641D01*
X147230875Y-85140643D01*
X147081654Y-85232684D01*
X146957684Y-85356654D01*
X146865643Y-85505875D01*
X146865641Y-85505880D01*
X146810494Y-85672302D01*
X146810493Y-85672309D01*
X146800000Y-85775013D01*
X146800000Y-85775026D01*
X146800001Y-86045500D01*
X146780317Y-86112539D01*
X146727513Y-86158294D01*
X146676001Y-86169500D01*
X145215929Y-86169500D01*
X145090261Y-86194497D01*
X145090255Y-86194499D01*
X144971874Y-86243534D01*
X144865331Y-86314723D01*
X144537769Y-86642284D01*
X144476446Y-86675768D01*
X144430804Y-86676176D01*
X144430777Y-86676484D01*
X144427695Y-86676203D01*
X144425900Y-86676220D01*
X144424243Y-86675890D01*
X144424242Y-86675890D01*
X144353921Y-86669500D01*
X144353918Y-86669500D01*
X143846071Y-86669500D01*
X143775764Y-86675888D01*
X143775757Y-86675890D01*
X143613934Y-86726316D01*
X143613926Y-86726319D01*
X143468871Y-86814007D01*
X143468867Y-86814010D01*
X143349010Y-86933867D01*
X143349007Y-86933871D01*
X143261319Y-87078926D01*
X143261317Y-87078931D01*
X143210891Y-87240753D01*
X143210889Y-87240761D01*
X143204500Y-87311081D01*
X143204500Y-88688928D01*
X143210888Y-88759235D01*
X143210890Y-88759242D01*
X143261316Y-88921065D01*
X143261319Y-88921073D01*
X143349007Y-89066128D01*
X143349010Y-89066132D01*
X143468868Y-89185990D01*
X143536094Y-89226629D01*
X143583281Y-89278156D01*
X143595120Y-89347016D01*
X143567852Y-89411345D01*
X143559625Y-89420427D01*
X141970542Y-91009510D01*
X141909219Y-91042995D01*
X141839527Y-91038011D01*
X141830456Y-91034211D01*
X141809148Y-91024275D01*
X141673663Y-90961097D01*
X141673659Y-90961096D01*
X141673655Y-90961094D01*
X141445413Y-90899938D01*
X141445403Y-90899936D01*
X141210001Y-90879341D01*
X141209999Y-90879341D01*
X140974596Y-90899936D01*
X140974586Y-90899938D01*
X140746344Y-90961094D01*
X140746335Y-90961098D01*
X140532171Y-91060964D01*
X140532169Y-91060965D01*
X140338597Y-91196505D01*
X140171505Y-91363597D01*
X140041575Y-91549158D01*
X139986998Y-91592783D01*
X139917500Y-91599977D01*
X139855145Y-91568454D01*
X139838425Y-91549158D01*
X139708494Y-91363597D01*
X139541402Y-91196506D01*
X139541401Y-91196505D01*
X139373377Y-91078853D01*
X139373376Y-91078852D01*
X139329751Y-91024275D01*
X139320500Y-90977277D01*
X139320500Y-89105928D01*
X139295502Y-88980261D01*
X139295501Y-88980260D01*
X139295501Y-88980256D01*
X139246465Y-88861873D01*
X139242014Y-88855212D01*
X139175277Y-88755331D01*
X139120008Y-88700062D01*
X139086525Y-88638742D01*
X139091509Y-88569050D01*
X139102153Y-88547286D01*
X139134809Y-88494342D01*
X139134808Y-88494342D01*
X139134814Y-88494334D01*
X139189999Y-88327797D01*
X139200500Y-88225009D01*
X139200499Y-87599992D01*
X139194654Y-87542777D01*
X139189999Y-87497203D01*
X139189998Y-87497200D01*
X139176104Y-87455272D01*
X139134814Y-87330666D01*
X139042712Y-87181344D01*
X138948695Y-87087327D01*
X138915210Y-87026004D01*
X138920194Y-86956312D01*
X138948695Y-86911964D01*
X139042317Y-86818342D01*
X139134356Y-86669124D01*
X139134358Y-86669119D01*
X139189505Y-86502697D01*
X139189506Y-86502690D01*
X139199999Y-86399986D01*
X139199999Y-85775028D01*
X139199998Y-85775012D01*
X139189505Y-85672302D01*
X139134358Y-85505880D01*
X139134356Y-85505875D01*
X139042315Y-85356654D01*
X138918345Y-85232684D01*
X138769124Y-85140643D01*
X138769119Y-85140641D01*
X138602697Y-85085494D01*
X138602690Y-85085493D01*
X138499980Y-85075000D01*
X137500028Y-85075000D01*
X137500012Y-85075001D01*
X137397302Y-85085494D01*
X137230880Y-85140641D01*
X137230875Y-85140643D01*
X137081654Y-85232684D01*
X136957684Y-85356654D01*
X136865643Y-85505875D01*
X136865641Y-85505880D01*
X136810494Y-85672302D01*
X136810493Y-85672309D01*
X136800000Y-85775013D01*
X136800000Y-86399971D01*
X136800001Y-86399987D01*
X136810494Y-86502697D01*
X136865641Y-86669119D01*
X136865643Y-86669124D01*
X136919405Y-86756285D01*
X136937845Y-86823678D01*
X136916922Y-86890341D01*
X136863280Y-86935111D01*
X136793950Y-86943772D01*
X136730942Y-86913576D01*
X136726185Y-86909063D01*
X136631132Y-86814010D01*
X136631128Y-86814007D01*
X136486073Y-86726319D01*
X136486068Y-86726317D01*
X136324246Y-86675891D01*
X136324238Y-86675889D01*
X136275003Y-86671415D01*
X136253921Y-86669500D01*
X136253918Y-86669500D01*
X135746071Y-86669500D01*
X135675764Y-86675888D01*
X135675757Y-86675890D01*
X135513934Y-86726316D01*
X135513926Y-86726319D01*
X135368871Y-86814007D01*
X135368867Y-86814010D01*
X135249010Y-86933867D01*
X135206117Y-87004822D01*
X135154589Y-87052009D01*
X135085730Y-87063848D01*
X135021401Y-87036579D01*
X134993883Y-87004822D01*
X134963205Y-86954074D01*
X134950990Y-86933868D01*
X134886819Y-86869697D01*
X134853334Y-86808374D01*
X134850500Y-86782016D01*
X134850500Y-86635928D01*
X134825502Y-86510261D01*
X134825501Y-86510260D01*
X134825501Y-86510256D01*
X134806399Y-86464140D01*
X134797743Y-86430586D01*
X134785368Y-86320745D01*
X134725789Y-86150478D01*
X134720381Y-86141872D01*
X134629815Y-85997737D01*
X134502262Y-85870184D01*
X134349523Y-85774211D01*
X134179254Y-85714631D01*
X134179249Y-85714630D01*
X134000004Y-85694435D01*
X133999996Y-85694435D01*
X133820750Y-85714630D01*
X133820745Y-85714631D01*
X133650476Y-85774211D01*
X133497739Y-85870183D01*
X133412180Y-85955742D01*
X133350856Y-85989226D01*
X133281165Y-85984242D01*
X133225231Y-85942370D01*
X133200815Y-85876905D01*
X133200499Y-85868075D01*
X133200499Y-85512492D01*
X133198937Y-85497204D01*
X133189999Y-85409703D01*
X133189998Y-85409700D01*
X133163809Y-85330668D01*
X133134814Y-85243166D01*
X133042712Y-85093844D01*
X132949049Y-85000181D01*
X132915564Y-84938858D01*
X132920548Y-84869166D01*
X132949049Y-84824819D01*
X132985993Y-84787875D01*
X133042712Y-84731156D01*
X133048876Y-84721163D01*
X133056130Y-84709403D01*
X133108078Y-84662678D01*
X133161668Y-84650500D01*
X133187765Y-84650500D01*
X133254804Y-84670185D01*
X133300559Y-84722989D01*
X133308531Y-84753013D01*
X133309608Y-84752799D01*
X133310890Y-84759242D01*
X133361316Y-84921065D01*
X133361319Y-84921073D01*
X133449007Y-85066128D01*
X133449010Y-85066132D01*
X133568867Y-85185989D01*
X133568871Y-85185992D01*
X133663449Y-85243166D01*
X133713928Y-85273681D01*
X133875758Y-85324110D01*
X133946079Y-85330500D01*
X134453920Y-85330499D01*
X134453927Y-85330499D01*
X134524235Y-85324111D01*
X134524236Y-85324110D01*
X134524242Y-85324110D01*
X134686072Y-85273681D01*
X134831132Y-85185990D01*
X134950990Y-85066132D01*
X134979261Y-85019364D01*
X134993883Y-84995178D01*
X135045410Y-84947990D01*
X135114270Y-84936151D01*
X135178598Y-84963419D01*
X135206117Y-84995178D01*
X135249007Y-85066128D01*
X135249010Y-85066132D01*
X135368867Y-85185989D01*
X135368871Y-85185992D01*
X135463449Y-85243166D01*
X135513928Y-85273681D01*
X135675758Y-85324110D01*
X135746079Y-85330500D01*
X136253920Y-85330499D01*
X136253927Y-85330499D01*
X136324235Y-85324111D01*
X136324236Y-85324110D01*
X136324242Y-85324110D01*
X136486072Y-85273681D01*
X136631132Y-85185990D01*
X136750990Y-85066132D01*
X136838681Y-84921072D01*
X136889110Y-84759242D01*
X136895500Y-84688921D01*
X136895499Y-84428150D01*
X136915183Y-84361113D01*
X136967987Y-84315358D01*
X137005614Y-84304932D01*
X137078552Y-84296714D01*
X137179249Y-84285369D01*
X137179252Y-84285368D01*
X137179255Y-84285368D01*
X137349522Y-84225789D01*
X137502262Y-84129816D01*
X137629816Y-84002262D01*
X137725789Y-83849522D01*
X137785368Y-83679255D01*
X137785369Y-83679249D01*
X137805565Y-83500003D01*
X137805565Y-83499996D01*
X137785369Y-83320750D01*
X137785368Y-83320745D01*
X137782002Y-83311126D01*
X143205000Y-83311126D01*
X143205000Y-84688873D01*
X143211386Y-84759152D01*
X143261776Y-84920862D01*
X143261778Y-84920866D01*
X143349404Y-85065818D01*
X143349407Y-85065822D01*
X143469177Y-85185592D01*
X143469181Y-85185595D01*
X143614133Y-85273221D01*
X143614137Y-85273223D01*
X143775848Y-85323613D01*
X143775846Y-85323613D01*
X143846127Y-85330000D01*
X144353873Y-85330000D01*
X144424152Y-85323613D01*
X144585862Y-85273223D01*
X144585866Y-85273221D01*
X144730818Y-85185595D01*
X144730822Y-85185592D01*
X144850593Y-85065821D01*
X144893589Y-84994695D01*
X144945116Y-84947506D01*
X145013975Y-84935667D01*
X145078304Y-84962934D01*
X145105824Y-84994693D01*
X145149010Y-85066132D01*
X145268867Y-85185989D01*
X145268871Y-85185992D01*
X145363449Y-85243166D01*
X145413928Y-85273681D01*
X145575758Y-85324110D01*
X145646079Y-85330500D01*
X146153920Y-85330499D01*
X146153927Y-85330499D01*
X146224235Y-85324111D01*
X146224236Y-85324110D01*
X146224242Y-85324110D01*
X146386072Y-85273681D01*
X146531132Y-85185990D01*
X146650990Y-85066132D01*
X146738681Y-84921072D01*
X146789110Y-84759242D01*
X146795500Y-84688921D01*
X146795499Y-84421277D01*
X146815183Y-84354240D01*
X146867987Y-84308485D01*
X146933382Y-84298059D01*
X146958520Y-84300891D01*
X146999998Y-84305565D01*
X147000000Y-84305565D01*
X147000004Y-84305565D01*
X147179249Y-84285369D01*
X147179252Y-84285368D01*
X147179255Y-84285368D01*
X147349522Y-84225789D01*
X147502262Y-84129816D01*
X147629816Y-84002262D01*
X147725789Y-83849522D01*
X147785368Y-83679255D01*
X147785369Y-83679249D01*
X147805565Y-83500003D01*
X147805565Y-83499996D01*
X147785369Y-83320750D01*
X147785368Y-83320745D01*
X147759630Y-83247191D01*
X147725789Y-83150478D01*
X147722214Y-83144789D01*
X147664342Y-83052686D01*
X147629816Y-82997738D01*
X147502262Y-82870184D01*
X147349523Y-82774211D01*
X147179254Y-82714631D01*
X147179249Y-82714630D01*
X147000004Y-82694435D01*
X146999996Y-82694435D01*
X146820750Y-82714630D01*
X146820737Y-82714633D01*
X146650478Y-82774210D01*
X146624386Y-82790604D01*
X146557149Y-82809602D01*
X146494269Y-82791725D01*
X146386074Y-82726320D01*
X146386068Y-82726317D01*
X146224246Y-82675891D01*
X146224238Y-82675889D01*
X146175003Y-82671415D01*
X146153921Y-82669500D01*
X146153918Y-82669500D01*
X145646071Y-82669500D01*
X145575764Y-82675888D01*
X145575757Y-82675890D01*
X145413934Y-82726316D01*
X145413926Y-82726319D01*
X145268871Y-82814007D01*
X145268867Y-82814010D01*
X145149010Y-82933867D01*
X145149010Y-82933868D01*
X145105824Y-83005306D01*
X145054296Y-83052494D01*
X144985436Y-83064332D01*
X144921108Y-83037063D01*
X144893589Y-83005305D01*
X144850591Y-82934176D01*
X144730822Y-82814407D01*
X144730818Y-82814404D01*
X144585866Y-82726778D01*
X144585862Y-82726776D01*
X144424151Y-82676386D01*
X144424153Y-82676386D01*
X144353873Y-82670000D01*
X143846127Y-82670000D01*
X143775847Y-82676386D01*
X143614137Y-82726776D01*
X143614133Y-82726778D01*
X143469181Y-82814404D01*
X143469177Y-82814407D01*
X143349407Y-82934177D01*
X143349404Y-82934181D01*
X143261778Y-83079133D01*
X143261776Y-83079137D01*
X143211386Y-83240847D01*
X143205000Y-83311126D01*
X137782002Y-83311126D01*
X137759630Y-83247191D01*
X137725789Y-83150478D01*
X137722214Y-83144789D01*
X137664342Y-83052686D01*
X137629816Y-82997738D01*
X137502262Y-82870184D01*
X137349523Y-82774211D01*
X137179254Y-82714631D01*
X137179249Y-82714630D01*
X137000004Y-82694435D01*
X136999996Y-82694435D01*
X136820750Y-82714630D01*
X136820742Y-82714632D01*
X136651648Y-82773801D01*
X136581870Y-82777362D01*
X136546547Y-82762876D01*
X136504781Y-82737629D01*
X136486069Y-82726317D01*
X136324246Y-82675891D01*
X136324238Y-82675889D01*
X136275003Y-82671415D01*
X136253921Y-82669500D01*
X136253918Y-82669500D01*
X135746071Y-82669500D01*
X135675764Y-82675888D01*
X135675757Y-82675890D01*
X135513934Y-82726316D01*
X135513926Y-82726319D01*
X135368871Y-82814007D01*
X135368867Y-82814010D01*
X135249010Y-82933867D01*
X135206117Y-83004822D01*
X135154589Y-83052009D01*
X135085730Y-83063848D01*
X135021401Y-83036579D01*
X134993883Y-83004822D01*
X134951179Y-82934181D01*
X134950990Y-82933868D01*
X134831132Y-82814010D01*
X134831128Y-82814007D01*
X134686073Y-82726319D01*
X134686068Y-82726317D01*
X134524246Y-82675891D01*
X134524238Y-82675889D01*
X134475003Y-82671415D01*
X134453921Y-82669500D01*
X134453918Y-82669500D01*
X133946071Y-82669500D01*
X133875764Y-82675888D01*
X133875757Y-82675890D01*
X133713934Y-82726316D01*
X133713926Y-82726319D01*
X133568871Y-82814007D01*
X133568867Y-82814010D01*
X133449010Y-82933867D01*
X133449007Y-82933871D01*
X133361319Y-83078926D01*
X133361317Y-83078931D01*
X133310891Y-83240753D01*
X133309611Y-83247191D01*
X133307302Y-83246731D01*
X133285586Y-83301705D01*
X133228858Y-83342493D01*
X133187766Y-83349500D01*
X133161668Y-83349500D01*
X133094629Y-83329815D01*
X133056130Y-83290597D01*
X133042714Y-83268847D01*
X133042711Y-83268843D01*
X132918657Y-83144789D01*
X132918656Y-83144788D01*
X132804700Y-83074500D01*
X132769336Y-83052687D01*
X132769331Y-83052685D01*
X132767291Y-83052009D01*
X132602797Y-82997501D01*
X132602795Y-82997500D01*
X132500010Y-82987000D01*
X131499998Y-82987000D01*
X131499980Y-82987001D01*
X131397203Y-82997500D01*
X131397200Y-82997501D01*
X131230668Y-83052685D01*
X131230663Y-83052687D01*
X131081342Y-83144789D01*
X130957289Y-83268842D01*
X130865187Y-83418163D01*
X130865186Y-83418166D01*
X130810001Y-83584703D01*
X130810001Y-83584704D01*
X130810000Y-83584704D01*
X130799500Y-83687483D01*
X130799500Y-84312501D01*
X130799501Y-84312519D01*
X130810000Y-84415296D01*
X130810001Y-84415299D01*
X130838996Y-84502799D01*
X130865186Y-84581834D01*
X130954198Y-84726147D01*
X130957289Y-84731157D01*
X131050951Y-84824819D01*
X131084436Y-84886142D01*
X131079452Y-84955834D01*
X131050951Y-85000181D01*
X130957289Y-85093842D01*
X130865187Y-85243163D01*
X130865185Y-85243168D01*
X130839665Y-85320184D01*
X130810001Y-85409703D01*
X130810001Y-85409704D01*
X130810000Y-85409704D01*
X130799500Y-85512483D01*
X130799500Y-86054191D01*
X130779815Y-86121230D01*
X130763181Y-86141872D01*
X130554373Y-86350681D01*
X130493050Y-86384166D01*
X130466692Y-86387000D01*
X129324000Y-86387000D01*
X129256961Y-86367315D01*
X129211206Y-86314511D01*
X129200000Y-86263000D01*
X129199999Y-85862528D01*
X129199998Y-85862512D01*
X129189505Y-85759802D01*
X129134358Y-85593380D01*
X129134356Y-85593375D01*
X129042315Y-85444154D01*
X128918345Y-85320184D01*
X128769124Y-85228143D01*
X128769119Y-85228141D01*
X128602697Y-85172994D01*
X128602690Y-85172993D01*
X128499980Y-85162500D01*
X127500028Y-85162500D01*
X127500012Y-85162501D01*
X127397302Y-85172994D01*
X127230880Y-85228141D01*
X127230875Y-85228143D01*
X127081654Y-85320184D01*
X126957684Y-85444154D01*
X126865643Y-85593375D01*
X126865641Y-85593380D01*
X126808937Y-85764504D01*
X126769164Y-85821949D01*
X126704649Y-85848772D01*
X126691231Y-85849500D01*
X125535929Y-85849500D01*
X125410261Y-85874497D01*
X125410255Y-85874499D01*
X125291870Y-85923535D01*
X125185331Y-85994722D01*
X125185324Y-85994728D01*
X124537769Y-86642283D01*
X124476446Y-86675768D01*
X124430804Y-86676176D01*
X124430777Y-86676484D01*
X124427695Y-86676203D01*
X124425900Y-86676220D01*
X124424243Y-86675890D01*
X124424242Y-86675890D01*
X124353921Y-86669500D01*
X124353918Y-86669500D01*
X123846071Y-86669500D01*
X123775764Y-86675888D01*
X123775757Y-86675890D01*
X123613934Y-86726316D01*
X123613926Y-86726319D01*
X123468871Y-86814007D01*
X123468867Y-86814010D01*
X123349010Y-86933867D01*
X123349007Y-86933871D01*
X123261319Y-87078926D01*
X123261317Y-87078931D01*
X123210891Y-87240753D01*
X123210889Y-87240761D01*
X123204500Y-87311081D01*
X123204500Y-88688928D01*
X123210888Y-88759235D01*
X123210890Y-88759242D01*
X123261316Y-88921065D01*
X123261319Y-88921073D01*
X123349007Y-89066128D01*
X123349010Y-89066132D01*
X123468867Y-89185989D01*
X123468871Y-89185992D01*
X123536093Y-89226629D01*
X123613928Y-89273681D01*
X123775758Y-89324110D01*
X123846079Y-89330500D01*
X124353920Y-89330499D01*
X124353927Y-89330499D01*
X124424235Y-89324111D01*
X124424236Y-89324110D01*
X124424242Y-89324110D01*
X124586072Y-89273681D01*
X124731132Y-89185990D01*
X124850990Y-89066132D01*
X124893883Y-88995178D01*
X124945410Y-88947990D01*
X125014270Y-88936151D01*
X125078598Y-88963419D01*
X125106117Y-88995178D01*
X125149007Y-89066128D01*
X125149010Y-89066132D01*
X125268867Y-89185989D01*
X125268871Y-89185992D01*
X125336093Y-89226629D01*
X125413928Y-89273681D01*
X125575758Y-89324110D01*
X125646079Y-89330500D01*
X126153920Y-89330499D01*
X126153927Y-89330499D01*
X126224235Y-89324111D01*
X126224236Y-89324110D01*
X126224242Y-89324110D01*
X126386072Y-89273681D01*
X126531132Y-89185990D01*
X126650990Y-89066132D01*
X126738681Y-88921072D01*
X126774715Y-88805435D01*
X126813451Y-88747291D01*
X126877476Y-88719317D01*
X126946461Y-88730398D01*
X126980780Y-88754648D01*
X127081344Y-88855212D01*
X127230666Y-88947314D01*
X127397203Y-89002499D01*
X127499991Y-89013000D01*
X128059273Y-89012999D01*
X128126312Y-89032683D01*
X128128163Y-89033896D01*
X128191873Y-89076465D01*
X128310256Y-89125501D01*
X128310260Y-89125501D01*
X128310261Y-89125502D01*
X128435928Y-89150500D01*
X128435931Y-89150500D01*
X128564069Y-89150500D01*
X132074192Y-89150500D01*
X132141231Y-89170185D01*
X132161873Y-89186819D01*
X133645091Y-90670037D01*
X133678576Y-90731360D01*
X133673592Y-90801052D01*
X133631720Y-90856985D01*
X133568218Y-90881246D01*
X133354590Y-90899937D01*
X133354589Y-90899937D01*
X133282008Y-90919384D01*
X133212158Y-90917720D01*
X133162236Y-90887290D01*
X132804674Y-90529727D01*
X132804673Y-90529726D01*
X132804669Y-90529723D01*
X132698127Y-90458535D01*
X132579744Y-90409499D01*
X132579738Y-90409497D01*
X132454071Y-90384500D01*
X132454069Y-90384500D01*
X121443308Y-90384500D01*
X121376269Y-90364815D01*
X121355627Y-90348181D01*
X119236818Y-88229372D01*
X119203333Y-88168049D01*
X119200499Y-88141691D01*
X119200499Y-87599998D01*
X119200498Y-87599981D01*
X119189999Y-87497203D01*
X119189998Y-87497200D01*
X119176104Y-87455272D01*
X119134814Y-87330666D01*
X119042712Y-87181344D01*
X118948695Y-87087327D01*
X118915210Y-87026004D01*
X118920194Y-86956312D01*
X118948695Y-86911964D01*
X119042317Y-86818342D01*
X119134356Y-86669124D01*
X119134358Y-86669119D01*
X119189505Y-86502697D01*
X119189506Y-86502690D01*
X119199999Y-86399986D01*
X119199999Y-85775028D01*
X119199998Y-85775012D01*
X119189505Y-85672302D01*
X119134358Y-85505880D01*
X119134356Y-85505875D01*
X119042315Y-85356654D01*
X118918345Y-85232684D01*
X118769124Y-85140643D01*
X118769119Y-85140641D01*
X118602697Y-85085494D01*
X118602690Y-85085493D01*
X118499980Y-85075000D01*
X117500028Y-85075000D01*
X117500012Y-85075001D01*
X117397302Y-85085494D01*
X117230880Y-85140641D01*
X117230875Y-85140643D01*
X117081654Y-85232684D01*
X116957684Y-85356654D01*
X116865643Y-85505875D01*
X116865641Y-85505880D01*
X116810494Y-85672302D01*
X116810493Y-85672309D01*
X116800000Y-85775013D01*
X116800000Y-86399971D01*
X116800001Y-86399987D01*
X116810494Y-86502697D01*
X116865641Y-86669119D01*
X116865643Y-86669124D01*
X116919405Y-86756285D01*
X116937845Y-86823678D01*
X116916922Y-86890341D01*
X116863280Y-86935111D01*
X116793950Y-86943772D01*
X116730942Y-86913576D01*
X116726185Y-86909063D01*
X116631132Y-86814010D01*
X116631128Y-86814007D01*
X116486073Y-86726319D01*
X116486068Y-86726317D01*
X116324246Y-86675891D01*
X116324238Y-86675889D01*
X116275003Y-86671415D01*
X116253921Y-86669500D01*
X116253918Y-86669500D01*
X115746071Y-86669500D01*
X115675764Y-86675888D01*
X115675757Y-86675890D01*
X115513934Y-86726316D01*
X115513926Y-86726319D01*
X115368871Y-86814007D01*
X115368867Y-86814010D01*
X115249010Y-86933867D01*
X115206117Y-87004822D01*
X115154589Y-87052009D01*
X115085730Y-87063848D01*
X115021401Y-87036579D01*
X114993883Y-87004822D01*
X114963205Y-86954074D01*
X114950990Y-86933868D01*
X114886819Y-86869697D01*
X114853334Y-86808374D01*
X114850500Y-86782016D01*
X114850500Y-86635928D01*
X114825502Y-86510261D01*
X114825501Y-86510260D01*
X114825501Y-86510256D01*
X114806399Y-86464140D01*
X114797743Y-86430586D01*
X114785368Y-86320745D01*
X114725789Y-86150478D01*
X114720381Y-86141872D01*
X114629815Y-85997737D01*
X114502262Y-85870184D01*
X114349523Y-85774211D01*
X114179254Y-85714631D01*
X114179249Y-85714630D01*
X114000004Y-85694435D01*
X113999996Y-85694435D01*
X113820750Y-85714630D01*
X113820745Y-85714631D01*
X113650476Y-85774211D01*
X113497739Y-85870183D01*
X113412180Y-85955742D01*
X113350856Y-85989226D01*
X113281165Y-85984242D01*
X113225231Y-85942370D01*
X113200815Y-85876905D01*
X113200499Y-85868060D01*
X113200499Y-85599998D01*
X113200498Y-85599980D01*
X113189999Y-85497203D01*
X113189998Y-85497200D01*
X113172420Y-85444154D01*
X113134814Y-85330666D01*
X113042712Y-85181344D01*
X112949049Y-85087681D01*
X112915564Y-85026358D01*
X112920548Y-84956666D01*
X112949049Y-84912319D01*
X112992202Y-84869166D01*
X113042712Y-84818656D01*
X113050865Y-84805438D01*
X113056130Y-84796903D01*
X113108078Y-84750178D01*
X113161668Y-84738000D01*
X113213030Y-84738000D01*
X113280069Y-84757685D01*
X113325824Y-84810489D01*
X113331415Y-84825109D01*
X113361317Y-84921068D01*
X113361319Y-84921073D01*
X113449007Y-85066128D01*
X113449010Y-85066132D01*
X113568867Y-85185989D01*
X113568871Y-85185992D01*
X113663449Y-85243166D01*
X113713928Y-85273681D01*
X113875758Y-85324110D01*
X113946079Y-85330500D01*
X114453920Y-85330499D01*
X114453927Y-85330499D01*
X114524235Y-85324111D01*
X114524236Y-85324110D01*
X114524242Y-85324110D01*
X114686072Y-85273681D01*
X114831132Y-85185990D01*
X114950990Y-85066132D01*
X114979261Y-85019364D01*
X114993883Y-84995178D01*
X115045410Y-84947990D01*
X115114270Y-84936151D01*
X115178598Y-84963419D01*
X115206117Y-84995178D01*
X115249007Y-85066128D01*
X115249010Y-85066132D01*
X115368867Y-85185989D01*
X115368871Y-85185992D01*
X115463449Y-85243166D01*
X115513928Y-85273681D01*
X115675758Y-85324110D01*
X115746079Y-85330500D01*
X116253920Y-85330499D01*
X116253927Y-85330499D01*
X116324235Y-85324111D01*
X116324236Y-85324110D01*
X116324242Y-85324110D01*
X116486072Y-85273681D01*
X116631132Y-85185990D01*
X116750990Y-85066132D01*
X116838681Y-84921072D01*
X116889110Y-84759242D01*
X116895500Y-84688921D01*
X116895499Y-84428150D01*
X116915183Y-84361113D01*
X116967987Y-84315358D01*
X117005614Y-84304932D01*
X117078552Y-84296714D01*
X117179249Y-84285369D01*
X117179252Y-84285368D01*
X117179255Y-84285368D01*
X117349522Y-84225789D01*
X117502262Y-84129816D01*
X117629816Y-84002262D01*
X117725789Y-83849522D01*
X117785368Y-83679255D01*
X117785369Y-83679249D01*
X117805565Y-83500003D01*
X117805565Y-83499996D01*
X117785369Y-83320750D01*
X117785368Y-83320745D01*
X117782002Y-83311126D01*
X123205000Y-83311126D01*
X123205000Y-84688873D01*
X123211386Y-84759152D01*
X123261776Y-84920862D01*
X123261778Y-84920866D01*
X123349404Y-85065818D01*
X123349407Y-85065822D01*
X123469177Y-85185592D01*
X123469181Y-85185595D01*
X123614133Y-85273221D01*
X123614137Y-85273223D01*
X123775848Y-85323613D01*
X123775846Y-85323613D01*
X123846127Y-85330000D01*
X124353873Y-85330000D01*
X124424152Y-85323613D01*
X124585862Y-85273223D01*
X124585866Y-85273221D01*
X124730818Y-85185595D01*
X124730822Y-85185592D01*
X124850593Y-85065821D01*
X124893589Y-84994695D01*
X124945116Y-84947506D01*
X125013975Y-84935667D01*
X125078304Y-84962934D01*
X125105824Y-84994693D01*
X125149010Y-85066132D01*
X125268867Y-85185989D01*
X125268871Y-85185992D01*
X125363449Y-85243166D01*
X125413928Y-85273681D01*
X125575758Y-85324110D01*
X125646079Y-85330500D01*
X126153920Y-85330499D01*
X126153927Y-85330499D01*
X126224235Y-85324111D01*
X126224236Y-85324110D01*
X126224242Y-85324110D01*
X126386072Y-85273681D01*
X126531132Y-85185990D01*
X126650990Y-85066132D01*
X126738681Y-84921072D01*
X126789110Y-84759242D01*
X126795500Y-84688921D01*
X126795499Y-84421277D01*
X126815183Y-84354240D01*
X126867987Y-84308485D01*
X126933382Y-84298059D01*
X126958520Y-84300891D01*
X126999998Y-84305565D01*
X127000000Y-84305565D01*
X127000004Y-84305565D01*
X127179249Y-84285369D01*
X127179252Y-84285368D01*
X127179255Y-84285368D01*
X127349522Y-84225789D01*
X127502262Y-84129816D01*
X127629816Y-84002262D01*
X127725789Y-83849522D01*
X127785368Y-83679255D01*
X127785369Y-83679249D01*
X127805565Y-83500003D01*
X127805565Y-83499996D01*
X127785369Y-83320750D01*
X127785368Y-83320745D01*
X127759630Y-83247191D01*
X127725789Y-83150478D01*
X127722214Y-83144789D01*
X127664342Y-83052686D01*
X127629816Y-82997738D01*
X127502262Y-82870184D01*
X127349523Y-82774211D01*
X127179254Y-82714631D01*
X127179249Y-82714630D01*
X127000004Y-82694435D01*
X126999996Y-82694435D01*
X126820750Y-82714630D01*
X126820737Y-82714633D01*
X126650478Y-82774210D01*
X126624386Y-82790604D01*
X126557149Y-82809602D01*
X126494269Y-82791725D01*
X126386074Y-82726320D01*
X126386068Y-82726317D01*
X126224246Y-82675891D01*
X126224238Y-82675889D01*
X126175003Y-82671415D01*
X126153921Y-82669500D01*
X126153918Y-82669500D01*
X125646071Y-82669500D01*
X125575764Y-82675888D01*
X125575757Y-82675890D01*
X125413934Y-82726316D01*
X125413926Y-82726319D01*
X125268871Y-82814007D01*
X125268867Y-82814010D01*
X125149010Y-82933867D01*
X125149010Y-82933868D01*
X125105824Y-83005306D01*
X125054296Y-83052494D01*
X124985436Y-83064332D01*
X124921108Y-83037063D01*
X124893589Y-83005305D01*
X124850591Y-82934176D01*
X124730822Y-82814407D01*
X124730818Y-82814404D01*
X124585866Y-82726778D01*
X124585862Y-82726776D01*
X124424151Y-82676386D01*
X124424153Y-82676386D01*
X124353873Y-82670000D01*
X123846127Y-82670000D01*
X123775847Y-82676386D01*
X123614137Y-82726776D01*
X123614133Y-82726778D01*
X123469181Y-82814404D01*
X123469177Y-82814407D01*
X123349407Y-82934177D01*
X123349404Y-82934181D01*
X123261778Y-83079133D01*
X123261776Y-83079137D01*
X123211386Y-83240847D01*
X123205000Y-83311126D01*
X117782002Y-83311126D01*
X117759630Y-83247191D01*
X117725789Y-83150478D01*
X117722214Y-83144789D01*
X117664342Y-83052686D01*
X117629816Y-82997738D01*
X117502262Y-82870184D01*
X117349523Y-82774211D01*
X117179254Y-82714631D01*
X117179249Y-82714630D01*
X117000004Y-82694435D01*
X116999996Y-82694435D01*
X116820750Y-82714630D01*
X116820742Y-82714632D01*
X116651648Y-82773801D01*
X116581870Y-82777362D01*
X116546547Y-82762876D01*
X116504781Y-82737629D01*
X116486069Y-82726317D01*
X116324246Y-82675891D01*
X116324238Y-82675889D01*
X116275003Y-82671415D01*
X116253921Y-82669500D01*
X116253918Y-82669500D01*
X115746071Y-82669500D01*
X115675764Y-82675888D01*
X115675757Y-82675890D01*
X115513934Y-82726316D01*
X115513926Y-82726319D01*
X115368871Y-82814007D01*
X115368867Y-82814010D01*
X115249010Y-82933867D01*
X115206117Y-83004822D01*
X115154589Y-83052009D01*
X115085730Y-83063848D01*
X115021401Y-83036579D01*
X114993883Y-83004822D01*
X114951179Y-82934181D01*
X114950990Y-82933868D01*
X114831132Y-82814010D01*
X114831128Y-82814007D01*
X114686073Y-82726319D01*
X114686068Y-82726317D01*
X114524246Y-82675891D01*
X114524238Y-82675889D01*
X114475003Y-82671415D01*
X114453921Y-82669500D01*
X114453918Y-82669500D01*
X113946071Y-82669500D01*
X113875764Y-82675888D01*
X113875757Y-82675890D01*
X113713934Y-82726316D01*
X113713926Y-82726319D01*
X113568871Y-82814007D01*
X113568867Y-82814010D01*
X113449010Y-82933867D01*
X113449007Y-82933871D01*
X113361319Y-83078926D01*
X113361317Y-83078931D01*
X113310891Y-83240753D01*
X113310889Y-83240761D01*
X113304500Y-83311081D01*
X113304500Y-83313000D01*
X113304396Y-83313351D01*
X113304372Y-83313897D01*
X113304238Y-83313890D01*
X113284815Y-83380039D01*
X113232011Y-83425794D01*
X113180500Y-83437000D01*
X113161668Y-83437000D01*
X113094629Y-83417315D01*
X113056130Y-83378097D01*
X113042714Y-83356347D01*
X113042711Y-83356343D01*
X112918657Y-83232289D01*
X112918656Y-83232288D01*
X112769334Y-83140186D01*
X112602797Y-83085001D01*
X112602795Y-83085000D01*
X112500010Y-83074500D01*
X111499998Y-83074500D01*
X111499980Y-83074501D01*
X111397203Y-83085000D01*
X111397200Y-83085001D01*
X111230668Y-83140185D01*
X111230663Y-83140187D01*
X111081342Y-83232289D01*
X110957289Y-83356342D01*
X110865187Y-83505663D01*
X110865186Y-83505666D01*
X110810001Y-83672203D01*
X110810001Y-83672204D01*
X110810000Y-83672204D01*
X110799500Y-83774983D01*
X110799500Y-84400001D01*
X110799501Y-84400019D01*
X110810000Y-84502796D01*
X110810001Y-84502799D01*
X110836190Y-84581831D01*
X110865186Y-84669334D01*
X110941376Y-84792859D01*
X110957289Y-84818657D01*
X111050951Y-84912319D01*
X111084436Y-84973642D01*
X111079452Y-85043334D01*
X111050951Y-85087681D01*
X110957289Y-85181342D01*
X110865187Y-85330663D01*
X110865186Y-85330666D01*
X110810001Y-85497203D01*
X110810001Y-85497204D01*
X110810000Y-85497204D01*
X110799500Y-85599983D01*
X110799500Y-86141690D01*
X110779815Y-86208729D01*
X110763183Y-86229370D01*
X110729374Y-86263180D01*
X110668051Y-86296666D01*
X110641691Y-86299500D01*
X109324000Y-86299500D01*
X109256961Y-86279815D01*
X109211206Y-86227011D01*
X109200000Y-86175500D01*
X109199999Y-85775028D01*
X109199998Y-85775012D01*
X109189505Y-85672302D01*
X109134358Y-85505880D01*
X109134356Y-85505875D01*
X109042315Y-85356654D01*
X108918345Y-85232684D01*
X108769124Y-85140643D01*
X108769119Y-85140641D01*
X108602697Y-85085494D01*
X108602690Y-85085493D01*
X108499980Y-85075000D01*
X107500028Y-85075000D01*
X107500012Y-85075001D01*
X107397302Y-85085494D01*
X107230880Y-85140641D01*
X107230875Y-85140643D01*
X107081654Y-85232684D01*
X106957684Y-85356654D01*
X106865643Y-85505875D01*
X106865641Y-85505880D01*
X106810494Y-85672302D01*
X106810493Y-85672309D01*
X106800000Y-85775013D01*
X106800000Y-85775026D01*
X106800001Y-86045500D01*
X106780317Y-86112539D01*
X106727513Y-86158294D01*
X106676001Y-86169500D01*
X105215929Y-86169500D01*
X105090261Y-86194497D01*
X105090255Y-86194499D01*
X104971874Y-86243534D01*
X104865331Y-86314723D01*
X104537769Y-86642284D01*
X104476446Y-86675768D01*
X104430804Y-86676176D01*
X104430777Y-86676484D01*
X104427695Y-86676203D01*
X104425900Y-86676220D01*
X104424243Y-86675890D01*
X104424242Y-86675890D01*
X104353921Y-86669500D01*
X104353918Y-86669500D01*
X103846071Y-86669500D01*
X103775764Y-86675888D01*
X103775757Y-86675890D01*
X103613934Y-86726316D01*
X103613926Y-86726319D01*
X103468871Y-86814007D01*
X103468867Y-86814010D01*
X103349010Y-86933867D01*
X103349007Y-86933871D01*
X103261319Y-87078926D01*
X103261317Y-87078931D01*
X103210891Y-87240753D01*
X103210889Y-87240761D01*
X103204500Y-87311081D01*
X103204500Y-88688928D01*
X103210888Y-88759235D01*
X103210890Y-88759242D01*
X103261316Y-88921065D01*
X103261319Y-88921073D01*
X103349007Y-89066128D01*
X103349010Y-89066132D01*
X103468867Y-89185989D01*
X103468871Y-89185992D01*
X103536093Y-89226629D01*
X103613928Y-89273681D01*
X103775758Y-89324110D01*
X103846079Y-89330500D01*
X104353920Y-89330499D01*
X104353927Y-89330499D01*
X104424235Y-89324111D01*
X104424236Y-89324110D01*
X104424242Y-89324110D01*
X104586072Y-89273681D01*
X104731132Y-89185990D01*
X104850990Y-89066132D01*
X104893883Y-88995178D01*
X104945410Y-88947990D01*
X105014270Y-88936151D01*
X105078598Y-88963419D01*
X105106117Y-88995178D01*
X105149007Y-89066128D01*
X105149010Y-89066132D01*
X105268867Y-89185989D01*
X105268871Y-89185992D01*
X105336093Y-89226629D01*
X105413928Y-89273681D01*
X105575758Y-89324110D01*
X105646079Y-89330500D01*
X106153920Y-89330499D01*
X106153927Y-89330499D01*
X106224235Y-89324111D01*
X106224236Y-89324110D01*
X106224242Y-89324110D01*
X106386072Y-89273681D01*
X106531132Y-89185990D01*
X106650990Y-89066132D01*
X106738681Y-88921072D01*
X106789110Y-88759242D01*
X106789111Y-88759230D01*
X106790389Y-88752809D01*
X106792697Y-88753268D01*
X106814414Y-88698295D01*
X106871142Y-88657507D01*
X106912234Y-88650500D01*
X106912770Y-88650500D01*
X106979809Y-88670185D01*
X107000451Y-88686819D01*
X107081344Y-88767712D01*
X107230666Y-88859814D01*
X107397203Y-88914999D01*
X107499991Y-88925500D01*
X108041691Y-88925499D01*
X108108730Y-88945183D01*
X108129372Y-88961818D01*
X110023348Y-90855793D01*
X111817224Y-92649669D01*
X111870066Y-92702511D01*
X111907832Y-92740277D01*
X112014366Y-92811461D01*
X112014372Y-92811464D01*
X112014373Y-92811465D01*
X112132756Y-92860501D01*
X112132760Y-92860501D01*
X112132761Y-92860502D01*
X112258428Y-92885500D01*
X112258431Y-92885500D01*
X129792278Y-92885500D01*
X129859317Y-92905185D01*
X129893853Y-92938377D01*
X130011501Y-93106396D01*
X130011506Y-93106402D01*
X130133430Y-93228326D01*
X130166915Y-93289649D01*
X130161931Y-93359341D01*
X130120059Y-93415274D01*
X130089083Y-93432189D01*
X129957669Y-93481203D01*
X129957664Y-93481206D01*
X129842455Y-93567452D01*
X129842452Y-93567455D01*
X129756206Y-93682664D01*
X129756202Y-93682671D01*
X129705908Y-93817517D01*
X129699501Y-93877116D01*
X129699500Y-93877135D01*
X129699500Y-95672870D01*
X129699501Y-95672876D01*
X129705908Y-95732483D01*
X129756202Y-95867328D01*
X129756206Y-95867335D01*
X129842452Y-95982544D01*
X129842455Y-95982547D01*
X129957664Y-96068793D01*
X129957671Y-96068797D01*
X130092517Y-96119091D01*
X130092516Y-96119091D01*
X130099444Y-96119835D01*
X130152127Y-96125500D01*
X131947872Y-96125499D01*
X132007483Y-96119091D01*
X132142331Y-96068796D01*
X132257546Y-95982546D01*
X132343796Y-95867331D01*
X132392810Y-95735916D01*
X132434681Y-95679984D01*
X132500145Y-95655566D01*
X132568418Y-95670417D01*
X132596673Y-95691569D01*
X132718599Y-95813495D01*
X132813272Y-95879786D01*
X132912165Y-95949032D01*
X132912167Y-95949033D01*
X132912170Y-95949035D01*
X133126337Y-96048903D01*
X133126343Y-96048904D01*
X133126344Y-96048905D01*
X133181285Y-96063626D01*
X133354592Y-96110063D01*
X133531034Y-96125500D01*
X133589999Y-96130659D01*
X133590000Y-96130659D01*
X133590001Y-96130659D01*
X133648966Y-96125500D01*
X133825408Y-96110063D01*
X134053663Y-96048903D01*
X134267830Y-95949035D01*
X134461401Y-95813495D01*
X134628495Y-95646401D01*
X134758425Y-95460842D01*
X134813002Y-95417217D01*
X134882500Y-95410023D01*
X134944855Y-95441546D01*
X134961575Y-95460842D01*
X135091500Y-95646395D01*
X135091505Y-95646401D01*
X135258599Y-95813495D01*
X135353272Y-95879786D01*
X135452165Y-95949032D01*
X135452167Y-95949033D01*
X135452170Y-95949035D01*
X135666337Y-96048903D01*
X135666343Y-96048904D01*
X135666344Y-96048905D01*
X135721285Y-96063626D01*
X135894592Y-96110063D01*
X136071034Y-96125500D01*
X136129999Y-96130659D01*
X136130000Y-96130659D01*
X136130001Y-96130659D01*
X136188966Y-96125500D01*
X136365408Y-96110063D01*
X136593663Y-96048903D01*
X136807830Y-95949035D01*
X137001401Y-95813495D01*
X137168495Y-95646401D01*
X137298425Y-95460842D01*
X137353002Y-95417217D01*
X137422500Y-95410023D01*
X137484855Y-95441546D01*
X137501575Y-95460842D01*
X137631500Y-95646395D01*
X137631505Y-95646401D01*
X137798599Y-95813495D01*
X137893272Y-95879786D01*
X137992165Y-95949032D01*
X137992167Y-95949033D01*
X137992170Y-95949035D01*
X138206337Y-96048903D01*
X138206343Y-96048904D01*
X138206344Y-96048905D01*
X138261285Y-96063626D01*
X138434592Y-96110063D01*
X138611034Y-96125500D01*
X138669999Y-96130659D01*
X138670000Y-96130659D01*
X138670001Y-96130659D01*
X138728966Y-96125500D01*
X138905408Y-96110063D01*
X139133663Y-96048903D01*
X139347830Y-95949035D01*
X139541401Y-95813495D01*
X139708495Y-95646401D01*
X139838425Y-95460842D01*
X139893002Y-95417217D01*
X139962500Y-95410023D01*
X140024855Y-95441546D01*
X140041575Y-95460842D01*
X140171500Y-95646395D01*
X140171505Y-95646401D01*
X140338599Y-95813495D01*
X140433272Y-95879786D01*
X140532165Y-95949032D01*
X140532167Y-95949033D01*
X140532170Y-95949035D01*
X140746337Y-96048903D01*
X140746343Y-96048904D01*
X140746344Y-96048905D01*
X140801285Y-96063626D01*
X140974592Y-96110063D01*
X141151034Y-96125500D01*
X141209999Y-96130659D01*
X141210000Y-96130659D01*
X141210001Y-96130659D01*
X141268966Y-96125500D01*
X141445408Y-96110063D01*
X141673663Y-96048903D01*
X141887830Y-95949035D01*
X142081401Y-95813495D01*
X142248495Y-95646401D01*
X142378425Y-95460842D01*
X142433002Y-95417217D01*
X142502500Y-95410023D01*
X142564855Y-95441546D01*
X142581575Y-95460842D01*
X142711500Y-95646395D01*
X142711505Y-95646401D01*
X142878599Y-95813495D01*
X142973272Y-95879786D01*
X143072165Y-95949032D01*
X143072167Y-95949033D01*
X143072170Y-95949035D01*
X143286337Y-96048903D01*
X143286343Y-96048904D01*
X143286344Y-96048905D01*
X143341285Y-96063626D01*
X143514592Y-96110063D01*
X143691034Y-96125500D01*
X143749999Y-96130659D01*
X143750000Y-96130659D01*
X143750001Y-96130659D01*
X143808966Y-96125500D01*
X143985408Y-96110063D01*
X144213663Y-96048903D01*
X144427830Y-95949035D01*
X144621401Y-95813495D01*
X144788495Y-95646401D01*
X144918730Y-95460405D01*
X144973307Y-95416781D01*
X145042805Y-95409587D01*
X145105160Y-95441110D01*
X145121879Y-95460405D01*
X145251890Y-95646078D01*
X145418917Y-95813105D01*
X145612421Y-95948600D01*
X145826507Y-96048429D01*
X145826516Y-96048433D01*
X146054673Y-96109567D01*
X146054684Y-96109569D01*
X146289998Y-96130157D01*
X146290002Y-96130157D01*
X146525315Y-96109569D01*
X146525326Y-96109567D01*
X146753483Y-96048433D01*
X146753492Y-96048429D01*
X146967578Y-95948600D01*
X147161082Y-95813105D01*
X147328105Y-95646082D01*
X147458119Y-95460405D01*
X147512696Y-95416781D01*
X147582195Y-95409588D01*
X147644549Y-95441110D01*
X147661269Y-95460405D01*
X147791505Y-95646401D01*
X147958599Y-95813495D01*
X148053272Y-95879786D01*
X148152165Y-95949032D01*
X148152167Y-95949033D01*
X148152170Y-95949035D01*
X148366337Y-96048903D01*
X148366343Y-96048904D01*
X148366344Y-96048905D01*
X148421285Y-96063626D01*
X148594592Y-96110063D01*
X148771034Y-96125500D01*
X148829999Y-96130659D01*
X148830000Y-96130659D01*
X148830001Y-96130659D01*
X148888966Y-96125500D01*
X149065408Y-96110063D01*
X149293663Y-96048903D01*
X149507830Y-95949035D01*
X149701401Y-95813495D01*
X149868495Y-95646401D01*
X150004035Y-95452830D01*
X150103903Y-95238663D01*
X150165063Y-95010408D01*
X150185659Y-94775000D01*
X150185163Y-94769336D01*
X150176511Y-94670445D01*
X150165063Y-94539592D01*
X150145614Y-94467007D01*
X150147277Y-94397162D01*
X150177706Y-94347238D01*
X150888321Y-93636623D01*
X150949642Y-93603140D01*
X151019334Y-93608124D01*
X151075267Y-93649996D01*
X151099684Y-93715460D01*
X151100000Y-93724306D01*
X151100000Y-94524971D01*
X151100001Y-94524987D01*
X151110494Y-94627697D01*
X151165641Y-94794119D01*
X151165643Y-94794124D01*
X151252477Y-94934903D01*
X151270917Y-95002296D01*
X151252477Y-95065097D01*
X151165643Y-95205875D01*
X151165641Y-95205880D01*
X151110494Y-95372302D01*
X151110493Y-95372309D01*
X151100000Y-95475013D01*
X151100000Y-96524971D01*
X151100001Y-96524987D01*
X151110494Y-96627697D01*
X151165641Y-96794119D01*
X151165643Y-96794124D01*
X151257684Y-96943345D01*
X151381654Y-97067315D01*
X151530875Y-97159356D01*
X151530880Y-97159358D01*
X151697302Y-97214505D01*
X151697309Y-97214506D01*
X151800019Y-97224999D01*
X152399971Y-97224999D01*
X152399987Y-97224998D01*
X152502697Y-97214505D01*
X152669119Y-97159358D01*
X152669124Y-97159356D01*
X152818345Y-97067315D01*
X152942318Y-96943342D01*
X152944165Y-96940348D01*
X152945969Y-96938724D01*
X152946798Y-96937677D01*
X152946976Y-96937818D01*
X152996110Y-96893621D01*
X153065073Y-96882396D01*
X153129156Y-96910236D01*
X153155243Y-96940341D01*
X153157288Y-96943656D01*
X153281344Y-97067712D01*
X153430666Y-97159814D01*
X153597203Y-97214999D01*
X153699991Y-97225500D01*
X154300008Y-97225499D01*
X154300016Y-97225498D01*
X154300019Y-97225498D01*
X154356302Y-97219748D01*
X154402797Y-97214999D01*
X154569334Y-97159814D01*
X154718656Y-97067712D01*
X154842712Y-96943656D01*
X154934814Y-96794334D01*
X154989999Y-96627797D01*
X155000500Y-96525009D01*
X155000499Y-95970806D01*
X155020183Y-95903768D01*
X155036813Y-95883131D01*
X155098224Y-95821720D01*
X155159545Y-95788237D01*
X155172019Y-95786183D01*
X155179255Y-95785368D01*
X155349522Y-95725789D01*
X155502262Y-95629816D01*
X155629816Y-95502262D01*
X155725789Y-95349522D01*
X155785368Y-95179255D01*
X155785779Y-95175606D01*
X155805565Y-95000003D01*
X155805565Y-94999996D01*
X155785369Y-94820750D01*
X155785368Y-94820745D01*
X155767379Y-94769336D01*
X155725789Y-94650478D01*
X155691148Y-94595348D01*
X155656117Y-94539596D01*
X155629816Y-94497738D01*
X155502262Y-94370184D01*
X155378118Y-94292179D01*
X155349521Y-94274210D01*
X155179249Y-94214630D01*
X155110615Y-94206897D01*
X155046201Y-94179830D01*
X155006646Y-94122235D01*
X155000499Y-94083677D01*
X155000499Y-93474998D01*
X155000498Y-93474981D01*
X154989999Y-93372203D01*
X154989998Y-93372200D01*
X154957290Y-93273495D01*
X154934814Y-93205666D01*
X154842712Y-93056344D01*
X154718656Y-92932288D01*
X154602270Y-92860501D01*
X154569336Y-92840187D01*
X154569331Y-92840185D01*
X154567862Y-92839698D01*
X154402797Y-92785001D01*
X154402795Y-92785000D01*
X154300010Y-92774500D01*
X153699998Y-92774500D01*
X153699980Y-92774501D01*
X153597203Y-92785000D01*
X153597200Y-92785001D01*
X153430668Y-92840185D01*
X153430663Y-92840187D01*
X153281342Y-92932289D01*
X153157288Y-93056343D01*
X153157283Y-93056349D01*
X153155241Y-93059661D01*
X153153247Y-93061453D01*
X153152807Y-93062011D01*
X153152711Y-93061935D01*
X153103291Y-93106383D01*
X153034328Y-93117602D01*
X152970247Y-93089755D01*
X152944168Y-93059656D01*
X152942319Y-93056659D01*
X152942316Y-93056655D01*
X152818345Y-92932684D01*
X152669124Y-92840643D01*
X152669119Y-92840641D01*
X152502697Y-92785494D01*
X152502690Y-92785493D01*
X152399986Y-92775000D01*
X152049306Y-92775000D01*
X151982267Y-92755315D01*
X151936512Y-92702511D01*
X151926568Y-92633353D01*
X151955593Y-92569797D01*
X151961600Y-92563345D01*
X152338127Y-92186819D01*
X152399450Y-92153334D01*
X152425808Y-92150500D01*
X160082531Y-92150500D01*
X160149570Y-92170185D01*
X160195325Y-92222989D01*
X160205269Y-92292147D01*
X160200239Y-92313492D01*
X160172638Y-92396788D01*
X160172500Y-92397206D01*
X160162000Y-92499983D01*
X160162000Y-93500001D01*
X160162001Y-93500019D01*
X160172500Y-93602796D01*
X160172501Y-93602799D01*
X160216808Y-93736506D01*
X160227686Y-93769334D01*
X160319788Y-93918656D01*
X160443844Y-94042712D01*
X160465594Y-94056127D01*
X160512320Y-94108073D01*
X160524500Y-94161667D01*
X160524500Y-94595348D01*
X160504815Y-94662387D01*
X160463621Y-94702080D01*
X160383805Y-94749282D01*
X160383796Y-94749289D01*
X160274289Y-94858796D01*
X160274282Y-94858805D01*
X160195445Y-94992112D01*
X160195443Y-94992118D01*
X160161479Y-95109023D01*
X160123873Y-95167909D01*
X160060400Y-95197115D01*
X160028520Y-95197648D01*
X160000003Y-95194435D01*
X159999996Y-95194435D01*
X159820750Y-95214630D01*
X159820745Y-95214631D01*
X159650476Y-95274211D01*
X159497737Y-95370184D01*
X159370184Y-95497737D01*
X159274211Y-95650476D01*
X159214631Y-95820745D01*
X159214630Y-95820750D01*
X159194435Y-95999996D01*
X159194435Y-96000003D01*
X159214630Y-96179249D01*
X159214631Y-96179254D01*
X159274211Y-96349523D01*
X159363232Y-96491198D01*
X159370184Y-96502262D01*
X159497738Y-96629816D01*
X159576897Y-96679555D01*
X159650014Y-96725498D01*
X159650478Y-96725789D01*
X159820745Y-96785368D01*
X159827974Y-96786182D01*
X159892388Y-96813246D01*
X159901776Y-96821722D01*
X160235325Y-97155272D01*
X160235332Y-97155278D01*
X160324711Y-97214998D01*
X160324712Y-97214998D01*
X160324713Y-97214999D01*
X160341873Y-97226465D01*
X160349373Y-97229571D01*
X160377921Y-97246153D01*
X160383803Y-97250716D01*
X160414328Y-97268768D01*
X160462011Y-97319837D01*
X160474515Y-97388578D01*
X160447870Y-97453168D01*
X160390535Y-97493098D01*
X160351207Y-97499500D01*
X100624500Y-97499500D01*
X100557461Y-97479815D01*
X100511706Y-97427011D01*
X100500500Y-97375500D01*
X100500500Y-94893713D01*
X101649500Y-94893713D01*
X101649500Y-95106287D01*
X101659260Y-95167909D01*
X101676575Y-95277235D01*
X101682754Y-95316243D01*
X101745321Y-95508805D01*
X101748444Y-95518414D01*
X101844951Y-95707820D01*
X101969890Y-95879786D01*
X102120213Y-96030109D01*
X102292179Y-96155048D01*
X102292181Y-96155049D01*
X102292184Y-96155051D01*
X102481588Y-96251557D01*
X102683757Y-96317246D01*
X102893713Y-96350500D01*
X102893714Y-96350500D01*
X103106286Y-96350500D01*
X103106287Y-96350500D01*
X103316243Y-96317246D01*
X103518412Y-96251557D01*
X103707816Y-96155051D01*
X103800544Y-96087681D01*
X103879786Y-96030109D01*
X103879788Y-96030106D01*
X103879792Y-96030104D01*
X104030104Y-95879792D01*
X104030106Y-95879788D01*
X104030109Y-95879786D01*
X104155048Y-95707820D01*
X104155047Y-95707820D01*
X104155051Y-95707816D01*
X104251557Y-95518412D01*
X104317246Y-95316243D01*
X104350500Y-95106287D01*
X104350500Y-94893713D01*
X104317246Y-94683757D01*
X104251557Y-94481588D01*
X104155051Y-94292184D01*
X104155049Y-94292181D01*
X104155048Y-94292179D01*
X104030109Y-94120213D01*
X103879786Y-93969890D01*
X103707820Y-93844951D01*
X103518414Y-93748444D01*
X103518413Y-93748443D01*
X103518412Y-93748443D01*
X103316243Y-93682754D01*
X103316241Y-93682753D01*
X103316240Y-93682753D01*
X103154957Y-93657208D01*
X103106287Y-93649500D01*
X102893713Y-93649500D01*
X102845042Y-93657208D01*
X102683760Y-93682753D01*
X102481585Y-93748444D01*
X102292179Y-93844951D01*
X102120213Y-93969890D01*
X101969890Y-94120213D01*
X101844951Y-94292179D01*
X101748444Y-94481585D01*
X101682753Y-94683760D01*
X101668302Y-94775000D01*
X101649500Y-94893713D01*
X100500500Y-94893713D01*
X100500500Y-83311126D01*
X103205000Y-83311126D01*
X103205000Y-84688873D01*
X103211386Y-84759152D01*
X103261776Y-84920862D01*
X103261778Y-84920866D01*
X103349404Y-85065818D01*
X103349407Y-85065822D01*
X103469177Y-85185592D01*
X103469181Y-85185595D01*
X103614133Y-85273221D01*
X103614137Y-85273223D01*
X103775848Y-85323613D01*
X103775846Y-85323613D01*
X103846127Y-85330000D01*
X104353873Y-85330000D01*
X104424152Y-85323613D01*
X104585862Y-85273223D01*
X104585866Y-85273221D01*
X104730818Y-85185595D01*
X104730822Y-85185592D01*
X104850593Y-85065821D01*
X104893589Y-84994695D01*
X104945116Y-84947506D01*
X105013975Y-84935667D01*
X105078304Y-84962934D01*
X105105824Y-84994693D01*
X105149010Y-85066132D01*
X105268867Y-85185989D01*
X105268871Y-85185992D01*
X105363449Y-85243166D01*
X105413928Y-85273681D01*
X105575758Y-85324110D01*
X105646079Y-85330500D01*
X106153920Y-85330499D01*
X106153927Y-85330499D01*
X106224235Y-85324111D01*
X106224236Y-85324110D01*
X106224242Y-85324110D01*
X106386072Y-85273681D01*
X106531132Y-85185990D01*
X106650990Y-85066132D01*
X106738681Y-84921072D01*
X106789110Y-84759242D01*
X106795500Y-84688921D01*
X106795499Y-84421277D01*
X106815183Y-84354240D01*
X106867987Y-84308485D01*
X106933382Y-84298059D01*
X106958520Y-84300891D01*
X106999998Y-84305565D01*
X107000000Y-84305565D01*
X107000004Y-84305565D01*
X107179249Y-84285369D01*
X107179252Y-84285368D01*
X107179255Y-84285368D01*
X107349522Y-84225789D01*
X107502262Y-84129816D01*
X107629816Y-84002262D01*
X107725789Y-83849522D01*
X107785368Y-83679255D01*
X107785369Y-83679249D01*
X107805565Y-83500003D01*
X107805565Y-83499996D01*
X107785369Y-83320750D01*
X107785368Y-83320745D01*
X107759630Y-83247191D01*
X107725789Y-83150478D01*
X107722214Y-83144789D01*
X107664342Y-83052686D01*
X107629816Y-82997738D01*
X107502262Y-82870184D01*
X107349523Y-82774211D01*
X107179254Y-82714631D01*
X107179249Y-82714630D01*
X107000004Y-82694435D01*
X106999996Y-82694435D01*
X106820750Y-82714630D01*
X106820737Y-82714633D01*
X106650478Y-82774210D01*
X106624386Y-82790604D01*
X106557149Y-82809602D01*
X106494269Y-82791725D01*
X106386074Y-82726320D01*
X106386068Y-82726317D01*
X106224246Y-82675891D01*
X106224238Y-82675889D01*
X106175003Y-82671415D01*
X106153921Y-82669500D01*
X106153918Y-82669500D01*
X105646071Y-82669500D01*
X105575764Y-82675888D01*
X105575757Y-82675890D01*
X105413934Y-82726316D01*
X105413926Y-82726319D01*
X105268871Y-82814007D01*
X105268867Y-82814010D01*
X105149010Y-82933867D01*
X105149010Y-82933868D01*
X105105824Y-83005306D01*
X105054296Y-83052494D01*
X104985436Y-83064332D01*
X104921108Y-83037063D01*
X104893589Y-83005305D01*
X104850591Y-82934176D01*
X104730822Y-82814407D01*
X104730818Y-82814404D01*
X104585866Y-82726778D01*
X104585862Y-82726776D01*
X104424151Y-82676386D01*
X104424153Y-82676386D01*
X104353873Y-82670000D01*
X103846127Y-82670000D01*
X103775847Y-82676386D01*
X103614137Y-82726776D01*
X103614133Y-82726778D01*
X103469181Y-82814404D01*
X103469177Y-82814407D01*
X103349407Y-82934177D01*
X103349404Y-82934181D01*
X103261778Y-83079133D01*
X103261776Y-83079137D01*
X103211386Y-83240847D01*
X103205000Y-83311126D01*
X100500500Y-83311126D01*
X100500500Y-82124500D01*
X100520185Y-82057461D01*
X100572989Y-82011706D01*
X100624500Y-82000500D01*
X179375500Y-82000500D01*
X179442539Y-82020185D01*
G37*
%TD.AperFunction*%
%TD*%
M02*
