M48
; DRILL file {KiCad 8.0.7} date 2025-03-24T22:32:26+1000
; FORMAT={-:-/ absolute / metric / decimal}
; #@! TF.CreationDate,2025-03-24T22:32:26+10:00
; #@! TF.GenerationSoftware,Kicad,Pcbnew,8.0.7
; #@! TF.FileFunction,Plated,1,2,PTH
FMAT,2
METRIC
; #@! TA.AperFunction,Plated,PTH,ViaDrill
T1C0.300
; #@! TA.AperFunction,Plated,PTH,ComponentDrill
T2C1.000
%
G90
G05
T1
X107.0Y-83.5
X114.0Y-86.5
X117.0Y-83.5
X120.75Y-90.75
X127.0Y-83.5
X128.5Y-96.5
X134.0Y-86.5
X137.0Y-83.5
X147.0Y-83.5
X154.0Y-86.5
X157.0Y-83.5
X167.0Y-83.5
X174.0Y-86.5
X177.0Y-83.5
T2
X131.09Y-92.235
X131.09Y-94.775
X133.63Y-92.235
X133.63Y-94.775
X136.17Y-92.235
X136.17Y-94.775
X138.71Y-92.235
X138.71Y-94.775
X141.25Y-92.235
X141.25Y-94.775
X143.79Y-92.235
X143.79Y-94.775
X146.33Y-92.235
X146.33Y-94.775
X148.87Y-92.235
X148.87Y-94.775
M30
