M48
; DRILL file {KiCad 8.0.7} date 2025-03-24T20:13:01+1000
; FORMAT={-:-/ absolute / metric / decimal}
; #@! TF.CreationDate,2025-03-24T20:13:01+10:00
; #@! TF.GenerationSoftware,Kicad,Pcbnew,8.0.7
; #@! TF.FileFunction,Plated,1,2,PTH
FMAT,2
METRIC
; #@! TA.AperFunction,Plated,PTH,ViaDrill
T1C0.300
; #@! TA.AperFunction,Plated,PTH,ComponentDrill
T2C1.000
%
G90
G05
T1
X107.0Y-83.5
X114.0Y-86.5
X117.0Y-83.5
X127.0Y-83.5
X134.0Y-86.5
X137.0Y-83.5
X147.0Y-83.5
X154.0Y-86.5
X155.0Y-95.0
X157.0Y-83.5
X160.0Y-96.0
X167.0Y-83.5
X168.0Y-95.0
X174.0Y-86.5
X177.0Y-83.5
T2
X131.05Y-92.235
X131.05Y-94.775
X133.59Y-92.235
X133.59Y-94.775
X136.13Y-92.235
X136.13Y-94.775
X138.67Y-92.235
X138.67Y-94.775
X141.21Y-92.235
X141.21Y-94.775
X143.75Y-92.235
X143.75Y-94.775
X146.29Y-92.235
X146.29Y-94.775
X148.83Y-92.235
X148.83Y-94.775
M30
