%TF.GenerationSoftware,KiCad,Pcbnew,9.0.1*%
%TF.CreationDate,2025-04-01T19:10:29+10:00*%
%TF.ProjectId,Ir PCB,49722050-4342-42e6-9b69-6361645f7063,rev?*%
%TF.SameCoordinates,Original*%
%TF.FileFunction,Legend,Top*%
%TF.FilePolarity,Positive*%
%FSLAX46Y46*%
G04 Gerber Fmt 4.6, Leading zero omitted, Abs format (unit mm)*
G04 Created by KiCad (PCBNEW 9.0.1) date 2025-04-01 19:10:29*
%MOMM*%
%LPD*%
G01*
G04 APERTURE LIST*
%ADD10C,0.300000*%
%ADD11C,0.100000*%
%ADD12C,0.150000*%
%ADD13C,0.120000*%
G04 APERTURE END LIST*
D10*
X157372257Y-121659774D02*
X157300828Y-121802632D01*
X157300828Y-121802632D02*
X157300828Y-122016917D01*
X157300828Y-122016917D02*
X157372257Y-122231203D01*
X157372257Y-122231203D02*
X157515114Y-122374060D01*
X157515114Y-122374060D02*
X157657971Y-122445489D01*
X157657971Y-122445489D02*
X157943685Y-122516917D01*
X157943685Y-122516917D02*
X158157971Y-122516917D01*
X158157971Y-122516917D02*
X158443685Y-122445489D01*
X158443685Y-122445489D02*
X158586542Y-122374060D01*
X158586542Y-122374060D02*
X158729400Y-122231203D01*
X158729400Y-122231203D02*
X158800828Y-122016917D01*
X158800828Y-122016917D02*
X158800828Y-121874060D01*
X158800828Y-121874060D02*
X158729400Y-121659774D01*
X158729400Y-121659774D02*
X158657971Y-121588346D01*
X158657971Y-121588346D02*
X158157971Y-121588346D01*
X158157971Y-121588346D02*
X158157971Y-121874060D01*
X158800828Y-120945489D02*
X157300828Y-120945489D01*
X157300828Y-120945489D02*
X158800828Y-120088346D01*
X158800828Y-120088346D02*
X157300828Y-120088346D01*
X158800828Y-119374060D02*
X157300828Y-119374060D01*
X157300828Y-119374060D02*
X157300828Y-119016917D01*
X157300828Y-119016917D02*
X157372257Y-118802631D01*
X157372257Y-118802631D02*
X157515114Y-118659774D01*
X157515114Y-118659774D02*
X157657971Y-118588345D01*
X157657971Y-118588345D02*
X157943685Y-118516917D01*
X157943685Y-118516917D02*
X158157971Y-118516917D01*
X158157971Y-118516917D02*
X158443685Y-118588345D01*
X158443685Y-118588345D02*
X158586542Y-118659774D01*
X158586542Y-118659774D02*
X158729400Y-118802631D01*
X158729400Y-118802631D02*
X158800828Y-119016917D01*
X158800828Y-119016917D02*
X158800828Y-119374060D01*
X145729400Y-122516917D02*
X145800828Y-122302632D01*
X145800828Y-122302632D02*
X145800828Y-121945489D01*
X145800828Y-121945489D02*
X145729400Y-121802632D01*
X145729400Y-121802632D02*
X145657971Y-121731203D01*
X145657971Y-121731203D02*
X145515114Y-121659774D01*
X145515114Y-121659774D02*
X145372257Y-121659774D01*
X145372257Y-121659774D02*
X145229400Y-121731203D01*
X145229400Y-121731203D02*
X145157971Y-121802632D01*
X145157971Y-121802632D02*
X145086542Y-121945489D01*
X145086542Y-121945489D02*
X145015114Y-122231203D01*
X145015114Y-122231203D02*
X144943685Y-122374060D01*
X144943685Y-122374060D02*
X144872257Y-122445489D01*
X144872257Y-122445489D02*
X144729400Y-122516917D01*
X144729400Y-122516917D02*
X144586542Y-122516917D01*
X144586542Y-122516917D02*
X144443685Y-122445489D01*
X144443685Y-122445489D02*
X144372257Y-122374060D01*
X144372257Y-122374060D02*
X144300828Y-122231203D01*
X144300828Y-122231203D02*
X144300828Y-121874060D01*
X144300828Y-121874060D02*
X144372257Y-121659774D01*
X144800828Y-120374061D02*
X145800828Y-120374061D01*
X144229400Y-120731203D02*
X145300828Y-121088346D01*
X145300828Y-121088346D02*
X145300828Y-120159775D01*
X155729400Y-122516917D02*
X155800828Y-122302632D01*
X155800828Y-122302632D02*
X155800828Y-121945489D01*
X155800828Y-121945489D02*
X155729400Y-121802632D01*
X155729400Y-121802632D02*
X155657971Y-121731203D01*
X155657971Y-121731203D02*
X155515114Y-121659774D01*
X155515114Y-121659774D02*
X155372257Y-121659774D01*
X155372257Y-121659774D02*
X155229400Y-121731203D01*
X155229400Y-121731203D02*
X155157971Y-121802632D01*
X155157971Y-121802632D02*
X155086542Y-121945489D01*
X155086542Y-121945489D02*
X155015114Y-122231203D01*
X155015114Y-122231203D02*
X154943685Y-122374060D01*
X154943685Y-122374060D02*
X154872257Y-122445489D01*
X154872257Y-122445489D02*
X154729400Y-122516917D01*
X154729400Y-122516917D02*
X154586542Y-122516917D01*
X154586542Y-122516917D02*
X154443685Y-122445489D01*
X154443685Y-122445489D02*
X154372257Y-122374060D01*
X154372257Y-122374060D02*
X154300828Y-122231203D01*
X154300828Y-122231203D02*
X154300828Y-121874060D01*
X154300828Y-121874060D02*
X154372257Y-121659774D01*
X155800828Y-120231203D02*
X155800828Y-121088346D01*
X155800828Y-120659775D02*
X154300828Y-120659775D01*
X154300828Y-120659775D02*
X154515114Y-120802632D01*
X154515114Y-120802632D02*
X154657971Y-120945489D01*
X154657971Y-120945489D02*
X154729400Y-121088346D01*
X149300828Y-122659774D02*
X150800828Y-122159774D01*
X150800828Y-122159774D02*
X149300828Y-121659774D01*
X150657971Y-120302632D02*
X150729400Y-120374060D01*
X150729400Y-120374060D02*
X150800828Y-120588346D01*
X150800828Y-120588346D02*
X150800828Y-120731203D01*
X150800828Y-120731203D02*
X150729400Y-120945489D01*
X150729400Y-120945489D02*
X150586542Y-121088346D01*
X150586542Y-121088346D02*
X150443685Y-121159775D01*
X150443685Y-121159775D02*
X150157971Y-121231203D01*
X150157971Y-121231203D02*
X149943685Y-121231203D01*
X149943685Y-121231203D02*
X149657971Y-121159775D01*
X149657971Y-121159775D02*
X149515114Y-121088346D01*
X149515114Y-121088346D02*
X149372257Y-120945489D01*
X149372257Y-120945489D02*
X149300828Y-120731203D01*
X149300828Y-120731203D02*
X149300828Y-120588346D01*
X149300828Y-120588346D02*
X149372257Y-120374060D01*
X149372257Y-120374060D02*
X149443685Y-120302632D01*
X150657971Y-118802632D02*
X150729400Y-118874060D01*
X150729400Y-118874060D02*
X150800828Y-119088346D01*
X150800828Y-119088346D02*
X150800828Y-119231203D01*
X150800828Y-119231203D02*
X150729400Y-119445489D01*
X150729400Y-119445489D02*
X150586542Y-119588346D01*
X150586542Y-119588346D02*
X150443685Y-119659775D01*
X150443685Y-119659775D02*
X150157971Y-119731203D01*
X150157971Y-119731203D02*
X149943685Y-119731203D01*
X149943685Y-119731203D02*
X149657971Y-119659775D01*
X149657971Y-119659775D02*
X149515114Y-119588346D01*
X149515114Y-119588346D02*
X149372257Y-119445489D01*
X149372257Y-119445489D02*
X149300828Y-119231203D01*
X149300828Y-119231203D02*
X149300828Y-119088346D01*
X149300828Y-119088346D02*
X149372257Y-118874060D01*
X149372257Y-118874060D02*
X149443685Y-118802632D01*
D11*
X143218665Y-118616115D02*
X143218665Y-118282782D01*
X143742475Y-118139925D02*
X143742475Y-118616115D01*
X143742475Y-118616115D02*
X142742475Y-118616115D01*
X142742475Y-118616115D02*
X142742475Y-118139925D01*
X142790094Y-117187544D02*
X142742475Y-117282782D01*
X142742475Y-117282782D02*
X142742475Y-117425639D01*
X142742475Y-117425639D02*
X142790094Y-117568496D01*
X142790094Y-117568496D02*
X142885332Y-117663734D01*
X142885332Y-117663734D02*
X142980570Y-117711353D01*
X142980570Y-117711353D02*
X143171046Y-117758972D01*
X143171046Y-117758972D02*
X143313903Y-117758972D01*
X143313903Y-117758972D02*
X143504379Y-117711353D01*
X143504379Y-117711353D02*
X143599617Y-117663734D01*
X143599617Y-117663734D02*
X143694856Y-117568496D01*
X143694856Y-117568496D02*
X143742475Y-117425639D01*
X143742475Y-117425639D02*
X143742475Y-117330401D01*
X143742475Y-117330401D02*
X143694856Y-117187544D01*
X143694856Y-117187544D02*
X143647236Y-117139925D01*
X143647236Y-117139925D02*
X143313903Y-117139925D01*
X143313903Y-117139925D02*
X143313903Y-117330401D01*
X143218665Y-116378020D02*
X143266284Y-116235163D01*
X143266284Y-116235163D02*
X143313903Y-116187544D01*
X143313903Y-116187544D02*
X143409141Y-116139925D01*
X143409141Y-116139925D02*
X143551998Y-116139925D01*
X143551998Y-116139925D02*
X143647236Y-116187544D01*
X143647236Y-116187544D02*
X143694856Y-116235163D01*
X143694856Y-116235163D02*
X143742475Y-116330401D01*
X143742475Y-116330401D02*
X143742475Y-116711353D01*
X143742475Y-116711353D02*
X142742475Y-116711353D01*
X142742475Y-116711353D02*
X142742475Y-116378020D01*
X142742475Y-116378020D02*
X142790094Y-116282782D01*
X142790094Y-116282782D02*
X142837713Y-116235163D01*
X142837713Y-116235163D02*
X142932951Y-116187544D01*
X142932951Y-116187544D02*
X143028189Y-116187544D01*
X143028189Y-116187544D02*
X143123427Y-116235163D01*
X143123427Y-116235163D02*
X143171046Y-116282782D01*
X143171046Y-116282782D02*
X143218665Y-116378020D01*
X143218665Y-116378020D02*
X143218665Y-116711353D01*
X142837713Y-115758972D02*
X142790094Y-115711353D01*
X142790094Y-115711353D02*
X142742475Y-115616115D01*
X142742475Y-115616115D02*
X142742475Y-115378020D01*
X142742475Y-115378020D02*
X142790094Y-115282782D01*
X142790094Y-115282782D02*
X142837713Y-115235163D01*
X142837713Y-115235163D02*
X142932951Y-115187544D01*
X142932951Y-115187544D02*
X143028189Y-115187544D01*
X143028189Y-115187544D02*
X143171046Y-115235163D01*
X143171046Y-115235163D02*
X143742475Y-115806591D01*
X143742475Y-115806591D02*
X143742475Y-115187544D01*
X142837713Y-114806591D02*
X142790094Y-114758972D01*
X142790094Y-114758972D02*
X142742475Y-114663734D01*
X142742475Y-114663734D02*
X142742475Y-114425639D01*
X142742475Y-114425639D02*
X142790094Y-114330401D01*
X142790094Y-114330401D02*
X142837713Y-114282782D01*
X142837713Y-114282782D02*
X142932951Y-114235163D01*
X142932951Y-114235163D02*
X143028189Y-114235163D01*
X143028189Y-114235163D02*
X143171046Y-114282782D01*
X143171046Y-114282782D02*
X143742475Y-114854210D01*
X143742475Y-114854210D02*
X143742475Y-114235163D01*
X142742475Y-113616115D02*
X142742475Y-113520877D01*
X142742475Y-113520877D02*
X142790094Y-113425639D01*
X142790094Y-113425639D02*
X142837713Y-113378020D01*
X142837713Y-113378020D02*
X142932951Y-113330401D01*
X142932951Y-113330401D02*
X143123427Y-113282782D01*
X143123427Y-113282782D02*
X143361522Y-113282782D01*
X143361522Y-113282782D02*
X143551998Y-113330401D01*
X143551998Y-113330401D02*
X143647236Y-113378020D01*
X143647236Y-113378020D02*
X143694856Y-113425639D01*
X143694856Y-113425639D02*
X143742475Y-113520877D01*
X143742475Y-113520877D02*
X143742475Y-113616115D01*
X143742475Y-113616115D02*
X143694856Y-113711353D01*
X143694856Y-113711353D02*
X143647236Y-113758972D01*
X143647236Y-113758972D02*
X143551998Y-113806591D01*
X143551998Y-113806591D02*
X143361522Y-113854210D01*
X143361522Y-113854210D02*
X143123427Y-113854210D01*
X143123427Y-113854210D02*
X142932951Y-113806591D01*
X142932951Y-113806591D02*
X142837713Y-113758972D01*
X142837713Y-113758972D02*
X142790094Y-113711353D01*
X142790094Y-113711353D02*
X142742475Y-113616115D01*
X143361522Y-112854210D02*
X143361522Y-112092306D01*
X143456760Y-111663734D02*
X143456760Y-111187544D01*
X143742475Y-111758972D02*
X142742475Y-111425639D01*
X142742475Y-111425639D02*
X143742475Y-111092306D01*
X143742475Y-110235163D02*
X143742475Y-110806591D01*
X143742475Y-110520877D02*
X142742475Y-110520877D01*
X142742475Y-110520877D02*
X142885332Y-110616115D01*
X142885332Y-110616115D02*
X142980570Y-110711353D01*
X142980570Y-110711353D02*
X143028189Y-110806591D01*
X142742475Y-109616115D02*
X142742475Y-109520877D01*
X142742475Y-109520877D02*
X142790094Y-109425639D01*
X142790094Y-109425639D02*
X142837713Y-109378020D01*
X142837713Y-109378020D02*
X142932951Y-109330401D01*
X142932951Y-109330401D02*
X143123427Y-109282782D01*
X143123427Y-109282782D02*
X143361522Y-109282782D01*
X143361522Y-109282782D02*
X143551998Y-109330401D01*
X143551998Y-109330401D02*
X143647236Y-109378020D01*
X143647236Y-109378020D02*
X143694856Y-109425639D01*
X143694856Y-109425639D02*
X143742475Y-109520877D01*
X143742475Y-109520877D02*
X143742475Y-109616115D01*
X143742475Y-109616115D02*
X143694856Y-109711353D01*
X143694856Y-109711353D02*
X143647236Y-109758972D01*
X143647236Y-109758972D02*
X143551998Y-109806591D01*
X143551998Y-109806591D02*
X143361522Y-109854210D01*
X143361522Y-109854210D02*
X143123427Y-109854210D01*
X143123427Y-109854210D02*
X142932951Y-109806591D01*
X142932951Y-109806591D02*
X142837713Y-109758972D01*
X142837713Y-109758972D02*
X142790094Y-109711353D01*
X142790094Y-109711353D02*
X142742475Y-109616115D01*
X142742475Y-108235162D02*
X142742475Y-107663734D01*
X143742475Y-107949448D02*
X142742475Y-107949448D01*
X143742475Y-106901829D02*
X143218665Y-106901829D01*
X143218665Y-106901829D02*
X143123427Y-106949448D01*
X143123427Y-106949448D02*
X143075808Y-107044686D01*
X143075808Y-107044686D02*
X143075808Y-107235162D01*
X143075808Y-107235162D02*
X143123427Y-107330400D01*
X143694856Y-106901829D02*
X143742475Y-106997067D01*
X143742475Y-106997067D02*
X143742475Y-107235162D01*
X143742475Y-107235162D02*
X143694856Y-107330400D01*
X143694856Y-107330400D02*
X143599617Y-107378019D01*
X143599617Y-107378019D02*
X143504379Y-107378019D01*
X143504379Y-107378019D02*
X143409141Y-107330400D01*
X143409141Y-107330400D02*
X143361522Y-107235162D01*
X143361522Y-107235162D02*
X143361522Y-106997067D01*
X143361522Y-106997067D02*
X143313903Y-106901829D01*
X143742475Y-106425638D02*
X143075808Y-106425638D01*
X143266284Y-106425638D02*
X143171046Y-106378019D01*
X143171046Y-106378019D02*
X143123427Y-106330400D01*
X143123427Y-106330400D02*
X143075808Y-106235162D01*
X143075808Y-106235162D02*
X143075808Y-106139924D01*
X143075808Y-105378019D02*
X143885332Y-105378019D01*
X143885332Y-105378019D02*
X143980570Y-105425638D01*
X143980570Y-105425638D02*
X144028189Y-105473257D01*
X144028189Y-105473257D02*
X144075808Y-105568495D01*
X144075808Y-105568495D02*
X144075808Y-105711352D01*
X144075808Y-105711352D02*
X144028189Y-105806590D01*
X143694856Y-105378019D02*
X143742475Y-105473257D01*
X143742475Y-105473257D02*
X143742475Y-105663733D01*
X143742475Y-105663733D02*
X143694856Y-105758971D01*
X143694856Y-105758971D02*
X143647236Y-105806590D01*
X143647236Y-105806590D02*
X143551998Y-105854209D01*
X143551998Y-105854209D02*
X143266284Y-105854209D01*
X143266284Y-105854209D02*
X143171046Y-105806590D01*
X143171046Y-105806590D02*
X143123427Y-105758971D01*
X143123427Y-105758971D02*
X143075808Y-105663733D01*
X143075808Y-105663733D02*
X143075808Y-105473257D01*
X143075808Y-105473257D02*
X143123427Y-105378019D01*
X143694856Y-104520876D02*
X143742475Y-104616114D01*
X143742475Y-104616114D02*
X143742475Y-104806590D01*
X143742475Y-104806590D02*
X143694856Y-104901828D01*
X143694856Y-104901828D02*
X143599617Y-104949447D01*
X143599617Y-104949447D02*
X143218665Y-104949447D01*
X143218665Y-104949447D02*
X143123427Y-104901828D01*
X143123427Y-104901828D02*
X143075808Y-104806590D01*
X143075808Y-104806590D02*
X143075808Y-104616114D01*
X143075808Y-104616114D02*
X143123427Y-104520876D01*
X143123427Y-104520876D02*
X143218665Y-104473257D01*
X143218665Y-104473257D02*
X143313903Y-104473257D01*
X143313903Y-104473257D02*
X143409141Y-104949447D01*
X143075808Y-104187542D02*
X143075808Y-103806590D01*
X142742475Y-104044685D02*
X143599617Y-104044685D01*
X143599617Y-104044685D02*
X143694856Y-103997066D01*
X143694856Y-103997066D02*
X143742475Y-103901828D01*
X143742475Y-103901828D02*
X143742475Y-103806590D01*
X143075808Y-103616113D02*
X143075808Y-103235161D01*
X142742475Y-103473256D02*
X143599617Y-103473256D01*
X143599617Y-103473256D02*
X143694856Y-103425637D01*
X143694856Y-103425637D02*
X143742475Y-103330399D01*
X143742475Y-103330399D02*
X143742475Y-103235161D01*
X143742475Y-102901827D02*
X143075808Y-102901827D01*
X142742475Y-102901827D02*
X142790094Y-102949446D01*
X142790094Y-102949446D02*
X142837713Y-102901827D01*
X142837713Y-102901827D02*
X142790094Y-102854208D01*
X142790094Y-102854208D02*
X142742475Y-102901827D01*
X142742475Y-102901827D02*
X142837713Y-102901827D01*
X143075808Y-102425637D02*
X143742475Y-102425637D01*
X143171046Y-102425637D02*
X143123427Y-102378018D01*
X143123427Y-102378018D02*
X143075808Y-102282780D01*
X143075808Y-102282780D02*
X143075808Y-102139923D01*
X143075808Y-102139923D02*
X143123427Y-102044685D01*
X143123427Y-102044685D02*
X143218665Y-101997066D01*
X143218665Y-101997066D02*
X143742475Y-101997066D01*
X143075808Y-101092304D02*
X143885332Y-101092304D01*
X143885332Y-101092304D02*
X143980570Y-101139923D01*
X143980570Y-101139923D02*
X144028189Y-101187542D01*
X144028189Y-101187542D02*
X144075808Y-101282780D01*
X144075808Y-101282780D02*
X144075808Y-101425637D01*
X144075808Y-101425637D02*
X144028189Y-101520875D01*
X143694856Y-101092304D02*
X143742475Y-101187542D01*
X143742475Y-101187542D02*
X143742475Y-101378018D01*
X143742475Y-101378018D02*
X143694856Y-101473256D01*
X143694856Y-101473256D02*
X143647236Y-101520875D01*
X143647236Y-101520875D02*
X143551998Y-101568494D01*
X143551998Y-101568494D02*
X143266284Y-101568494D01*
X143266284Y-101568494D02*
X143171046Y-101520875D01*
X143171046Y-101520875D02*
X143123427Y-101473256D01*
X143123427Y-101473256D02*
X143075808Y-101378018D01*
X143075808Y-101378018D02*
X143075808Y-101187542D01*
X143075808Y-101187542D02*
X143123427Y-101092304D01*
X143456760Y-99901827D02*
X143456760Y-99425637D01*
X143742475Y-99997065D02*
X142742475Y-99663732D01*
X142742475Y-99663732D02*
X143742475Y-99330399D01*
X143742475Y-98997065D02*
X143075808Y-98997065D01*
X143266284Y-98997065D02*
X143171046Y-98949446D01*
X143171046Y-98949446D02*
X143123427Y-98901827D01*
X143123427Y-98901827D02*
X143075808Y-98806589D01*
X143075808Y-98806589D02*
X143075808Y-98711351D01*
X143742475Y-98378017D02*
X143075808Y-98378017D01*
X143266284Y-98378017D02*
X143171046Y-98330398D01*
X143171046Y-98330398D02*
X143123427Y-98282779D01*
X143123427Y-98282779D02*
X143075808Y-98187541D01*
X143075808Y-98187541D02*
X143075808Y-98092303D01*
X143742475Y-97330398D02*
X143218665Y-97330398D01*
X143218665Y-97330398D02*
X143123427Y-97378017D01*
X143123427Y-97378017D02*
X143075808Y-97473255D01*
X143075808Y-97473255D02*
X143075808Y-97663731D01*
X143075808Y-97663731D02*
X143123427Y-97758969D01*
X143694856Y-97330398D02*
X143742475Y-97425636D01*
X143742475Y-97425636D02*
X143742475Y-97663731D01*
X143742475Y-97663731D02*
X143694856Y-97758969D01*
X143694856Y-97758969D02*
X143599617Y-97806588D01*
X143599617Y-97806588D02*
X143504379Y-97806588D01*
X143504379Y-97806588D02*
X143409141Y-97758969D01*
X143409141Y-97758969D02*
X143361522Y-97663731D01*
X143361522Y-97663731D02*
X143361522Y-97425636D01*
X143361522Y-97425636D02*
X143313903Y-97330398D01*
X143075808Y-96949445D02*
X143742475Y-96711350D01*
X143075808Y-96473255D02*
X143742475Y-96711350D01*
X143742475Y-96711350D02*
X143980570Y-96806588D01*
X143980570Y-96806588D02*
X144028189Y-96854207D01*
X144028189Y-96854207D02*
X144075808Y-96949445D01*
X145352419Y-118616115D02*
X144352419Y-118616115D01*
X144352419Y-118616115D02*
X144352419Y-118378020D01*
X144352419Y-118378020D02*
X144400038Y-118235163D01*
X144400038Y-118235163D02*
X144495276Y-118139925D01*
X144495276Y-118139925D02*
X144590514Y-118092306D01*
X144590514Y-118092306D02*
X144780990Y-118044687D01*
X144780990Y-118044687D02*
X144923847Y-118044687D01*
X144923847Y-118044687D02*
X145114323Y-118092306D01*
X145114323Y-118092306D02*
X145209561Y-118139925D01*
X145209561Y-118139925D02*
X145304800Y-118235163D01*
X145304800Y-118235163D02*
X145352419Y-118378020D01*
X145352419Y-118378020D02*
X145352419Y-118616115D01*
X145304800Y-117235163D02*
X145352419Y-117330401D01*
X145352419Y-117330401D02*
X145352419Y-117520877D01*
X145352419Y-117520877D02*
X145304800Y-117616115D01*
X145304800Y-117616115D02*
X145209561Y-117663734D01*
X145209561Y-117663734D02*
X144828609Y-117663734D01*
X144828609Y-117663734D02*
X144733371Y-117616115D01*
X144733371Y-117616115D02*
X144685752Y-117520877D01*
X144685752Y-117520877D02*
X144685752Y-117330401D01*
X144685752Y-117330401D02*
X144733371Y-117235163D01*
X144733371Y-117235163D02*
X144828609Y-117187544D01*
X144828609Y-117187544D02*
X144923847Y-117187544D01*
X144923847Y-117187544D02*
X145019085Y-117663734D01*
X145304800Y-116806591D02*
X145352419Y-116711353D01*
X145352419Y-116711353D02*
X145352419Y-116520877D01*
X145352419Y-116520877D02*
X145304800Y-116425639D01*
X145304800Y-116425639D02*
X145209561Y-116378020D01*
X145209561Y-116378020D02*
X145161942Y-116378020D01*
X145161942Y-116378020D02*
X145066704Y-116425639D01*
X145066704Y-116425639D02*
X145019085Y-116520877D01*
X145019085Y-116520877D02*
X145019085Y-116663734D01*
X145019085Y-116663734D02*
X144971466Y-116758972D01*
X144971466Y-116758972D02*
X144876228Y-116806591D01*
X144876228Y-116806591D02*
X144828609Y-116806591D01*
X144828609Y-116806591D02*
X144733371Y-116758972D01*
X144733371Y-116758972D02*
X144685752Y-116663734D01*
X144685752Y-116663734D02*
X144685752Y-116520877D01*
X144685752Y-116520877D02*
X144733371Y-116425639D01*
X145352419Y-115949448D02*
X144685752Y-115949448D01*
X144352419Y-115949448D02*
X144400038Y-115997067D01*
X144400038Y-115997067D02*
X144447657Y-115949448D01*
X144447657Y-115949448D02*
X144400038Y-115901829D01*
X144400038Y-115901829D02*
X144352419Y-115949448D01*
X144352419Y-115949448D02*
X144447657Y-115949448D01*
X144685752Y-115044687D02*
X145495276Y-115044687D01*
X145495276Y-115044687D02*
X145590514Y-115092306D01*
X145590514Y-115092306D02*
X145638133Y-115139925D01*
X145638133Y-115139925D02*
X145685752Y-115235163D01*
X145685752Y-115235163D02*
X145685752Y-115378020D01*
X145685752Y-115378020D02*
X145638133Y-115473258D01*
X145304800Y-115044687D02*
X145352419Y-115139925D01*
X145352419Y-115139925D02*
X145352419Y-115330401D01*
X145352419Y-115330401D02*
X145304800Y-115425639D01*
X145304800Y-115425639D02*
X145257180Y-115473258D01*
X145257180Y-115473258D02*
X145161942Y-115520877D01*
X145161942Y-115520877D02*
X144876228Y-115520877D01*
X144876228Y-115520877D02*
X144780990Y-115473258D01*
X144780990Y-115473258D02*
X144733371Y-115425639D01*
X144733371Y-115425639D02*
X144685752Y-115330401D01*
X144685752Y-115330401D02*
X144685752Y-115139925D01*
X144685752Y-115139925D02*
X144733371Y-115044687D01*
X144685752Y-114568496D02*
X145352419Y-114568496D01*
X144780990Y-114568496D02*
X144733371Y-114520877D01*
X144733371Y-114520877D02*
X144685752Y-114425639D01*
X144685752Y-114425639D02*
X144685752Y-114282782D01*
X144685752Y-114282782D02*
X144733371Y-114187544D01*
X144733371Y-114187544D02*
X144828609Y-114139925D01*
X144828609Y-114139925D02*
X145352419Y-114139925D01*
X145304800Y-113282782D02*
X145352419Y-113378020D01*
X145352419Y-113378020D02*
X145352419Y-113568496D01*
X145352419Y-113568496D02*
X145304800Y-113663734D01*
X145304800Y-113663734D02*
X145209561Y-113711353D01*
X145209561Y-113711353D02*
X144828609Y-113711353D01*
X144828609Y-113711353D02*
X144733371Y-113663734D01*
X144733371Y-113663734D02*
X144685752Y-113568496D01*
X144685752Y-113568496D02*
X144685752Y-113378020D01*
X144685752Y-113378020D02*
X144733371Y-113282782D01*
X144733371Y-113282782D02*
X144828609Y-113235163D01*
X144828609Y-113235163D02*
X144923847Y-113235163D01*
X144923847Y-113235163D02*
X145019085Y-113711353D01*
X145352419Y-112378020D02*
X144352419Y-112378020D01*
X145304800Y-112378020D02*
X145352419Y-112473258D01*
X145352419Y-112473258D02*
X145352419Y-112663734D01*
X145352419Y-112663734D02*
X145304800Y-112758972D01*
X145304800Y-112758972D02*
X145257180Y-112806591D01*
X145257180Y-112806591D02*
X145161942Y-112854210D01*
X145161942Y-112854210D02*
X144876228Y-112854210D01*
X144876228Y-112854210D02*
X144780990Y-112806591D01*
X144780990Y-112806591D02*
X144733371Y-112758972D01*
X144733371Y-112758972D02*
X144685752Y-112663734D01*
X144685752Y-112663734D02*
X144685752Y-112473258D01*
X144685752Y-112473258D02*
X144733371Y-112378020D01*
X145352419Y-111139924D02*
X144352419Y-111139924D01*
X144733371Y-111139924D02*
X144685752Y-111044686D01*
X144685752Y-111044686D02*
X144685752Y-110854210D01*
X144685752Y-110854210D02*
X144733371Y-110758972D01*
X144733371Y-110758972D02*
X144780990Y-110711353D01*
X144780990Y-110711353D02*
X144876228Y-110663734D01*
X144876228Y-110663734D02*
X145161942Y-110663734D01*
X145161942Y-110663734D02*
X145257180Y-110711353D01*
X145257180Y-110711353D02*
X145304800Y-110758972D01*
X145304800Y-110758972D02*
X145352419Y-110854210D01*
X145352419Y-110854210D02*
X145352419Y-111044686D01*
X145352419Y-111044686D02*
X145304800Y-111139924D01*
X144685752Y-110330400D02*
X145352419Y-110092305D01*
X144685752Y-109854210D02*
X145352419Y-110092305D01*
X145352419Y-110092305D02*
X145590514Y-110187543D01*
X145590514Y-110187543D02*
X145638133Y-110235162D01*
X145638133Y-110235162D02*
X145685752Y-110330400D01*
X145352419Y-108139924D02*
X144876228Y-108473257D01*
X145352419Y-108711352D02*
X144352419Y-108711352D01*
X144352419Y-108711352D02*
X144352419Y-108330400D01*
X144352419Y-108330400D02*
X144400038Y-108235162D01*
X144400038Y-108235162D02*
X144447657Y-108187543D01*
X144447657Y-108187543D02*
X144542895Y-108139924D01*
X144542895Y-108139924D02*
X144685752Y-108139924D01*
X144685752Y-108139924D02*
X144780990Y-108187543D01*
X144780990Y-108187543D02*
X144828609Y-108235162D01*
X144828609Y-108235162D02*
X144876228Y-108330400D01*
X144876228Y-108330400D02*
X144876228Y-108711352D01*
X145352419Y-107568495D02*
X145304800Y-107663733D01*
X145304800Y-107663733D02*
X145257180Y-107711352D01*
X145257180Y-107711352D02*
X145161942Y-107758971D01*
X145161942Y-107758971D02*
X144876228Y-107758971D01*
X144876228Y-107758971D02*
X144780990Y-107711352D01*
X144780990Y-107711352D02*
X144733371Y-107663733D01*
X144733371Y-107663733D02*
X144685752Y-107568495D01*
X144685752Y-107568495D02*
X144685752Y-107425638D01*
X144685752Y-107425638D02*
X144733371Y-107330400D01*
X144733371Y-107330400D02*
X144780990Y-107282781D01*
X144780990Y-107282781D02*
X144876228Y-107235162D01*
X144876228Y-107235162D02*
X145161942Y-107235162D01*
X145161942Y-107235162D02*
X145257180Y-107282781D01*
X145257180Y-107282781D02*
X145304800Y-107330400D01*
X145304800Y-107330400D02*
X145352419Y-107425638D01*
X145352419Y-107425638D02*
X145352419Y-107568495D01*
X145352419Y-106806590D02*
X144352419Y-106806590D01*
X145352419Y-106378019D02*
X144828609Y-106378019D01*
X144828609Y-106378019D02*
X144733371Y-106425638D01*
X144733371Y-106425638D02*
X144685752Y-106520876D01*
X144685752Y-106520876D02*
X144685752Y-106663733D01*
X144685752Y-106663733D02*
X144733371Y-106758971D01*
X144733371Y-106758971D02*
X144780990Y-106806590D01*
X145352419Y-105473257D02*
X144828609Y-105473257D01*
X144828609Y-105473257D02*
X144733371Y-105520876D01*
X144733371Y-105520876D02*
X144685752Y-105616114D01*
X144685752Y-105616114D02*
X144685752Y-105806590D01*
X144685752Y-105806590D02*
X144733371Y-105901828D01*
X145304800Y-105473257D02*
X145352419Y-105568495D01*
X145352419Y-105568495D02*
X145352419Y-105806590D01*
X145352419Y-105806590D02*
X145304800Y-105901828D01*
X145304800Y-105901828D02*
X145209561Y-105949447D01*
X145209561Y-105949447D02*
X145114323Y-105949447D01*
X145114323Y-105949447D02*
X145019085Y-105901828D01*
X145019085Y-105901828D02*
X144971466Y-105806590D01*
X144971466Y-105806590D02*
X144971466Y-105568495D01*
X144971466Y-105568495D02*
X144923847Y-105473257D01*
X144685752Y-104997066D02*
X145352419Y-104997066D01*
X144780990Y-104997066D02*
X144733371Y-104949447D01*
X144733371Y-104949447D02*
X144685752Y-104854209D01*
X144685752Y-104854209D02*
X144685752Y-104711352D01*
X144685752Y-104711352D02*
X144733371Y-104616114D01*
X144733371Y-104616114D02*
X144828609Y-104568495D01*
X144828609Y-104568495D02*
X145352419Y-104568495D01*
X145352419Y-103330399D02*
X144352419Y-103330399D01*
X145352419Y-102758971D02*
X144780990Y-103187542D01*
X144352419Y-102758971D02*
X144923847Y-103330399D01*
X145352419Y-101901828D02*
X144828609Y-101901828D01*
X144828609Y-101901828D02*
X144733371Y-101949447D01*
X144733371Y-101949447D02*
X144685752Y-102044685D01*
X144685752Y-102044685D02*
X144685752Y-102235161D01*
X144685752Y-102235161D02*
X144733371Y-102330399D01*
X145304800Y-101901828D02*
X145352419Y-101997066D01*
X145352419Y-101997066D02*
X145352419Y-102235161D01*
X145352419Y-102235161D02*
X145304800Y-102330399D01*
X145304800Y-102330399D02*
X145209561Y-102378018D01*
X145209561Y-102378018D02*
X145114323Y-102378018D01*
X145114323Y-102378018D02*
X145019085Y-102330399D01*
X145019085Y-102330399D02*
X144971466Y-102235161D01*
X144971466Y-102235161D02*
X144971466Y-101997066D01*
X144971466Y-101997066D02*
X144923847Y-101901828D01*
X144685752Y-101425637D02*
X145685752Y-101425637D01*
X144733371Y-101425637D02*
X144685752Y-101330399D01*
X144685752Y-101330399D02*
X144685752Y-101139923D01*
X144685752Y-101139923D02*
X144733371Y-101044685D01*
X144733371Y-101044685D02*
X144780990Y-100997066D01*
X144780990Y-100997066D02*
X144876228Y-100949447D01*
X144876228Y-100949447D02*
X145161942Y-100949447D01*
X145161942Y-100949447D02*
X145257180Y-100997066D01*
X145257180Y-100997066D02*
X145304800Y-101044685D01*
X145304800Y-101044685D02*
X145352419Y-101139923D01*
X145352419Y-101139923D02*
X145352419Y-101330399D01*
X145352419Y-101330399D02*
X145304800Y-101425637D01*
X145352419Y-100520875D02*
X144685752Y-100520875D01*
X144352419Y-100520875D02*
X144400038Y-100568494D01*
X144400038Y-100568494D02*
X144447657Y-100520875D01*
X144447657Y-100520875D02*
X144400038Y-100473256D01*
X144400038Y-100473256D02*
X144352419Y-100520875D01*
X144352419Y-100520875D02*
X144447657Y-100520875D01*
X145352419Y-99901828D02*
X145304800Y-99997066D01*
X145304800Y-99997066D02*
X145209561Y-100044685D01*
X145209561Y-100044685D02*
X144352419Y-100044685D01*
D12*
X137688095Y-84457200D02*
X137830952Y-84504819D01*
X137830952Y-84504819D02*
X138069047Y-84504819D01*
X138069047Y-84504819D02*
X138164285Y-84457200D01*
X138164285Y-84457200D02*
X138211904Y-84409580D01*
X138211904Y-84409580D02*
X138259523Y-84314342D01*
X138259523Y-84314342D02*
X138259523Y-84219104D01*
X138259523Y-84219104D02*
X138211904Y-84123866D01*
X138211904Y-84123866D02*
X138164285Y-84076247D01*
X138164285Y-84076247D02*
X138069047Y-84028628D01*
X138069047Y-84028628D02*
X137878571Y-83981009D01*
X137878571Y-83981009D02*
X137783333Y-83933390D01*
X137783333Y-83933390D02*
X137735714Y-83885771D01*
X137735714Y-83885771D02*
X137688095Y-83790533D01*
X137688095Y-83790533D02*
X137688095Y-83695295D01*
X137688095Y-83695295D02*
X137735714Y-83600057D01*
X137735714Y-83600057D02*
X137783333Y-83552438D01*
X137783333Y-83552438D02*
X137878571Y-83504819D01*
X137878571Y-83504819D02*
X138116666Y-83504819D01*
X138116666Y-83504819D02*
X138259523Y-83552438D01*
X138592857Y-83504819D02*
X139211904Y-83504819D01*
X139211904Y-83504819D02*
X138878571Y-83885771D01*
X138878571Y-83885771D02*
X139021428Y-83885771D01*
X139021428Y-83885771D02*
X139116666Y-83933390D01*
X139116666Y-83933390D02*
X139164285Y-83981009D01*
X139164285Y-83981009D02*
X139211904Y-84076247D01*
X139211904Y-84076247D02*
X139211904Y-84314342D01*
X139211904Y-84314342D02*
X139164285Y-84409580D01*
X139164285Y-84409580D02*
X139116666Y-84457200D01*
X139116666Y-84457200D02*
X139021428Y-84504819D01*
X139021428Y-84504819D02*
X138735714Y-84504819D01*
X138735714Y-84504819D02*
X138640476Y-84457200D01*
X138640476Y-84457200D02*
X138592857Y-84409580D01*
X129615833Y-108534819D02*
X129282500Y-108058628D01*
X129044405Y-108534819D02*
X129044405Y-107534819D01*
X129044405Y-107534819D02*
X129425357Y-107534819D01*
X129425357Y-107534819D02*
X129520595Y-107582438D01*
X129520595Y-107582438D02*
X129568214Y-107630057D01*
X129568214Y-107630057D02*
X129615833Y-107725295D01*
X129615833Y-107725295D02*
X129615833Y-107868152D01*
X129615833Y-107868152D02*
X129568214Y-107963390D01*
X129568214Y-107963390D02*
X129520595Y-108011009D01*
X129520595Y-108011009D02*
X129425357Y-108058628D01*
X129425357Y-108058628D02*
X129044405Y-108058628D01*
X130472976Y-107868152D02*
X130472976Y-108534819D01*
X130234881Y-107487200D02*
X129996786Y-108201485D01*
X129996786Y-108201485D02*
X130615833Y-108201485D01*
X129615833Y-111174819D02*
X129139643Y-111174819D01*
X129139643Y-111174819D02*
X129092024Y-111651009D01*
X129092024Y-111651009D02*
X129139643Y-111603390D01*
X129139643Y-111603390D02*
X129234881Y-111555771D01*
X129234881Y-111555771D02*
X129472976Y-111555771D01*
X129472976Y-111555771D02*
X129568214Y-111603390D01*
X129568214Y-111603390D02*
X129615833Y-111651009D01*
X129615833Y-111651009D02*
X129663452Y-111746247D01*
X129663452Y-111746247D02*
X129663452Y-111984342D01*
X129663452Y-111984342D02*
X129615833Y-112079580D01*
X129615833Y-112079580D02*
X129568214Y-112127200D01*
X129568214Y-112127200D02*
X129472976Y-112174819D01*
X129472976Y-112174819D02*
X129234881Y-112174819D01*
X129234881Y-112174819D02*
X129139643Y-112127200D01*
X129139643Y-112127200D02*
X129092024Y-112079580D01*
X130092024Y-112174819D02*
X130092024Y-111174819D01*
X130187262Y-111793866D02*
X130472976Y-112174819D01*
X130472976Y-111508152D02*
X130092024Y-111889104D01*
X169840833Y-90484819D02*
X169507500Y-90008628D01*
X169269405Y-90484819D02*
X169269405Y-89484819D01*
X169269405Y-89484819D02*
X169650357Y-89484819D01*
X169650357Y-89484819D02*
X169745595Y-89532438D01*
X169745595Y-89532438D02*
X169793214Y-89580057D01*
X169793214Y-89580057D02*
X169840833Y-89675295D01*
X169840833Y-89675295D02*
X169840833Y-89818152D01*
X169840833Y-89818152D02*
X169793214Y-89913390D01*
X169793214Y-89913390D02*
X169745595Y-89961009D01*
X169745595Y-89961009D02*
X169650357Y-90008628D01*
X169650357Y-90008628D02*
X169269405Y-90008628D01*
X170221786Y-89580057D02*
X170269405Y-89532438D01*
X170269405Y-89532438D02*
X170364643Y-89484819D01*
X170364643Y-89484819D02*
X170602738Y-89484819D01*
X170602738Y-89484819D02*
X170697976Y-89532438D01*
X170697976Y-89532438D02*
X170745595Y-89580057D01*
X170745595Y-89580057D02*
X170793214Y-89675295D01*
X170793214Y-89675295D02*
X170793214Y-89770533D01*
X170793214Y-89770533D02*
X170745595Y-89913390D01*
X170745595Y-89913390D02*
X170174167Y-90484819D01*
X170174167Y-90484819D02*
X170793214Y-90484819D01*
X169840833Y-85844819D02*
X169364643Y-85844819D01*
X169364643Y-85844819D02*
X169317024Y-86321009D01*
X169317024Y-86321009D02*
X169364643Y-86273390D01*
X169364643Y-86273390D02*
X169459881Y-86225771D01*
X169459881Y-86225771D02*
X169697976Y-86225771D01*
X169697976Y-86225771D02*
X169793214Y-86273390D01*
X169793214Y-86273390D02*
X169840833Y-86321009D01*
X169840833Y-86321009D02*
X169888452Y-86416247D01*
X169888452Y-86416247D02*
X169888452Y-86654342D01*
X169888452Y-86654342D02*
X169840833Y-86749580D01*
X169840833Y-86749580D02*
X169793214Y-86797200D01*
X169793214Y-86797200D02*
X169697976Y-86844819D01*
X169697976Y-86844819D02*
X169459881Y-86844819D01*
X169459881Y-86844819D02*
X169364643Y-86797200D01*
X169364643Y-86797200D02*
X169317024Y-86749580D01*
X170317024Y-86844819D02*
X170317024Y-85844819D01*
X170412262Y-86463866D02*
X170697976Y-86844819D01*
X170697976Y-86178152D02*
X170317024Y-86559104D01*
X129683333Y-86744819D02*
X129350000Y-86268628D01*
X129111905Y-86744819D02*
X129111905Y-85744819D01*
X129111905Y-85744819D02*
X129492857Y-85744819D01*
X129492857Y-85744819D02*
X129588095Y-85792438D01*
X129588095Y-85792438D02*
X129635714Y-85840057D01*
X129635714Y-85840057D02*
X129683333Y-85935295D01*
X129683333Y-85935295D02*
X129683333Y-86078152D01*
X129683333Y-86078152D02*
X129635714Y-86173390D01*
X129635714Y-86173390D02*
X129588095Y-86221009D01*
X129588095Y-86221009D02*
X129492857Y-86268628D01*
X129492857Y-86268628D02*
X129111905Y-86268628D01*
X130016667Y-85744819D02*
X130635714Y-85744819D01*
X130635714Y-85744819D02*
X130302381Y-86125771D01*
X130302381Y-86125771D02*
X130445238Y-86125771D01*
X130445238Y-86125771D02*
X130540476Y-86173390D01*
X130540476Y-86173390D02*
X130588095Y-86221009D01*
X130588095Y-86221009D02*
X130635714Y-86316247D01*
X130635714Y-86316247D02*
X130635714Y-86554342D01*
X130635714Y-86554342D02*
X130588095Y-86649580D01*
X130588095Y-86649580D02*
X130540476Y-86697200D01*
X130540476Y-86697200D02*
X130445238Y-86744819D01*
X130445238Y-86744819D02*
X130159524Y-86744819D01*
X130159524Y-86744819D02*
X130064286Y-86697200D01*
X130064286Y-86697200D02*
X130016667Y-86649580D01*
X129683333Y-89384819D02*
X129207143Y-89384819D01*
X129207143Y-89384819D02*
X129159524Y-89861009D01*
X129159524Y-89861009D02*
X129207143Y-89813390D01*
X129207143Y-89813390D02*
X129302381Y-89765771D01*
X129302381Y-89765771D02*
X129540476Y-89765771D01*
X129540476Y-89765771D02*
X129635714Y-89813390D01*
X129635714Y-89813390D02*
X129683333Y-89861009D01*
X129683333Y-89861009D02*
X129730952Y-89956247D01*
X129730952Y-89956247D02*
X129730952Y-90194342D01*
X129730952Y-90194342D02*
X129683333Y-90289580D01*
X129683333Y-90289580D02*
X129635714Y-90337200D01*
X129635714Y-90337200D02*
X129540476Y-90384819D01*
X129540476Y-90384819D02*
X129302381Y-90384819D01*
X129302381Y-90384819D02*
X129207143Y-90337200D01*
X129207143Y-90337200D02*
X129159524Y-90289580D01*
X130159524Y-90384819D02*
X130159524Y-89384819D01*
X130254762Y-90003866D02*
X130540476Y-90384819D01*
X130540476Y-89718152D02*
X130159524Y-90099104D01*
X159734819Y-124783333D02*
X160449104Y-124783333D01*
X160449104Y-124783333D02*
X160591961Y-124830952D01*
X160591961Y-124830952D02*
X160687200Y-124926190D01*
X160687200Y-124926190D02*
X160734819Y-125069047D01*
X160734819Y-125069047D02*
X160734819Y-125164285D01*
X160734819Y-123783333D02*
X160734819Y-124354761D01*
X160734819Y-124069047D02*
X159734819Y-124069047D01*
X159734819Y-124069047D02*
X159877676Y-124164285D01*
X159877676Y-124164285D02*
X159972914Y-124259523D01*
X159972914Y-124259523D02*
X160020533Y-124354761D01*
X160548095Y-114167200D02*
X160690952Y-114214819D01*
X160690952Y-114214819D02*
X160929047Y-114214819D01*
X160929047Y-114214819D02*
X161024285Y-114167200D01*
X161024285Y-114167200D02*
X161071904Y-114119580D01*
X161071904Y-114119580D02*
X161119523Y-114024342D01*
X161119523Y-114024342D02*
X161119523Y-113929104D01*
X161119523Y-113929104D02*
X161071904Y-113833866D01*
X161071904Y-113833866D02*
X161024285Y-113786247D01*
X161024285Y-113786247D02*
X160929047Y-113738628D01*
X160929047Y-113738628D02*
X160738571Y-113691009D01*
X160738571Y-113691009D02*
X160643333Y-113643390D01*
X160643333Y-113643390D02*
X160595714Y-113595771D01*
X160595714Y-113595771D02*
X160548095Y-113500533D01*
X160548095Y-113500533D02*
X160548095Y-113405295D01*
X160548095Y-113405295D02*
X160595714Y-113310057D01*
X160595714Y-113310057D02*
X160643333Y-113262438D01*
X160643333Y-113262438D02*
X160738571Y-113214819D01*
X160738571Y-113214819D02*
X160976666Y-113214819D01*
X160976666Y-113214819D02*
X161119523Y-113262438D01*
X162071904Y-114214819D02*
X161500476Y-114214819D01*
X161786190Y-114214819D02*
X161786190Y-113214819D01*
X161786190Y-113214819D02*
X161690952Y-113357676D01*
X161690952Y-113357676D02*
X161595714Y-113452914D01*
X161595714Y-113452914D02*
X161500476Y-113500533D01*
X149240476Y-97094819D02*
X149240476Y-96094819D01*
X149240476Y-96094819D02*
X149573809Y-96809104D01*
X149573809Y-96809104D02*
X149907142Y-96094819D01*
X149907142Y-96094819D02*
X149907142Y-97094819D01*
X150335714Y-96190057D02*
X150383333Y-96142438D01*
X150383333Y-96142438D02*
X150478571Y-96094819D01*
X150478571Y-96094819D02*
X150716666Y-96094819D01*
X150716666Y-96094819D02*
X150811904Y-96142438D01*
X150811904Y-96142438D02*
X150859523Y-96190057D01*
X150859523Y-96190057D02*
X150907142Y-96285295D01*
X150907142Y-96285295D02*
X150907142Y-96380533D01*
X150907142Y-96380533D02*
X150859523Y-96523390D01*
X150859523Y-96523390D02*
X150288095Y-97094819D01*
X150288095Y-97094819D02*
X150907142Y-97094819D01*
X149288095Y-72424819D02*
X149288095Y-71424819D01*
X149288095Y-71901009D02*
X149859523Y-71901009D01*
X149859523Y-72424819D02*
X149859523Y-71424819D01*
X150764285Y-71758152D02*
X150764285Y-72424819D01*
X150526190Y-71377200D02*
X150288095Y-72091485D01*
X150288095Y-72091485D02*
X150907142Y-72091485D01*
X137583095Y-114267200D02*
X137725952Y-114314819D01*
X137725952Y-114314819D02*
X137964047Y-114314819D01*
X137964047Y-114314819D02*
X138059285Y-114267200D01*
X138059285Y-114267200D02*
X138106904Y-114219580D01*
X138106904Y-114219580D02*
X138154523Y-114124342D01*
X138154523Y-114124342D02*
X138154523Y-114029104D01*
X138154523Y-114029104D02*
X138106904Y-113933866D01*
X138106904Y-113933866D02*
X138059285Y-113886247D01*
X138059285Y-113886247D02*
X137964047Y-113838628D01*
X137964047Y-113838628D02*
X137773571Y-113791009D01*
X137773571Y-113791009D02*
X137678333Y-113743390D01*
X137678333Y-113743390D02*
X137630714Y-113695771D01*
X137630714Y-113695771D02*
X137583095Y-113600533D01*
X137583095Y-113600533D02*
X137583095Y-113505295D01*
X137583095Y-113505295D02*
X137630714Y-113410057D01*
X137630714Y-113410057D02*
X137678333Y-113362438D01*
X137678333Y-113362438D02*
X137773571Y-113314819D01*
X137773571Y-113314819D02*
X138011666Y-113314819D01*
X138011666Y-113314819D02*
X138154523Y-113362438D01*
X139011666Y-113648152D02*
X139011666Y-114314819D01*
X138773571Y-113267200D02*
X138535476Y-113981485D01*
X138535476Y-113981485D02*
X139154523Y-113981485D01*
X160638095Y-92677200D02*
X160780952Y-92724819D01*
X160780952Y-92724819D02*
X161019047Y-92724819D01*
X161019047Y-92724819D02*
X161114285Y-92677200D01*
X161114285Y-92677200D02*
X161161904Y-92629580D01*
X161161904Y-92629580D02*
X161209523Y-92534342D01*
X161209523Y-92534342D02*
X161209523Y-92439104D01*
X161209523Y-92439104D02*
X161161904Y-92343866D01*
X161161904Y-92343866D02*
X161114285Y-92296247D01*
X161114285Y-92296247D02*
X161019047Y-92248628D01*
X161019047Y-92248628D02*
X160828571Y-92201009D01*
X160828571Y-92201009D02*
X160733333Y-92153390D01*
X160733333Y-92153390D02*
X160685714Y-92105771D01*
X160685714Y-92105771D02*
X160638095Y-92010533D01*
X160638095Y-92010533D02*
X160638095Y-91915295D01*
X160638095Y-91915295D02*
X160685714Y-91820057D01*
X160685714Y-91820057D02*
X160733333Y-91772438D01*
X160733333Y-91772438D02*
X160828571Y-91724819D01*
X160828571Y-91724819D02*
X161066666Y-91724819D01*
X161066666Y-91724819D02*
X161209523Y-91772438D01*
X161590476Y-91820057D02*
X161638095Y-91772438D01*
X161638095Y-91772438D02*
X161733333Y-91724819D01*
X161733333Y-91724819D02*
X161971428Y-91724819D01*
X161971428Y-91724819D02*
X162066666Y-91772438D01*
X162066666Y-91772438D02*
X162114285Y-91820057D01*
X162114285Y-91820057D02*
X162161904Y-91915295D01*
X162161904Y-91915295D02*
X162161904Y-92010533D01*
X162161904Y-92010533D02*
X162114285Y-92153390D01*
X162114285Y-92153390D02*
X161542857Y-92724819D01*
X161542857Y-92724819D02*
X162161904Y-92724819D01*
X169640833Y-112174819D02*
X169307500Y-111698628D01*
X169069405Y-112174819D02*
X169069405Y-111174819D01*
X169069405Y-111174819D02*
X169450357Y-111174819D01*
X169450357Y-111174819D02*
X169545595Y-111222438D01*
X169545595Y-111222438D02*
X169593214Y-111270057D01*
X169593214Y-111270057D02*
X169640833Y-111365295D01*
X169640833Y-111365295D02*
X169640833Y-111508152D01*
X169640833Y-111508152D02*
X169593214Y-111603390D01*
X169593214Y-111603390D02*
X169545595Y-111651009D01*
X169545595Y-111651009D02*
X169450357Y-111698628D01*
X169450357Y-111698628D02*
X169069405Y-111698628D01*
X170593214Y-112174819D02*
X170021786Y-112174819D01*
X170307500Y-112174819D02*
X170307500Y-111174819D01*
X170307500Y-111174819D02*
X170212262Y-111317676D01*
X170212262Y-111317676D02*
X170117024Y-111412914D01*
X170117024Y-111412914D02*
X170021786Y-111460533D01*
X169640833Y-107534819D02*
X169164643Y-107534819D01*
X169164643Y-107534819D02*
X169117024Y-108011009D01*
X169117024Y-108011009D02*
X169164643Y-107963390D01*
X169164643Y-107963390D02*
X169259881Y-107915771D01*
X169259881Y-107915771D02*
X169497976Y-107915771D01*
X169497976Y-107915771D02*
X169593214Y-107963390D01*
X169593214Y-107963390D02*
X169640833Y-108011009D01*
X169640833Y-108011009D02*
X169688452Y-108106247D01*
X169688452Y-108106247D02*
X169688452Y-108344342D01*
X169688452Y-108344342D02*
X169640833Y-108439580D01*
X169640833Y-108439580D02*
X169593214Y-108487200D01*
X169593214Y-108487200D02*
X169497976Y-108534819D01*
X169497976Y-108534819D02*
X169259881Y-108534819D01*
X169259881Y-108534819D02*
X169164643Y-108487200D01*
X169164643Y-108487200D02*
X169117024Y-108439580D01*
X170117024Y-108534819D02*
X170117024Y-107534819D01*
X170212262Y-108153866D02*
X170497976Y-108534819D01*
X170497976Y-107868152D02*
X170117024Y-108249104D01*
D13*
%TO.C,S3*%
X135890000Y-86465000D02*
X135890000Y-89555000D01*
X135890000Y-86465170D02*
G75*
G02*
X141440000Y-88009952I2560000J-1544830D01*
G01*
X141440000Y-88010048D02*
G75*
G02*
X135890000Y-89554830I-2990000J48D01*
G01*
X140950000Y-88010000D02*
G75*
G02*
X135950000Y-88010000I-2500000J0D01*
G01*
X135950000Y-88010000D02*
G75*
G02*
X140950000Y-88010000I2500000J0D01*
G01*
%TO.C,R4*%
X129055436Y-108990000D02*
X130509564Y-108990000D01*
X129055436Y-110810000D02*
X130509564Y-110810000D01*
%TO.C,R2*%
X170734564Y-87300000D02*
X169280436Y-87300000D01*
X170734564Y-89120000D02*
X169280436Y-89120000D01*
%TO.C,R3*%
X129122936Y-87200000D02*
X130577064Y-87200000D01*
X129122936Y-89020000D02*
X130577064Y-89020000D01*
%TO.C,J1*%
X141380000Y-123120000D02*
X141380000Y-125780000D01*
X156680000Y-123120000D02*
X141380000Y-123120000D01*
X156680000Y-123120000D02*
X156680000Y-125780000D01*
X156680000Y-125780000D02*
X141380000Y-125780000D01*
X157950000Y-123120000D02*
X159280000Y-123120000D01*
X159280000Y-123120000D02*
X159280000Y-124450000D01*
%TO.C,S1*%
X163870000Y-111345000D02*
X163870000Y-108255000D01*
X158320000Y-109799952D02*
G75*
G02*
X163870000Y-108255170I2990000J-48D01*
G01*
X163870000Y-111344830D02*
G75*
G02*
X158320000Y-109800048I-2560000J1544830D01*
G01*
X163810000Y-109800000D02*
G75*
G02*
X158810000Y-109800000I-2500000J0D01*
G01*
X158810000Y-109800000D02*
G75*
G02*
X163810000Y-109800000I2500000J0D01*
G01*
%TO.C,SFH309*%
X135785000Y-108355000D02*
X135785000Y-111445000D01*
X135785000Y-108355170D02*
G75*
G02*
X141335000Y-109899952I2560000J-1544830D01*
G01*
X141335000Y-109900048D02*
G75*
G02*
X135785000Y-111444830I-2990000J48D01*
G01*
X140845000Y-109900000D02*
G75*
G02*
X135845000Y-109900000I-2500000J0D01*
G01*
X135845000Y-109900000D02*
G75*
G02*
X140845000Y-109900000I2500000J0D01*
G01*
%TO.C,S2*%
X163960000Y-89855000D02*
X163960000Y-86765000D01*
X158410000Y-88309952D02*
G75*
G02*
X163960000Y-86765170I2990000J-48D01*
G01*
X163960000Y-89854830D02*
G75*
G02*
X158410000Y-88310048I-2560000J1544830D01*
G01*
X163900000Y-88310000D02*
G75*
G02*
X158900000Y-88310000I-2500000J0D01*
G01*
X158900000Y-88310000D02*
G75*
G02*
X163900000Y-88310000I2500000J0D01*
G01*
%TO.C,R1*%
X170534564Y-108990000D02*
X169080436Y-108990000D01*
X170534564Y-110810000D02*
X169080436Y-110810000D01*
%TD*%
M02*
