%TF.GenerationSoftware,KiCad,Pcbnew,9.0.1*%
%TF.CreationDate,2025-04-01T19:10:29+10:00*%
%TF.ProjectId,Ir PCB,49722050-4342-42e6-9b69-6361645f7063,rev?*%
%TF.SameCoordinates,Original*%
%TF.FileFunction,Copper,L2,Bot*%
%TF.FilePolarity,Positive*%
%FSLAX46Y46*%
G04 Gerber Fmt 4.6, Leading zero omitted, Abs format (unit mm)*
G04 Created by KiCad (PCBNEW 9.0.1) date 2025-04-01 19:10:29*
%MOMM*%
%LPD*%
G01*
G04 APERTURE LIST*
%TA.AperFunction,ComponentPad*%
%ADD10R,1.800000X1.800000*%
%TD*%
%TA.AperFunction,ComponentPad*%
%ADD11C,1.800000*%
%TD*%
%TA.AperFunction,ComponentPad*%
%ADD12R,1.700000X1.700000*%
%TD*%
%TA.AperFunction,ComponentPad*%
%ADD13O,1.700000X1.700000*%
%TD*%
G04 APERTURE END LIST*
D10*
%TO.P,S3,1,C*%
%TO.N,/S3*%
X137180000Y-88010000D03*
D11*
%TO.P,S3,2,E*%
%TO.N,GND*%
X139720000Y-88010000D03*
%TD*%
D12*
%TO.P,J1,1,Pin_1*%
%TO.N,GND*%
X157950000Y-124450000D03*
D13*
%TO.P,J1,2,Pin_2*%
%TO.N,/S1*%
X155410000Y-124450000D03*
%TO.P,J1,3,Pin_3*%
%TO.N,/S2*%
X152870000Y-124450000D03*
%TO.P,J1,4,Pin_4*%
%TO.N,+5V*%
X150330000Y-124450000D03*
%TO.P,J1,5,Pin_5*%
%TO.N,/S3*%
X147790000Y-124450000D03*
%TO.P,J1,6,Pin_6*%
%TO.N,/S4*%
X145250000Y-124450000D03*
%TO.P,J1,7,Pin_7*%
%TO.N,GND*%
X142710000Y-124450000D03*
%TD*%
D10*
%TO.P,S1,1,C*%
%TO.N,/S1*%
X162580000Y-109800000D03*
D11*
%TO.P,S1,2,E*%
%TO.N,GND*%
X160040000Y-109800000D03*
%TD*%
D10*
%TO.P,SFH309,1,C*%
%TO.N,/S4*%
X137075000Y-109900000D03*
D11*
%TO.P,SFH309,2,E*%
%TO.N,GND*%
X139615000Y-109900000D03*
%TD*%
D10*
%TO.P,S2,1,C*%
%TO.N,/S2*%
X162670000Y-88310000D03*
D11*
%TO.P,S2,2,E*%
%TO.N,GND*%
X160130000Y-88310000D03*
%TD*%
%TA.AperFunction,Conductor*%
%TO.N,GND*%
G36*
X150788748Y-70815277D02*
G01*
X151836733Y-70852707D01*
X151841146Y-70852943D01*
X152887158Y-70927756D01*
X152891464Y-70928141D01*
X153934196Y-71040246D01*
X153938552Y-71040793D01*
X154976543Y-71190034D01*
X154980886Y-71190737D01*
X156012922Y-71376938D01*
X156017223Y-71377794D01*
X157041924Y-71600704D01*
X157046207Y-71601716D01*
X158062314Y-71861062D01*
X158066531Y-71862219D01*
X159033841Y-72146246D01*
X159072739Y-72157668D01*
X159076965Y-72158991D01*
X160071953Y-72490155D01*
X160076055Y-72491601D01*
X161058688Y-72858105D01*
X161062730Y-72859695D01*
X161788149Y-73160173D01*
X162031597Y-73261013D01*
X162035655Y-73262780D01*
X162989503Y-73698388D01*
X162993497Y-73700298D01*
X163931253Y-74169705D01*
X163935175Y-74171757D01*
X164855544Y-74674316D01*
X164859357Y-74676487D01*
X165158129Y-74853757D01*
X165761264Y-75211614D01*
X165765029Y-75213941D01*
X166647170Y-75780858D01*
X166650851Y-75783317D01*
X167014261Y-76035636D01*
X167512266Y-76381407D01*
X167515818Y-76383969D01*
X167698202Y-76520500D01*
X168355304Y-77012401D01*
X168358800Y-77015116D01*
X169175333Y-77673120D01*
X169178730Y-77675959D01*
X169971244Y-78362676D01*
X169974537Y-78365634D01*
X170742046Y-79080210D01*
X170745231Y-79083284D01*
X171486715Y-79824768D01*
X171489789Y-79827953D01*
X172204365Y-80595462D01*
X172207323Y-80598755D01*
X172894040Y-81391269D01*
X172896879Y-81394666D01*
X173554883Y-82211199D01*
X173557598Y-82214695D01*
X174186016Y-83054162D01*
X174188605Y-83057752D01*
X174786682Y-83919148D01*
X174789141Y-83922829D01*
X175356058Y-84804970D01*
X175358385Y-84808735D01*
X175893502Y-85710625D01*
X175895692Y-85714472D01*
X176398242Y-86634824D01*
X176400294Y-86638746D01*
X176869701Y-87576502D01*
X176871611Y-87580496D01*
X177307219Y-88534344D01*
X177308986Y-88538402D01*
X177607001Y-89257873D01*
X177646733Y-89353796D01*
X177710288Y-89507230D01*
X177711905Y-89511340D01*
X177954339Y-90161328D01*
X178078385Y-90493908D01*
X178079857Y-90498083D01*
X178411008Y-91493036D01*
X178412331Y-91497260D01*
X178707773Y-92503442D01*
X178708944Y-92507711D01*
X178968280Y-93523780D01*
X178969298Y-93528088D01*
X179192201Y-94552756D01*
X179193065Y-94557097D01*
X179379259Y-95589100D01*
X179379967Y-95593470D01*
X179529203Y-96631429D01*
X179529755Y-96635821D01*
X179641853Y-97678484D01*
X179642247Y-97682893D01*
X179717055Y-98728849D01*
X179717292Y-98733269D01*
X179754722Y-99781251D01*
X179754801Y-99785677D01*
X179754801Y-100834322D01*
X179754722Y-100838748D01*
X179717292Y-101886730D01*
X179717055Y-101891150D01*
X179642247Y-102937106D01*
X179641853Y-102941515D01*
X179529755Y-103984178D01*
X179529203Y-103988570D01*
X179379967Y-105026529D01*
X179379259Y-105030899D01*
X179193065Y-106062902D01*
X179192201Y-106067243D01*
X178969298Y-107091911D01*
X178968280Y-107096219D01*
X178708944Y-108112288D01*
X178707773Y-108116557D01*
X178412331Y-109122739D01*
X178411008Y-109126963D01*
X178079857Y-110121916D01*
X178078385Y-110126091D01*
X177711909Y-111108650D01*
X177710288Y-111112769D01*
X177308986Y-112081597D01*
X177307219Y-112085655D01*
X176871611Y-113039503D01*
X176869701Y-113043497D01*
X176400294Y-113981253D01*
X176398242Y-113985175D01*
X175895692Y-114905527D01*
X175893502Y-114909374D01*
X175358385Y-115811264D01*
X175356058Y-115815029D01*
X174789141Y-116697170D01*
X174786682Y-116700851D01*
X174188605Y-117562247D01*
X174186016Y-117565837D01*
X173557598Y-118405304D01*
X173554883Y-118408800D01*
X172896879Y-119225333D01*
X172894040Y-119228730D01*
X172207323Y-120021244D01*
X172204365Y-120024537D01*
X171489789Y-120792046D01*
X171486715Y-120795231D01*
X170745231Y-121536715D01*
X170742046Y-121539789D01*
X169974537Y-122254365D01*
X169971244Y-122257323D01*
X169178730Y-122944040D01*
X169175333Y-122946879D01*
X168358800Y-123604883D01*
X168355304Y-123607598D01*
X167515837Y-124236016D01*
X167512247Y-124238605D01*
X166650851Y-124836682D01*
X166647170Y-124839141D01*
X165765029Y-125406058D01*
X165761264Y-125408385D01*
X164859374Y-125943502D01*
X164855527Y-125945692D01*
X163935175Y-126448242D01*
X163931253Y-126450294D01*
X162993497Y-126919701D01*
X162989503Y-126921611D01*
X162035655Y-127357219D01*
X162031597Y-127358986D01*
X161062769Y-127760288D01*
X161058650Y-127761909D01*
X160076091Y-128128385D01*
X160071916Y-128129857D01*
X159076963Y-128461008D01*
X159072739Y-128462331D01*
X158066557Y-128757773D01*
X158062288Y-128758944D01*
X157046219Y-129018280D01*
X157041911Y-129019298D01*
X156017243Y-129242201D01*
X156012902Y-129243065D01*
X154980899Y-129429259D01*
X154976529Y-129429967D01*
X153938570Y-129579203D01*
X153934178Y-129579755D01*
X152891515Y-129691853D01*
X152887106Y-129692247D01*
X151841150Y-129767055D01*
X151836730Y-129767292D01*
X150788749Y-129804722D01*
X150784323Y-129804801D01*
X149735677Y-129804801D01*
X149731251Y-129804722D01*
X148683269Y-129767292D01*
X148678849Y-129767055D01*
X147632893Y-129692247D01*
X147628484Y-129691853D01*
X146585821Y-129579755D01*
X146581429Y-129579203D01*
X145543470Y-129429967D01*
X145539100Y-129429259D01*
X144507097Y-129243065D01*
X144502756Y-129242201D01*
X143478088Y-129019298D01*
X143473780Y-129018280D01*
X142457711Y-128758944D01*
X142453442Y-128757773D01*
X141447260Y-128462331D01*
X141443036Y-128461008D01*
X140448083Y-128129857D01*
X140443908Y-128128385D01*
X139461349Y-127761909D01*
X139457240Y-127760291D01*
X139267650Y-127681761D01*
X138488402Y-127358986D01*
X138484344Y-127357219D01*
X137530496Y-126921611D01*
X137526502Y-126919701D01*
X136588746Y-126450294D01*
X136584824Y-126448242D01*
X135664472Y-125945692D01*
X135660625Y-125943502D01*
X134758735Y-125408385D01*
X134754970Y-125406058D01*
X133872829Y-124839141D01*
X133869148Y-124836682D01*
X133298820Y-124440697D01*
X133159137Y-124343713D01*
X143899500Y-124343713D01*
X143899500Y-124556287D01*
X143932754Y-124766243D01*
X143956049Y-124837938D01*
X143998444Y-124968414D01*
X144094951Y-125157820D01*
X144219890Y-125329786D01*
X144370213Y-125480109D01*
X144542179Y-125605048D01*
X144542181Y-125605049D01*
X144542184Y-125605051D01*
X144731588Y-125701557D01*
X144933757Y-125767246D01*
X145143713Y-125800500D01*
X145143714Y-125800500D01*
X145356286Y-125800500D01*
X145356287Y-125800500D01*
X145566243Y-125767246D01*
X145768412Y-125701557D01*
X145957816Y-125605051D01*
X145979789Y-125589086D01*
X146129786Y-125480109D01*
X146129788Y-125480106D01*
X146129792Y-125480104D01*
X146280104Y-125329792D01*
X146280106Y-125329788D01*
X146280109Y-125329786D01*
X146405048Y-125157820D01*
X146405047Y-125157820D01*
X146405051Y-125157816D01*
X146409514Y-125149054D01*
X146457488Y-125098259D01*
X146525308Y-125081463D01*
X146591444Y-125103999D01*
X146630486Y-125149056D01*
X146634951Y-125157820D01*
X146759890Y-125329786D01*
X146910213Y-125480109D01*
X147082179Y-125605048D01*
X147082181Y-125605049D01*
X147082184Y-125605051D01*
X147271588Y-125701557D01*
X147473757Y-125767246D01*
X147683713Y-125800500D01*
X147683714Y-125800500D01*
X147896286Y-125800500D01*
X147896287Y-125800500D01*
X148106243Y-125767246D01*
X148308412Y-125701557D01*
X148497816Y-125605051D01*
X148519789Y-125589086D01*
X148669786Y-125480109D01*
X148669788Y-125480106D01*
X148669792Y-125480104D01*
X148820104Y-125329792D01*
X148820106Y-125329788D01*
X148820109Y-125329786D01*
X148945048Y-125157820D01*
X148945047Y-125157820D01*
X148945051Y-125157816D01*
X148949514Y-125149054D01*
X148997488Y-125098259D01*
X149065308Y-125081463D01*
X149131444Y-125103999D01*
X149170486Y-125149056D01*
X149174951Y-125157820D01*
X149299890Y-125329786D01*
X149450213Y-125480109D01*
X149622179Y-125605048D01*
X149622181Y-125605049D01*
X149622184Y-125605051D01*
X149811588Y-125701557D01*
X150013757Y-125767246D01*
X150223713Y-125800500D01*
X150223714Y-125800500D01*
X150436286Y-125800500D01*
X150436287Y-125800500D01*
X150646243Y-125767246D01*
X150848412Y-125701557D01*
X151037816Y-125605051D01*
X151059789Y-125589086D01*
X151209786Y-125480109D01*
X151209788Y-125480106D01*
X151209792Y-125480104D01*
X151360104Y-125329792D01*
X151360106Y-125329788D01*
X151360109Y-125329786D01*
X151485048Y-125157820D01*
X151485047Y-125157820D01*
X151485051Y-125157816D01*
X151489514Y-125149054D01*
X151537488Y-125098259D01*
X151605308Y-125081463D01*
X151671444Y-125103999D01*
X151710486Y-125149056D01*
X151714951Y-125157820D01*
X151839890Y-125329786D01*
X151990213Y-125480109D01*
X152162179Y-125605048D01*
X152162181Y-125605049D01*
X152162184Y-125605051D01*
X152351588Y-125701557D01*
X152553757Y-125767246D01*
X152763713Y-125800500D01*
X152763714Y-125800500D01*
X152976286Y-125800500D01*
X152976287Y-125800500D01*
X153186243Y-125767246D01*
X153388412Y-125701557D01*
X153577816Y-125605051D01*
X153599789Y-125589086D01*
X153749786Y-125480109D01*
X153749788Y-125480106D01*
X153749792Y-125480104D01*
X153900104Y-125329792D01*
X153900106Y-125329788D01*
X153900109Y-125329786D01*
X154025048Y-125157820D01*
X154025047Y-125157820D01*
X154025051Y-125157816D01*
X154029514Y-125149054D01*
X154077488Y-125098259D01*
X154145308Y-125081463D01*
X154211444Y-125103999D01*
X154250486Y-125149056D01*
X154254951Y-125157820D01*
X154379890Y-125329786D01*
X154530213Y-125480109D01*
X154702179Y-125605048D01*
X154702181Y-125605049D01*
X154702184Y-125605051D01*
X154891588Y-125701557D01*
X155093757Y-125767246D01*
X155303713Y-125800500D01*
X155303714Y-125800500D01*
X155516286Y-125800500D01*
X155516287Y-125800500D01*
X155726243Y-125767246D01*
X155928412Y-125701557D01*
X156117816Y-125605051D01*
X156139789Y-125589086D01*
X156289786Y-125480109D01*
X156289788Y-125480106D01*
X156289792Y-125480104D01*
X156440104Y-125329792D01*
X156440106Y-125329788D01*
X156440109Y-125329786D01*
X156565048Y-125157820D01*
X156565047Y-125157820D01*
X156565051Y-125157816D01*
X156661557Y-124968412D01*
X156727246Y-124766243D01*
X156760500Y-124556287D01*
X156760500Y-124343713D01*
X156727246Y-124133757D01*
X156661557Y-123931588D01*
X156565051Y-123742184D01*
X156565049Y-123742181D01*
X156565048Y-123742179D01*
X156440109Y-123570213D01*
X156289786Y-123419890D01*
X156117820Y-123294951D01*
X155928414Y-123198444D01*
X155928413Y-123198443D01*
X155928412Y-123198443D01*
X155726243Y-123132754D01*
X155726241Y-123132753D01*
X155726240Y-123132753D01*
X155564957Y-123107208D01*
X155516287Y-123099500D01*
X155303713Y-123099500D01*
X155255042Y-123107208D01*
X155093760Y-123132753D01*
X154891585Y-123198444D01*
X154702179Y-123294951D01*
X154530213Y-123419890D01*
X154379890Y-123570213D01*
X154254949Y-123742182D01*
X154250484Y-123750946D01*
X154202509Y-123801742D01*
X154134688Y-123818536D01*
X154068553Y-123795998D01*
X154029516Y-123750946D01*
X154025050Y-123742182D01*
X153900109Y-123570213D01*
X153749786Y-123419890D01*
X153577820Y-123294951D01*
X153388414Y-123198444D01*
X153388413Y-123198443D01*
X153388412Y-123198443D01*
X153186243Y-123132754D01*
X153186241Y-123132753D01*
X153186240Y-123132753D01*
X153024957Y-123107208D01*
X152976287Y-123099500D01*
X152763713Y-123099500D01*
X152715042Y-123107208D01*
X152553760Y-123132753D01*
X152351585Y-123198444D01*
X152162179Y-123294951D01*
X151990213Y-123419890D01*
X151839890Y-123570213D01*
X151714949Y-123742182D01*
X151710484Y-123750946D01*
X151662509Y-123801742D01*
X151594688Y-123818536D01*
X151528553Y-123795998D01*
X151489516Y-123750946D01*
X151485050Y-123742182D01*
X151360109Y-123570213D01*
X151209786Y-123419890D01*
X151037820Y-123294951D01*
X150848414Y-123198444D01*
X150848413Y-123198443D01*
X150848412Y-123198443D01*
X150646243Y-123132754D01*
X150646241Y-123132753D01*
X150646240Y-123132753D01*
X150484957Y-123107208D01*
X150436287Y-123099500D01*
X150223713Y-123099500D01*
X150175042Y-123107208D01*
X150013760Y-123132753D01*
X149811585Y-123198444D01*
X149622179Y-123294951D01*
X149450213Y-123419890D01*
X149299890Y-123570213D01*
X149174949Y-123742182D01*
X149170484Y-123750946D01*
X149122509Y-123801742D01*
X149054688Y-123818536D01*
X148988553Y-123795998D01*
X148949516Y-123750946D01*
X148945050Y-123742182D01*
X148820109Y-123570213D01*
X148669786Y-123419890D01*
X148497820Y-123294951D01*
X148308414Y-123198444D01*
X148308413Y-123198443D01*
X148308412Y-123198443D01*
X148106243Y-123132754D01*
X148106241Y-123132753D01*
X148106240Y-123132753D01*
X147944957Y-123107208D01*
X147896287Y-123099500D01*
X147683713Y-123099500D01*
X147635042Y-123107208D01*
X147473760Y-123132753D01*
X147271585Y-123198444D01*
X147082179Y-123294951D01*
X146910213Y-123419890D01*
X146759890Y-123570213D01*
X146634949Y-123742182D01*
X146630484Y-123750946D01*
X146582509Y-123801742D01*
X146514688Y-123818536D01*
X146448553Y-123795998D01*
X146409516Y-123750946D01*
X146405050Y-123742182D01*
X146280109Y-123570213D01*
X146129786Y-123419890D01*
X145957820Y-123294951D01*
X145768414Y-123198444D01*
X145768413Y-123198443D01*
X145768412Y-123198443D01*
X145566243Y-123132754D01*
X145566241Y-123132753D01*
X145566240Y-123132753D01*
X145404957Y-123107208D01*
X145356287Y-123099500D01*
X145143713Y-123099500D01*
X145095042Y-123107208D01*
X144933760Y-123132753D01*
X144731585Y-123198444D01*
X144542179Y-123294951D01*
X144370213Y-123419890D01*
X144219890Y-123570213D01*
X144094951Y-123742179D01*
X143998444Y-123931585D01*
X143932753Y-124133760D01*
X143899500Y-124343713D01*
X133159137Y-124343713D01*
X133007744Y-124238599D01*
X133004162Y-124236016D01*
X132164695Y-123607598D01*
X132161199Y-123604883D01*
X131344666Y-122946879D01*
X131341269Y-122944040D01*
X130548755Y-122257323D01*
X130545462Y-122254365D01*
X129777953Y-121539789D01*
X129774768Y-121536715D01*
X129033284Y-120795231D01*
X129030210Y-120792046D01*
X128315634Y-120024537D01*
X128312676Y-120021244D01*
X127895714Y-119540044D01*
X127829573Y-119463713D01*
X133229500Y-119463713D01*
X133229500Y-119676287D01*
X133262754Y-119886243D01*
X133307162Y-120022917D01*
X133328444Y-120088414D01*
X133424951Y-120277820D01*
X133549890Y-120449786D01*
X133700213Y-120600109D01*
X133872179Y-120725048D01*
X133872181Y-120725049D01*
X133872184Y-120725051D01*
X134061588Y-120821557D01*
X134263757Y-120887246D01*
X134473713Y-120920500D01*
X134473714Y-120920500D01*
X134686286Y-120920500D01*
X134686287Y-120920500D01*
X134896243Y-120887246D01*
X135098412Y-120821557D01*
X135287816Y-120725051D01*
X135347684Y-120681555D01*
X135459786Y-120600109D01*
X135459788Y-120600106D01*
X135459792Y-120600104D01*
X135610104Y-120449792D01*
X135610106Y-120449788D01*
X135610109Y-120449786D01*
X135735048Y-120277820D01*
X135735047Y-120277820D01*
X135735051Y-120277816D01*
X135831557Y-120088412D01*
X135897246Y-119886243D01*
X135930500Y-119676287D01*
X135930500Y-119463713D01*
X135908326Y-119323713D01*
X163999500Y-119323713D01*
X163999500Y-119536286D01*
X164032753Y-119746239D01*
X164098444Y-119948414D01*
X164194951Y-120137820D01*
X164319890Y-120309786D01*
X164470213Y-120460109D01*
X164642179Y-120585048D01*
X164642181Y-120585049D01*
X164642184Y-120585051D01*
X164831588Y-120681557D01*
X165033757Y-120747246D01*
X165243713Y-120780500D01*
X165243714Y-120780500D01*
X165456286Y-120780500D01*
X165456287Y-120780500D01*
X165666243Y-120747246D01*
X165868412Y-120681557D01*
X166057816Y-120585051D01*
X166079789Y-120569086D01*
X166229786Y-120460109D01*
X166229788Y-120460106D01*
X166229792Y-120460104D01*
X166380104Y-120309792D01*
X166380106Y-120309788D01*
X166380109Y-120309786D01*
X166505048Y-120137820D01*
X166505047Y-120137820D01*
X166505051Y-120137816D01*
X166601557Y-119948412D01*
X166667246Y-119746243D01*
X166700500Y-119536287D01*
X166700500Y-119323713D01*
X166667246Y-119113757D01*
X166601557Y-118911588D01*
X166505051Y-118722184D01*
X166505049Y-118722181D01*
X166505048Y-118722179D01*
X166380109Y-118550213D01*
X166229786Y-118399890D01*
X166057820Y-118274951D01*
X165868414Y-118178444D01*
X165868413Y-118178443D01*
X165868412Y-118178443D01*
X165666243Y-118112754D01*
X165666241Y-118112753D01*
X165666240Y-118112753D01*
X165504957Y-118087208D01*
X165456287Y-118079500D01*
X165243713Y-118079500D01*
X165195042Y-118087208D01*
X165033760Y-118112753D01*
X164831585Y-118178444D01*
X164642179Y-118274951D01*
X164470213Y-118399890D01*
X164319890Y-118550213D01*
X164194951Y-118722179D01*
X164098444Y-118911585D01*
X164032753Y-119113760D01*
X163999500Y-119323713D01*
X135908326Y-119323713D01*
X135897246Y-119253757D01*
X135831557Y-119051588D01*
X135735051Y-118862184D01*
X135735049Y-118862181D01*
X135735048Y-118862179D01*
X135610109Y-118690213D01*
X135459786Y-118539890D01*
X135287820Y-118414951D01*
X135098414Y-118318444D01*
X135098413Y-118318443D01*
X135098412Y-118318443D01*
X134896243Y-118252754D01*
X134896241Y-118252753D01*
X134896240Y-118252753D01*
X134734957Y-118227208D01*
X134686287Y-118219500D01*
X134473713Y-118219500D01*
X134425042Y-118227208D01*
X134263760Y-118252753D01*
X134061585Y-118318444D01*
X133872179Y-118414951D01*
X133700213Y-118539890D01*
X133549890Y-118690213D01*
X133424951Y-118862179D01*
X133328444Y-119051585D01*
X133262753Y-119253760D01*
X133251674Y-119323713D01*
X133229500Y-119463713D01*
X127829573Y-119463713D01*
X127625959Y-119228730D01*
X127623120Y-119225333D01*
X126965116Y-118408800D01*
X126962401Y-118405304D01*
X126823310Y-118219500D01*
X126333969Y-117565818D01*
X126331407Y-117562266D01*
X125733317Y-116700851D01*
X125730858Y-116697170D01*
X125163941Y-115815029D01*
X125161614Y-115811264D01*
X124626497Y-114909374D01*
X124624307Y-114905527D01*
X124121757Y-113985175D01*
X124119705Y-113981253D01*
X123650298Y-113043497D01*
X123648388Y-113039503D01*
X123212780Y-112085655D01*
X123211013Y-112081597D01*
X122887472Y-111300500D01*
X122809695Y-111112730D01*
X122808105Y-111108688D01*
X122441601Y-110126055D01*
X122440155Y-110121953D01*
X122108991Y-109126963D01*
X122107668Y-109122739D01*
X122106164Y-109117616D01*
X122057574Y-108952135D01*
X135674500Y-108952135D01*
X135674500Y-110847870D01*
X135674501Y-110847876D01*
X135680908Y-110907483D01*
X135731202Y-111042328D01*
X135731206Y-111042335D01*
X135817452Y-111157544D01*
X135817455Y-111157547D01*
X135932664Y-111243793D01*
X135932671Y-111243797D01*
X136067517Y-111294091D01*
X136067516Y-111294091D01*
X136074444Y-111294835D01*
X136127127Y-111300500D01*
X138022872Y-111300499D01*
X138082483Y-111294091D01*
X138217331Y-111243796D01*
X138332546Y-111157546D01*
X138418796Y-111042331D01*
X138469091Y-110907483D01*
X138475500Y-110847873D01*
X138475499Y-108952128D01*
X138469091Y-108892517D01*
X138454029Y-108852135D01*
X161179500Y-108852135D01*
X161179500Y-110747870D01*
X161179501Y-110747876D01*
X161185908Y-110807483D01*
X161236202Y-110942328D01*
X161236206Y-110942335D01*
X161322452Y-111057544D01*
X161322455Y-111057547D01*
X161437664Y-111143793D01*
X161437671Y-111143797D01*
X161572517Y-111194091D01*
X161572516Y-111194091D01*
X161579444Y-111194835D01*
X161632127Y-111200500D01*
X163527872Y-111200499D01*
X163587483Y-111194091D01*
X163722331Y-111143796D01*
X163837546Y-111057546D01*
X163923796Y-110942331D01*
X163974091Y-110807483D01*
X163980500Y-110747873D01*
X163980499Y-108852128D01*
X163974091Y-108792517D01*
X163961094Y-108757671D01*
X163923797Y-108657671D01*
X163923793Y-108657664D01*
X163837547Y-108542455D01*
X163837544Y-108542452D01*
X163722335Y-108456206D01*
X163722328Y-108456202D01*
X163587482Y-108405908D01*
X163587483Y-108405908D01*
X163527883Y-108399501D01*
X163527881Y-108399500D01*
X163527873Y-108399500D01*
X163527864Y-108399500D01*
X161632129Y-108399500D01*
X161632123Y-108399501D01*
X161572516Y-108405908D01*
X161437671Y-108456202D01*
X161437664Y-108456206D01*
X161322455Y-108542452D01*
X161322452Y-108542455D01*
X161236206Y-108657664D01*
X161236202Y-108657671D01*
X161185908Y-108792517D01*
X161179501Y-108852116D01*
X161179501Y-108852123D01*
X161179500Y-108852135D01*
X138454029Y-108852135D01*
X138454022Y-108852116D01*
X138418797Y-108757671D01*
X138418793Y-108757664D01*
X138332547Y-108642455D01*
X138332544Y-108642452D01*
X138217335Y-108556206D01*
X138217328Y-108556202D01*
X138082482Y-108505908D01*
X138082483Y-108505908D01*
X138022883Y-108499501D01*
X138022881Y-108499500D01*
X138022873Y-108499500D01*
X138022864Y-108499500D01*
X136127129Y-108499500D01*
X136127123Y-108499501D01*
X136067516Y-108505908D01*
X135932671Y-108556202D01*
X135932664Y-108556206D01*
X135817455Y-108642452D01*
X135817452Y-108642455D01*
X135731206Y-108757664D01*
X135731202Y-108757671D01*
X135680908Y-108892517D01*
X135674501Y-108952116D01*
X135674501Y-108952123D01*
X135674500Y-108952135D01*
X122057574Y-108952135D01*
X121812219Y-108116531D01*
X121811062Y-108112314D01*
X121551716Y-107096207D01*
X121550701Y-107091911D01*
X121327798Y-106067243D01*
X121326934Y-106062902D01*
X121140740Y-105030899D01*
X121140032Y-105026529D01*
X120990796Y-103988570D01*
X120990244Y-103984178D01*
X120878141Y-102941464D01*
X120877756Y-102937158D01*
X120802943Y-101891146D01*
X120802707Y-101886730D01*
X120765278Y-100838748D01*
X120765199Y-100834322D01*
X120765199Y-99863713D01*
X128819500Y-99863713D01*
X128819500Y-100076287D01*
X128852754Y-100286243D01*
X128876203Y-100358412D01*
X128918444Y-100488414D01*
X129014951Y-100677820D01*
X129139890Y-100849786D01*
X129290213Y-101000109D01*
X129462179Y-101125048D01*
X129462181Y-101125049D01*
X129462184Y-101125051D01*
X129651588Y-101221557D01*
X129853757Y-101287246D01*
X130063713Y-101320500D01*
X130063714Y-101320500D01*
X130276286Y-101320500D01*
X130276287Y-101320500D01*
X130486243Y-101287246D01*
X130688412Y-101221557D01*
X130877816Y-101125051D01*
X130923920Y-101091555D01*
X131049786Y-101000109D01*
X131049788Y-101000106D01*
X131049792Y-101000104D01*
X131200104Y-100849792D01*
X131200106Y-100849788D01*
X131200109Y-100849786D01*
X131325048Y-100677820D01*
X131325047Y-100677820D01*
X131325051Y-100677816D01*
X131421557Y-100488412D01*
X131487246Y-100286243D01*
X131520500Y-100076287D01*
X131520500Y-99863713D01*
X131520500Y-99863712D01*
X131502211Y-99748238D01*
X131499910Y-99733713D01*
X148699500Y-99733713D01*
X148699500Y-99946287D01*
X148732754Y-100156243D01*
X148774992Y-100286239D01*
X148798444Y-100358414D01*
X148894951Y-100547820D01*
X149019890Y-100719786D01*
X149170213Y-100870109D01*
X149342179Y-100995048D01*
X149342181Y-100995049D01*
X149342184Y-100995051D01*
X149531588Y-101091557D01*
X149733757Y-101157246D01*
X149943713Y-101190500D01*
X149943714Y-101190500D01*
X150156286Y-101190500D01*
X150156287Y-101190500D01*
X150366243Y-101157246D01*
X150568412Y-101091557D01*
X150757816Y-100995051D01*
X150779789Y-100979086D01*
X150929786Y-100870109D01*
X150929788Y-100870106D01*
X150929792Y-100870104D01*
X151080104Y-100719792D01*
X151080106Y-100719788D01*
X151080109Y-100719786D01*
X151205048Y-100547820D01*
X151205047Y-100547820D01*
X151205051Y-100547816D01*
X151301557Y-100358412D01*
X151367246Y-100156243D01*
X151400500Y-99946287D01*
X151400500Y-99863713D01*
X168639500Y-99863713D01*
X168639500Y-100076287D01*
X168672754Y-100286243D01*
X168696203Y-100358412D01*
X168738444Y-100488414D01*
X168834951Y-100677820D01*
X168959890Y-100849786D01*
X169110213Y-101000109D01*
X169282179Y-101125048D01*
X169282181Y-101125049D01*
X169282184Y-101125051D01*
X169471588Y-101221557D01*
X169673757Y-101287246D01*
X169883713Y-101320500D01*
X169883714Y-101320500D01*
X170096286Y-101320500D01*
X170096287Y-101320500D01*
X170306243Y-101287246D01*
X170508412Y-101221557D01*
X170697816Y-101125051D01*
X170743920Y-101091555D01*
X170869786Y-101000109D01*
X170869788Y-101000106D01*
X170869792Y-101000104D01*
X171020104Y-100849792D01*
X171020106Y-100849788D01*
X171020109Y-100849786D01*
X171145048Y-100677820D01*
X171145047Y-100677820D01*
X171145051Y-100677816D01*
X171241557Y-100488412D01*
X171307246Y-100286243D01*
X171340500Y-100076287D01*
X171340500Y-99863713D01*
X171307246Y-99653757D01*
X171241557Y-99451588D01*
X171145051Y-99262184D01*
X171145049Y-99262181D01*
X171145048Y-99262179D01*
X171020109Y-99090213D01*
X170869786Y-98939890D01*
X170697820Y-98814951D01*
X170508414Y-98718444D01*
X170508413Y-98718443D01*
X170508412Y-98718443D01*
X170306243Y-98652754D01*
X170306241Y-98652753D01*
X170306240Y-98652753D01*
X170144957Y-98627208D01*
X170096287Y-98619500D01*
X169883713Y-98619500D01*
X169835042Y-98627208D01*
X169673760Y-98652753D01*
X169471585Y-98718444D01*
X169282179Y-98814951D01*
X169110213Y-98939890D01*
X168959890Y-99090213D01*
X168834951Y-99262179D01*
X168738444Y-99451585D01*
X168672753Y-99653760D01*
X168655054Y-99765510D01*
X168639500Y-99863713D01*
X151400500Y-99863713D01*
X151400500Y-99733713D01*
X151367246Y-99523757D01*
X151301557Y-99321588D01*
X151205051Y-99132184D01*
X151205049Y-99132181D01*
X151205048Y-99132179D01*
X151080109Y-98960213D01*
X150929786Y-98809890D01*
X150757820Y-98684951D01*
X150568414Y-98588444D01*
X150568413Y-98588443D01*
X150568412Y-98588443D01*
X150366243Y-98522754D01*
X150366241Y-98522753D01*
X150366240Y-98522753D01*
X150204957Y-98497208D01*
X150156287Y-98489500D01*
X149943713Y-98489500D01*
X149895042Y-98497208D01*
X149733760Y-98522753D01*
X149531585Y-98588444D01*
X149342179Y-98684951D01*
X149170213Y-98809890D01*
X149019890Y-98960213D01*
X148894951Y-99132179D01*
X148798444Y-99321585D01*
X148732753Y-99523760D01*
X148712164Y-99653757D01*
X148699500Y-99733713D01*
X131499910Y-99733713D01*
X131487246Y-99653760D01*
X131487246Y-99653757D01*
X131421557Y-99451588D01*
X131325051Y-99262184D01*
X131325049Y-99262181D01*
X131325048Y-99262179D01*
X131200109Y-99090213D01*
X131049786Y-98939890D01*
X130877820Y-98814951D01*
X130688414Y-98718444D01*
X130688413Y-98718443D01*
X130688412Y-98718443D01*
X130486243Y-98652754D01*
X130486241Y-98652753D01*
X130486240Y-98652753D01*
X130324957Y-98627208D01*
X130276287Y-98619500D01*
X130063713Y-98619500D01*
X130015042Y-98627208D01*
X129853760Y-98652753D01*
X129651585Y-98718444D01*
X129462179Y-98814951D01*
X129290213Y-98939890D01*
X129139890Y-99090213D01*
X129014951Y-99262179D01*
X128918444Y-99451585D01*
X128852753Y-99653760D01*
X128835054Y-99765510D01*
X128819500Y-99863713D01*
X120765199Y-99863713D01*
X120765199Y-99785677D01*
X120765278Y-99781251D01*
X120769831Y-99653760D01*
X120802707Y-98733263D01*
X120802944Y-98728849D01*
X120806084Y-98684949D01*
X120877757Y-97682836D01*
X120878140Y-97678540D01*
X120990247Y-96635796D01*
X120990796Y-96631429D01*
X121140032Y-95593470D01*
X121140740Y-95589100D01*
X121169377Y-95430378D01*
X121326940Y-94557066D01*
X121327791Y-94552787D01*
X121550706Y-93528063D01*
X121551719Y-93523780D01*
X121811065Y-92507671D01*
X121812214Y-92503482D01*
X122107672Y-91497246D01*
X122108991Y-91493036D01*
X122440161Y-90498029D01*
X122441594Y-90493962D01*
X122808112Y-89511292D01*
X122809688Y-89507288D01*
X123211016Y-88538395D01*
X123212780Y-88534344D01*
X123648388Y-87580496D01*
X123650298Y-87576502D01*
X123907772Y-87062135D01*
X135779500Y-87062135D01*
X135779500Y-88957870D01*
X135779501Y-88957876D01*
X135785908Y-89017483D01*
X135836202Y-89152328D01*
X135836206Y-89152335D01*
X135922452Y-89267544D01*
X135922455Y-89267547D01*
X136037664Y-89353793D01*
X136037671Y-89353797D01*
X136172517Y-89404091D01*
X136172516Y-89404091D01*
X136179444Y-89404835D01*
X136232127Y-89410500D01*
X138127872Y-89410499D01*
X138187483Y-89404091D01*
X138322331Y-89353796D01*
X138437546Y-89267546D01*
X138523796Y-89152331D01*
X138574091Y-89017483D01*
X138580500Y-88957873D01*
X138580499Y-87362135D01*
X161269500Y-87362135D01*
X161269500Y-89257870D01*
X161269501Y-89257876D01*
X161275908Y-89317483D01*
X161326202Y-89452328D01*
X161326206Y-89452335D01*
X161412452Y-89567544D01*
X161412455Y-89567547D01*
X161527664Y-89653793D01*
X161527671Y-89653797D01*
X161662517Y-89704091D01*
X161662516Y-89704091D01*
X161669444Y-89704835D01*
X161722127Y-89710500D01*
X163617872Y-89710499D01*
X163677483Y-89704091D01*
X163812331Y-89653796D01*
X163927546Y-89567546D01*
X164013796Y-89452331D01*
X164064091Y-89317483D01*
X164070500Y-89257873D01*
X164070499Y-87362128D01*
X164064091Y-87302517D01*
X164013796Y-87167669D01*
X164013795Y-87167668D01*
X164013793Y-87167664D01*
X163927547Y-87052455D01*
X163927544Y-87052452D01*
X163812335Y-86966206D01*
X163812328Y-86966202D01*
X163677482Y-86915908D01*
X163677483Y-86915908D01*
X163617883Y-86909501D01*
X163617881Y-86909500D01*
X163617873Y-86909500D01*
X163617864Y-86909500D01*
X161722129Y-86909500D01*
X161722123Y-86909501D01*
X161662516Y-86915908D01*
X161527671Y-86966202D01*
X161527664Y-86966206D01*
X161412455Y-87052452D01*
X161412452Y-87052455D01*
X161326206Y-87167664D01*
X161326202Y-87167671D01*
X161275908Y-87302517D01*
X161269501Y-87362116D01*
X161269501Y-87362123D01*
X161269500Y-87362135D01*
X138580499Y-87362135D01*
X138580499Y-87062128D01*
X138574091Y-87002517D01*
X138560546Y-86966202D01*
X138523797Y-86867671D01*
X138523793Y-86867664D01*
X138437547Y-86752455D01*
X138437544Y-86752452D01*
X138322335Y-86666206D01*
X138322328Y-86666202D01*
X138187482Y-86615908D01*
X138187483Y-86615908D01*
X138127883Y-86609501D01*
X138127881Y-86609500D01*
X138127873Y-86609500D01*
X138127864Y-86609500D01*
X136232129Y-86609500D01*
X136232123Y-86609501D01*
X136172516Y-86615908D01*
X136037671Y-86666202D01*
X136037664Y-86666206D01*
X135922455Y-86752452D01*
X135922452Y-86752455D01*
X135836206Y-86867664D01*
X135836202Y-86867671D01*
X135785908Y-87002517D01*
X135780540Y-87052452D01*
X135779501Y-87062123D01*
X135779500Y-87062135D01*
X123907772Y-87062135D01*
X124119705Y-86638747D01*
X124121757Y-86634824D01*
X124624330Y-85714431D01*
X124626473Y-85710665D01*
X125161622Y-84808721D01*
X125163941Y-84804970D01*
X125730858Y-83922829D01*
X125733317Y-83919148D01*
X126331426Y-83057706D01*
X126333950Y-83054207D01*
X126962422Y-82214667D01*
X126965094Y-82211226D01*
X127623134Y-81394648D01*
X127625944Y-81391286D01*
X128312681Y-80598748D01*
X128315634Y-80595462D01*
X129030237Y-79827924D01*
X129033256Y-79824796D01*
X129774796Y-79083256D01*
X129777924Y-79080237D01*
X130545468Y-78365628D01*
X130548755Y-78362676D01*
X131341286Y-77675944D01*
X131344648Y-77673134D01*
X132161226Y-77015094D01*
X132164667Y-77012422D01*
X133004207Y-76383950D01*
X133007706Y-76381426D01*
X133869160Y-75783308D01*
X133872829Y-75780858D01*
X134016678Y-75688412D01*
X134754983Y-75213932D01*
X134758721Y-75211622D01*
X135008008Y-75063713D01*
X148699500Y-75063713D01*
X148699500Y-75276286D01*
X148732753Y-75486239D01*
X148798444Y-75688414D01*
X148894951Y-75877820D01*
X149019890Y-76049786D01*
X149170213Y-76200109D01*
X149342179Y-76325048D01*
X149342181Y-76325049D01*
X149342184Y-76325051D01*
X149531588Y-76421557D01*
X149733757Y-76487246D01*
X149943713Y-76520500D01*
X149943714Y-76520500D01*
X150156286Y-76520500D01*
X150156287Y-76520500D01*
X150366243Y-76487246D01*
X150568412Y-76421557D01*
X150757816Y-76325051D01*
X150779789Y-76309086D01*
X150929786Y-76200109D01*
X150929788Y-76200106D01*
X150929792Y-76200104D01*
X151080104Y-76049792D01*
X151080106Y-76049788D01*
X151080109Y-76049786D01*
X151205048Y-75877820D01*
X151205047Y-75877820D01*
X151205051Y-75877816D01*
X151301557Y-75688412D01*
X151367246Y-75486243D01*
X151400500Y-75276287D01*
X151400500Y-75063713D01*
X151367246Y-74853757D01*
X151301557Y-74651588D01*
X151205051Y-74462184D01*
X151205049Y-74462181D01*
X151205048Y-74462179D01*
X151080109Y-74290213D01*
X150929786Y-74139890D01*
X150757820Y-74014951D01*
X150568414Y-73918444D01*
X150568413Y-73918443D01*
X150568412Y-73918443D01*
X150366243Y-73852754D01*
X150366241Y-73852753D01*
X150366240Y-73852753D01*
X150204957Y-73827208D01*
X150156287Y-73819500D01*
X149943713Y-73819500D01*
X149895042Y-73827208D01*
X149733760Y-73852753D01*
X149531585Y-73918444D01*
X149342179Y-74014951D01*
X149170213Y-74139890D01*
X149019890Y-74290213D01*
X148894951Y-74462179D01*
X148798444Y-74651585D01*
X148732753Y-74853760D01*
X148699500Y-75063713D01*
X135008008Y-75063713D01*
X135660665Y-74676473D01*
X135664431Y-74674330D01*
X136584842Y-74171747D01*
X136588728Y-74169713D01*
X137526506Y-73700295D01*
X137530496Y-73698388D01*
X138484351Y-73262776D01*
X138488402Y-73261013D01*
X139457288Y-72859688D01*
X139461292Y-72858112D01*
X140443962Y-72491594D01*
X140448029Y-72490161D01*
X141443049Y-72158986D01*
X141447246Y-72157672D01*
X142453482Y-71862214D01*
X142457671Y-71861065D01*
X143473805Y-71601713D01*
X143478063Y-71600706D01*
X144502787Y-71377791D01*
X144507066Y-71376940D01*
X145539122Y-71190736D01*
X145543447Y-71190035D01*
X146581454Y-71040792D01*
X146585796Y-71040247D01*
X147628540Y-70928140D01*
X147632836Y-70927757D01*
X148678856Y-70852943D01*
X148683263Y-70852707D01*
X149731251Y-70815277D01*
X149735677Y-70815199D01*
X150784323Y-70815199D01*
X150788748Y-70815277D01*
G37*
%TD.AperFunction*%
%TD*%
M02*
