%TF.GenerationSoftware,KiCad,Pcbnew,9.0.1*%
%TF.CreationDate,2025-05-16T16:11:36-04:00*%
%TF.ProjectId,Ir PCB,49722050-4342-42e6-9b69-6361645f7063,rev?*%
%TF.SameCoordinates,Original*%
%TF.FileFunction,Legend,Top*%
%TF.FilePolarity,Positive*%
%FSLAX46Y46*%
G04 Gerber Fmt 4.6, Leading zero omitted, Abs format (unit mm)*
G04 Created by KiCad (PCBNEW 9.0.1) date 2025-05-16 16:11:36*
%MOMM*%
%LPD*%
G01*
G04 APERTURE LIST*
%ADD10C,0.062500*%
%ADD11C,0.150000*%
%ADD12C,0.120000*%
G04 APERTURE END LIST*
D10*
X144660165Y-118868682D02*
X144826832Y-118868682D01*
X144898260Y-119130587D02*
X144660165Y-119130587D01*
X144660165Y-119130587D02*
X144660165Y-118630587D01*
X144660165Y-118630587D02*
X144898260Y-118630587D01*
X145374451Y-118654397D02*
X145326832Y-118630587D01*
X145326832Y-118630587D02*
X145255403Y-118630587D01*
X145255403Y-118630587D02*
X145183975Y-118654397D01*
X145183975Y-118654397D02*
X145136356Y-118702016D01*
X145136356Y-118702016D02*
X145112546Y-118749635D01*
X145112546Y-118749635D02*
X145088737Y-118844873D01*
X145088737Y-118844873D02*
X145088737Y-118916301D01*
X145088737Y-118916301D02*
X145112546Y-119011539D01*
X145112546Y-119011539D02*
X145136356Y-119059158D01*
X145136356Y-119059158D02*
X145183975Y-119106778D01*
X145183975Y-119106778D02*
X145255403Y-119130587D01*
X145255403Y-119130587D02*
X145303022Y-119130587D01*
X145303022Y-119130587D02*
X145374451Y-119106778D01*
X145374451Y-119106778D02*
X145398260Y-119082968D01*
X145398260Y-119082968D02*
X145398260Y-118916301D01*
X145398260Y-118916301D02*
X145303022Y-118916301D01*
X145779213Y-118868682D02*
X145850641Y-118892492D01*
X145850641Y-118892492D02*
X145874451Y-118916301D01*
X145874451Y-118916301D02*
X145898260Y-118963920D01*
X145898260Y-118963920D02*
X145898260Y-119035349D01*
X145898260Y-119035349D02*
X145874451Y-119082968D01*
X145874451Y-119082968D02*
X145850641Y-119106778D01*
X145850641Y-119106778D02*
X145803022Y-119130587D01*
X145803022Y-119130587D02*
X145612546Y-119130587D01*
X145612546Y-119130587D02*
X145612546Y-118630587D01*
X145612546Y-118630587D02*
X145779213Y-118630587D01*
X145779213Y-118630587D02*
X145826832Y-118654397D01*
X145826832Y-118654397D02*
X145850641Y-118678206D01*
X145850641Y-118678206D02*
X145874451Y-118725825D01*
X145874451Y-118725825D02*
X145874451Y-118773444D01*
X145874451Y-118773444D02*
X145850641Y-118821063D01*
X145850641Y-118821063D02*
X145826832Y-118844873D01*
X145826832Y-118844873D02*
X145779213Y-118868682D01*
X145779213Y-118868682D02*
X145612546Y-118868682D01*
X146088737Y-118678206D02*
X146112546Y-118654397D01*
X146112546Y-118654397D02*
X146160165Y-118630587D01*
X146160165Y-118630587D02*
X146279213Y-118630587D01*
X146279213Y-118630587D02*
X146326832Y-118654397D01*
X146326832Y-118654397D02*
X146350641Y-118678206D01*
X146350641Y-118678206D02*
X146374451Y-118725825D01*
X146374451Y-118725825D02*
X146374451Y-118773444D01*
X146374451Y-118773444D02*
X146350641Y-118844873D01*
X146350641Y-118844873D02*
X146064927Y-119130587D01*
X146064927Y-119130587D02*
X146374451Y-119130587D01*
X146564927Y-118678206D02*
X146588736Y-118654397D01*
X146588736Y-118654397D02*
X146636355Y-118630587D01*
X146636355Y-118630587D02*
X146755403Y-118630587D01*
X146755403Y-118630587D02*
X146803022Y-118654397D01*
X146803022Y-118654397D02*
X146826831Y-118678206D01*
X146826831Y-118678206D02*
X146850641Y-118725825D01*
X146850641Y-118725825D02*
X146850641Y-118773444D01*
X146850641Y-118773444D02*
X146826831Y-118844873D01*
X146826831Y-118844873D02*
X146541117Y-119130587D01*
X146541117Y-119130587D02*
X146850641Y-119130587D01*
X147160164Y-118630587D02*
X147207783Y-118630587D01*
X147207783Y-118630587D02*
X147255402Y-118654397D01*
X147255402Y-118654397D02*
X147279212Y-118678206D01*
X147279212Y-118678206D02*
X147303021Y-118725825D01*
X147303021Y-118725825D02*
X147326831Y-118821063D01*
X147326831Y-118821063D02*
X147326831Y-118940111D01*
X147326831Y-118940111D02*
X147303021Y-119035349D01*
X147303021Y-119035349D02*
X147279212Y-119082968D01*
X147279212Y-119082968D02*
X147255402Y-119106778D01*
X147255402Y-119106778D02*
X147207783Y-119130587D01*
X147207783Y-119130587D02*
X147160164Y-119130587D01*
X147160164Y-119130587D02*
X147112545Y-119106778D01*
X147112545Y-119106778D02*
X147088736Y-119082968D01*
X147088736Y-119082968D02*
X147064926Y-119035349D01*
X147064926Y-119035349D02*
X147041117Y-118940111D01*
X147041117Y-118940111D02*
X147041117Y-118821063D01*
X147041117Y-118821063D02*
X147064926Y-118725825D01*
X147064926Y-118725825D02*
X147088736Y-118678206D01*
X147088736Y-118678206D02*
X147112545Y-118654397D01*
X147112545Y-118654397D02*
X147160164Y-118630587D01*
X147541116Y-118940111D02*
X147922069Y-118940111D01*
X148136355Y-118987730D02*
X148374450Y-118987730D01*
X148088736Y-119130587D02*
X148255402Y-118630587D01*
X148255402Y-118630587D02*
X148422069Y-119130587D01*
X148850640Y-119130587D02*
X148564926Y-119130587D01*
X148707783Y-119130587D02*
X148707783Y-118630587D01*
X148707783Y-118630587D02*
X148660164Y-118702016D01*
X148660164Y-118702016D02*
X148612545Y-118749635D01*
X148612545Y-118749635D02*
X148564926Y-118773444D01*
X149160163Y-118630587D02*
X149207782Y-118630587D01*
X149207782Y-118630587D02*
X149255401Y-118654397D01*
X149255401Y-118654397D02*
X149279211Y-118678206D01*
X149279211Y-118678206D02*
X149303020Y-118725825D01*
X149303020Y-118725825D02*
X149326830Y-118821063D01*
X149326830Y-118821063D02*
X149326830Y-118940111D01*
X149326830Y-118940111D02*
X149303020Y-119035349D01*
X149303020Y-119035349D02*
X149279211Y-119082968D01*
X149279211Y-119082968D02*
X149255401Y-119106778D01*
X149255401Y-119106778D02*
X149207782Y-119130587D01*
X149207782Y-119130587D02*
X149160163Y-119130587D01*
X149160163Y-119130587D02*
X149112544Y-119106778D01*
X149112544Y-119106778D02*
X149088735Y-119082968D01*
X149088735Y-119082968D02*
X149064925Y-119035349D01*
X149064925Y-119035349D02*
X149041116Y-118940111D01*
X149041116Y-118940111D02*
X149041116Y-118821063D01*
X149041116Y-118821063D02*
X149064925Y-118725825D01*
X149064925Y-118725825D02*
X149088735Y-118678206D01*
X149088735Y-118678206D02*
X149112544Y-118654397D01*
X149112544Y-118654397D02*
X149160163Y-118630587D01*
X149850639Y-118630587D02*
X150136353Y-118630587D01*
X149993496Y-119130587D02*
X149993496Y-118630587D01*
X150517305Y-119130587D02*
X150517305Y-118868682D01*
X150517305Y-118868682D02*
X150493495Y-118821063D01*
X150493495Y-118821063D02*
X150445876Y-118797254D01*
X150445876Y-118797254D02*
X150350638Y-118797254D01*
X150350638Y-118797254D02*
X150303019Y-118821063D01*
X150517305Y-119106778D02*
X150469686Y-119130587D01*
X150469686Y-119130587D02*
X150350638Y-119130587D01*
X150350638Y-119130587D02*
X150303019Y-119106778D01*
X150303019Y-119106778D02*
X150279210Y-119059158D01*
X150279210Y-119059158D02*
X150279210Y-119011539D01*
X150279210Y-119011539D02*
X150303019Y-118963920D01*
X150303019Y-118963920D02*
X150350638Y-118940111D01*
X150350638Y-118940111D02*
X150469686Y-118940111D01*
X150469686Y-118940111D02*
X150517305Y-118916301D01*
X150755400Y-119130587D02*
X150755400Y-118797254D01*
X150755400Y-118892492D02*
X150779210Y-118844873D01*
X150779210Y-118844873D02*
X150803019Y-118821063D01*
X150803019Y-118821063D02*
X150850638Y-118797254D01*
X150850638Y-118797254D02*
X150898257Y-118797254D01*
X151279210Y-118797254D02*
X151279210Y-119202016D01*
X151279210Y-119202016D02*
X151255400Y-119249635D01*
X151255400Y-119249635D02*
X151231591Y-119273444D01*
X151231591Y-119273444D02*
X151183972Y-119297254D01*
X151183972Y-119297254D02*
X151112543Y-119297254D01*
X151112543Y-119297254D02*
X151064924Y-119273444D01*
X151279210Y-119106778D02*
X151231591Y-119130587D01*
X151231591Y-119130587D02*
X151136353Y-119130587D01*
X151136353Y-119130587D02*
X151088734Y-119106778D01*
X151088734Y-119106778D02*
X151064924Y-119082968D01*
X151064924Y-119082968D02*
X151041115Y-119035349D01*
X151041115Y-119035349D02*
X151041115Y-118892492D01*
X151041115Y-118892492D02*
X151064924Y-118844873D01*
X151064924Y-118844873D02*
X151088734Y-118821063D01*
X151088734Y-118821063D02*
X151136353Y-118797254D01*
X151136353Y-118797254D02*
X151231591Y-118797254D01*
X151231591Y-118797254D02*
X151279210Y-118821063D01*
X151707781Y-119106778D02*
X151660162Y-119130587D01*
X151660162Y-119130587D02*
X151564924Y-119130587D01*
X151564924Y-119130587D02*
X151517305Y-119106778D01*
X151517305Y-119106778D02*
X151493496Y-119059158D01*
X151493496Y-119059158D02*
X151493496Y-118868682D01*
X151493496Y-118868682D02*
X151517305Y-118821063D01*
X151517305Y-118821063D02*
X151564924Y-118797254D01*
X151564924Y-118797254D02*
X151660162Y-118797254D01*
X151660162Y-118797254D02*
X151707781Y-118821063D01*
X151707781Y-118821063D02*
X151731591Y-118868682D01*
X151731591Y-118868682D02*
X151731591Y-118916301D01*
X151731591Y-118916301D02*
X151493496Y-118963920D01*
X151874448Y-118797254D02*
X152064924Y-118797254D01*
X151945876Y-118630587D02*
X151945876Y-119059158D01*
X151945876Y-119059158D02*
X151969686Y-119106778D01*
X151969686Y-119106778D02*
X152017305Y-119130587D01*
X152017305Y-119130587D02*
X152064924Y-119130587D01*
X152160162Y-118797254D02*
X152350638Y-118797254D01*
X152231590Y-118630587D02*
X152231590Y-119059158D01*
X152231590Y-119059158D02*
X152255400Y-119106778D01*
X152255400Y-119106778D02*
X152303019Y-119130587D01*
X152303019Y-119130587D02*
X152350638Y-119130587D01*
X152517304Y-119130587D02*
X152517304Y-118797254D01*
X152517304Y-118630587D02*
X152493495Y-118654397D01*
X152493495Y-118654397D02*
X152517304Y-118678206D01*
X152517304Y-118678206D02*
X152541114Y-118654397D01*
X152541114Y-118654397D02*
X152517304Y-118630587D01*
X152517304Y-118630587D02*
X152517304Y-118678206D01*
X152755399Y-118797254D02*
X152755399Y-119130587D01*
X152755399Y-118844873D02*
X152779209Y-118821063D01*
X152779209Y-118821063D02*
X152826828Y-118797254D01*
X152826828Y-118797254D02*
X152898256Y-118797254D01*
X152898256Y-118797254D02*
X152945875Y-118821063D01*
X152945875Y-118821063D02*
X152969685Y-118868682D01*
X152969685Y-118868682D02*
X152969685Y-119130587D01*
X153422066Y-118797254D02*
X153422066Y-119202016D01*
X153422066Y-119202016D02*
X153398256Y-119249635D01*
X153398256Y-119249635D02*
X153374447Y-119273444D01*
X153374447Y-119273444D02*
X153326828Y-119297254D01*
X153326828Y-119297254D02*
X153255399Y-119297254D01*
X153255399Y-119297254D02*
X153207780Y-119273444D01*
X153422066Y-119106778D02*
X153374447Y-119130587D01*
X153374447Y-119130587D02*
X153279209Y-119130587D01*
X153279209Y-119130587D02*
X153231590Y-119106778D01*
X153231590Y-119106778D02*
X153207780Y-119082968D01*
X153207780Y-119082968D02*
X153183971Y-119035349D01*
X153183971Y-119035349D02*
X153183971Y-118892492D01*
X153183971Y-118892492D02*
X153207780Y-118844873D01*
X153207780Y-118844873D02*
X153231590Y-118821063D01*
X153231590Y-118821063D02*
X153279209Y-118797254D01*
X153279209Y-118797254D02*
X153374447Y-118797254D01*
X153374447Y-118797254D02*
X153422066Y-118821063D01*
X154017304Y-118987730D02*
X154255399Y-118987730D01*
X153969685Y-119130587D02*
X154136351Y-118630587D01*
X154136351Y-118630587D02*
X154303018Y-119130587D01*
X154469684Y-119130587D02*
X154469684Y-118797254D01*
X154469684Y-118892492D02*
X154493494Y-118844873D01*
X154493494Y-118844873D02*
X154517303Y-118821063D01*
X154517303Y-118821063D02*
X154564922Y-118797254D01*
X154564922Y-118797254D02*
X154612541Y-118797254D01*
X154779208Y-119130587D02*
X154779208Y-118797254D01*
X154779208Y-118892492D02*
X154803018Y-118844873D01*
X154803018Y-118844873D02*
X154826827Y-118821063D01*
X154826827Y-118821063D02*
X154874446Y-118797254D01*
X154874446Y-118797254D02*
X154922065Y-118797254D01*
X155303018Y-119130587D02*
X155303018Y-118868682D01*
X155303018Y-118868682D02*
X155279208Y-118821063D01*
X155279208Y-118821063D02*
X155231589Y-118797254D01*
X155231589Y-118797254D02*
X155136351Y-118797254D01*
X155136351Y-118797254D02*
X155088732Y-118821063D01*
X155303018Y-119106778D02*
X155255399Y-119130587D01*
X155255399Y-119130587D02*
X155136351Y-119130587D01*
X155136351Y-119130587D02*
X155088732Y-119106778D01*
X155088732Y-119106778D02*
X155064923Y-119059158D01*
X155064923Y-119059158D02*
X155064923Y-119011539D01*
X155064923Y-119011539D02*
X155088732Y-118963920D01*
X155088732Y-118963920D02*
X155136351Y-118940111D01*
X155136351Y-118940111D02*
X155255399Y-118940111D01*
X155255399Y-118940111D02*
X155303018Y-118916301D01*
X155493494Y-118797254D02*
X155612542Y-119130587D01*
X155731589Y-118797254D02*
X155612542Y-119130587D01*
X155612542Y-119130587D02*
X155564923Y-119249635D01*
X155564923Y-119249635D02*
X155541113Y-119273444D01*
X155541113Y-119273444D02*
X155493494Y-119297254D01*
X144660165Y-119935559D02*
X144660165Y-119435559D01*
X144660165Y-119435559D02*
X144779213Y-119435559D01*
X144779213Y-119435559D02*
X144850641Y-119459369D01*
X144850641Y-119459369D02*
X144898260Y-119506988D01*
X144898260Y-119506988D02*
X144922070Y-119554607D01*
X144922070Y-119554607D02*
X144945879Y-119649845D01*
X144945879Y-119649845D02*
X144945879Y-119721273D01*
X144945879Y-119721273D02*
X144922070Y-119816511D01*
X144922070Y-119816511D02*
X144898260Y-119864130D01*
X144898260Y-119864130D02*
X144850641Y-119911750D01*
X144850641Y-119911750D02*
X144779213Y-119935559D01*
X144779213Y-119935559D02*
X144660165Y-119935559D01*
X145350641Y-119911750D02*
X145303022Y-119935559D01*
X145303022Y-119935559D02*
X145207784Y-119935559D01*
X145207784Y-119935559D02*
X145160165Y-119911750D01*
X145160165Y-119911750D02*
X145136356Y-119864130D01*
X145136356Y-119864130D02*
X145136356Y-119673654D01*
X145136356Y-119673654D02*
X145160165Y-119626035D01*
X145160165Y-119626035D02*
X145207784Y-119602226D01*
X145207784Y-119602226D02*
X145303022Y-119602226D01*
X145303022Y-119602226D02*
X145350641Y-119626035D01*
X145350641Y-119626035D02*
X145374451Y-119673654D01*
X145374451Y-119673654D02*
X145374451Y-119721273D01*
X145374451Y-119721273D02*
X145136356Y-119768892D01*
X145564927Y-119911750D02*
X145612546Y-119935559D01*
X145612546Y-119935559D02*
X145707784Y-119935559D01*
X145707784Y-119935559D02*
X145755403Y-119911750D01*
X145755403Y-119911750D02*
X145779212Y-119864130D01*
X145779212Y-119864130D02*
X145779212Y-119840321D01*
X145779212Y-119840321D02*
X145755403Y-119792702D01*
X145755403Y-119792702D02*
X145707784Y-119768892D01*
X145707784Y-119768892D02*
X145636355Y-119768892D01*
X145636355Y-119768892D02*
X145588736Y-119745083D01*
X145588736Y-119745083D02*
X145564927Y-119697464D01*
X145564927Y-119697464D02*
X145564927Y-119673654D01*
X145564927Y-119673654D02*
X145588736Y-119626035D01*
X145588736Y-119626035D02*
X145636355Y-119602226D01*
X145636355Y-119602226D02*
X145707784Y-119602226D01*
X145707784Y-119602226D02*
X145755403Y-119626035D01*
X145993498Y-119935559D02*
X145993498Y-119602226D01*
X145993498Y-119435559D02*
X145969689Y-119459369D01*
X145969689Y-119459369D02*
X145993498Y-119483178D01*
X145993498Y-119483178D02*
X146017308Y-119459369D01*
X146017308Y-119459369D02*
X145993498Y-119435559D01*
X145993498Y-119435559D02*
X145993498Y-119483178D01*
X146445879Y-119602226D02*
X146445879Y-120006988D01*
X146445879Y-120006988D02*
X146422069Y-120054607D01*
X146422069Y-120054607D02*
X146398260Y-120078416D01*
X146398260Y-120078416D02*
X146350641Y-120102226D01*
X146350641Y-120102226D02*
X146279212Y-120102226D01*
X146279212Y-120102226D02*
X146231593Y-120078416D01*
X146445879Y-119911750D02*
X146398260Y-119935559D01*
X146398260Y-119935559D02*
X146303022Y-119935559D01*
X146303022Y-119935559D02*
X146255403Y-119911750D01*
X146255403Y-119911750D02*
X146231593Y-119887940D01*
X146231593Y-119887940D02*
X146207784Y-119840321D01*
X146207784Y-119840321D02*
X146207784Y-119697464D01*
X146207784Y-119697464D02*
X146231593Y-119649845D01*
X146231593Y-119649845D02*
X146255403Y-119626035D01*
X146255403Y-119626035D02*
X146303022Y-119602226D01*
X146303022Y-119602226D02*
X146398260Y-119602226D01*
X146398260Y-119602226D02*
X146445879Y-119626035D01*
X146683974Y-119602226D02*
X146683974Y-119935559D01*
X146683974Y-119649845D02*
X146707784Y-119626035D01*
X146707784Y-119626035D02*
X146755403Y-119602226D01*
X146755403Y-119602226D02*
X146826831Y-119602226D01*
X146826831Y-119602226D02*
X146874450Y-119626035D01*
X146874450Y-119626035D02*
X146898260Y-119673654D01*
X146898260Y-119673654D02*
X146898260Y-119935559D01*
X147326831Y-119911750D02*
X147279212Y-119935559D01*
X147279212Y-119935559D02*
X147183974Y-119935559D01*
X147183974Y-119935559D02*
X147136355Y-119911750D01*
X147136355Y-119911750D02*
X147112546Y-119864130D01*
X147112546Y-119864130D02*
X147112546Y-119673654D01*
X147112546Y-119673654D02*
X147136355Y-119626035D01*
X147136355Y-119626035D02*
X147183974Y-119602226D01*
X147183974Y-119602226D02*
X147279212Y-119602226D01*
X147279212Y-119602226D02*
X147326831Y-119626035D01*
X147326831Y-119626035D02*
X147350641Y-119673654D01*
X147350641Y-119673654D02*
X147350641Y-119721273D01*
X147350641Y-119721273D02*
X147112546Y-119768892D01*
X147779212Y-119935559D02*
X147779212Y-119435559D01*
X147779212Y-119911750D02*
X147731593Y-119935559D01*
X147731593Y-119935559D02*
X147636355Y-119935559D01*
X147636355Y-119935559D02*
X147588736Y-119911750D01*
X147588736Y-119911750D02*
X147564926Y-119887940D01*
X147564926Y-119887940D02*
X147541117Y-119840321D01*
X147541117Y-119840321D02*
X147541117Y-119697464D01*
X147541117Y-119697464D02*
X147564926Y-119649845D01*
X147564926Y-119649845D02*
X147588736Y-119626035D01*
X147588736Y-119626035D02*
X147636355Y-119602226D01*
X147636355Y-119602226D02*
X147731593Y-119602226D01*
X147731593Y-119602226D02*
X147779212Y-119626035D01*
X148398259Y-119935559D02*
X148398259Y-119435559D01*
X148398259Y-119626035D02*
X148445878Y-119602226D01*
X148445878Y-119602226D02*
X148541116Y-119602226D01*
X148541116Y-119602226D02*
X148588735Y-119626035D01*
X148588735Y-119626035D02*
X148612545Y-119649845D01*
X148612545Y-119649845D02*
X148636354Y-119697464D01*
X148636354Y-119697464D02*
X148636354Y-119840321D01*
X148636354Y-119840321D02*
X148612545Y-119887940D01*
X148612545Y-119887940D02*
X148588735Y-119911750D01*
X148588735Y-119911750D02*
X148541116Y-119935559D01*
X148541116Y-119935559D02*
X148445878Y-119935559D01*
X148445878Y-119935559D02*
X148398259Y-119911750D01*
X148803021Y-119602226D02*
X148922069Y-119935559D01*
X149041116Y-119602226D02*
X148922069Y-119935559D01*
X148922069Y-119935559D02*
X148874450Y-120054607D01*
X148874450Y-120054607D02*
X148850640Y-120078416D01*
X148850640Y-120078416D02*
X148803021Y-120102226D01*
X149898258Y-119935559D02*
X149731592Y-119697464D01*
X149612544Y-119935559D02*
X149612544Y-119435559D01*
X149612544Y-119435559D02*
X149803020Y-119435559D01*
X149803020Y-119435559D02*
X149850639Y-119459369D01*
X149850639Y-119459369D02*
X149874449Y-119483178D01*
X149874449Y-119483178D02*
X149898258Y-119530797D01*
X149898258Y-119530797D02*
X149898258Y-119602226D01*
X149898258Y-119602226D02*
X149874449Y-119649845D01*
X149874449Y-119649845D02*
X149850639Y-119673654D01*
X149850639Y-119673654D02*
X149803020Y-119697464D01*
X149803020Y-119697464D02*
X149612544Y-119697464D01*
X150183973Y-119935559D02*
X150136354Y-119911750D01*
X150136354Y-119911750D02*
X150112544Y-119887940D01*
X150112544Y-119887940D02*
X150088735Y-119840321D01*
X150088735Y-119840321D02*
X150088735Y-119697464D01*
X150088735Y-119697464D02*
X150112544Y-119649845D01*
X150112544Y-119649845D02*
X150136354Y-119626035D01*
X150136354Y-119626035D02*
X150183973Y-119602226D01*
X150183973Y-119602226D02*
X150255401Y-119602226D01*
X150255401Y-119602226D02*
X150303020Y-119626035D01*
X150303020Y-119626035D02*
X150326830Y-119649845D01*
X150326830Y-119649845D02*
X150350639Y-119697464D01*
X150350639Y-119697464D02*
X150350639Y-119840321D01*
X150350639Y-119840321D02*
X150326830Y-119887940D01*
X150326830Y-119887940D02*
X150303020Y-119911750D01*
X150303020Y-119911750D02*
X150255401Y-119935559D01*
X150255401Y-119935559D02*
X150183973Y-119935559D01*
X150564925Y-119935559D02*
X150564925Y-119435559D01*
X150779211Y-119935559D02*
X150779211Y-119673654D01*
X150779211Y-119673654D02*
X150755401Y-119626035D01*
X150755401Y-119626035D02*
X150707782Y-119602226D01*
X150707782Y-119602226D02*
X150636354Y-119602226D01*
X150636354Y-119602226D02*
X150588735Y-119626035D01*
X150588735Y-119626035D02*
X150564925Y-119649845D01*
X151231592Y-119935559D02*
X151231592Y-119673654D01*
X151231592Y-119673654D02*
X151207782Y-119626035D01*
X151207782Y-119626035D02*
X151160163Y-119602226D01*
X151160163Y-119602226D02*
X151064925Y-119602226D01*
X151064925Y-119602226D02*
X151017306Y-119626035D01*
X151231592Y-119911750D02*
X151183973Y-119935559D01*
X151183973Y-119935559D02*
X151064925Y-119935559D01*
X151064925Y-119935559D02*
X151017306Y-119911750D01*
X151017306Y-119911750D02*
X150993497Y-119864130D01*
X150993497Y-119864130D02*
X150993497Y-119816511D01*
X150993497Y-119816511D02*
X151017306Y-119768892D01*
X151017306Y-119768892D02*
X151064925Y-119745083D01*
X151064925Y-119745083D02*
X151183973Y-119745083D01*
X151183973Y-119745083D02*
X151231592Y-119721273D01*
X151469687Y-119602226D02*
X151469687Y-119935559D01*
X151469687Y-119649845D02*
X151493497Y-119626035D01*
X151493497Y-119626035D02*
X151541116Y-119602226D01*
X151541116Y-119602226D02*
X151612544Y-119602226D01*
X151612544Y-119602226D02*
X151660163Y-119626035D01*
X151660163Y-119626035D02*
X151683973Y-119673654D01*
X151683973Y-119673654D02*
X151683973Y-119935559D01*
X152303020Y-119935559D02*
X152303020Y-119435559D01*
X152588734Y-119935559D02*
X152374449Y-119649845D01*
X152588734Y-119435559D02*
X152303020Y-119721273D01*
X153017306Y-119935559D02*
X153017306Y-119673654D01*
X153017306Y-119673654D02*
X152993496Y-119626035D01*
X152993496Y-119626035D02*
X152945877Y-119602226D01*
X152945877Y-119602226D02*
X152850639Y-119602226D01*
X152850639Y-119602226D02*
X152803020Y-119626035D01*
X153017306Y-119911750D02*
X152969687Y-119935559D01*
X152969687Y-119935559D02*
X152850639Y-119935559D01*
X152850639Y-119935559D02*
X152803020Y-119911750D01*
X152803020Y-119911750D02*
X152779211Y-119864130D01*
X152779211Y-119864130D02*
X152779211Y-119816511D01*
X152779211Y-119816511D02*
X152803020Y-119768892D01*
X152803020Y-119768892D02*
X152850639Y-119745083D01*
X152850639Y-119745083D02*
X152969687Y-119745083D01*
X152969687Y-119745083D02*
X153017306Y-119721273D01*
X153255401Y-119602226D02*
X153255401Y-120102226D01*
X153255401Y-119626035D02*
X153303020Y-119602226D01*
X153303020Y-119602226D02*
X153398258Y-119602226D01*
X153398258Y-119602226D02*
X153445877Y-119626035D01*
X153445877Y-119626035D02*
X153469687Y-119649845D01*
X153469687Y-119649845D02*
X153493496Y-119697464D01*
X153493496Y-119697464D02*
X153493496Y-119840321D01*
X153493496Y-119840321D02*
X153469687Y-119887940D01*
X153469687Y-119887940D02*
X153445877Y-119911750D01*
X153445877Y-119911750D02*
X153398258Y-119935559D01*
X153398258Y-119935559D02*
X153303020Y-119935559D01*
X153303020Y-119935559D02*
X153255401Y-119911750D01*
X153707782Y-119935559D02*
X153707782Y-119602226D01*
X153707782Y-119435559D02*
X153683973Y-119459369D01*
X153683973Y-119459369D02*
X153707782Y-119483178D01*
X153707782Y-119483178D02*
X153731592Y-119459369D01*
X153731592Y-119459369D02*
X153707782Y-119435559D01*
X153707782Y-119435559D02*
X153707782Y-119483178D01*
X154017306Y-119935559D02*
X153969687Y-119911750D01*
X153969687Y-119911750D02*
X153945877Y-119864130D01*
X153945877Y-119864130D02*
X153945877Y-119435559D01*
D11*
X143884761Y-104430057D02*
X143789523Y-104382438D01*
X143789523Y-104382438D02*
X143694285Y-104287200D01*
X143694285Y-104287200D02*
X143551428Y-104144342D01*
X143551428Y-104144342D02*
X143456190Y-104096723D01*
X143456190Y-104096723D02*
X143360952Y-104096723D01*
X143408571Y-104334819D02*
X143313333Y-104287200D01*
X143313333Y-104287200D02*
X143218095Y-104191961D01*
X143218095Y-104191961D02*
X143170476Y-104001485D01*
X143170476Y-104001485D02*
X143170476Y-103668152D01*
X143170476Y-103668152D02*
X143218095Y-103477676D01*
X143218095Y-103477676D02*
X143313333Y-103382438D01*
X143313333Y-103382438D02*
X143408571Y-103334819D01*
X143408571Y-103334819D02*
X143599047Y-103334819D01*
X143599047Y-103334819D02*
X143694285Y-103382438D01*
X143694285Y-103382438D02*
X143789523Y-103477676D01*
X143789523Y-103477676D02*
X143837142Y-103668152D01*
X143837142Y-103668152D02*
X143837142Y-104001485D01*
X143837142Y-104001485D02*
X143789523Y-104191961D01*
X143789523Y-104191961D02*
X143694285Y-104287200D01*
X143694285Y-104287200D02*
X143599047Y-104334819D01*
X143599047Y-104334819D02*
X143408571Y-104334819D01*
X144694285Y-103668152D02*
X144694285Y-104334819D01*
X144456190Y-103287200D02*
X144218095Y-104001485D01*
X144218095Y-104001485D02*
X144837142Y-104001485D01*
X135660833Y-111124819D02*
X135327500Y-110648628D01*
X135089405Y-111124819D02*
X135089405Y-110124819D01*
X135089405Y-110124819D02*
X135470357Y-110124819D01*
X135470357Y-110124819D02*
X135565595Y-110172438D01*
X135565595Y-110172438D02*
X135613214Y-110220057D01*
X135613214Y-110220057D02*
X135660833Y-110315295D01*
X135660833Y-110315295D02*
X135660833Y-110458152D01*
X135660833Y-110458152D02*
X135613214Y-110553390D01*
X135613214Y-110553390D02*
X135565595Y-110601009D01*
X135565595Y-110601009D02*
X135470357Y-110648628D01*
X135470357Y-110648628D02*
X135089405Y-110648628D01*
X136517976Y-110458152D02*
X136517976Y-111124819D01*
X136279881Y-110077200D02*
X136041786Y-110791485D01*
X136041786Y-110791485D02*
X136660833Y-110791485D01*
X135660833Y-113764819D02*
X135184643Y-113764819D01*
X135184643Y-113764819D02*
X135137024Y-114241009D01*
X135137024Y-114241009D02*
X135184643Y-114193390D01*
X135184643Y-114193390D02*
X135279881Y-114145771D01*
X135279881Y-114145771D02*
X135517976Y-114145771D01*
X135517976Y-114145771D02*
X135613214Y-114193390D01*
X135613214Y-114193390D02*
X135660833Y-114241009D01*
X135660833Y-114241009D02*
X135708452Y-114336247D01*
X135708452Y-114336247D02*
X135708452Y-114574342D01*
X135708452Y-114574342D02*
X135660833Y-114669580D01*
X135660833Y-114669580D02*
X135613214Y-114717200D01*
X135613214Y-114717200D02*
X135517976Y-114764819D01*
X135517976Y-114764819D02*
X135279881Y-114764819D01*
X135279881Y-114764819D02*
X135184643Y-114717200D01*
X135184643Y-114717200D02*
X135137024Y-114669580D01*
X136137024Y-114764819D02*
X136137024Y-113764819D01*
X136232262Y-114383866D02*
X136517976Y-114764819D01*
X136517976Y-114098152D02*
X136137024Y-114479104D01*
X161600833Y-104774819D02*
X161267500Y-104298628D01*
X161029405Y-104774819D02*
X161029405Y-103774819D01*
X161029405Y-103774819D02*
X161410357Y-103774819D01*
X161410357Y-103774819D02*
X161505595Y-103822438D01*
X161505595Y-103822438D02*
X161553214Y-103870057D01*
X161553214Y-103870057D02*
X161600833Y-103965295D01*
X161600833Y-103965295D02*
X161600833Y-104108152D01*
X161600833Y-104108152D02*
X161553214Y-104203390D01*
X161553214Y-104203390D02*
X161505595Y-104251009D01*
X161505595Y-104251009D02*
X161410357Y-104298628D01*
X161410357Y-104298628D02*
X161029405Y-104298628D01*
X161981786Y-103870057D02*
X162029405Y-103822438D01*
X162029405Y-103822438D02*
X162124643Y-103774819D01*
X162124643Y-103774819D02*
X162362738Y-103774819D01*
X162362738Y-103774819D02*
X162457976Y-103822438D01*
X162457976Y-103822438D02*
X162505595Y-103870057D01*
X162505595Y-103870057D02*
X162553214Y-103965295D01*
X162553214Y-103965295D02*
X162553214Y-104060533D01*
X162553214Y-104060533D02*
X162505595Y-104203390D01*
X162505595Y-104203390D02*
X161934167Y-104774819D01*
X161934167Y-104774819D02*
X162553214Y-104774819D01*
X161600833Y-100134819D02*
X161124643Y-100134819D01*
X161124643Y-100134819D02*
X161077024Y-100611009D01*
X161077024Y-100611009D02*
X161124643Y-100563390D01*
X161124643Y-100563390D02*
X161219881Y-100515771D01*
X161219881Y-100515771D02*
X161457976Y-100515771D01*
X161457976Y-100515771D02*
X161553214Y-100563390D01*
X161553214Y-100563390D02*
X161600833Y-100611009D01*
X161600833Y-100611009D02*
X161648452Y-100706247D01*
X161648452Y-100706247D02*
X161648452Y-100944342D01*
X161648452Y-100944342D02*
X161600833Y-101039580D01*
X161600833Y-101039580D02*
X161553214Y-101087200D01*
X161553214Y-101087200D02*
X161457976Y-101134819D01*
X161457976Y-101134819D02*
X161219881Y-101134819D01*
X161219881Y-101134819D02*
X161124643Y-101087200D01*
X161124643Y-101087200D02*
X161077024Y-101039580D01*
X162077024Y-101134819D02*
X162077024Y-100134819D01*
X162172262Y-100753866D02*
X162457976Y-101134819D01*
X162457976Y-100468152D02*
X162077024Y-100849104D01*
X137945833Y-101134819D02*
X137612500Y-100658628D01*
X137374405Y-101134819D02*
X137374405Y-100134819D01*
X137374405Y-100134819D02*
X137755357Y-100134819D01*
X137755357Y-100134819D02*
X137850595Y-100182438D01*
X137850595Y-100182438D02*
X137898214Y-100230057D01*
X137898214Y-100230057D02*
X137945833Y-100325295D01*
X137945833Y-100325295D02*
X137945833Y-100468152D01*
X137945833Y-100468152D02*
X137898214Y-100563390D01*
X137898214Y-100563390D02*
X137850595Y-100611009D01*
X137850595Y-100611009D02*
X137755357Y-100658628D01*
X137755357Y-100658628D02*
X137374405Y-100658628D01*
X138279167Y-100134819D02*
X138898214Y-100134819D01*
X138898214Y-100134819D02*
X138564881Y-100515771D01*
X138564881Y-100515771D02*
X138707738Y-100515771D01*
X138707738Y-100515771D02*
X138802976Y-100563390D01*
X138802976Y-100563390D02*
X138850595Y-100611009D01*
X138850595Y-100611009D02*
X138898214Y-100706247D01*
X138898214Y-100706247D02*
X138898214Y-100944342D01*
X138898214Y-100944342D02*
X138850595Y-101039580D01*
X138850595Y-101039580D02*
X138802976Y-101087200D01*
X138802976Y-101087200D02*
X138707738Y-101134819D01*
X138707738Y-101134819D02*
X138422024Y-101134819D01*
X138422024Y-101134819D02*
X138326786Y-101087200D01*
X138326786Y-101087200D02*
X138279167Y-101039580D01*
X137945833Y-103774819D02*
X137469643Y-103774819D01*
X137469643Y-103774819D02*
X137422024Y-104251009D01*
X137422024Y-104251009D02*
X137469643Y-104203390D01*
X137469643Y-104203390D02*
X137564881Y-104155771D01*
X137564881Y-104155771D02*
X137802976Y-104155771D01*
X137802976Y-104155771D02*
X137898214Y-104203390D01*
X137898214Y-104203390D02*
X137945833Y-104251009D01*
X137945833Y-104251009D02*
X137993452Y-104346247D01*
X137993452Y-104346247D02*
X137993452Y-104584342D01*
X137993452Y-104584342D02*
X137945833Y-104679580D01*
X137945833Y-104679580D02*
X137898214Y-104727200D01*
X137898214Y-104727200D02*
X137802976Y-104774819D01*
X137802976Y-104774819D02*
X137564881Y-104774819D01*
X137564881Y-104774819D02*
X137469643Y-104727200D01*
X137469643Y-104727200D02*
X137422024Y-104679580D01*
X138422024Y-104774819D02*
X138422024Y-103774819D01*
X138517262Y-104393866D02*
X138802976Y-104774819D01*
X138802976Y-104108152D02*
X138422024Y-104489104D01*
X159404819Y-122333333D02*
X160119104Y-122333333D01*
X160119104Y-122333333D02*
X160261961Y-122380952D01*
X160261961Y-122380952D02*
X160357200Y-122476190D01*
X160357200Y-122476190D02*
X160404819Y-122619047D01*
X160404819Y-122619047D02*
X160404819Y-122714285D01*
X160404819Y-121333333D02*
X160404819Y-121904761D01*
X160404819Y-121619047D02*
X159404819Y-121619047D01*
X159404819Y-121619047D02*
X159547676Y-121714285D01*
X159547676Y-121714285D02*
X159642914Y-121809523D01*
X159642914Y-121809523D02*
X159690533Y-121904761D01*
X155834761Y-118380057D02*
X155739523Y-118332438D01*
X155739523Y-118332438D02*
X155644285Y-118237200D01*
X155644285Y-118237200D02*
X155501428Y-118094342D01*
X155501428Y-118094342D02*
X155406190Y-118046723D01*
X155406190Y-118046723D02*
X155310952Y-118046723D01*
X155358571Y-118284819D02*
X155263333Y-118237200D01*
X155263333Y-118237200D02*
X155168095Y-118141961D01*
X155168095Y-118141961D02*
X155120476Y-117951485D01*
X155120476Y-117951485D02*
X155120476Y-117618152D01*
X155120476Y-117618152D02*
X155168095Y-117427676D01*
X155168095Y-117427676D02*
X155263333Y-117332438D01*
X155263333Y-117332438D02*
X155358571Y-117284819D01*
X155358571Y-117284819D02*
X155549047Y-117284819D01*
X155549047Y-117284819D02*
X155644285Y-117332438D01*
X155644285Y-117332438D02*
X155739523Y-117427676D01*
X155739523Y-117427676D02*
X155787142Y-117618152D01*
X155787142Y-117618152D02*
X155787142Y-117951485D01*
X155787142Y-117951485D02*
X155739523Y-118141961D01*
X155739523Y-118141961D02*
X155644285Y-118237200D01*
X155644285Y-118237200D02*
X155549047Y-118284819D01*
X155549047Y-118284819D02*
X155358571Y-118284819D01*
X156168095Y-117380057D02*
X156215714Y-117332438D01*
X156215714Y-117332438D02*
X156310952Y-117284819D01*
X156310952Y-117284819D02*
X156549047Y-117284819D01*
X156549047Y-117284819D02*
X156644285Y-117332438D01*
X156644285Y-117332438D02*
X156691904Y-117380057D01*
X156691904Y-117380057D02*
X156739523Y-117475295D01*
X156739523Y-117475295D02*
X156739523Y-117570533D01*
X156739523Y-117570533D02*
X156691904Y-117713390D01*
X156691904Y-117713390D02*
X156120476Y-118284819D01*
X156120476Y-118284819D02*
X156739523Y-118284819D01*
X143954761Y-118500057D02*
X143859523Y-118452438D01*
X143859523Y-118452438D02*
X143764285Y-118357200D01*
X143764285Y-118357200D02*
X143621428Y-118214342D01*
X143621428Y-118214342D02*
X143526190Y-118166723D01*
X143526190Y-118166723D02*
X143430952Y-118166723D01*
X143478571Y-118404819D02*
X143383333Y-118357200D01*
X143383333Y-118357200D02*
X143288095Y-118261961D01*
X143288095Y-118261961D02*
X143240476Y-118071485D01*
X143240476Y-118071485D02*
X143240476Y-117738152D01*
X143240476Y-117738152D02*
X143288095Y-117547676D01*
X143288095Y-117547676D02*
X143383333Y-117452438D01*
X143383333Y-117452438D02*
X143478571Y-117404819D01*
X143478571Y-117404819D02*
X143669047Y-117404819D01*
X143669047Y-117404819D02*
X143764285Y-117452438D01*
X143764285Y-117452438D02*
X143859523Y-117547676D01*
X143859523Y-117547676D02*
X143907142Y-117738152D01*
X143907142Y-117738152D02*
X143907142Y-118071485D01*
X143907142Y-118071485D02*
X143859523Y-118261961D01*
X143859523Y-118261961D02*
X143764285Y-118357200D01*
X143764285Y-118357200D02*
X143669047Y-118404819D01*
X143669047Y-118404819D02*
X143478571Y-118404819D01*
X144811904Y-117404819D02*
X144335714Y-117404819D01*
X144335714Y-117404819D02*
X144288095Y-117881009D01*
X144288095Y-117881009D02*
X144335714Y-117833390D01*
X144335714Y-117833390D02*
X144430952Y-117785771D01*
X144430952Y-117785771D02*
X144669047Y-117785771D01*
X144669047Y-117785771D02*
X144764285Y-117833390D01*
X144764285Y-117833390D02*
X144811904Y-117881009D01*
X144811904Y-117881009D02*
X144859523Y-117976247D01*
X144859523Y-117976247D02*
X144859523Y-118214342D01*
X144859523Y-118214342D02*
X144811904Y-118309580D01*
X144811904Y-118309580D02*
X144764285Y-118357200D01*
X144764285Y-118357200D02*
X144669047Y-118404819D01*
X144669047Y-118404819D02*
X144430952Y-118404819D01*
X144430952Y-118404819D02*
X144335714Y-118357200D01*
X144335714Y-118357200D02*
X144288095Y-118309580D01*
X155864761Y-104620057D02*
X155769523Y-104572438D01*
X155769523Y-104572438D02*
X155674285Y-104477200D01*
X155674285Y-104477200D02*
X155531428Y-104334342D01*
X155531428Y-104334342D02*
X155436190Y-104286723D01*
X155436190Y-104286723D02*
X155340952Y-104286723D01*
X155388571Y-104524819D02*
X155293333Y-104477200D01*
X155293333Y-104477200D02*
X155198095Y-104381961D01*
X155198095Y-104381961D02*
X155150476Y-104191485D01*
X155150476Y-104191485D02*
X155150476Y-103858152D01*
X155150476Y-103858152D02*
X155198095Y-103667676D01*
X155198095Y-103667676D02*
X155293333Y-103572438D01*
X155293333Y-103572438D02*
X155388571Y-103524819D01*
X155388571Y-103524819D02*
X155579047Y-103524819D01*
X155579047Y-103524819D02*
X155674285Y-103572438D01*
X155674285Y-103572438D02*
X155769523Y-103667676D01*
X155769523Y-103667676D02*
X155817142Y-103858152D01*
X155817142Y-103858152D02*
X155817142Y-104191485D01*
X155817142Y-104191485D02*
X155769523Y-104381961D01*
X155769523Y-104381961D02*
X155674285Y-104477200D01*
X155674285Y-104477200D02*
X155579047Y-104524819D01*
X155579047Y-104524819D02*
X155388571Y-104524819D01*
X156150476Y-103524819D02*
X156769523Y-103524819D01*
X156769523Y-103524819D02*
X156436190Y-103905771D01*
X156436190Y-103905771D02*
X156579047Y-103905771D01*
X156579047Y-103905771D02*
X156674285Y-103953390D01*
X156674285Y-103953390D02*
X156721904Y-104001009D01*
X156721904Y-104001009D02*
X156769523Y-104096247D01*
X156769523Y-104096247D02*
X156769523Y-104334342D01*
X156769523Y-104334342D02*
X156721904Y-104429580D01*
X156721904Y-104429580D02*
X156674285Y-104477200D01*
X156674285Y-104477200D02*
X156579047Y-104524819D01*
X156579047Y-104524819D02*
X156293333Y-104524819D01*
X156293333Y-104524819D02*
X156198095Y-104477200D01*
X156198095Y-104477200D02*
X156150476Y-104429580D01*
X149228095Y-102104819D02*
X149228095Y-101104819D01*
X149228095Y-101581009D02*
X149799523Y-101581009D01*
X149799523Y-102104819D02*
X149799523Y-101104819D01*
X150228095Y-101200057D02*
X150275714Y-101152438D01*
X150275714Y-101152438D02*
X150370952Y-101104819D01*
X150370952Y-101104819D02*
X150609047Y-101104819D01*
X150609047Y-101104819D02*
X150704285Y-101152438D01*
X150704285Y-101152438D02*
X150751904Y-101200057D01*
X150751904Y-101200057D02*
X150799523Y-101295295D01*
X150799523Y-101295295D02*
X150799523Y-101390533D01*
X150799523Y-101390533D02*
X150751904Y-101533390D01*
X150751904Y-101533390D02*
X150180476Y-102104819D01*
X150180476Y-102104819D02*
X150799523Y-102104819D01*
X163910833Y-114844819D02*
X163577500Y-114368628D01*
X163339405Y-114844819D02*
X163339405Y-113844819D01*
X163339405Y-113844819D02*
X163720357Y-113844819D01*
X163720357Y-113844819D02*
X163815595Y-113892438D01*
X163815595Y-113892438D02*
X163863214Y-113940057D01*
X163863214Y-113940057D02*
X163910833Y-114035295D01*
X163910833Y-114035295D02*
X163910833Y-114178152D01*
X163910833Y-114178152D02*
X163863214Y-114273390D01*
X163863214Y-114273390D02*
X163815595Y-114321009D01*
X163815595Y-114321009D02*
X163720357Y-114368628D01*
X163720357Y-114368628D02*
X163339405Y-114368628D01*
X164863214Y-114844819D02*
X164291786Y-114844819D01*
X164577500Y-114844819D02*
X164577500Y-113844819D01*
X164577500Y-113844819D02*
X164482262Y-113987676D01*
X164482262Y-113987676D02*
X164387024Y-114082914D01*
X164387024Y-114082914D02*
X164291786Y-114130533D01*
X163910833Y-110204819D02*
X163434643Y-110204819D01*
X163434643Y-110204819D02*
X163387024Y-110681009D01*
X163387024Y-110681009D02*
X163434643Y-110633390D01*
X163434643Y-110633390D02*
X163529881Y-110585771D01*
X163529881Y-110585771D02*
X163767976Y-110585771D01*
X163767976Y-110585771D02*
X163863214Y-110633390D01*
X163863214Y-110633390D02*
X163910833Y-110681009D01*
X163910833Y-110681009D02*
X163958452Y-110776247D01*
X163958452Y-110776247D02*
X163958452Y-111014342D01*
X163958452Y-111014342D02*
X163910833Y-111109580D01*
X163910833Y-111109580D02*
X163863214Y-111157200D01*
X163863214Y-111157200D02*
X163767976Y-111204819D01*
X163767976Y-111204819D02*
X163529881Y-111204819D01*
X163529881Y-111204819D02*
X163434643Y-111157200D01*
X163434643Y-111157200D02*
X163387024Y-111109580D01*
X164387024Y-111204819D02*
X164387024Y-110204819D01*
X164482262Y-110823866D02*
X164767976Y-111204819D01*
X164767976Y-110538152D02*
X164387024Y-110919104D01*
D12*
%TO.C,Q4*%
X141500000Y-98525000D02*
X141500000Y-101615000D01*
X141500000Y-98525170D02*
G75*
G02*
X147050000Y-100069952I2560000J-1544830D01*
G01*
X147050000Y-100070048D02*
G75*
G02*
X141500000Y-101614830I-2990000J48D01*
G01*
X146560000Y-100070000D02*
G75*
G02*
X141560000Y-100070000I-2500000J0D01*
G01*
X141560000Y-100070000D02*
G75*
G02*
X146560000Y-100070000I2500000J0D01*
G01*
%TO.C,R4*%
X135100436Y-111580000D02*
X136554564Y-111580000D01*
X135100436Y-113400000D02*
X136554564Y-113400000D01*
%TO.C,R2*%
X162494564Y-101590000D02*
X161040436Y-101590000D01*
X162494564Y-103410000D02*
X161040436Y-103410000D01*
%TO.C,R3*%
X137385436Y-101590000D02*
X138839564Y-101590000D01*
X137385436Y-103410000D02*
X138839564Y-103410000D01*
%TO.C,J1*%
X141050000Y-120670000D02*
X141050000Y-123330000D01*
X156350000Y-120670000D02*
X141050000Y-120670000D01*
X156350000Y-120670000D02*
X156350000Y-123330000D01*
X156350000Y-123330000D02*
X141050000Y-123330000D01*
X157620000Y-120670000D02*
X158950000Y-120670000D01*
X158950000Y-120670000D02*
X158950000Y-122000000D01*
%TO.C,Q2*%
X158490000Y-115415000D02*
X158490000Y-112325000D01*
X152940000Y-113869952D02*
G75*
G02*
X158490000Y-112325170I2990000J-48D01*
G01*
X158490000Y-115414830D02*
G75*
G02*
X152940000Y-113870048I-2560000J1544830D01*
G01*
X158430000Y-113870000D02*
G75*
G02*
X153430000Y-113870000I-2500000J0D01*
G01*
X153430000Y-113870000D02*
G75*
G02*
X158430000Y-113870000I2500000J0D01*
G01*
%TO.C,Q5*%
X141490000Y-112325000D02*
X141490000Y-115415000D01*
X141490000Y-112325170D02*
G75*
G02*
X147040000Y-113869952I2560000J-1544830D01*
G01*
X147040000Y-113870048D02*
G75*
G02*
X141490000Y-115414830I-2990000J48D01*
G01*
X146550000Y-113870000D02*
G75*
G02*
X141550000Y-113870000I-2500000J0D01*
G01*
X141550000Y-113870000D02*
G75*
G02*
X146550000Y-113870000I2500000J0D01*
G01*
%TO.C,Q3*%
X158520000Y-101655000D02*
X158520000Y-98565000D01*
X152970000Y-100109952D02*
G75*
G02*
X158520000Y-98565170I2990000J-48D01*
G01*
X158520000Y-101654830D02*
G75*
G02*
X152970000Y-100110048I-2560000J1544830D01*
G01*
X158460000Y-100110000D02*
G75*
G02*
X153460000Y-100110000I-2500000J0D01*
G01*
X153460000Y-100110000D02*
G75*
G02*
X158460000Y-100110000I2500000J0D01*
G01*
%TO.C,R1*%
X164804564Y-111660000D02*
X163350436Y-111660000D01*
X164804564Y-113480000D02*
X163350436Y-113480000D01*
%TD*%
M02*
