%TF.GenerationSoftware,KiCad,Pcbnew,9.0.1*%
%TF.CreationDate,2025-05-04T20:34:49+10:00*%
%TF.ProjectId,line-follower-mainboard,6c696e65-2d66-46f6-9c6c-6f7765722d6d,rev?*%
%TF.SameCoordinates,Original*%
%TF.FileFunction,Copper,L1,Top*%
%TF.FilePolarity,Positive*%
%FSLAX46Y46*%
G04 Gerber Fmt 4.6, Leading zero omitted, Abs format (unit mm)*
G04 Created by KiCad (PCBNEW 9.0.1) date 2025-05-04 20:34:49*
%MOMM*%
%LPD*%
G01*
G04 APERTURE LIST*
G04 Aperture macros list*
%AMRoundRect*
0 Rectangle with rounded corners*
0 $1 Rounding radius*
0 $2 $3 $4 $5 $6 $7 $8 $9 X,Y pos of 4 corners*
0 Add a 4 corners polygon primitive as box body*
4,1,4,$2,$3,$4,$5,$6,$7,$8,$9,$2,$3,0*
0 Add four circle primitives for the rounded corners*
1,1,$1+$1,$2,$3*
1,1,$1+$1,$4,$5*
1,1,$1+$1,$6,$7*
1,1,$1+$1,$8,$9*
0 Add four rect primitives between the rounded corners*
20,1,$1+$1,$2,$3,$4,$5,0*
20,1,$1+$1,$4,$5,$6,$7,0*
20,1,$1+$1,$6,$7,$8,$9,0*
20,1,$1+$1,$8,$9,$2,$3,0*%
G04 Aperture macros list end*
%TA.AperFunction,ComponentPad*%
%ADD10R,1.600000X1.600000*%
%TD*%
%TA.AperFunction,ComponentPad*%
%ADD11C,1.600000*%
%TD*%
%TA.AperFunction,SMDPad,CuDef*%
%ADD12R,1.400048X1.549908*%
%TD*%
%TA.AperFunction,ComponentPad*%
%ADD13R,1.800000X1.800000*%
%TD*%
%TA.AperFunction,ComponentPad*%
%ADD14C,1.800000*%
%TD*%
%TA.AperFunction,ComponentPad*%
%ADD15C,2.000000*%
%TD*%
%TA.AperFunction,ComponentPad*%
%ADD16C,3.600000*%
%TD*%
%TA.AperFunction,ConnectorPad*%
%ADD17C,5.600000*%
%TD*%
%TA.AperFunction,ComponentPad*%
%ADD18R,1.700000X1.700000*%
%TD*%
%TA.AperFunction,ComponentPad*%
%ADD19C,1.700000*%
%TD*%
%TA.AperFunction,ComponentPad*%
%ADD20O,1.600000X1.600000*%
%TD*%
%TA.AperFunction,ComponentPad*%
%ADD21C,1.400000*%
%TD*%
%TA.AperFunction,ComponentPad*%
%ADD22RoundRect,0.770000X-0.980000X-0.980000X0.980000X-0.980000X0.980000X0.980000X-0.980000X0.980000X0*%
%TD*%
%TA.AperFunction,ComponentPad*%
%ADD23C,3.500000*%
%TD*%
%TA.AperFunction,ComponentPad*%
%ADD24R,2.000000X1.905000*%
%TD*%
%TA.AperFunction,ComponentPad*%
%ADD25O,2.000000X1.905000*%
%TD*%
%TA.AperFunction,ViaPad*%
%ADD26C,0.600000*%
%TD*%
%TA.AperFunction,Conductor*%
%ADD27C,0.200000*%
%TD*%
%TA.AperFunction,Conductor*%
%ADD28C,0.500000*%
%TD*%
G04 APERTURE END LIST*
D10*
%TO.P,U3,1,GND*%
%TO.N,GND*%
X129500000Y-92970000D03*
D11*
%TO.P,U3,2,0*%
%TO.N,/Q0*%
X129500000Y-90430000D03*
%TO.P,U3,3,1*%
%TO.N,/Q1*%
X129500000Y-87890000D03*
%TO.P,U3,4,2*%
%TO.N,/Q2*%
X129500000Y-85350000D03*
%TO.P,U3,5,3*%
%TO.N,/Q3*%
X129500000Y-82810000D03*
%TO.P,U3,6,4_PWM*%
%TO.N,/MOT_B1_PWM*%
X129500000Y-80270000D03*
%TO.P,U3,7,5_INT0_PWM*%
%TO.N,/MOT_B2_PWM*%
X129500000Y-77730000D03*
%TO.P,U3,8,6_INT1*%
%TO.N,unconnected-(U3-6_INT1-Pad8)*%
X129500000Y-75190000D03*
%TO.P,U3,9,7_INT2_RX*%
%TO.N,unconnected-(U3-7_INT2_RX-Pad9)*%
X129500000Y-72650000D03*
%TO.P,U3,10,8_INT3_TX*%
%TO.N,unconnected-(U3-8_INT3_TX-Pad10)*%
X129500000Y-70110000D03*
%TO.P,U3,11,9_PWM*%
%TO.N,/MOT_A2_PWM*%
X129500000Y-67570000D03*
%TO.P,U3,12,10_PWM*%
%TO.N,/MOT_A1_PWM*%
X129500000Y-65030000D03*
%TO.P,U3,13,23*%
%TO.N,/MOT_FLT*%
X126960000Y-65030000D03*
%TO.P,U3,14,+5V*%
%TO.N,5V*%
X124420000Y-65030000D03*
%TO.P,U3,15,GND*%
%TO.N,GND*%
X121880000Y-65030000D03*
%TO.P,U3,16,RST*%
%TO.N,Net-(SW1-A)*%
X119340000Y-65030000D03*
%TO.P,U3,17,22_A11*%
%TO.N,Net-(U3-22_A11)*%
X116800000Y-65030000D03*
%TO.P,U3,18,11_A10_LED*%
%TO.N,unconnected-(U3-11_A10_LED-Pad18)*%
X114260000Y-65030000D03*
%TO.P,U3,19,12_A9_PWM*%
%TO.N,/TRK_SIG*%
X114260000Y-67570000D03*
%TO.P,U3,20,13_A8*%
%TO.N,/SZ_SIG*%
X114260000Y-70110000D03*
%TO.P,U3,21,14_A7_PWM*%
%TO.N,/S1*%
X114260000Y-72650000D03*
%TO.P,U3,22,15_A6_PWM*%
%TO.N,/S2*%
X114260000Y-75190000D03*
%TO.P,U3,23,16_A5*%
%TO.N,/S3*%
X114260000Y-77730000D03*
%TO.P,U3,24,17_A4*%
%TO.N,/S4*%
X114260000Y-80270000D03*
%TO.P,U3,25,18_A3*%
%TO.N,/S5*%
X114260000Y-82810000D03*
%TO.P,U3,26,19_A2*%
%TO.N,/S6*%
X114260000Y-85350000D03*
%TO.P,U3,27,20_A1*%
%TO.N,/S7*%
X114260000Y-87890000D03*
%TO.P,U3,28,21_A0*%
%TO.N,/S8*%
X114260000Y-90430000D03*
%TO.P,U3,29,+5V*%
%TO.N,unconnected-(U3-+5V-Pad29)*%
X114260000Y-92970000D03*
%TO.P,U3,30,24*%
%TO.N,unconnected-(U3-24-Pad30)*%
X126960000Y-82810000D03*
%TO.P,U3,31,AREF*%
%TO.N,unconnected-(U3-AREF-Pad31)*%
X116800000Y-82810000D03*
%TD*%
D12*
%TO.P,SW2,1,1*%
%TO.N,Net-(U3-22_A11)*%
X171999998Y-60000000D03*
%TO.P,SW2,2,2*%
X176500000Y-60000000D03*
%TO.P,SW2,3,K*%
%TO.N,GND*%
X171999998Y-52050004D03*
%TO.P,SW2,4,A*%
X176500000Y-52050004D03*
%TD*%
%TO.P,SW1,1,1*%
%TO.N,GND*%
X171999998Y-91949996D03*
%TO.P,SW1,2,2*%
X176500000Y-91949996D03*
%TO.P,SW1,3,K*%
%TO.N,Net-(SW1-A)*%
X171999998Y-84000000D03*
%TO.P,SW1,4,A*%
X176500000Y-84000000D03*
%TD*%
D13*
%TO.P,D2,1,K*%
%TO.N,GND*%
X182500000Y-77000000D03*
D14*
%TO.P,D2,2,A*%
%TO.N,Net-(D2-A)*%
X179960000Y-77000000D03*
%TD*%
D15*
%TO.P,U4,1,GND*%
%TO.N,GND*%
X153580000Y-74000000D03*
%TO.P,U4,2,VIN*%
%TO.N,VBATT*%
X151040000Y-74000000D03*
%TO.P,U4,3,BIN1*%
%TO.N,/MOT_B1_PWM*%
X148500000Y-74000000D03*
%TO.P,U4,4,BIN2*%
%TO.N,/MOT_B2_PWM*%
X145960000Y-74000000D03*
%TO.P,U4,5,AIN2*%
%TO.N,/MOT_A2_PWM*%
X143420000Y-74000000D03*
%TO.P,U4,6,AIN1*%
%TO.N,/MOT_A1_PWM*%
X140880000Y-74000000D03*
%TO.P,U4,7,nSLEEP*%
%TO.N,unconnected-(U4-nSLEEP-Pad7)*%
X138340000Y-74000000D03*
%TO.P,U4,8,nFAULT*%
%TO.N,/MOT_FLT*%
X135800000Y-74000000D03*
%TO.P,U4,9,GND*%
%TO.N,GND*%
X153580000Y-84160000D03*
%TO.P,U4,10,VMM*%
%TO.N,unconnected-(U4-VMM-Pad10)*%
X151040000Y-84160000D03*
%TO.P,U4,11,BOUT1*%
%TO.N,Net-(J4-Pin_1)*%
X148500000Y-84160000D03*
%TO.P,U4,12,BOUT2*%
%TO.N,Net-(J4-Pin_2)*%
X145960000Y-84160000D03*
%TO.P,U4,13,AOUT2*%
%TO.N,Net-(J5-Pin_1)*%
X143420000Y-84160000D03*
%TO.P,U4,14,AOUT1*%
%TO.N,Net-(J5-Pin_2)*%
X140880000Y-84160000D03*
%TO.P,U4,15,AISEN*%
%TO.N,unconnected-(U4-AISEN-Pad15)*%
X138340000Y-84160000D03*
%TO.P,U4,16,BISEN*%
%TO.N,unconnected-(U4-BISEN-Pad16)*%
X135800000Y-84160000D03*
%TD*%
D16*
%TO.P,H3,1,1*%
%TO.N,GND*%
X109000000Y-89500000D03*
D17*
X109000000Y-89500000D03*
%TD*%
D18*
%TO.P,J4,1,Pin_1*%
%TO.N,Net-(J4-Pin_1)*%
X150040000Y-92500000D03*
D19*
%TO.P,J4,2,Pin_2*%
%TO.N,Net-(J4-Pin_2)*%
X147500000Y-92500000D03*
%TD*%
D11*
%TO.P,R4,1*%
%TO.N,Net-(D4-A)*%
X173960000Y-65500000D03*
D20*
%TO.P,R4,2*%
%TO.N,/Q3*%
X166340000Y-65500000D03*
%TD*%
D16*
%TO.P,H2,1,1*%
%TO.N,GND*%
X164000000Y-54500000D03*
D17*
X164000000Y-54500000D03*
%TD*%
D18*
%TO.P,J3,1,Pin_1*%
%TO.N,GND*%
X109500000Y-79040000D03*
D19*
%TO.P,J3,2,Pin_2*%
%TO.N,5V*%
X109500000Y-76500000D03*
%TO.P,J3,3,Pin_3*%
%TO.N,/TRK_SIG*%
X109500000Y-73960000D03*
%TO.P,J3,4,Pin_4*%
%TO.N,VBATT*%
X109500000Y-71420000D03*
%TO.P,J3,5,Pin_5*%
%TO.N,/SZ_SIG*%
X109500000Y-68880000D03*
%TO.P,J3,6,Pin_6*%
%TO.N,5V*%
X109500000Y-66340000D03*
%TO.P,J3,7,Pin_7*%
%TO.N,GND*%
X109500000Y-63800000D03*
%TD*%
D13*
%TO.P,D1,1,K*%
%TO.N,GND*%
X182500000Y-87000000D03*
D14*
%TO.P,D1,2,A*%
%TO.N,Net-(D1-A)*%
X179960000Y-87000000D03*
%TD*%
D16*
%TO.P,H4,1,1*%
%TO.N,GND*%
X164000000Y-89500000D03*
D17*
X164000000Y-89500000D03*
%TD*%
D13*
%TO.P,D4,1,K*%
%TO.N,GND*%
X182500000Y-58000000D03*
D14*
%TO.P,D4,2,A*%
%TO.N,Net-(D4-A)*%
X179960000Y-58000000D03*
%TD*%
D18*
%TO.P,J2,1,Pin_1*%
%TO.N,GND*%
X97460000Y-71260000D03*
D19*
%TO.P,J2,2,Pin_2*%
%TO.N,/S1*%
X100000000Y-71260000D03*
%TO.P,J2,3,Pin_3*%
%TO.N,GND*%
X97460000Y-73800000D03*
%TO.P,J2,4,Pin_4*%
%TO.N,/S2*%
X100000000Y-73800000D03*
%TO.P,J2,5,Pin_5*%
%TO.N,GND*%
X97460000Y-76340000D03*
%TO.P,J2,6,Pin_6*%
%TO.N,/S3*%
X100000000Y-76340000D03*
%TO.P,J2,7,Pin_7*%
%TO.N,GND*%
X97460000Y-78880000D03*
%TO.P,J2,8,Pin_8*%
%TO.N,/S4*%
X100000000Y-78880000D03*
%TO.P,J2,9,Pin_9*%
%TO.N,GND*%
X97460000Y-81420000D03*
%TO.P,J2,10,Pin_10*%
%TO.N,/S5*%
X100000000Y-81420000D03*
%TO.P,J2,11,Pin_11*%
%TO.N,GND*%
X97460000Y-83960000D03*
%TO.P,J2,12,Pin_12*%
%TO.N,/S6*%
X100000000Y-83960000D03*
%TO.P,J2,13,Pin_13*%
%TO.N,5V*%
X97460000Y-86500000D03*
%TO.P,J2,14,Pin_14*%
%TO.N,/S7*%
X100000000Y-86500000D03*
%TO.P,J2,15,Pin_15*%
%TO.N,/SENSOR_LED*%
X97460000Y-89040000D03*
%TO.P,J2,16,Pin_16*%
%TO.N,/S8*%
X100000000Y-89040000D03*
%TD*%
D11*
%TO.P,R2,1*%
%TO.N,Net-(D2-A)*%
X174000000Y-74500000D03*
D20*
%TO.P,R2,2*%
%TO.N,/Q1*%
X166380000Y-74500000D03*
%TD*%
D21*
%TO.P,J1,*%
%TO.N,*%
X92000000Y-53175000D03*
X103000000Y-53175000D03*
D22*
%TO.P,J1,1,Pin_1*%
%TO.N,VBATT*%
X100000000Y-63175000D03*
D23*
%TO.P,J1,2,Pin_2*%
%TO.N,GND*%
X95000000Y-63175000D03*
%TD*%
D24*
%TO.P,U1,1,IN*%
%TO.N,VBATT*%
X115270000Y-52960000D03*
D25*
%TO.P,U1,2,GND*%
%TO.N,GND*%
X115270000Y-55500000D03*
%TO.P,U1,3,OUT*%
%TO.N,5V*%
X115270000Y-58040000D03*
%TD*%
D13*
%TO.P,D3,1,K*%
%TO.N,GND*%
X182500000Y-67500000D03*
D14*
%TO.P,D3,2,A*%
%TO.N,Net-(D3-A)*%
X179960000Y-67500000D03*
%TD*%
D16*
%TO.P,H1,1,1*%
%TO.N,GND*%
X109000000Y-54500000D03*
D17*
X109000000Y-54500000D03*
%TD*%
D11*
%TO.P,R3,1*%
%TO.N,Net-(D3-A)*%
X174000000Y-70000000D03*
D20*
%TO.P,R3,2*%
%TO.N,/Q2*%
X166380000Y-70000000D03*
%TD*%
D11*
%TO.P,R1,1*%
%TO.N,Net-(D1-A)*%
X174000000Y-79000000D03*
D20*
%TO.P,R1,2*%
%TO.N,/Q0*%
X166380000Y-79000000D03*
%TD*%
D18*
%TO.P,J5,1,Pin_1*%
%TO.N,Net-(J5-Pin_1)*%
X141000000Y-92500000D03*
D19*
%TO.P,J5,2,Pin_2*%
%TO.N,Net-(J5-Pin_2)*%
X138460000Y-92500000D03*
%TD*%
D26*
%TO.N,GND*%
X178000000Y-92500000D03*
X178000000Y-51500000D03*
%TO.N,5V*%
X125000000Y-62000000D03*
X155000000Y-62000000D03*
X130000000Y-62000000D03*
X150000000Y-58500000D03*
X150000000Y-62000000D03*
X130000000Y-59000000D03*
X155000000Y-58500000D03*
X145000000Y-58500000D03*
X125000000Y-59000000D03*
X145000000Y-62000000D03*
%TD*%
D27*
%TO.N,Net-(D1-A)*%
X179960000Y-87000000D02*
X179960000Y-84960000D01*
X179960000Y-84960000D02*
X174000000Y-79000000D01*
%TO.N,GND*%
X97460000Y-78880000D02*
X97460000Y-76340000D01*
X97460000Y-76340000D02*
X97460000Y-73800000D01*
X97460000Y-83960000D02*
X97460000Y-81420000D01*
X178000000Y-92500000D02*
X177050004Y-92500000D01*
X97460000Y-81420000D02*
X97460000Y-78880000D01*
X176500000Y-52050004D02*
X171999998Y-52050004D01*
X177050004Y-51500000D02*
X176500000Y-52050004D01*
X176500000Y-91949996D02*
X171999998Y-91949996D01*
X97460000Y-73800000D02*
X97460000Y-71260000D01*
X177050004Y-92500000D02*
X176500000Y-91949996D01*
X178000000Y-51500000D02*
X177050004Y-51500000D01*
%TO.N,Net-(D2-A)*%
X179960000Y-77000000D02*
X176500000Y-77000000D01*
X176500000Y-77000000D02*
X174000000Y-74500000D01*
%TO.N,Net-(D3-A)*%
X176500000Y-67500000D02*
X174000000Y-70000000D01*
X179960000Y-67500000D02*
X176500000Y-67500000D01*
%TO.N,Net-(D4-A)*%
X179960000Y-58000000D02*
X179960000Y-59500000D01*
X179960000Y-59500000D02*
X173960000Y-65500000D01*
D28*
%TO.N,VBATT*%
X101255000Y-63175000D02*
X109500000Y-71420000D01*
X100000000Y-63175000D02*
X105055000Y-63175000D01*
X105055000Y-63175000D02*
X115270000Y-52960000D01*
X100000000Y-63175000D02*
X101255000Y-63175000D01*
D27*
%TO.N,/S5*%
X103080000Y-84500000D02*
X112570000Y-84500000D01*
X100000000Y-81420000D02*
X103080000Y-84500000D01*
X112570000Y-84500000D02*
X114260000Y-82810000D01*
%TO.N,/S4*%
X101151000Y-80943240D02*
X101151000Y-80951000D01*
X114260000Y-81240000D02*
X114260000Y-80270000D01*
X100469000Y-80269000D02*
X100476760Y-80269000D01*
X104200000Y-84000000D02*
X111500000Y-84000000D01*
X100000000Y-79800000D02*
X100469000Y-80269000D01*
X100000000Y-78880000D02*
X100000000Y-79800000D01*
X101151000Y-80951000D02*
X104200000Y-84000000D01*
X100476760Y-80269000D02*
X101151000Y-80943240D01*
X111500000Y-84000000D02*
X114260000Y-81240000D01*
%TO.N,/S2*%
X100000000Y-73800000D02*
X102000000Y-75800000D01*
X112401000Y-77049000D02*
X114260000Y-75190000D01*
X110468100Y-83099000D02*
X112401000Y-81166100D01*
X102000000Y-79265100D02*
X105833900Y-83099000D01*
X105833900Y-83099000D02*
X110468100Y-83099000D01*
X112401000Y-81166100D02*
X112401000Y-77049000D01*
X102000000Y-75800000D02*
X102000000Y-79265100D01*
%TO.N,/S6*%
X100000000Y-83960000D02*
X101040000Y-85000000D01*
X113910000Y-85000000D02*
X114260000Y-85350000D01*
X101040000Y-85000000D02*
X113910000Y-85000000D01*
%TO.N,/S3*%
X111000000Y-83500000D02*
X113000000Y-81500000D01*
X100000000Y-76340000D02*
X101151000Y-77491000D01*
X105200000Y-83500000D02*
X111000000Y-83500000D01*
X113000000Y-78990000D02*
X114260000Y-77730000D01*
X113000000Y-81500000D02*
X113000000Y-78990000D01*
X101151000Y-79451000D02*
X105200000Y-83500000D01*
X101151000Y-77491000D02*
X101151000Y-79451000D01*
%TO.N,/S1*%
X110302000Y-82698000D02*
X112000000Y-81000000D01*
X112000000Y-81000000D02*
X112000000Y-74910000D01*
X106000000Y-82698000D02*
X110302000Y-82698000D01*
X103000000Y-79698000D02*
X106000000Y-82698000D01*
X100000000Y-71260000D02*
X103000000Y-74260000D01*
X103000000Y-74260000D02*
X103000000Y-79698000D01*
X112000000Y-74910000D02*
X114260000Y-72650000D01*
%TO.N,/S8*%
X104500000Y-86000000D02*
X110545560Y-86000000D01*
X101460000Y-89040000D02*
X104500000Y-86000000D01*
X114260000Y-89714440D02*
X114260000Y-90430000D01*
X100000000Y-89040000D02*
X101460000Y-89040000D01*
X110545560Y-86000000D02*
X114260000Y-89714440D01*
%TO.N,/S7*%
X111868000Y-85498000D02*
X114260000Y-87890000D01*
X101002000Y-85498000D02*
X111868000Y-85498000D01*
X100000000Y-86500000D02*
X101002000Y-85498000D01*
%TO.N,/SZ_SIG*%
X114260000Y-70110000D02*
X110730000Y-70110000D01*
X110730000Y-70110000D02*
X109500000Y-68880000D01*
%TO.N,/TRK_SIG*%
X112249000Y-71211000D02*
X109500000Y-73960000D01*
X114260000Y-67570000D02*
X115500000Y-68810000D01*
X115500000Y-68810000D02*
X115500000Y-71000000D01*
X115500000Y-71000000D02*
X115289000Y-71211000D01*
X115289000Y-71211000D02*
X112249000Y-71211000D01*
D28*
%TO.N,Net-(J4-Pin_2)*%
X147500000Y-85700000D02*
X147500000Y-92500000D01*
X145960000Y-84160000D02*
X147500000Y-85700000D01*
%TO.N,Net-(J4-Pin_1)*%
X150040000Y-85700000D02*
X150040000Y-92500000D01*
X148500000Y-84160000D02*
X150040000Y-85700000D01*
%TO.N,Net-(J5-Pin_1)*%
X143420000Y-84160000D02*
X141000000Y-86580000D01*
X141000000Y-86580000D02*
X141000000Y-92500000D01*
%TO.N,Net-(J5-Pin_2)*%
X138460000Y-86580000D02*
X138460000Y-92500000D01*
X140880000Y-84160000D02*
X138460000Y-86580000D01*
D27*
%TO.N,/Q0*%
X134499000Y-85431000D02*
X134499000Y-83621108D01*
X163500000Y-79000000D02*
X166380000Y-79000000D01*
X160000000Y-82500000D02*
X163500000Y-79000000D01*
X129500000Y-90430000D02*
X134499000Y-85431000D01*
X135620108Y-82500000D02*
X160000000Y-82500000D01*
X134499000Y-83621108D02*
X135620108Y-82500000D01*
%TO.N,/Q1*%
X158781000Y-82099000D02*
X166380000Y-74500000D01*
X135291000Y-82099000D02*
X158781000Y-82099000D01*
X129500000Y-87890000D02*
X135291000Y-82099000D01*
%TO.N,/Q2*%
X166380000Y-72620000D02*
X166380000Y-70000000D01*
X134822900Y-82000000D02*
X135124900Y-81698000D01*
X157302000Y-81698000D02*
X166380000Y-72620000D01*
X135124900Y-81698000D02*
X157302000Y-81698000D01*
X132850000Y-82000000D02*
X134822900Y-82000000D01*
X129500000Y-85350000D02*
X132850000Y-82000000D01*
%TO.N,/Q3*%
X129500000Y-82810000D02*
X130810000Y-81500000D01*
X165000000Y-66840000D02*
X166340000Y-65500000D01*
X134958800Y-81297000D02*
X156187268Y-81297000D01*
X165000000Y-72484268D02*
X165000000Y-66840000D01*
X130810000Y-81500000D02*
X134755800Y-81500000D01*
X134755800Y-81500000D02*
X134958800Y-81297000D01*
X156187268Y-81297000D02*
X165000000Y-72484268D01*
%TO.N,Net-(SW1-A)*%
X163397050Y-61000000D02*
X123370000Y-61000000D01*
X123370000Y-61000000D02*
X119340000Y-65030000D01*
X171999998Y-84000000D02*
X171999998Y-69602948D01*
X171999998Y-69602948D02*
X163397050Y-61000000D01*
X176500000Y-84000000D02*
X171999998Y-84000000D01*
%TO.N,Net-(U3-22_A11)*%
X121830000Y-60000000D02*
X116800000Y-65030000D01*
X171999998Y-60000000D02*
X121830000Y-60000000D01*
X176500000Y-60000000D02*
X171999998Y-60000000D01*
%TO.N,/MOT_A2_PWM*%
X129500000Y-67570000D02*
X128399000Y-66469000D01*
X128399000Y-66469000D02*
X128399000Y-64573950D01*
X129043950Y-63929000D02*
X133349000Y-63929000D01*
X128399000Y-64573950D02*
X129043950Y-63929000D01*
X133349000Y-63929000D02*
X143420000Y-74000000D01*
%TO.N,/MOT_FLT*%
X126960000Y-65030000D02*
X126960000Y-66587050D01*
X130800000Y-69000000D02*
X135800000Y-74000000D01*
X129372950Y-69000000D02*
X130800000Y-69000000D01*
X126960000Y-66587050D02*
X129372950Y-69000000D01*
%TO.N,/MOT_B2_PWM*%
X142230000Y-77730000D02*
X145960000Y-74000000D01*
X129500000Y-77730000D02*
X142230000Y-77730000D01*
%TO.N,/MOT_A1_PWM*%
X131910000Y-65030000D02*
X140880000Y-74000000D01*
X129500000Y-65030000D02*
X131910000Y-65030000D01*
%TO.N,/MOT_B1_PWM*%
X129500000Y-80270000D02*
X142230000Y-80270000D01*
X142230000Y-80270000D02*
X148500000Y-74000000D01*
%TD*%
%TA.AperFunction,Conductor*%
%TO.N,5V*%
G36*
X184942539Y-50020185D02*
G01*
X184988294Y-50072989D01*
X184999500Y-50124500D01*
X184999500Y-93875500D01*
X184979815Y-93942539D01*
X184927011Y-93988294D01*
X184875500Y-93999500D01*
X151230103Y-93999500D01*
X151163064Y-93979815D01*
X151117309Y-93927011D01*
X151107365Y-93857853D01*
X151136390Y-93794297D01*
X151155792Y-93776234D01*
X151215240Y-93731730D01*
X151247546Y-93707546D01*
X151333796Y-93592331D01*
X151384091Y-93457483D01*
X151390500Y-93397873D01*
X151390499Y-91602128D01*
X151384091Y-91542517D01*
X151384005Y-91542287D01*
X151333797Y-91407671D01*
X151333793Y-91407664D01*
X151247547Y-91292455D01*
X151247544Y-91292452D01*
X151132335Y-91206206D01*
X151132328Y-91206202D01*
X150997482Y-91155908D01*
X150997483Y-91155908D01*
X150937883Y-91149501D01*
X150937881Y-91149500D01*
X150937873Y-91149500D01*
X150937865Y-91149500D01*
X150914500Y-91149500D01*
X150847461Y-91129815D01*
X150801706Y-91077011D01*
X150790500Y-91025500D01*
X150790500Y-89337857D01*
X160699500Y-89337857D01*
X160699500Y-89662143D01*
X160702638Y-89693999D01*
X160731284Y-89984857D01*
X160731287Y-89984874D01*
X160794545Y-90302902D01*
X160794548Y-90302913D01*
X160888686Y-90613247D01*
X161012786Y-90912849D01*
X161012788Y-90912854D01*
X161165646Y-91198830D01*
X161165657Y-91198848D01*
X161345811Y-91468467D01*
X161345821Y-91468481D01*
X161551546Y-91719158D01*
X161780841Y-91948453D01*
X161780846Y-91948457D01*
X161780847Y-91948458D01*
X162031524Y-92154183D01*
X162301158Y-92334347D01*
X162301167Y-92334352D01*
X162301169Y-92334353D01*
X162587145Y-92487211D01*
X162587147Y-92487211D01*
X162587153Y-92487215D01*
X162886754Y-92611314D01*
X163197077Y-92705449D01*
X163197083Y-92705450D01*
X163197086Y-92705451D01*
X163197097Y-92705454D01*
X163396528Y-92745122D01*
X163515132Y-92768714D01*
X163837857Y-92800500D01*
X163837860Y-92800500D01*
X164162140Y-92800500D01*
X164162143Y-92800500D01*
X164484868Y-92768714D01*
X164661896Y-92733501D01*
X164802902Y-92705454D01*
X164802913Y-92705451D01*
X164802913Y-92705450D01*
X164802923Y-92705449D01*
X165113246Y-92611314D01*
X165412847Y-92487215D01*
X165698842Y-92334347D01*
X165968476Y-92154183D01*
X166219153Y-91948458D01*
X166448458Y-91719153D01*
X166654183Y-91468476D01*
X166834347Y-91198842D01*
X166872653Y-91127177D01*
X170799474Y-91127177D01*
X170799474Y-92772820D01*
X170799475Y-92772826D01*
X170805882Y-92832433D01*
X170856176Y-92967278D01*
X170856180Y-92967285D01*
X170942426Y-93082494D01*
X170942429Y-93082497D01*
X171057638Y-93168743D01*
X171057645Y-93168747D01*
X171192491Y-93219041D01*
X171192490Y-93219041D01*
X171199418Y-93219785D01*
X171252101Y-93225450D01*
X172747894Y-93225449D01*
X172807505Y-93219041D01*
X172942353Y-93168746D01*
X173057568Y-93082496D01*
X173143818Y-92967281D01*
X173194113Y-92832433D01*
X173200522Y-92772823D01*
X173200522Y-92674496D01*
X173220207Y-92607457D01*
X173273011Y-92561702D01*
X173324522Y-92550496D01*
X175175477Y-92550496D01*
X175242516Y-92570181D01*
X175288271Y-92622985D01*
X175299477Y-92674496D01*
X175299477Y-92772826D01*
X175305884Y-92832433D01*
X175356178Y-92967278D01*
X175356182Y-92967285D01*
X175442428Y-93082494D01*
X175442431Y-93082497D01*
X175557640Y-93168743D01*
X175557647Y-93168747D01*
X175692493Y-93219041D01*
X175692492Y-93219041D01*
X175699420Y-93219785D01*
X175752103Y-93225450D01*
X177247896Y-93225449D01*
X177307507Y-93219041D01*
X177442355Y-93168746D01*
X177442357Y-93168744D01*
X177450664Y-93165646D01*
X177451241Y-93167194D01*
X177509464Y-93154528D01*
X177569511Y-93175110D01*
X177618459Y-93207816D01*
X177620821Y-93209394D01*
X177620823Y-93209395D01*
X177620827Y-93209397D01*
X177766498Y-93269735D01*
X177766503Y-93269737D01*
X177921153Y-93300499D01*
X177921156Y-93300500D01*
X177921158Y-93300500D01*
X178078844Y-93300500D01*
X178078845Y-93300499D01*
X178233497Y-93269737D01*
X178379179Y-93209394D01*
X178510289Y-93121789D01*
X178621789Y-93010289D01*
X178709394Y-92879179D01*
X178769737Y-92733497D01*
X178800500Y-92578842D01*
X178800500Y-92421158D01*
X178800500Y-92421155D01*
X178800499Y-92421153D01*
X178783231Y-92334342D01*
X178769737Y-92266503D01*
X178710206Y-92122781D01*
X178709397Y-92120827D01*
X178709390Y-92120814D01*
X178621789Y-91989711D01*
X178621786Y-91989707D01*
X178510292Y-91878213D01*
X178510288Y-91878210D01*
X178379185Y-91790609D01*
X178379172Y-91790602D01*
X178233501Y-91730264D01*
X178233489Y-91730261D01*
X178078845Y-91699500D01*
X178078842Y-91699500D01*
X177921158Y-91699500D01*
X177921153Y-91699500D01*
X177848714Y-91713909D01*
X177779122Y-91707682D01*
X177723945Y-91664818D01*
X177700701Y-91598929D01*
X177700523Y-91592292D01*
X177700523Y-91127171D01*
X177700522Y-91127165D01*
X177700521Y-91127158D01*
X177694115Y-91067559D01*
X177643820Y-90932711D01*
X177643819Y-90932710D01*
X177643817Y-90932706D01*
X177557571Y-90817497D01*
X177557568Y-90817494D01*
X177442359Y-90731248D01*
X177442352Y-90731244D01*
X177307506Y-90680950D01*
X177307507Y-90680950D01*
X177247907Y-90674543D01*
X177247905Y-90674542D01*
X177247897Y-90674542D01*
X177247888Y-90674542D01*
X175752105Y-90674542D01*
X175752099Y-90674543D01*
X175692492Y-90680950D01*
X175557647Y-90731244D01*
X175557640Y-90731248D01*
X175442431Y-90817494D01*
X175442428Y-90817497D01*
X175356182Y-90932706D01*
X175356178Y-90932713D01*
X175305884Y-91067559D01*
X175299477Y-91127158D01*
X175299477Y-91127165D01*
X175299476Y-91127177D01*
X175299476Y-91225496D01*
X175279791Y-91292535D01*
X175226987Y-91338290D01*
X175175476Y-91349496D01*
X173324521Y-91349496D01*
X173257482Y-91329811D01*
X173211727Y-91277007D01*
X173200521Y-91225496D01*
X173200521Y-91127171D01*
X173200520Y-91127165D01*
X173200519Y-91127158D01*
X173194113Y-91067559D01*
X173143818Y-90932711D01*
X173143817Y-90932710D01*
X173143815Y-90932706D01*
X173057569Y-90817497D01*
X173057566Y-90817494D01*
X172942357Y-90731248D01*
X172942350Y-90731244D01*
X172807504Y-90680950D01*
X172807505Y-90680950D01*
X172747905Y-90674543D01*
X172747903Y-90674542D01*
X172747895Y-90674542D01*
X172747886Y-90674542D01*
X171252103Y-90674542D01*
X171252097Y-90674543D01*
X171192490Y-90680950D01*
X171057645Y-90731244D01*
X171057638Y-90731248D01*
X170942429Y-90817494D01*
X170942426Y-90817497D01*
X170856180Y-90932706D01*
X170856176Y-90932713D01*
X170805882Y-91067559D01*
X170799475Y-91127158D01*
X170799475Y-91127165D01*
X170799474Y-91127177D01*
X166872653Y-91127177D01*
X166987215Y-90912847D01*
X167111314Y-90613246D01*
X167205449Y-90302923D01*
X167205451Y-90302913D01*
X167205454Y-90302902D01*
X167240747Y-90125466D01*
X167268714Y-89984868D01*
X167300500Y-89662143D01*
X167300500Y-89337857D01*
X167268714Y-89015132D01*
X167224685Y-88793781D01*
X167205454Y-88697097D01*
X167205451Y-88697086D01*
X167205450Y-88697083D01*
X167205449Y-88697077D01*
X167111314Y-88386754D01*
X166987215Y-88087153D01*
X166977107Y-88068243D01*
X166834353Y-87801169D01*
X166834352Y-87801167D01*
X166834347Y-87801158D01*
X166654183Y-87531524D01*
X166448458Y-87280847D01*
X166448457Y-87280846D01*
X166448453Y-87280841D01*
X166219158Y-87051546D01*
X165968481Y-86845821D01*
X165968480Y-86845820D01*
X165968476Y-86845817D01*
X165698842Y-86665653D01*
X165698837Y-86665650D01*
X165698830Y-86665646D01*
X165412854Y-86512788D01*
X165412849Y-86512786D01*
X165404952Y-86509515D01*
X165325098Y-86476438D01*
X165113247Y-86388686D01*
X164802913Y-86294548D01*
X164802902Y-86294545D01*
X164484874Y-86231287D01*
X164484857Y-86231284D01*
X164240812Y-86207248D01*
X164162143Y-86199500D01*
X163837857Y-86199500D01*
X163765099Y-86206666D01*
X163515142Y-86231284D01*
X163515125Y-86231287D01*
X163197097Y-86294545D01*
X163197086Y-86294548D01*
X162886752Y-86388686D01*
X162587150Y-86512786D01*
X162587145Y-86512788D01*
X162301169Y-86665646D01*
X162301151Y-86665657D01*
X162031532Y-86845811D01*
X162031518Y-86845821D01*
X161780841Y-87051546D01*
X161551546Y-87280841D01*
X161345821Y-87531518D01*
X161345811Y-87531532D01*
X161165657Y-87801151D01*
X161165646Y-87801169D01*
X161012788Y-88087145D01*
X161012786Y-88087150D01*
X160888686Y-88386752D01*
X160794548Y-88697086D01*
X160794545Y-88697097D01*
X160731287Y-89015125D01*
X160731284Y-89015142D01*
X160716494Y-89165311D01*
X160699500Y-89337857D01*
X150790500Y-89337857D01*
X150790500Y-85784300D01*
X150810185Y-85717261D01*
X150862989Y-85671506D01*
X150917036Y-85661958D01*
X150917036Y-85660500D01*
X151158097Y-85660500D01*
X151391368Y-85623553D01*
X151445670Y-85605909D01*
X151615992Y-85550568D01*
X151826433Y-85443343D01*
X152017510Y-85304517D01*
X152184517Y-85137510D01*
X152209682Y-85102872D01*
X152265011Y-85060207D01*
X152334625Y-85054228D01*
X152396420Y-85086833D01*
X152410315Y-85102870D01*
X152435483Y-85137510D01*
X152602490Y-85304517D01*
X152793567Y-85443343D01*
X152879500Y-85487128D01*
X153004003Y-85550566D01*
X153004005Y-85550566D01*
X153004008Y-85550568D01*
X153084323Y-85576664D01*
X153228631Y-85623553D01*
X153461903Y-85660500D01*
X153461908Y-85660500D01*
X153698097Y-85660500D01*
X153931368Y-85623553D01*
X153985670Y-85605909D01*
X154155992Y-85550568D01*
X154366433Y-85443343D01*
X154557510Y-85304517D01*
X154724517Y-85137510D01*
X154863343Y-84946433D01*
X154970568Y-84735992D01*
X155043553Y-84511368D01*
X155061321Y-84399184D01*
X155080500Y-84278097D01*
X155080500Y-84041902D01*
X155043553Y-83808631D01*
X154994354Y-83657213D01*
X154970568Y-83584008D01*
X154970566Y-83584005D01*
X154970566Y-83584003D01*
X154898000Y-83441585D01*
X154863343Y-83373567D01*
X154807993Y-83297385D01*
X154784514Y-83231579D01*
X154800339Y-83163525D01*
X154850445Y-83114830D01*
X154908312Y-83100500D01*
X159913331Y-83100500D01*
X159913347Y-83100501D01*
X159920943Y-83100501D01*
X160079054Y-83100501D01*
X160079057Y-83100501D01*
X160231785Y-83059577D01*
X160299281Y-83020608D01*
X160368716Y-82980520D01*
X160480520Y-82868716D01*
X160480520Y-82868714D01*
X160490724Y-82858511D01*
X160490727Y-82858506D01*
X163712416Y-79636819D01*
X163773739Y-79603334D01*
X163800097Y-79600500D01*
X165150398Y-79600500D01*
X165217437Y-79620185D01*
X165260883Y-79668205D01*
X165267715Y-79681614D01*
X165388028Y-79847213D01*
X165532786Y-79991971D01*
X165664250Y-80087483D01*
X165698390Y-80112287D01*
X165807042Y-80167648D01*
X165880776Y-80205218D01*
X165880778Y-80205218D01*
X165880781Y-80205220D01*
X165930723Y-80221447D01*
X166075465Y-80268477D01*
X166176557Y-80284488D01*
X166277648Y-80300500D01*
X166277649Y-80300500D01*
X166482351Y-80300500D01*
X166482352Y-80300500D01*
X166684534Y-80268477D01*
X166879219Y-80205220D01*
X167061610Y-80112287D01*
X167167917Y-80035051D01*
X167227213Y-79991971D01*
X167227215Y-79991968D01*
X167227219Y-79991966D01*
X167371966Y-79847219D01*
X167371968Y-79847215D01*
X167371971Y-79847213D01*
X167435489Y-79759786D01*
X167492287Y-79681610D01*
X167585220Y-79499219D01*
X167648477Y-79304534D01*
X167680500Y-79102352D01*
X167680500Y-78897648D01*
X167648477Y-78695466D01*
X167585220Y-78500781D01*
X167585218Y-78500778D01*
X167585218Y-78500776D01*
X167539787Y-78411614D01*
X167492287Y-78318390D01*
X167448081Y-78257545D01*
X167371971Y-78152786D01*
X167227213Y-78008028D01*
X167061613Y-77887715D01*
X167061612Y-77887714D01*
X167061610Y-77887713D01*
X166987390Y-77849896D01*
X166879223Y-77794781D01*
X166684534Y-77731522D01*
X166509995Y-77703878D01*
X166482352Y-77699500D01*
X166277648Y-77699500D01*
X166253329Y-77703351D01*
X166075465Y-77731522D01*
X165880776Y-77794781D01*
X165698386Y-77887715D01*
X165532786Y-78008028D01*
X165388028Y-78152786D01*
X165267715Y-78318385D01*
X165260883Y-78331795D01*
X165212909Y-78382591D01*
X165150398Y-78399500D01*
X163629096Y-78399500D01*
X163562057Y-78379815D01*
X163516302Y-78327011D01*
X163506358Y-78257853D01*
X163535383Y-78194297D01*
X163541415Y-78187819D01*
X164735235Y-76993999D01*
X165935158Y-75794075D01*
X165996479Y-75760592D01*
X166061151Y-75763825D01*
X166075466Y-75768477D01*
X166277648Y-75800500D01*
X166277649Y-75800500D01*
X166482351Y-75800500D01*
X166482352Y-75800500D01*
X166684534Y-75768477D01*
X166879219Y-75705220D01*
X167061610Y-75612287D01*
X167203990Y-75508843D01*
X167227213Y-75491971D01*
X167227215Y-75491968D01*
X167227219Y-75491966D01*
X167371966Y-75347219D01*
X167371968Y-75347215D01*
X167371971Y-75347213D01*
X167470529Y-75211557D01*
X167492287Y-75181610D01*
X167585220Y-74999219D01*
X167648477Y-74804534D01*
X167680500Y-74602352D01*
X167680500Y-74397648D01*
X167648477Y-74195466D01*
X167585220Y-74000781D01*
X167585218Y-74000778D01*
X167585218Y-74000776D01*
X167512209Y-73857490D01*
X167492287Y-73818390D01*
X167484556Y-73807749D01*
X167371971Y-73652786D01*
X167227213Y-73508028D01*
X167061613Y-73387715D01*
X167061612Y-73387714D01*
X167061610Y-73387713D01*
X166964728Y-73338349D01*
X166879223Y-73294781D01*
X166826544Y-73277665D01*
X166768869Y-73238227D01*
X166741671Y-73173868D01*
X166753586Y-73105022D01*
X166777177Y-73072057D01*
X166860520Y-72988716D01*
X166939577Y-72851784D01*
X166980501Y-72699057D01*
X166980501Y-72540942D01*
X166980501Y-72533347D01*
X166980500Y-72533329D01*
X166980500Y-71229601D01*
X167000185Y-71162562D01*
X167048206Y-71119116D01*
X167061610Y-71112287D01*
X167227219Y-70991966D01*
X167371966Y-70847219D01*
X167371968Y-70847215D01*
X167371971Y-70847213D01*
X167437234Y-70757384D01*
X167492287Y-70681610D01*
X167585220Y-70499219D01*
X167648477Y-70304534D01*
X167680500Y-70102352D01*
X167680500Y-69897648D01*
X167648477Y-69695466D01*
X167585220Y-69500781D01*
X167585218Y-69500778D01*
X167585218Y-69500776D01*
X167548332Y-69428385D01*
X167492287Y-69318390D01*
X167451889Y-69262786D01*
X167371971Y-69152786D01*
X167227213Y-69008028D01*
X167061613Y-68887715D01*
X167061612Y-68887714D01*
X167061610Y-68887713D01*
X166978392Y-68845311D01*
X166879223Y-68794781D01*
X166684534Y-68731522D01*
X166509995Y-68703878D01*
X166482352Y-68699500D01*
X166277648Y-68699500D01*
X166253329Y-68703351D01*
X166075465Y-68731522D01*
X165940980Y-68775220D01*
X165880781Y-68794780D01*
X165880778Y-68794781D01*
X165880776Y-68794782D01*
X165780795Y-68845725D01*
X165712125Y-68858621D01*
X165647385Y-68832344D01*
X165607128Y-68775238D01*
X165600500Y-68735240D01*
X165600500Y-67140096D01*
X165620185Y-67073057D01*
X165636815Y-67052419D01*
X165895157Y-66794076D01*
X165956480Y-66760592D01*
X166021154Y-66763826D01*
X166035466Y-66768477D01*
X166237648Y-66800500D01*
X166237649Y-66800500D01*
X166442351Y-66800500D01*
X166442352Y-66800500D01*
X166644534Y-66768477D01*
X166839219Y-66705220D01*
X167021610Y-66612287D01*
X167165160Y-66507993D01*
X167187213Y-66491971D01*
X167187215Y-66491968D01*
X167187219Y-66491966D01*
X167331966Y-66347219D01*
X167331968Y-66347215D01*
X167331971Y-66347213D01*
X167452286Y-66181612D01*
X167452670Y-66180857D01*
X167468348Y-66150087D01*
X167516320Y-66099292D01*
X167584140Y-66082495D01*
X167650276Y-66105031D01*
X167666514Y-66118700D01*
X171363179Y-69815364D01*
X171396664Y-69876687D01*
X171399498Y-69903045D01*
X171399498Y-82600546D01*
X171379813Y-82667585D01*
X171327009Y-82713340D01*
X171275503Y-82724546D01*
X171252106Y-82724546D01*
X171252097Y-82724547D01*
X171192490Y-82730954D01*
X171057645Y-82781248D01*
X171057638Y-82781252D01*
X170942429Y-82867498D01*
X170942426Y-82867501D01*
X170856180Y-82982710D01*
X170856176Y-82982717D01*
X170805882Y-83117563D01*
X170800941Y-83163525D01*
X170799475Y-83177169D01*
X170799474Y-83177181D01*
X170799474Y-84822824D01*
X170799475Y-84822830D01*
X170805882Y-84882437D01*
X170856176Y-85017282D01*
X170856180Y-85017289D01*
X170942426Y-85132498D01*
X170942429Y-85132501D01*
X171057638Y-85218747D01*
X171057645Y-85218751D01*
X171192491Y-85269045D01*
X171192490Y-85269045D01*
X171199418Y-85269789D01*
X171252101Y-85275454D01*
X172747894Y-85275453D01*
X172807505Y-85269045D01*
X172942353Y-85218750D01*
X173057568Y-85132500D01*
X173143818Y-85017285D01*
X173194113Y-84882437D01*
X173200522Y-84822827D01*
X173200522Y-84724500D01*
X173220207Y-84657461D01*
X173273011Y-84611706D01*
X173324522Y-84600500D01*
X175175477Y-84600500D01*
X175242516Y-84620185D01*
X175288271Y-84672989D01*
X175299477Y-84724500D01*
X175299477Y-84822830D01*
X175305884Y-84882437D01*
X175356178Y-85017282D01*
X175356182Y-85017289D01*
X175442428Y-85132498D01*
X175442431Y-85132501D01*
X175557640Y-85218747D01*
X175557647Y-85218751D01*
X175692493Y-85269045D01*
X175692492Y-85269045D01*
X175699420Y-85269789D01*
X175752103Y-85275454D01*
X177247896Y-85275453D01*
X177307507Y-85269045D01*
X177442355Y-85218750D01*
X177557570Y-85132500D01*
X177643820Y-85017285D01*
X177694115Y-84882437D01*
X177700524Y-84822827D01*
X177700523Y-83849119D01*
X177720207Y-83782081D01*
X177773011Y-83736326D01*
X177842170Y-83726382D01*
X177905726Y-83755407D01*
X177912204Y-83761439D01*
X179323181Y-85172416D01*
X179356666Y-85233739D01*
X179359500Y-85260097D01*
X179359500Y-85658164D01*
X179339815Y-85725203D01*
X179291796Y-85768648D01*
X179225976Y-85802185D01*
X179047641Y-85931752D01*
X179047636Y-85931756D01*
X178891756Y-86087636D01*
X178891752Y-86087641D01*
X178762187Y-86265974D01*
X178662104Y-86462393D01*
X178662103Y-86462396D01*
X178593985Y-86672047D01*
X178559500Y-86889778D01*
X178559500Y-87110221D01*
X178593985Y-87327952D01*
X178662103Y-87537603D01*
X178662104Y-87537606D01*
X178762187Y-87734025D01*
X178891752Y-87912358D01*
X178891756Y-87912363D01*
X179047636Y-88068243D01*
X179047641Y-88068247D01*
X179149606Y-88142328D01*
X179225978Y-88197815D01*
X179354375Y-88263237D01*
X179422393Y-88297895D01*
X179422396Y-88297896D01*
X179527221Y-88331955D01*
X179632049Y-88366015D01*
X179849778Y-88400500D01*
X179849779Y-88400500D01*
X180070221Y-88400500D01*
X180070222Y-88400500D01*
X180287951Y-88366015D01*
X180497606Y-88297895D01*
X180694022Y-88197815D01*
X180872365Y-88068242D01*
X180922536Y-88018070D01*
X180983857Y-87984586D01*
X181053548Y-87989570D01*
X181109482Y-88031441D01*
X181126398Y-88062419D01*
X181156202Y-88142328D01*
X181156206Y-88142335D01*
X181242452Y-88257544D01*
X181242455Y-88257547D01*
X181357664Y-88343793D01*
X181357671Y-88343797D01*
X181492517Y-88394091D01*
X181492516Y-88394091D01*
X181499444Y-88394835D01*
X181552127Y-88400500D01*
X183447872Y-88400499D01*
X183507483Y-88394091D01*
X183642331Y-88343796D01*
X183757546Y-88257546D01*
X183843796Y-88142331D01*
X183894091Y-88007483D01*
X183900500Y-87947873D01*
X183900499Y-86052128D01*
X183894091Y-85992517D01*
X183887389Y-85974549D01*
X183843797Y-85857671D01*
X183843793Y-85857664D01*
X183757547Y-85742455D01*
X183757544Y-85742452D01*
X183642335Y-85656206D01*
X183642328Y-85656202D01*
X183507482Y-85605908D01*
X183507483Y-85605908D01*
X183447883Y-85599501D01*
X183447881Y-85599500D01*
X183447873Y-85599500D01*
X183447864Y-85599500D01*
X181552129Y-85599500D01*
X181552123Y-85599501D01*
X181492516Y-85605908D01*
X181357671Y-85656202D01*
X181357664Y-85656206D01*
X181242455Y-85742452D01*
X181242452Y-85742455D01*
X181156206Y-85857664D01*
X181156203Y-85857669D01*
X181126398Y-85937581D01*
X181084526Y-85993514D01*
X181019062Y-86017931D01*
X180950789Y-86003079D01*
X180922535Y-85981928D01*
X180872363Y-85931756D01*
X180872358Y-85931752D01*
X180694023Y-85802185D01*
X180628204Y-85768648D01*
X180577409Y-85720674D01*
X180560500Y-85658164D01*
X180560500Y-85049059D01*
X180560501Y-85049046D01*
X180560501Y-84880945D01*
X180560501Y-84880943D01*
X180519577Y-84728215D01*
X180467731Y-84638416D01*
X180440520Y-84591284D01*
X180328716Y-84479480D01*
X180328713Y-84479478D01*
X175294077Y-79444842D01*
X175260592Y-79383519D01*
X175263828Y-79318841D01*
X175268477Y-79304534D01*
X175300500Y-79102352D01*
X175300500Y-78897648D01*
X175268477Y-78695466D01*
X175205220Y-78500781D01*
X175205218Y-78500778D01*
X175205218Y-78500776D01*
X175159787Y-78411614D01*
X175112287Y-78318390D01*
X175068081Y-78257545D01*
X174991971Y-78152786D01*
X174847213Y-78008028D01*
X174681613Y-77887715D01*
X174681612Y-77887714D01*
X174681610Y-77887713D01*
X174607390Y-77849896D01*
X174499223Y-77794781D01*
X174304534Y-77731522D01*
X174129995Y-77703878D01*
X174102352Y-77699500D01*
X173897648Y-77699500D01*
X173873329Y-77703351D01*
X173695465Y-77731522D01*
X173500776Y-77794781D01*
X173318386Y-77887715D01*
X173152786Y-78008028D01*
X173008028Y-78152786D01*
X172887715Y-78318386D01*
X172834983Y-78421878D01*
X172787008Y-78472674D01*
X172719187Y-78489469D01*
X172653052Y-78466931D01*
X172609601Y-78412216D01*
X172600498Y-78365583D01*
X172600498Y-75134416D01*
X172620183Y-75067377D01*
X172672987Y-75021622D01*
X172742145Y-75011678D01*
X172805701Y-75040703D01*
X172834981Y-75078119D01*
X172865790Y-75138584D01*
X172887715Y-75181614D01*
X173008028Y-75347213D01*
X173152786Y-75491971D01*
X173291527Y-75592770D01*
X173318390Y-75612287D01*
X173404578Y-75656202D01*
X173500776Y-75705218D01*
X173500778Y-75705218D01*
X173500781Y-75705220D01*
X173605137Y-75739127D01*
X173695465Y-75768477D01*
X173737988Y-75775212D01*
X173897648Y-75800500D01*
X173897649Y-75800500D01*
X174102351Y-75800500D01*
X174102352Y-75800500D01*
X174304534Y-75768477D01*
X174318842Y-75763827D01*
X174388682Y-75761831D01*
X174444842Y-75794077D01*
X176015139Y-77364374D01*
X176015149Y-77364385D01*
X176019479Y-77368715D01*
X176019480Y-77368716D01*
X176131284Y-77480520D01*
X176216121Y-77529500D01*
X176268215Y-77559577D01*
X176420943Y-77600501D01*
X176420946Y-77600501D01*
X176586653Y-77600501D01*
X176586669Y-77600500D01*
X178618164Y-77600500D01*
X178685203Y-77620185D01*
X178728648Y-77668204D01*
X178762185Y-77734023D01*
X178891752Y-77912358D01*
X178891756Y-77912363D01*
X179047636Y-78068243D01*
X179047641Y-78068247D01*
X179190693Y-78172179D01*
X179225978Y-78197815D01*
X179343808Y-78257853D01*
X179422393Y-78297895D01*
X179422396Y-78297896D01*
X179485472Y-78318390D01*
X179632049Y-78366015D01*
X179849778Y-78400500D01*
X179849779Y-78400500D01*
X180070221Y-78400500D01*
X180070222Y-78400500D01*
X180287951Y-78366015D01*
X180497606Y-78297895D01*
X180694022Y-78197815D01*
X180872365Y-78068242D01*
X180922536Y-78018070D01*
X180983857Y-77984586D01*
X181053548Y-77989570D01*
X181109482Y-78031441D01*
X181126398Y-78062419D01*
X181156202Y-78142328D01*
X181156206Y-78142335D01*
X181242452Y-78257544D01*
X181242454Y-78257546D01*
X181357664Y-78343793D01*
X181357671Y-78343797D01*
X181492517Y-78394091D01*
X181492516Y-78394091D01*
X181499444Y-78394835D01*
X181552127Y-78400500D01*
X183447872Y-78400499D01*
X183507483Y-78394091D01*
X183642331Y-78343796D01*
X183757546Y-78257546D01*
X183843796Y-78142331D01*
X183894091Y-78007483D01*
X183900500Y-77947873D01*
X183900499Y-76052128D01*
X183894091Y-75992517D01*
X183873601Y-75937581D01*
X183843797Y-75857671D01*
X183843793Y-75857664D01*
X183757547Y-75742455D01*
X183757544Y-75742452D01*
X183642335Y-75656206D01*
X183642328Y-75656202D01*
X183507482Y-75605908D01*
X183507483Y-75605908D01*
X183447883Y-75599501D01*
X183447881Y-75599500D01*
X183447873Y-75599500D01*
X183447864Y-75599500D01*
X181552129Y-75599500D01*
X181552123Y-75599501D01*
X181492516Y-75605908D01*
X181357671Y-75656202D01*
X181357664Y-75656206D01*
X181242455Y-75742452D01*
X181242452Y-75742455D01*
X181156206Y-75857664D01*
X181156203Y-75857669D01*
X181126398Y-75937581D01*
X181084526Y-75993514D01*
X181019062Y-76017931D01*
X180950789Y-76003079D01*
X180922535Y-75981928D01*
X180872363Y-75931756D01*
X180872358Y-75931752D01*
X180694025Y-75802187D01*
X180694024Y-75802186D01*
X180694022Y-75802185D01*
X180576791Y-75742452D01*
X180497606Y-75702104D01*
X180497603Y-75702103D01*
X180287952Y-75633985D01*
X180179086Y-75616742D01*
X180070222Y-75599500D01*
X179849778Y-75599500D01*
X179777201Y-75610995D01*
X179632047Y-75633985D01*
X179422396Y-75702103D01*
X179422393Y-75702104D01*
X179225974Y-75802187D01*
X179047641Y-75931752D01*
X179047636Y-75931756D01*
X178891756Y-76087636D01*
X178891752Y-76087641D01*
X178762185Y-76265976D01*
X178728648Y-76331796D01*
X178680674Y-76382591D01*
X178618164Y-76399500D01*
X176800097Y-76399500D01*
X176733058Y-76379815D01*
X176712416Y-76363181D01*
X175294077Y-74944842D01*
X175260592Y-74883519D01*
X175263828Y-74818841D01*
X175268477Y-74804534D01*
X175300500Y-74602352D01*
X175300500Y-74397648D01*
X175268477Y-74195466D01*
X175205220Y-74000781D01*
X175205218Y-74000778D01*
X175205218Y-74000776D01*
X175132209Y-73857490D01*
X175112287Y-73818390D01*
X175104556Y-73807749D01*
X174991971Y-73652786D01*
X174847213Y-73508028D01*
X174681613Y-73387715D01*
X174681612Y-73387714D01*
X174681610Y-73387713D01*
X174584728Y-73338349D01*
X174499223Y-73294781D01*
X174304534Y-73231522D01*
X174129995Y-73203878D01*
X174102352Y-73199500D01*
X173897648Y-73199500D01*
X173873329Y-73203351D01*
X173695465Y-73231522D01*
X173500776Y-73294781D01*
X173318386Y-73387715D01*
X173152786Y-73508028D01*
X173008028Y-73652786D01*
X172887715Y-73818386D01*
X172834983Y-73921878D01*
X172787008Y-73972674D01*
X172719187Y-73989469D01*
X172653052Y-73966931D01*
X172609601Y-73912216D01*
X172600498Y-73865583D01*
X172600498Y-70634416D01*
X172620183Y-70567377D01*
X172672987Y-70521622D01*
X172742145Y-70511678D01*
X172805701Y-70540703D01*
X172834981Y-70578119D01*
X172882677Y-70671727D01*
X172887715Y-70681614D01*
X173008028Y-70847213D01*
X173152786Y-70991971D01*
X173272651Y-71079056D01*
X173318390Y-71112287D01*
X173417060Y-71162562D01*
X173500776Y-71205218D01*
X173500778Y-71205218D01*
X173500781Y-71205220D01*
X173553299Y-71222284D01*
X173695465Y-71268477D01*
X173780239Y-71281904D01*
X173897648Y-71300500D01*
X173897649Y-71300500D01*
X174102351Y-71300500D01*
X174102352Y-71300500D01*
X174304534Y-71268477D01*
X174499219Y-71205220D01*
X174681610Y-71112287D01*
X174774590Y-71044732D01*
X174847213Y-70991971D01*
X174847215Y-70991968D01*
X174847219Y-70991966D01*
X174991966Y-70847219D01*
X174991968Y-70847215D01*
X174991971Y-70847213D01*
X175057234Y-70757384D01*
X175112287Y-70681610D01*
X175205220Y-70499219D01*
X175268477Y-70304534D01*
X175300500Y-70102352D01*
X175300500Y-69897648D01*
X175268477Y-69695466D01*
X175263825Y-69681151D01*
X175261832Y-69611312D01*
X175294075Y-69555158D01*
X176712416Y-68136819D01*
X176773739Y-68103334D01*
X176800097Y-68100500D01*
X178618164Y-68100500D01*
X178685203Y-68120185D01*
X178728648Y-68168204D01*
X178762185Y-68234023D01*
X178891752Y-68412358D01*
X178891756Y-68412363D01*
X179047636Y-68568243D01*
X179047641Y-68568247D01*
X179144138Y-68638355D01*
X179225978Y-68697815D01*
X179347341Y-68759653D01*
X179422393Y-68797895D01*
X179422396Y-68797896D01*
X179527221Y-68831955D01*
X179632049Y-68866015D01*
X179849778Y-68900500D01*
X179849779Y-68900500D01*
X180070221Y-68900500D01*
X180070222Y-68900500D01*
X180287951Y-68866015D01*
X180497606Y-68797895D01*
X180694022Y-68697815D01*
X180872365Y-68568242D01*
X180922536Y-68518070D01*
X180983857Y-68484586D01*
X181053548Y-68489570D01*
X181109482Y-68531441D01*
X181126398Y-68562419D01*
X181156202Y-68642328D01*
X181156206Y-68642335D01*
X181242452Y-68757544D01*
X181242455Y-68757547D01*
X181357664Y-68843793D01*
X181357671Y-68843797D01*
X181492517Y-68894091D01*
X181492516Y-68894091D01*
X181499444Y-68894835D01*
X181552127Y-68900500D01*
X183447872Y-68900499D01*
X183507483Y-68894091D01*
X183642331Y-68843796D01*
X183757546Y-68757546D01*
X183843796Y-68642331D01*
X183894091Y-68507483D01*
X183900500Y-68447873D01*
X183900499Y-66552128D01*
X183894091Y-66492517D01*
X183893887Y-66491971D01*
X183843797Y-66357671D01*
X183843793Y-66357664D01*
X183757547Y-66242455D01*
X183757544Y-66242452D01*
X183642335Y-66156206D01*
X183642328Y-66156202D01*
X183507482Y-66105908D01*
X183507483Y-66105908D01*
X183447883Y-66099501D01*
X183447881Y-66099500D01*
X183447873Y-66099500D01*
X183447864Y-66099500D01*
X181552129Y-66099500D01*
X181552123Y-66099501D01*
X181492516Y-66105908D01*
X181357671Y-66156202D01*
X181357664Y-66156206D01*
X181242455Y-66242452D01*
X181242452Y-66242455D01*
X181156206Y-66357664D01*
X181156203Y-66357669D01*
X181126398Y-66437581D01*
X181084526Y-66493514D01*
X181019062Y-66517931D01*
X180950789Y-66503079D01*
X180922535Y-66481928D01*
X180872363Y-66431756D01*
X180872358Y-66431752D01*
X180694025Y-66302187D01*
X180694024Y-66302186D01*
X180694022Y-66302185D01*
X180576791Y-66242452D01*
X180497606Y-66202104D01*
X180497603Y-66202103D01*
X180287952Y-66133985D01*
X180179086Y-66116742D01*
X180070222Y-66099500D01*
X179849778Y-66099500D01*
X179777201Y-66110995D01*
X179632047Y-66133985D01*
X179422396Y-66202103D01*
X179422393Y-66202104D01*
X179225974Y-66302187D01*
X179047641Y-66431752D01*
X179047636Y-66431756D01*
X178891756Y-66587636D01*
X178891752Y-66587641D01*
X178762185Y-66765976D01*
X178728648Y-66831796D01*
X178680674Y-66882591D01*
X178618164Y-66899500D01*
X176586669Y-66899500D01*
X176586653Y-66899499D01*
X176579057Y-66899499D01*
X176420943Y-66899499D01*
X176347953Y-66919057D01*
X176268216Y-66940422D01*
X176230159Y-66962395D01*
X176230158Y-66962394D01*
X176131287Y-67019477D01*
X176131282Y-67019481D01*
X176019478Y-67131286D01*
X174444842Y-68705921D01*
X174383519Y-68739406D01*
X174318848Y-68736173D01*
X174304534Y-68731522D01*
X174129995Y-68703878D01*
X174102352Y-68699500D01*
X173897648Y-68699500D01*
X173873329Y-68703351D01*
X173695465Y-68731522D01*
X173500776Y-68794781D01*
X173318386Y-68887715D01*
X173152786Y-69008028D01*
X173008028Y-69152786D01*
X172887713Y-69318388D01*
X172810049Y-69470811D01*
X172762075Y-69521606D01*
X172694254Y-69538401D01*
X172628119Y-69515863D01*
X172584668Y-69461148D01*
X172579794Y-69446622D01*
X172559575Y-69371164D01*
X172524719Y-69310791D01*
X172480522Y-69234238D01*
X172480516Y-69234230D01*
X168296524Y-65050238D01*
X164058465Y-60812180D01*
X164024981Y-60750858D01*
X164029965Y-60681166D01*
X164071837Y-60625233D01*
X164137301Y-60600816D01*
X164146147Y-60600500D01*
X170675475Y-60600500D01*
X170742514Y-60620185D01*
X170788269Y-60672989D01*
X170799475Y-60724500D01*
X170799475Y-60822830D01*
X170805882Y-60882437D01*
X170856176Y-61017282D01*
X170856180Y-61017289D01*
X170942426Y-61132498D01*
X170942429Y-61132501D01*
X171057638Y-61218747D01*
X171057645Y-61218751D01*
X171192491Y-61269045D01*
X171192490Y-61269045D01*
X171199418Y-61269789D01*
X171252101Y-61275454D01*
X172747894Y-61275453D01*
X172807505Y-61269045D01*
X172942353Y-61218750D01*
X173057568Y-61132500D01*
X173143818Y-61017285D01*
X173194113Y-60882437D01*
X173200522Y-60822827D01*
X173200522Y-60724500D01*
X173220207Y-60657461D01*
X173273011Y-60611706D01*
X173324522Y-60600500D01*
X175175477Y-60600500D01*
X175242516Y-60620185D01*
X175288271Y-60672989D01*
X175299477Y-60724500D01*
X175299477Y-60822830D01*
X175305884Y-60882437D01*
X175356178Y-61017282D01*
X175356182Y-61017289D01*
X175442428Y-61132498D01*
X175442431Y-61132501D01*
X175557640Y-61218747D01*
X175557647Y-61218751D01*
X175692493Y-61269045D01*
X175692492Y-61269045D01*
X175699420Y-61269789D01*
X175752103Y-61275454D01*
X177035948Y-61275453D01*
X177102987Y-61295138D01*
X177148742Y-61347941D01*
X177158686Y-61417100D01*
X177129661Y-61480656D01*
X177123629Y-61487134D01*
X174404842Y-64205921D01*
X174343519Y-64239406D01*
X174278848Y-64236173D01*
X174264534Y-64231522D01*
X174089995Y-64203878D01*
X174062352Y-64199500D01*
X173857648Y-64199500D01*
X173833329Y-64203351D01*
X173655465Y-64231522D01*
X173460776Y-64294781D01*
X173278386Y-64387715D01*
X173112786Y-64508028D01*
X172968028Y-64652786D01*
X172847715Y-64818386D01*
X172754781Y-65000776D01*
X172691522Y-65195465D01*
X172659500Y-65397648D01*
X172659500Y-65602351D01*
X172691522Y-65804534D01*
X172754781Y-65999223D01*
X172797211Y-66082495D01*
X172839702Y-66165888D01*
X172847715Y-66181613D01*
X172968028Y-66347213D01*
X173112786Y-66491971D01*
X173244467Y-66587641D01*
X173278390Y-66612287D01*
X173384012Y-66666104D01*
X173460776Y-66705218D01*
X173460778Y-66705218D01*
X173460781Y-66705220D01*
X173514844Y-66722786D01*
X173655465Y-66768477D01*
X173756557Y-66784488D01*
X173857648Y-66800500D01*
X173857649Y-66800500D01*
X174062351Y-66800500D01*
X174062352Y-66800500D01*
X174264534Y-66768477D01*
X174459219Y-66705220D01*
X174641610Y-66612287D01*
X174785160Y-66507993D01*
X174807213Y-66491971D01*
X174807215Y-66491968D01*
X174807219Y-66491966D01*
X174951966Y-66347219D01*
X174951968Y-66347215D01*
X174951971Y-66347213D01*
X175028081Y-66242455D01*
X175072287Y-66181610D01*
X175165220Y-65999219D01*
X175228477Y-65804534D01*
X175260500Y-65602352D01*
X175260500Y-65397648D01*
X175239407Y-65264472D01*
X175228478Y-65195472D01*
X175228477Y-65195471D01*
X175228477Y-65195466D01*
X175223825Y-65181151D01*
X175221832Y-65111312D01*
X175254075Y-65055158D01*
X180318506Y-59990728D01*
X180318511Y-59990724D01*
X180328714Y-59980520D01*
X180328716Y-59980520D01*
X180440520Y-59868716D01*
X180519577Y-59731784D01*
X180560500Y-59579057D01*
X180560500Y-59341835D01*
X180580185Y-59274796D01*
X180628206Y-59231350D01*
X180628547Y-59231175D01*
X180694022Y-59197815D01*
X180872365Y-59068242D01*
X180922536Y-59018070D01*
X180983857Y-58984586D01*
X181053548Y-58989570D01*
X181109482Y-59031441D01*
X181126398Y-59062419D01*
X181156202Y-59142328D01*
X181156206Y-59142335D01*
X181242452Y-59257544D01*
X181242455Y-59257547D01*
X181357664Y-59343793D01*
X181357671Y-59343797D01*
X181492517Y-59394091D01*
X181492516Y-59394091D01*
X181499444Y-59394835D01*
X181552127Y-59400500D01*
X183447872Y-59400499D01*
X183507483Y-59394091D01*
X183642331Y-59343796D01*
X183757546Y-59257546D01*
X183843796Y-59142331D01*
X183894091Y-59007483D01*
X183900500Y-58947873D01*
X183900499Y-57052128D01*
X183894091Y-56992517D01*
X183877656Y-56948453D01*
X183843797Y-56857671D01*
X183843793Y-56857664D01*
X183757547Y-56742455D01*
X183757544Y-56742452D01*
X183642335Y-56656206D01*
X183642328Y-56656202D01*
X183507482Y-56605908D01*
X183507483Y-56605908D01*
X183447883Y-56599501D01*
X183447881Y-56599500D01*
X183447873Y-56599500D01*
X183447864Y-56599500D01*
X181552129Y-56599500D01*
X181552123Y-56599501D01*
X181492516Y-56605908D01*
X181357671Y-56656202D01*
X181357664Y-56656206D01*
X181242455Y-56742452D01*
X181242452Y-56742455D01*
X181156206Y-56857664D01*
X181156203Y-56857669D01*
X181126398Y-56937581D01*
X181084526Y-56993514D01*
X181019062Y-57017931D01*
X180950789Y-57003079D01*
X180922535Y-56981928D01*
X180872363Y-56931756D01*
X180872358Y-56931752D01*
X180694025Y-56802187D01*
X180694024Y-56802186D01*
X180694022Y-56802185D01*
X180577311Y-56742717D01*
X180497606Y-56702104D01*
X180497603Y-56702103D01*
X180287952Y-56633985D01*
X180125675Y-56608283D01*
X180070222Y-56599500D01*
X179849778Y-56599500D01*
X179794325Y-56608283D01*
X179632047Y-56633985D01*
X179422396Y-56702103D01*
X179422393Y-56702104D01*
X179225974Y-56802187D01*
X179047641Y-56931752D01*
X179047636Y-56931756D01*
X178891756Y-57087636D01*
X178891752Y-57087641D01*
X178762187Y-57265974D01*
X178662104Y-57462393D01*
X178662103Y-57462396D01*
X178593985Y-57672047D01*
X178559500Y-57889778D01*
X178559500Y-58110221D01*
X178593985Y-58327952D01*
X178662103Y-58537603D01*
X178662104Y-58537606D01*
X178730122Y-58671096D01*
X178760622Y-58730955D01*
X178762187Y-58734025D01*
X178891752Y-58912358D01*
X178891756Y-58912363D01*
X179047640Y-59068247D01*
X179216812Y-59191156D01*
X179259478Y-59246485D01*
X179265457Y-59316099D01*
X179232852Y-59377894D01*
X179231608Y-59379155D01*
X177912204Y-60698559D01*
X177850881Y-60732044D01*
X177781189Y-60727060D01*
X177725256Y-60685188D01*
X177700839Y-60619724D01*
X177700523Y-60610902D01*
X177700523Y-59177174D01*
X177694115Y-59117563D01*
X177675721Y-59068247D01*
X177643821Y-58982717D01*
X177643817Y-58982710D01*
X177557571Y-58867501D01*
X177557568Y-58867498D01*
X177442359Y-58781252D01*
X177442352Y-58781248D01*
X177307506Y-58730954D01*
X177307507Y-58730954D01*
X177247907Y-58724547D01*
X177247905Y-58724546D01*
X177247897Y-58724546D01*
X177247888Y-58724546D01*
X175752105Y-58724546D01*
X175752099Y-58724547D01*
X175692492Y-58730954D01*
X175557647Y-58781248D01*
X175557640Y-58781252D01*
X175442431Y-58867498D01*
X175442428Y-58867501D01*
X175356182Y-58982710D01*
X175356178Y-58982717D01*
X175305884Y-59117563D01*
X175299477Y-59177162D01*
X175299477Y-59177169D01*
X175299476Y-59177181D01*
X175299476Y-59275500D01*
X175279791Y-59342539D01*
X175226987Y-59388294D01*
X175175476Y-59399500D01*
X173324521Y-59399500D01*
X173257482Y-59379815D01*
X173211727Y-59327011D01*
X173200521Y-59275500D01*
X173200521Y-59177175D01*
X173200520Y-59177169D01*
X173200519Y-59177162D01*
X173194113Y-59117563D01*
X173175719Y-59068247D01*
X173143819Y-58982717D01*
X173143815Y-58982710D01*
X173057569Y-58867501D01*
X173057566Y-58867498D01*
X172942357Y-58781252D01*
X172942350Y-58781248D01*
X172807504Y-58730954D01*
X172807505Y-58730954D01*
X172747905Y-58724547D01*
X172747903Y-58724546D01*
X172747895Y-58724546D01*
X172747886Y-58724546D01*
X171252103Y-58724546D01*
X171252097Y-58724547D01*
X171192490Y-58730954D01*
X171057645Y-58781248D01*
X171057638Y-58781252D01*
X170942429Y-58867498D01*
X170942426Y-58867501D01*
X170856180Y-58982710D01*
X170856176Y-58982717D01*
X170805882Y-59117563D01*
X170799475Y-59177162D01*
X170799475Y-59177169D01*
X170799474Y-59177181D01*
X170799474Y-59275500D01*
X170779789Y-59342539D01*
X170726985Y-59388294D01*
X170675474Y-59399500D01*
X121909057Y-59399500D01*
X121750942Y-59399500D01*
X121598215Y-59440423D01*
X121598214Y-59440423D01*
X121598212Y-59440424D01*
X121598209Y-59440425D01*
X121548096Y-59469359D01*
X121548095Y-59469360D01*
X121504689Y-59494420D01*
X121461285Y-59519479D01*
X121461282Y-59519481D01*
X121349478Y-59631286D01*
X117244842Y-63735921D01*
X117183519Y-63769406D01*
X117118848Y-63766173D01*
X117104534Y-63761522D01*
X116929995Y-63733878D01*
X116902352Y-63729500D01*
X116697648Y-63729500D01*
X116673329Y-63733351D01*
X116495465Y-63761522D01*
X116300776Y-63824781D01*
X116118386Y-63917715D01*
X115952786Y-64038028D01*
X115808028Y-64182786D01*
X115687715Y-64348386D01*
X115640485Y-64441080D01*
X115592510Y-64491876D01*
X115524689Y-64508671D01*
X115458554Y-64486134D01*
X115419515Y-64441080D01*
X115392323Y-64387713D01*
X115372287Y-64348390D01*
X115364556Y-64337749D01*
X115251971Y-64182786D01*
X115107213Y-64038028D01*
X114941613Y-63917715D01*
X114941612Y-63917714D01*
X114941610Y-63917713D01*
X114884653Y-63888691D01*
X114759223Y-63824781D01*
X114564534Y-63761522D01*
X114389995Y-63733878D01*
X114362352Y-63729500D01*
X114157648Y-63729500D01*
X114133329Y-63733351D01*
X113955465Y-63761522D01*
X113760776Y-63824781D01*
X113578386Y-63917715D01*
X113412786Y-64038028D01*
X113268028Y-64182786D01*
X113147715Y-64348386D01*
X113054781Y-64530776D01*
X112991522Y-64725465D01*
X112968529Y-64870641D01*
X112959500Y-64927648D01*
X112959500Y-65132352D01*
X112959798Y-65134234D01*
X112991522Y-65334534D01*
X113054781Y-65529223D01*
X113147715Y-65711613D01*
X113268028Y-65877213D01*
X113412786Y-66021971D01*
X113545925Y-66118700D01*
X113578390Y-66142287D01*
X113655566Y-66181610D01*
X113671080Y-66189515D01*
X113721876Y-66237490D01*
X113738671Y-66305311D01*
X113716134Y-66371446D01*
X113671080Y-66410485D01*
X113578386Y-66457715D01*
X113412786Y-66578028D01*
X113268028Y-66722786D01*
X113147715Y-66888386D01*
X113054781Y-67070776D01*
X112991522Y-67265465D01*
X112959500Y-67467648D01*
X112959500Y-67672351D01*
X112991522Y-67874534D01*
X113054781Y-68069223D01*
X113105215Y-68168204D01*
X113138751Y-68234022D01*
X113147715Y-68251613D01*
X113268028Y-68417213D01*
X113412786Y-68561971D01*
X113523400Y-68642335D01*
X113578390Y-68682287D01*
X113669840Y-68728883D01*
X113671080Y-68729515D01*
X113721876Y-68777490D01*
X113738671Y-68845311D01*
X113716134Y-68911446D01*
X113671080Y-68950485D01*
X113578386Y-68997715D01*
X113412786Y-69118028D01*
X113268028Y-69262786D01*
X113147715Y-69428385D01*
X113140883Y-69441795D01*
X113092909Y-69492591D01*
X113030398Y-69509500D01*
X111030098Y-69509500D01*
X111000654Y-69500854D01*
X110970672Y-69494332D01*
X110965656Y-69490577D01*
X110963059Y-69489815D01*
X110942421Y-69473185D01*
X110833755Y-69364520D01*
X110800272Y-69303200D01*
X110803507Y-69238523D01*
X110817246Y-69196243D01*
X110850500Y-68986287D01*
X110850500Y-68773713D01*
X110817246Y-68563757D01*
X110751557Y-68361588D01*
X110655051Y-68172184D01*
X110655049Y-68172181D01*
X110655048Y-68172179D01*
X110530109Y-68000213D01*
X110379786Y-67849890D01*
X110207820Y-67724951D01*
X110018414Y-67628444D01*
X110018413Y-67628443D01*
X110018412Y-67628443D01*
X109816243Y-67562754D01*
X109816241Y-67562753D01*
X109816240Y-67562753D01*
X109654957Y-67537208D01*
X109606287Y-67529500D01*
X109393713Y-67529500D01*
X109345042Y-67537208D01*
X109183760Y-67562753D01*
X108981585Y-67628444D01*
X108792179Y-67724951D01*
X108620213Y-67849890D01*
X108469890Y-68000213D01*
X108344951Y-68172179D01*
X108248444Y-68361585D01*
X108248443Y-68361587D01*
X108248443Y-68361588D01*
X108220407Y-68447873D01*
X108182753Y-68563760D01*
X108155518Y-68735713D01*
X108125589Y-68798848D01*
X108066277Y-68835779D01*
X107996414Y-68834781D01*
X107945364Y-68803996D01*
X103278549Y-64137181D01*
X103245064Y-64075858D01*
X103250048Y-64006166D01*
X103291920Y-63950233D01*
X103357384Y-63925816D01*
X103366230Y-63925500D01*
X105128920Y-63925500D01*
X105226462Y-63906096D01*
X105273913Y-63896658D01*
X105410495Y-63840084D01*
X105459729Y-63807186D01*
X105533416Y-63757952D01*
X105597655Y-63693713D01*
X108149500Y-63693713D01*
X108149500Y-63906286D01*
X108179140Y-64093430D01*
X108182754Y-64116243D01*
X108240764Y-64294780D01*
X108248444Y-64318414D01*
X108344951Y-64507820D01*
X108469890Y-64679786D01*
X108620213Y-64830109D01*
X108792179Y-64955048D01*
X108792181Y-64955049D01*
X108792184Y-64955051D01*
X108981588Y-65051557D01*
X109183757Y-65117246D01*
X109393713Y-65150500D01*
X109393714Y-65150500D01*
X109606286Y-65150500D01*
X109606287Y-65150500D01*
X109816243Y-65117246D01*
X110018412Y-65051557D01*
X110207816Y-64955051D01*
X110245533Y-64927648D01*
X110379786Y-64830109D01*
X110379788Y-64830106D01*
X110379792Y-64830104D01*
X110530104Y-64679792D01*
X110530106Y-64679788D01*
X110530109Y-64679786D01*
X110655048Y-64507820D01*
X110655047Y-64507820D01*
X110655051Y-64507816D01*
X110751557Y-64318412D01*
X110817246Y-64116243D01*
X110850500Y-63906287D01*
X110850500Y-63693713D01*
X110817246Y-63483757D01*
X110751557Y-63281588D01*
X110655051Y-63092184D01*
X110655049Y-63092181D01*
X110655048Y-63092179D01*
X110530109Y-62920213D01*
X110379786Y-62769890D01*
X110207820Y-62644951D01*
X110018414Y-62548444D01*
X110018413Y-62548443D01*
X110018412Y-62548443D01*
X109816243Y-62482754D01*
X109816241Y-62482753D01*
X109816240Y-62482753D01*
X109654957Y-62457208D01*
X109606287Y-62449500D01*
X109393713Y-62449500D01*
X109345042Y-62457208D01*
X109183760Y-62482753D01*
X108981585Y-62548444D01*
X108792179Y-62644951D01*
X108620213Y-62769890D01*
X108469890Y-62920213D01*
X108344951Y-63092179D01*
X108248444Y-63281585D01*
X108182753Y-63483760D01*
X108149500Y-63693713D01*
X105597655Y-63693713D01*
X113584772Y-55706594D01*
X113646093Y-55673111D01*
X113715785Y-55678095D01*
X113771718Y-55719967D01*
X113794924Y-55774878D01*
X113805278Y-55840247D01*
X113805278Y-55840249D01*
X113875950Y-56057755D01*
X113947832Y-56198830D01*
X113979783Y-56261538D01*
X114114214Y-56446566D01*
X114275934Y-56608286D01*
X114460962Y-56742717D01*
X114616289Y-56821860D01*
X114664744Y-56846549D01*
X114882251Y-56917221D01*
X114882252Y-56917221D01*
X114882255Y-56917222D01*
X115108146Y-56953000D01*
X115108147Y-56953000D01*
X115431853Y-56953000D01*
X115431854Y-56953000D01*
X115657745Y-56917222D01*
X115657748Y-56917221D01*
X115657749Y-56917221D01*
X115875255Y-56846549D01*
X115875255Y-56846548D01*
X115875258Y-56846548D01*
X116079038Y-56742717D01*
X116264066Y-56608286D01*
X116425786Y-56446566D01*
X116560217Y-56261538D01*
X116664048Y-56057758D01*
X116734722Y-55840245D01*
X116770500Y-55614354D01*
X116770500Y-55385646D01*
X116767843Y-55368872D01*
X129929500Y-55368872D01*
X129929500Y-55631127D01*
X129956123Y-55833339D01*
X129963730Y-55891116D01*
X130031602Y-56144418D01*
X130031605Y-56144428D01*
X130131953Y-56386690D01*
X130131958Y-56386700D01*
X130263075Y-56613803D01*
X130422718Y-56821851D01*
X130422726Y-56821860D01*
X130608140Y-57007274D01*
X130608148Y-57007281D01*
X130816196Y-57166924D01*
X131043299Y-57298041D01*
X131043309Y-57298046D01*
X131285571Y-57398394D01*
X131285581Y-57398398D01*
X131538884Y-57466270D01*
X131798880Y-57500500D01*
X131798887Y-57500500D01*
X132061113Y-57500500D01*
X132061120Y-57500500D01*
X132321116Y-57466270D01*
X132574419Y-57398398D01*
X132816697Y-57298043D01*
X133043803Y-57166924D01*
X133251851Y-57007282D01*
X133251855Y-57007277D01*
X133251860Y-57007274D01*
X133437274Y-56821860D01*
X133437277Y-56821855D01*
X133437282Y-56821851D01*
X133596924Y-56613803D01*
X133728043Y-56386697D01*
X133828398Y-56144419D01*
X133896270Y-55891116D01*
X133930500Y-55631120D01*
X133930500Y-55368880D01*
X133896270Y-55108884D01*
X133828398Y-54855581D01*
X133779886Y-54738462D01*
X133728046Y-54613309D01*
X133728041Y-54613299D01*
X133603053Y-54396813D01*
X133603052Y-54396811D01*
X133603051Y-54396810D01*
X133596922Y-54386194D01*
X133559831Y-54337857D01*
X160699500Y-54337857D01*
X160699500Y-54662143D01*
X160707017Y-54738461D01*
X160731284Y-54984857D01*
X160731287Y-54984874D01*
X160794545Y-55302902D01*
X160794548Y-55302913D01*
X160888686Y-55613247D01*
X161012786Y-55912849D01*
X161012788Y-55912854D01*
X161165646Y-56198830D01*
X161165657Y-56198848D01*
X161345811Y-56468467D01*
X161345821Y-56468481D01*
X161551546Y-56719158D01*
X161780841Y-56948453D01*
X161780846Y-56948457D01*
X161780847Y-56948458D01*
X162031524Y-57154183D01*
X162301158Y-57334347D01*
X162301167Y-57334352D01*
X162301169Y-57334353D01*
X162587145Y-57487211D01*
X162587147Y-57487211D01*
X162587153Y-57487215D01*
X162886754Y-57611314D01*
X163197077Y-57705449D01*
X163197083Y-57705450D01*
X163197086Y-57705451D01*
X163197097Y-57705454D01*
X163396528Y-57745122D01*
X163515132Y-57768714D01*
X163837857Y-57800500D01*
X163837860Y-57800500D01*
X164162140Y-57800500D01*
X164162143Y-57800500D01*
X164484868Y-57768714D01*
X164642295Y-57737399D01*
X164802902Y-57705454D01*
X164802913Y-57705451D01*
X164802913Y-57705450D01*
X164802923Y-57705449D01*
X165113246Y-57611314D01*
X165412847Y-57487215D01*
X165698842Y-57334347D01*
X165968476Y-57154183D01*
X166219153Y-56948458D01*
X166448458Y-56719153D01*
X166654183Y-56468476D01*
X166834347Y-56198842D01*
X166987215Y-55912847D01*
X167111314Y-55613246D01*
X167205449Y-55302923D01*
X167205451Y-55302913D01*
X167205454Y-55302902D01*
X167237399Y-55142295D01*
X167268714Y-54984868D01*
X167300500Y-54662143D01*
X167300500Y-54337857D01*
X167268714Y-54015132D01*
X167226757Y-53804199D01*
X167205454Y-53697097D01*
X167205451Y-53697086D01*
X167205450Y-53697083D01*
X167205449Y-53697077D01*
X167111314Y-53386754D01*
X166987215Y-53087153D01*
X166976597Y-53067289D01*
X166834353Y-52801169D01*
X166834352Y-52801167D01*
X166834347Y-52801158D01*
X166654183Y-52531524D01*
X166448458Y-52280847D01*
X166448457Y-52280846D01*
X166448453Y-52280841D01*
X166219158Y-52051546D01*
X165968481Y-51845821D01*
X165968480Y-51845820D01*
X165968476Y-51845817D01*
X165698842Y-51665653D01*
X165698837Y-51665650D01*
X165698830Y-51665646D01*
X165412854Y-51512788D01*
X165412849Y-51512786D01*
X165398880Y-51507000D01*
X165325098Y-51476438D01*
X165113247Y-51388686D01*
X165051671Y-51370007D01*
X164802923Y-51294551D01*
X164802922Y-51294550D01*
X164802913Y-51294548D01*
X164802902Y-51294545D01*
X164484874Y-51231287D01*
X164484857Y-51231284D01*
X164443239Y-51227185D01*
X170799474Y-51227185D01*
X170799474Y-52872828D01*
X170799475Y-52872834D01*
X170805882Y-52932441D01*
X170856176Y-53067286D01*
X170856180Y-53067293D01*
X170942426Y-53182502D01*
X170942429Y-53182505D01*
X171057638Y-53268751D01*
X171057645Y-53268755D01*
X171192491Y-53319049D01*
X171192490Y-53319049D01*
X171199418Y-53319793D01*
X171252101Y-53325458D01*
X172747894Y-53325457D01*
X172807505Y-53319049D01*
X172942353Y-53268754D01*
X173057568Y-53182504D01*
X173143818Y-53067289D01*
X173194113Y-52932441D01*
X173200522Y-52872831D01*
X173200522Y-52774504D01*
X173220207Y-52707465D01*
X173273011Y-52661710D01*
X173324522Y-52650504D01*
X175175477Y-52650504D01*
X175242516Y-52670189D01*
X175288271Y-52722993D01*
X175299477Y-52774504D01*
X175299477Y-52872834D01*
X175305884Y-52932441D01*
X175356178Y-53067286D01*
X175356182Y-53067293D01*
X175442428Y-53182502D01*
X175442431Y-53182505D01*
X175557640Y-53268751D01*
X175557647Y-53268755D01*
X175692493Y-53319049D01*
X175692492Y-53319049D01*
X175699420Y-53319793D01*
X175752103Y-53325458D01*
X177247896Y-53325457D01*
X177307507Y-53319049D01*
X177442355Y-53268754D01*
X177557570Y-53182504D01*
X177643820Y-53067289D01*
X177694115Y-52932441D01*
X177700524Y-52872831D01*
X177700523Y-52407706D01*
X177720207Y-52340668D01*
X177773011Y-52294913D01*
X177842170Y-52284969D01*
X177848715Y-52286090D01*
X177921156Y-52300500D01*
X177921158Y-52300500D01*
X178078844Y-52300500D01*
X178078845Y-52300499D01*
X178233497Y-52269737D01*
X178379179Y-52209394D01*
X178510289Y-52121789D01*
X178621789Y-52010289D01*
X178709394Y-51879179D01*
X178769737Y-51733497D01*
X178800500Y-51578842D01*
X178800500Y-51421158D01*
X178800500Y-51421155D01*
X178800499Y-51421153D01*
X178775316Y-51294551D01*
X178769737Y-51266503D01*
X178728757Y-51167567D01*
X178709397Y-51120827D01*
X178709390Y-51120814D01*
X178621789Y-50989711D01*
X178621786Y-50989707D01*
X178510292Y-50878213D01*
X178510288Y-50878210D01*
X178379185Y-50790609D01*
X178379172Y-50790602D01*
X178233501Y-50730264D01*
X178233489Y-50730261D01*
X178078845Y-50699500D01*
X178078842Y-50699500D01*
X177921158Y-50699500D01*
X177921155Y-50699500D01*
X177766510Y-50730261D01*
X177766498Y-50730264D01*
X177620828Y-50790602D01*
X177620817Y-50790608D01*
X177569511Y-50824890D01*
X177502833Y-50845767D01*
X177451145Y-50833065D01*
X177450665Y-50834353D01*
X177307506Y-50780958D01*
X177307507Y-50780958D01*
X177247907Y-50774551D01*
X177247905Y-50774550D01*
X177247897Y-50774550D01*
X177247888Y-50774550D01*
X175752105Y-50774550D01*
X175752099Y-50774551D01*
X175692492Y-50780958D01*
X175557647Y-50831252D01*
X175557640Y-50831256D01*
X175442431Y-50917502D01*
X175442428Y-50917505D01*
X175356182Y-51032714D01*
X175356178Y-51032721D01*
X175305884Y-51167567D01*
X175299477Y-51227166D01*
X175299477Y-51227173D01*
X175299476Y-51227185D01*
X175299476Y-51325504D01*
X175279791Y-51392543D01*
X175226987Y-51438298D01*
X175175476Y-51449504D01*
X173324521Y-51449504D01*
X173257482Y-51429819D01*
X173211727Y-51377015D01*
X173200521Y-51325504D01*
X173200521Y-51227179D01*
X173200520Y-51227173D01*
X173200519Y-51227166D01*
X173194113Y-51167567D01*
X173176675Y-51120814D01*
X173143819Y-51032721D01*
X173143815Y-51032714D01*
X173057569Y-50917505D01*
X173057566Y-50917502D01*
X172942357Y-50831256D01*
X172942350Y-50831252D01*
X172807504Y-50780958D01*
X172807505Y-50780958D01*
X172747905Y-50774551D01*
X172747903Y-50774550D01*
X172747895Y-50774550D01*
X172747886Y-50774550D01*
X171252103Y-50774550D01*
X171252097Y-50774551D01*
X171192490Y-50780958D01*
X171057645Y-50831252D01*
X171057638Y-50831256D01*
X170942429Y-50917502D01*
X170942426Y-50917505D01*
X170856180Y-51032714D01*
X170856176Y-51032721D01*
X170805882Y-51167567D01*
X170799475Y-51227166D01*
X170799475Y-51227173D01*
X170799474Y-51227185D01*
X164443239Y-51227185D01*
X164240812Y-51207248D01*
X164162143Y-51199500D01*
X163837857Y-51199500D01*
X163765099Y-51206666D01*
X163515142Y-51231284D01*
X163515125Y-51231287D01*
X163197097Y-51294545D01*
X163197086Y-51294548D01*
X162886752Y-51388686D01*
X162587150Y-51512786D01*
X162587145Y-51512788D01*
X162301169Y-51665646D01*
X162301151Y-51665657D01*
X162031532Y-51845811D01*
X162031518Y-51845821D01*
X161780841Y-52051546D01*
X161551546Y-52280841D01*
X161345821Y-52531518D01*
X161345811Y-52531532D01*
X161165657Y-52801151D01*
X161165646Y-52801169D01*
X161012788Y-53087145D01*
X161012786Y-53087150D01*
X160888686Y-53386752D01*
X160794548Y-53697086D01*
X160794545Y-53697097D01*
X160731287Y-54015125D01*
X160731284Y-54015142D01*
X160706666Y-54265099D01*
X160699500Y-54337857D01*
X133559831Y-54337857D01*
X133437281Y-54178148D01*
X133437274Y-54178140D01*
X133251860Y-53992726D01*
X133251851Y-53992718D01*
X133043803Y-53833075D01*
X132816700Y-53701958D01*
X132816690Y-53701953D01*
X132574428Y-53601605D01*
X132574421Y-53601603D01*
X132574419Y-53601602D01*
X132321116Y-53533730D01*
X132263339Y-53526123D01*
X132061127Y-53499500D01*
X132061120Y-53499500D01*
X131798880Y-53499500D01*
X131798872Y-53499500D01*
X131567772Y-53529926D01*
X131538884Y-53533730D01*
X131285581Y-53601602D01*
X131285571Y-53601605D01*
X131043309Y-53701953D01*
X131043299Y-53701958D01*
X130816196Y-53833075D01*
X130608148Y-53992718D01*
X130422718Y-54178148D01*
X130263075Y-54386196D01*
X130131958Y-54613299D01*
X130131953Y-54613309D01*
X130031605Y-54855571D01*
X130031602Y-54855581D01*
X129963730Y-55108885D01*
X129929500Y-55368872D01*
X116767843Y-55368872D01*
X116734722Y-55159755D01*
X116734721Y-55159751D01*
X116734721Y-55159750D01*
X116664049Y-54942244D01*
X116560216Y-54738461D01*
X116427472Y-54555755D01*
X116403994Y-54489953D01*
X116419819Y-54421899D01*
X116469925Y-54373204D01*
X116484455Y-54366692D01*
X116512331Y-54356296D01*
X116627546Y-54270046D01*
X116713796Y-54154831D01*
X116764091Y-54019983D01*
X116770500Y-53960373D01*
X116770499Y-51959628D01*
X116764091Y-51900017D01*
X116756321Y-51879185D01*
X116713797Y-51765171D01*
X116713793Y-51765164D01*
X116627547Y-51649955D01*
X116627544Y-51649952D01*
X116512335Y-51563706D01*
X116512328Y-51563702D01*
X116377482Y-51513408D01*
X116377483Y-51513408D01*
X116317883Y-51507001D01*
X116317881Y-51507000D01*
X116317873Y-51507000D01*
X116317864Y-51507000D01*
X114222129Y-51507000D01*
X114222123Y-51507001D01*
X114162516Y-51513408D01*
X114027671Y-51563702D01*
X114027664Y-51563706D01*
X113912455Y-51649952D01*
X113912452Y-51649955D01*
X113826206Y-51765164D01*
X113826202Y-51765171D01*
X113775908Y-51900017D01*
X113769501Y-51959616D01*
X113769501Y-51959623D01*
X113769500Y-51959635D01*
X113769500Y-53347769D01*
X113749815Y-53414808D01*
X113733181Y-53435450D01*
X112512181Y-54656450D01*
X112450858Y-54689935D01*
X112381166Y-54684951D01*
X112325233Y-54643079D01*
X112300816Y-54577615D01*
X112300500Y-54568769D01*
X112300500Y-54337860D01*
X112295544Y-54287545D01*
X112268714Y-54015132D01*
X112226757Y-53804199D01*
X112205454Y-53697097D01*
X112205451Y-53697086D01*
X112205450Y-53697083D01*
X112205449Y-53697077D01*
X112111314Y-53386754D01*
X111987215Y-53087153D01*
X111976597Y-53067289D01*
X111834353Y-52801169D01*
X111834352Y-52801167D01*
X111834347Y-52801158D01*
X111654183Y-52531524D01*
X111448458Y-52280847D01*
X111448457Y-52280846D01*
X111448453Y-52280841D01*
X111219158Y-52051546D01*
X110968481Y-51845821D01*
X110968480Y-51845820D01*
X110968476Y-51845817D01*
X110698842Y-51665653D01*
X110698837Y-51665650D01*
X110698830Y-51665646D01*
X110412854Y-51512788D01*
X110412849Y-51512786D01*
X110398880Y-51507000D01*
X110325098Y-51476438D01*
X110113247Y-51388686D01*
X109802913Y-51294548D01*
X109802902Y-51294545D01*
X109484874Y-51231287D01*
X109484857Y-51231284D01*
X109240812Y-51207248D01*
X109162143Y-51199500D01*
X108837857Y-51199500D01*
X108765099Y-51206666D01*
X108515142Y-51231284D01*
X108515125Y-51231287D01*
X108197097Y-51294545D01*
X108197086Y-51294548D01*
X107886752Y-51388686D01*
X107587150Y-51512786D01*
X107587145Y-51512788D01*
X107301169Y-51665646D01*
X107301151Y-51665657D01*
X107031532Y-51845811D01*
X107031518Y-51845821D01*
X106780841Y-52051546D01*
X106551546Y-52280841D01*
X106345821Y-52531518D01*
X106345811Y-52531532D01*
X106165657Y-52801151D01*
X106165646Y-52801169D01*
X106012788Y-53087145D01*
X106012786Y-53087150D01*
X105888686Y-53386752D01*
X105794548Y-53697086D01*
X105794545Y-53697097D01*
X105731287Y-54015125D01*
X105731284Y-54015142D01*
X105706666Y-54265099D01*
X105699500Y-54337857D01*
X105699500Y-54662143D01*
X105707017Y-54738461D01*
X105731284Y-54984857D01*
X105731287Y-54984874D01*
X105794545Y-55302902D01*
X105794548Y-55302913D01*
X105888686Y-55613247D01*
X106012786Y-55912849D01*
X106012788Y-55912854D01*
X106165646Y-56198830D01*
X106165657Y-56198848D01*
X106345811Y-56468467D01*
X106345821Y-56468481D01*
X106551546Y-56719158D01*
X106780841Y-56948453D01*
X106780846Y-56948457D01*
X106780847Y-56948458D01*
X107031524Y-57154183D01*
X107301158Y-57334347D01*
X107301167Y-57334352D01*
X107301169Y-57334353D01*
X107587145Y-57487211D01*
X107587147Y-57487211D01*
X107587153Y-57487215D01*
X107886754Y-57611314D01*
X108197077Y-57705449D01*
X108197083Y-57705450D01*
X108197086Y-57705451D01*
X108197097Y-57705454D01*
X108396528Y-57745122D01*
X108515132Y-57768714D01*
X108837857Y-57800500D01*
X108837860Y-57800500D01*
X109068770Y-57800500D01*
X109135809Y-57820185D01*
X109181564Y-57872989D01*
X109191508Y-57942147D01*
X109162483Y-58005703D01*
X109156451Y-58012181D01*
X104780451Y-62388181D01*
X104719128Y-62421666D01*
X104692770Y-62424500D01*
X102965862Y-62424500D01*
X102898823Y-62404815D01*
X102891651Y-62399842D01*
X102249607Y-61920217D01*
X102207680Y-61864325D01*
X102203576Y-61851173D01*
X102184051Y-61773684D01*
X102089472Y-61565464D01*
X102089471Y-61565462D01*
X102089468Y-61565456D01*
X101959240Y-61377485D01*
X101959237Y-61377481D01*
X101959234Y-61377477D01*
X101797523Y-61215766D01*
X101797519Y-61215763D01*
X101797514Y-61215759D01*
X101609543Y-61085531D01*
X101609537Y-61085528D01*
X101505426Y-61038238D01*
X101401316Y-60990949D01*
X101179553Y-60935070D01*
X101045247Y-60924500D01*
X101045245Y-60924500D01*
X98954761Y-60924500D01*
X98954746Y-60924501D01*
X98820447Y-60935070D01*
X98598684Y-60990949D01*
X98390462Y-61085528D01*
X98390456Y-61085531D01*
X98202485Y-61215759D01*
X98202473Y-61215769D01*
X98040769Y-61377473D01*
X98040759Y-61377485D01*
X97910531Y-61565456D01*
X97910528Y-61565462D01*
X97815949Y-61773684D01*
X97760070Y-61995447D01*
X97749500Y-62129747D01*
X97749500Y-64220238D01*
X97749501Y-64220253D01*
X97752602Y-64259653D01*
X97760070Y-64354553D01*
X97815949Y-64576316D01*
X97863238Y-64680426D01*
X97910528Y-64784537D01*
X97910531Y-64784543D01*
X98040759Y-64972514D01*
X98040763Y-64972519D01*
X98040766Y-64972523D01*
X98202477Y-65134234D01*
X98202481Y-65134237D01*
X98202485Y-65134240D01*
X98390456Y-65264468D01*
X98390462Y-65264471D01*
X98390463Y-65264471D01*
X98390464Y-65264472D01*
X98598684Y-65359051D01*
X98820447Y-65414930D01*
X98954753Y-65425500D01*
X101045246Y-65425499D01*
X101179553Y-65414930D01*
X101401316Y-65359051D01*
X101413224Y-65353641D01*
X101428448Y-65348462D01*
X101428301Y-65347988D01*
X101432527Y-65346674D01*
X101432531Y-65346674D01*
X102072649Y-65147759D01*
X102142509Y-65146665D01*
X102197126Y-65178494D01*
X108129824Y-71111192D01*
X108163309Y-71172515D01*
X108164616Y-71218271D01*
X108149500Y-71313707D01*
X108149500Y-71313713D01*
X108149500Y-71526287D01*
X108156346Y-71569512D01*
X108182090Y-71732055D01*
X108182754Y-71736243D01*
X108241883Y-71918223D01*
X108248444Y-71938414D01*
X108344951Y-72127820D01*
X108469890Y-72299786D01*
X108620213Y-72450109D01*
X108792182Y-72575050D01*
X108800946Y-72579516D01*
X108851742Y-72627491D01*
X108868536Y-72695312D01*
X108845998Y-72761447D01*
X108800946Y-72800484D01*
X108792182Y-72804949D01*
X108620213Y-72929890D01*
X108469890Y-73080213D01*
X108344951Y-73252179D01*
X108248444Y-73441585D01*
X108182753Y-73643760D01*
X108149500Y-73853713D01*
X108149500Y-74066286D01*
X108180442Y-74261650D01*
X108182754Y-74276243D01*
X108233188Y-74431463D01*
X108248444Y-74478414D01*
X108344951Y-74667820D01*
X108469890Y-74839786D01*
X108620213Y-74990109D01*
X108792179Y-75115048D01*
X108792181Y-75115049D01*
X108792184Y-75115051D01*
X108981588Y-75211557D01*
X109183757Y-75277246D01*
X109393713Y-75310500D01*
X109393714Y-75310500D01*
X109606286Y-75310500D01*
X109606287Y-75310500D01*
X109816243Y-75277246D01*
X110018412Y-75211557D01*
X110207816Y-75115051D01*
X110258646Y-75078121D01*
X110379786Y-74990109D01*
X110379788Y-74990106D01*
X110379792Y-74990104D01*
X110530104Y-74839792D01*
X110530106Y-74839788D01*
X110530109Y-74839786D01*
X110655048Y-74667820D01*
X110655047Y-74667820D01*
X110655051Y-74667816D01*
X110751557Y-74478412D01*
X110817246Y-74276243D01*
X110850500Y-74066287D01*
X110850500Y-73853713D01*
X110817246Y-73643757D01*
X110803506Y-73601473D01*
X110801512Y-73531635D01*
X110833755Y-73475478D01*
X112461416Y-71847819D01*
X112522739Y-71814334D01*
X112549097Y-71811500D01*
X113025303Y-71811500D01*
X113092342Y-71831185D01*
X113138097Y-71883989D01*
X113148041Y-71953147D01*
X113135788Y-71991795D01*
X113054781Y-72150776D01*
X112991522Y-72345465D01*
X112971043Y-72474767D01*
X112959500Y-72547648D01*
X112959500Y-72752352D01*
X112967831Y-72804949D01*
X112991523Y-72954535D01*
X112996172Y-72968845D01*
X112998165Y-73038687D01*
X112965921Y-73094841D01*
X111631286Y-74429478D01*
X111519481Y-74541282D01*
X111519475Y-74541290D01*
X111484223Y-74602350D01*
X111484223Y-74602351D01*
X111440424Y-74678211D01*
X111440423Y-74678212D01*
X111431628Y-74711036D01*
X111399499Y-74830943D01*
X111399499Y-74830945D01*
X111399499Y-74999046D01*
X111399500Y-74999059D01*
X111399500Y-80699902D01*
X111379815Y-80766941D01*
X111363181Y-80787583D01*
X110089584Y-82061181D01*
X110028261Y-82094666D01*
X110001903Y-82097500D01*
X106300098Y-82097500D01*
X106233059Y-82077815D01*
X106212417Y-82061181D01*
X103636819Y-79485583D01*
X103603334Y-79424260D01*
X103600500Y-79397902D01*
X103600500Y-78142135D01*
X108149500Y-78142135D01*
X108149500Y-79937870D01*
X108149501Y-79937876D01*
X108155908Y-79997483D01*
X108206202Y-80132328D01*
X108206206Y-80132335D01*
X108292452Y-80247544D01*
X108292455Y-80247547D01*
X108407664Y-80333793D01*
X108407671Y-80333797D01*
X108542517Y-80384091D01*
X108542516Y-80384091D01*
X108549444Y-80384835D01*
X108602127Y-80390500D01*
X110397872Y-80390499D01*
X110457483Y-80384091D01*
X110592331Y-80333796D01*
X110707546Y-80247546D01*
X110793796Y-80132331D01*
X110844091Y-79997483D01*
X110850500Y-79937873D01*
X110850499Y-78142128D01*
X110844091Y-78082517D01*
X110838767Y-78068243D01*
X110793797Y-77947671D01*
X110793793Y-77947664D01*
X110707547Y-77832455D01*
X110707544Y-77832452D01*
X110592335Y-77746206D01*
X110592328Y-77746202D01*
X110457482Y-77695908D01*
X110457483Y-77695908D01*
X110397883Y-77689501D01*
X110397881Y-77689500D01*
X110397873Y-77689500D01*
X110397864Y-77689500D01*
X108602129Y-77689500D01*
X108602123Y-77689501D01*
X108542516Y-77695908D01*
X108407671Y-77746202D01*
X108407664Y-77746206D01*
X108292455Y-77832452D01*
X108292452Y-77832455D01*
X108206206Y-77947664D01*
X108206202Y-77947671D01*
X108155908Y-78082517D01*
X108149501Y-78142116D01*
X108149501Y-78142123D01*
X108149500Y-78142135D01*
X103600500Y-78142135D01*
X103600500Y-74349060D01*
X103600501Y-74349047D01*
X103600501Y-74180944D01*
X103583661Y-74118097D01*
X103559577Y-74028216D01*
X103537207Y-73989469D01*
X103480524Y-73891290D01*
X103480518Y-73891282D01*
X102441020Y-72851784D01*
X101333756Y-71744521D01*
X101300272Y-71683199D01*
X101303507Y-71618523D01*
X101317246Y-71576243D01*
X101350500Y-71366287D01*
X101350500Y-71153713D01*
X101317246Y-70943757D01*
X101251557Y-70741588D01*
X101155051Y-70552184D01*
X101155049Y-70552181D01*
X101155048Y-70552179D01*
X101030109Y-70380213D01*
X100879786Y-70229890D01*
X100707820Y-70104951D01*
X100518414Y-70008444D01*
X100518413Y-70008443D01*
X100518412Y-70008443D01*
X100316243Y-69942754D01*
X100316241Y-69942753D01*
X100316240Y-69942753D01*
X100154957Y-69917208D01*
X100106287Y-69909500D01*
X99893713Y-69909500D01*
X99845042Y-69917208D01*
X99683760Y-69942753D01*
X99481585Y-70008444D01*
X99292179Y-70104951D01*
X99120215Y-70229889D01*
X99006673Y-70343431D01*
X98945350Y-70376915D01*
X98875658Y-70371931D01*
X98819725Y-70330059D01*
X98802810Y-70299082D01*
X98753797Y-70167671D01*
X98753793Y-70167664D01*
X98667547Y-70052455D01*
X98667544Y-70052452D01*
X98552335Y-69966206D01*
X98552328Y-69966202D01*
X98417482Y-69915908D01*
X98417483Y-69915908D01*
X98357883Y-69909501D01*
X98357881Y-69909500D01*
X98357873Y-69909500D01*
X98357864Y-69909500D01*
X96562129Y-69909500D01*
X96562123Y-69909501D01*
X96502516Y-69915908D01*
X96367671Y-69966202D01*
X96367664Y-69966206D01*
X96252455Y-70052452D01*
X96252452Y-70052455D01*
X96166206Y-70167664D01*
X96166202Y-70167671D01*
X96115908Y-70302517D01*
X96109501Y-70362116D01*
X96109500Y-70362135D01*
X96109500Y-72157870D01*
X96109501Y-72157876D01*
X96115908Y-72217483D01*
X96166202Y-72352328D01*
X96166206Y-72352335D01*
X96252452Y-72467544D01*
X96252455Y-72467547D01*
X96367664Y-72553793D01*
X96367671Y-72553797D01*
X96499082Y-72602810D01*
X96555016Y-72644681D01*
X96579433Y-72710145D01*
X96564582Y-72778418D01*
X96543431Y-72806673D01*
X96429889Y-72920215D01*
X96304951Y-73092179D01*
X96208444Y-73281585D01*
X96142753Y-73483760D01*
X96109762Y-73692058D01*
X96109500Y-73693713D01*
X96109500Y-73906287D01*
X96112513Y-73925311D01*
X96142753Y-74116239D01*
X96142753Y-74116241D01*
X96142754Y-74116243D01*
X96197431Y-74284522D01*
X96208444Y-74318414D01*
X96304951Y-74507820D01*
X96429890Y-74679786D01*
X96580213Y-74830109D01*
X96752182Y-74955050D01*
X96760946Y-74959516D01*
X96811742Y-75007491D01*
X96828536Y-75075312D01*
X96805998Y-75141447D01*
X96760946Y-75180484D01*
X96752182Y-75184949D01*
X96580213Y-75309890D01*
X96429890Y-75460213D01*
X96304951Y-75632179D01*
X96208444Y-75821585D01*
X96142753Y-76023760D01*
X96109500Y-76233713D01*
X96109500Y-76446286D01*
X96142753Y-76656239D01*
X96208444Y-76858414D01*
X96304951Y-77047820D01*
X96429890Y-77219786D01*
X96580213Y-77370109D01*
X96752182Y-77495050D01*
X96760946Y-77499516D01*
X96811742Y-77547491D01*
X96828536Y-77615312D01*
X96805998Y-77681447D01*
X96760946Y-77720484D01*
X96752182Y-77724949D01*
X96580213Y-77849890D01*
X96429890Y-78000213D01*
X96304951Y-78172179D01*
X96208444Y-78361585D01*
X96208443Y-78361587D01*
X96208443Y-78361588D01*
X96185277Y-78432884D01*
X96142753Y-78563760D01*
X96109500Y-78773713D01*
X96109500Y-78986286D01*
X96136651Y-79157715D01*
X96142754Y-79196243D01*
X96208277Y-79397902D01*
X96208444Y-79398414D01*
X96304951Y-79587820D01*
X96429890Y-79759786D01*
X96580213Y-79910109D01*
X96752182Y-80035050D01*
X96760946Y-80039516D01*
X96811742Y-80087491D01*
X96828536Y-80155312D01*
X96805998Y-80221447D01*
X96760946Y-80260484D01*
X96752182Y-80264949D01*
X96580213Y-80389890D01*
X96429890Y-80540213D01*
X96304951Y-80712179D01*
X96208444Y-80901585D01*
X96142753Y-81103760D01*
X96117696Y-81261965D01*
X96109500Y-81313713D01*
X96109500Y-81526287D01*
X96111431Y-81538477D01*
X96142753Y-81736239D01*
X96208444Y-81938414D01*
X96304951Y-82127820D01*
X96429890Y-82299786D01*
X96580213Y-82450109D01*
X96752182Y-82575050D01*
X96760946Y-82579516D01*
X96811742Y-82627491D01*
X96828536Y-82695312D01*
X96805998Y-82761447D01*
X96760946Y-82800484D01*
X96752182Y-82804949D01*
X96580213Y-82929890D01*
X96429890Y-83080213D01*
X96304951Y-83252179D01*
X96208444Y-83441585D01*
X96208443Y-83441587D01*
X96208443Y-83441588D01*
X96190000Y-83498349D01*
X96142753Y-83643760D01*
X96109500Y-83853713D01*
X96109500Y-84066286D01*
X96138461Y-84249142D01*
X96142754Y-84276243D01*
X96143356Y-84278097D01*
X96208444Y-84478414D01*
X96304951Y-84667820D01*
X96429890Y-84839786D01*
X96580213Y-84990109D01*
X96752179Y-85115048D01*
X96752181Y-85115049D01*
X96752184Y-85115051D01*
X96941588Y-85211557D01*
X97143757Y-85277246D01*
X97353713Y-85310500D01*
X97353714Y-85310500D01*
X97566286Y-85310500D01*
X97566287Y-85310500D01*
X97776243Y-85277246D01*
X97978412Y-85211557D01*
X98167816Y-85115051D01*
X98206655Y-85086833D01*
X98339786Y-84990109D01*
X98339788Y-84990106D01*
X98339792Y-84990104D01*
X98490104Y-84839792D01*
X98490106Y-84839788D01*
X98490109Y-84839786D01*
X98615048Y-84667820D01*
X98615047Y-84667820D01*
X98615051Y-84667816D01*
X98619514Y-84659054D01*
X98667488Y-84608259D01*
X98735308Y-84591463D01*
X98801444Y-84613999D01*
X98840486Y-84659056D01*
X98844951Y-84667820D01*
X98969890Y-84839786D01*
X99120213Y-84990109D01*
X99292182Y-85115050D01*
X99300946Y-85119516D01*
X99351742Y-85167491D01*
X99368536Y-85235312D01*
X99345998Y-85301447D01*
X99300946Y-85340484D01*
X99292182Y-85344949D01*
X99120213Y-85469890D01*
X98969890Y-85620213D01*
X98844951Y-85792179D01*
X98748444Y-85981585D01*
X98682753Y-86183760D01*
X98649500Y-86393713D01*
X98649500Y-86606286D01*
X98681084Y-86805703D01*
X98682754Y-86816243D01*
X98707001Y-86890868D01*
X98748444Y-87018414D01*
X98844951Y-87207820D01*
X98969890Y-87379786D01*
X99120213Y-87530109D01*
X99292182Y-87655050D01*
X99300946Y-87659516D01*
X99351742Y-87707491D01*
X99368536Y-87775312D01*
X99345998Y-87841447D01*
X99300946Y-87880484D01*
X99292182Y-87884949D01*
X99120213Y-88009890D01*
X98969890Y-88160213D01*
X98844949Y-88332182D01*
X98840484Y-88340946D01*
X98792509Y-88391742D01*
X98724688Y-88408536D01*
X98658553Y-88385998D01*
X98619516Y-88340946D01*
X98615050Y-88332182D01*
X98490109Y-88160213D01*
X98339786Y-88009890D01*
X98167820Y-87884951D01*
X97978414Y-87788444D01*
X97978413Y-87788443D01*
X97978412Y-87788443D01*
X97776243Y-87722754D01*
X97776241Y-87722753D01*
X97776240Y-87722753D01*
X97614957Y-87697208D01*
X97566287Y-87689500D01*
X97353713Y-87689500D01*
X97305042Y-87697208D01*
X97143760Y-87722753D01*
X96941585Y-87788444D01*
X96752179Y-87884951D01*
X96580213Y-88009890D01*
X96429890Y-88160213D01*
X96304951Y-88332179D01*
X96208444Y-88521585D01*
X96142753Y-88723760D01*
X96109500Y-88933713D01*
X96109500Y-89146286D01*
X96136651Y-89317715D01*
X96142754Y-89356243D01*
X96156486Y-89398507D01*
X96208444Y-89558414D01*
X96304951Y-89747820D01*
X96429890Y-89919786D01*
X96580213Y-90070109D01*
X96752179Y-90195048D01*
X96752181Y-90195049D01*
X96752184Y-90195051D01*
X96941588Y-90291557D01*
X97143757Y-90357246D01*
X97353713Y-90390500D01*
X97353714Y-90390500D01*
X97566286Y-90390500D01*
X97566287Y-90390500D01*
X97776243Y-90357246D01*
X97978412Y-90291557D01*
X98167816Y-90195051D01*
X98263584Y-90125472D01*
X98339786Y-90070109D01*
X98339788Y-90070106D01*
X98339792Y-90070104D01*
X98490104Y-89919792D01*
X98490106Y-89919788D01*
X98490109Y-89919786D01*
X98615048Y-89747820D01*
X98615047Y-89747820D01*
X98615051Y-89747816D01*
X98619514Y-89739054D01*
X98667488Y-89688259D01*
X98735308Y-89671463D01*
X98801444Y-89693999D01*
X98840486Y-89739056D01*
X98844951Y-89747820D01*
X98969890Y-89919786D01*
X99120213Y-90070109D01*
X99292179Y-90195048D01*
X99292181Y-90195049D01*
X99292184Y-90195051D01*
X99481588Y-90291557D01*
X99683757Y-90357246D01*
X99893713Y-90390500D01*
X99893714Y-90390500D01*
X100106286Y-90390500D01*
X100106287Y-90390500D01*
X100316243Y-90357246D01*
X100518412Y-90291557D01*
X100707816Y-90195051D01*
X100803584Y-90125472D01*
X100879786Y-90070109D01*
X100879788Y-90070106D01*
X100879792Y-90070104D01*
X101030104Y-89919792D01*
X101030106Y-89919788D01*
X101030109Y-89919786D01*
X101088661Y-89839193D01*
X101155051Y-89747816D01*
X101155349Y-89747230D01*
X101175235Y-89708205D01*
X101185683Y-89697142D01*
X101192006Y-89683297D01*
X101209187Y-89672255D01*
X101223209Y-89657409D01*
X101238888Y-89653167D01*
X101250784Y-89645523D01*
X101285719Y-89640500D01*
X101373331Y-89640500D01*
X101373347Y-89640501D01*
X101380943Y-89640501D01*
X101539054Y-89640501D01*
X101539057Y-89640501D01*
X101691785Y-89599577D01*
X101741904Y-89570639D01*
X101828716Y-89520520D01*
X101940520Y-89408716D01*
X101940520Y-89408714D01*
X101950728Y-89398507D01*
X101950729Y-89398504D01*
X104712416Y-86636819D01*
X104773739Y-86603334D01*
X104800097Y-86600500D01*
X106989893Y-86600500D01*
X107056932Y-86620185D01*
X107102687Y-86672989D01*
X107112631Y-86742147D01*
X107083606Y-86805703D01*
X107058784Y-86827602D01*
X107031532Y-86845810D01*
X107031518Y-86845821D01*
X106780841Y-87051546D01*
X106551546Y-87280841D01*
X106345821Y-87531518D01*
X106345811Y-87531532D01*
X106165657Y-87801151D01*
X106165646Y-87801169D01*
X106012788Y-88087145D01*
X106012786Y-88087150D01*
X105888686Y-88386752D01*
X105794548Y-88697086D01*
X105794545Y-88697097D01*
X105731287Y-89015125D01*
X105731284Y-89015142D01*
X105716494Y-89165311D01*
X105699500Y-89337857D01*
X105699500Y-89662143D01*
X105702638Y-89693999D01*
X105731284Y-89984857D01*
X105731287Y-89984874D01*
X105794545Y-90302902D01*
X105794548Y-90302913D01*
X105888686Y-90613247D01*
X106012786Y-90912849D01*
X106012788Y-90912854D01*
X106165646Y-91198830D01*
X106165657Y-91198848D01*
X106345811Y-91468467D01*
X106345821Y-91468481D01*
X106551546Y-91719158D01*
X106780841Y-91948453D01*
X106780846Y-91948457D01*
X106780847Y-91948458D01*
X107031524Y-92154183D01*
X107301158Y-92334347D01*
X107301167Y-92334352D01*
X107301169Y-92334353D01*
X107587145Y-92487211D01*
X107587147Y-92487211D01*
X107587153Y-92487215D01*
X107886754Y-92611314D01*
X108197077Y-92705449D01*
X108197083Y-92705450D01*
X108197086Y-92705451D01*
X108197097Y-92705454D01*
X108396528Y-92745122D01*
X108515132Y-92768714D01*
X108837857Y-92800500D01*
X108837860Y-92800500D01*
X109162140Y-92800500D01*
X109162143Y-92800500D01*
X109484868Y-92768714D01*
X109661896Y-92733501D01*
X109802902Y-92705454D01*
X109802913Y-92705451D01*
X109802913Y-92705450D01*
X109802923Y-92705449D01*
X110113246Y-92611314D01*
X110412847Y-92487215D01*
X110698842Y-92334347D01*
X110968476Y-92154183D01*
X111219153Y-91948458D01*
X111448458Y-91719153D01*
X111654183Y-91468476D01*
X111834347Y-91198842D01*
X111987215Y-90912847D01*
X112111314Y-90613246D01*
X112205449Y-90302923D01*
X112205451Y-90302913D01*
X112205454Y-90302902D01*
X112240747Y-90125466D01*
X112268714Y-89984868D01*
X112300500Y-89662143D01*
X112300500Y-89337857D01*
X112268714Y-89015132D01*
X112238527Y-88863371D01*
X112244754Y-88793781D01*
X112287617Y-88738603D01*
X112353507Y-88715359D01*
X112421504Y-88731427D01*
X112447825Y-88751500D01*
X113197806Y-89501481D01*
X113231291Y-89562804D01*
X113226307Y-89632496D01*
X113210444Y-89662047D01*
X113147712Y-89748390D01*
X113054781Y-89930776D01*
X112991522Y-90125465D01*
X112959500Y-90327648D01*
X112959500Y-90532351D01*
X112991522Y-90734534D01*
X113054781Y-90929223D01*
X113147715Y-91111613D01*
X113268028Y-91277213D01*
X113412786Y-91421971D01*
X113567749Y-91534556D01*
X113578390Y-91542287D01*
X113659138Y-91583430D01*
X113671080Y-91589515D01*
X113721876Y-91637490D01*
X113738671Y-91705311D01*
X113716134Y-91771446D01*
X113671080Y-91810485D01*
X113578386Y-91857715D01*
X113412786Y-91978028D01*
X113268028Y-92122786D01*
X113147715Y-92288386D01*
X113054781Y-92470776D01*
X112991522Y-92665465D01*
X112959500Y-92867648D01*
X112959500Y-93072351D01*
X112991522Y-93274534D01*
X113054781Y-93469223D01*
X113147715Y-93651613D01*
X113257423Y-93802615D01*
X113280903Y-93868421D01*
X113265077Y-93936475D01*
X113214971Y-93985170D01*
X113157105Y-93999500D01*
X91124500Y-93999500D01*
X91057461Y-93979815D01*
X91011706Y-93927011D01*
X91000500Y-93875500D01*
X91000500Y-63027486D01*
X92749500Y-63027486D01*
X92749500Y-63322513D01*
X92780804Y-63560284D01*
X92788007Y-63614993D01*
X92863479Y-63896659D01*
X92864361Y-63899951D01*
X92864364Y-63899961D01*
X92977254Y-64172500D01*
X92977258Y-64172510D01*
X93124761Y-64427993D01*
X93304352Y-64662040D01*
X93304358Y-64662047D01*
X93512952Y-64870641D01*
X93512959Y-64870647D01*
X93747006Y-65050238D01*
X94002489Y-65197741D01*
X94002490Y-65197741D01*
X94002493Y-65197743D01*
X94275048Y-65310639D01*
X94560007Y-65386993D01*
X94838415Y-65423646D01*
X94852478Y-65425498D01*
X94852494Y-65425500D01*
X94852501Y-65425500D01*
X95147499Y-65425500D01*
X95147506Y-65425500D01*
X95439993Y-65386993D01*
X95724952Y-65310639D01*
X95997507Y-65197743D01*
X96252994Y-65050238D01*
X96487042Y-64870646D01*
X96695646Y-64662042D01*
X96875238Y-64427994D01*
X97022743Y-64172507D01*
X97135639Y-63899952D01*
X97211993Y-63614993D01*
X97250500Y-63322506D01*
X97250500Y-63027494D01*
X97211993Y-62735007D01*
X97135639Y-62450048D01*
X97022743Y-62177493D01*
X96995180Y-62129753D01*
X96875238Y-61922006D01*
X96695647Y-61687959D01*
X96695641Y-61687952D01*
X96487047Y-61479358D01*
X96487040Y-61479352D01*
X96252993Y-61299761D01*
X95997510Y-61152258D01*
X95997500Y-61152254D01*
X95724961Y-61039364D01*
X95724954Y-61039362D01*
X95724952Y-61039361D01*
X95439993Y-60963007D01*
X95391113Y-60956571D01*
X95147513Y-60924500D01*
X95147506Y-60924500D01*
X94852494Y-60924500D01*
X94852486Y-60924500D01*
X94574085Y-60961153D01*
X94560007Y-60963007D01*
X94275048Y-61039361D01*
X94275038Y-61039364D01*
X94002499Y-61152254D01*
X94002489Y-61152258D01*
X93747006Y-61299761D01*
X93512959Y-61479352D01*
X93512952Y-61479358D01*
X93304358Y-61687952D01*
X93304352Y-61687959D01*
X93124761Y-61922006D01*
X92977258Y-62177489D01*
X92977254Y-62177499D01*
X92864364Y-62450038D01*
X92864361Y-62450048D01*
X92788008Y-62735004D01*
X92788006Y-62735015D01*
X92749500Y-63027486D01*
X91000500Y-63027486D01*
X91000500Y-54172625D01*
X91020185Y-54105586D01*
X91072989Y-54059831D01*
X91142147Y-54049887D01*
X91205703Y-54078912D01*
X91212181Y-54084944D01*
X91217927Y-54090690D01*
X91370801Y-54201760D01*
X91450347Y-54242290D01*
X91539163Y-54287545D01*
X91539165Y-54287545D01*
X91539168Y-54287547D01*
X91635497Y-54318846D01*
X91718881Y-54345940D01*
X91905514Y-54375500D01*
X91905519Y-54375500D01*
X92094486Y-54375500D01*
X92281118Y-54345940D01*
X92460832Y-54287547D01*
X92629199Y-54201760D01*
X92782073Y-54090690D01*
X92915690Y-53957073D01*
X93026760Y-53804199D01*
X93112547Y-53635832D01*
X93170940Y-53456118D01*
X93200500Y-53269486D01*
X93200500Y-53080513D01*
X101799500Y-53080513D01*
X101799500Y-53269486D01*
X101829059Y-53456118D01*
X101887454Y-53635836D01*
X101973240Y-53804199D01*
X102084310Y-53957073D01*
X102217927Y-54090690D01*
X102370801Y-54201760D01*
X102450347Y-54242290D01*
X102539163Y-54287545D01*
X102539165Y-54287545D01*
X102539168Y-54287547D01*
X102635497Y-54318846D01*
X102718881Y-54345940D01*
X102905514Y-54375500D01*
X102905519Y-54375500D01*
X103094486Y-54375500D01*
X103281118Y-54345940D01*
X103460832Y-54287547D01*
X103629199Y-54201760D01*
X103782073Y-54090690D01*
X103915690Y-53957073D01*
X104026760Y-53804199D01*
X104112547Y-53635832D01*
X104170940Y-53456118D01*
X104200500Y-53269486D01*
X104200500Y-53080513D01*
X104170940Y-52893881D01*
X104143846Y-52810497D01*
X104112547Y-52714168D01*
X104112545Y-52714165D01*
X104112545Y-52714163D01*
X104026759Y-52545800D01*
X104016387Y-52531524D01*
X103915690Y-52392927D01*
X103782073Y-52259310D01*
X103629199Y-52148240D01*
X103577286Y-52121789D01*
X103460836Y-52062454D01*
X103281118Y-52004059D01*
X103094486Y-51974500D01*
X103094481Y-51974500D01*
X102905519Y-51974500D01*
X102905514Y-51974500D01*
X102718881Y-52004059D01*
X102539163Y-52062454D01*
X102370800Y-52148240D01*
X102286636Y-52209390D01*
X102217927Y-52259310D01*
X102217925Y-52259312D01*
X102217924Y-52259312D01*
X102084312Y-52392924D01*
X102084312Y-52392925D01*
X102084310Y-52392927D01*
X102073572Y-52407707D01*
X101973240Y-52545800D01*
X101887454Y-52714163D01*
X101829059Y-52893881D01*
X101799500Y-53080513D01*
X93200500Y-53080513D01*
X93170940Y-52893881D01*
X93143846Y-52810497D01*
X93112547Y-52714168D01*
X93112545Y-52714165D01*
X93112545Y-52714163D01*
X93026759Y-52545800D01*
X93016387Y-52531524D01*
X92915690Y-52392927D01*
X92782073Y-52259310D01*
X92629199Y-52148240D01*
X92577286Y-52121789D01*
X92460836Y-52062454D01*
X92281118Y-52004059D01*
X92094486Y-51974500D01*
X92094481Y-51974500D01*
X91905519Y-51974500D01*
X91905514Y-51974500D01*
X91718881Y-52004059D01*
X91539163Y-52062454D01*
X91370800Y-52148240D01*
X91286636Y-52209390D01*
X91217927Y-52259310D01*
X91217925Y-52259312D01*
X91217924Y-52259312D01*
X91212181Y-52265056D01*
X91150858Y-52298541D01*
X91081166Y-52293557D01*
X91025233Y-52251685D01*
X91000816Y-52186221D01*
X91000500Y-52177375D01*
X91000500Y-50124500D01*
X91020185Y-50057461D01*
X91072989Y-50011706D01*
X91124500Y-50000500D01*
X184875500Y-50000500D01*
X184942539Y-50020185D01*
G37*
%TD.AperFunction*%
%TA.AperFunction,Conductor*%
G36*
X163163992Y-61620185D02*
G01*
X163184634Y-61636819D01*
X165721299Y-64173485D01*
X165754784Y-64234808D01*
X165749800Y-64304500D01*
X165707928Y-64360433D01*
X165689914Y-64371650D01*
X165658388Y-64387713D01*
X165492786Y-64508028D01*
X165348028Y-64652786D01*
X165227715Y-64818386D01*
X165134781Y-65000776D01*
X165071522Y-65195465D01*
X165039500Y-65397648D01*
X165039500Y-65602351D01*
X165071522Y-65804534D01*
X165076173Y-65818848D01*
X165078165Y-65888690D01*
X165045921Y-65944842D01*
X164631286Y-66359478D01*
X164519482Y-66471281D01*
X164519478Y-66471287D01*
X164474322Y-66549500D01*
X164440424Y-66608212D01*
X164440423Y-66608213D01*
X164424911Y-66666104D01*
X164399499Y-66760943D01*
X164399499Y-66760945D01*
X164399499Y-66929046D01*
X164399500Y-66929059D01*
X164399500Y-72184171D01*
X164379815Y-72251210D01*
X164363181Y-72271852D01*
X155974852Y-80660181D01*
X155913529Y-80693666D01*
X155887171Y-80696500D01*
X142952096Y-80696500D01*
X142885057Y-80676815D01*
X142839302Y-80624011D01*
X142829358Y-80554853D01*
X142858383Y-80491297D01*
X142864415Y-80484819D01*
X145364648Y-77984586D01*
X147896437Y-75452796D01*
X147957758Y-75419313D01*
X148022433Y-75422547D01*
X148148632Y-75463553D01*
X148236110Y-75477408D01*
X148381903Y-75500500D01*
X148381908Y-75500500D01*
X148618097Y-75500500D01*
X148851368Y-75463553D01*
X148884468Y-75452798D01*
X149075992Y-75390568D01*
X149286433Y-75283343D01*
X149477510Y-75144517D01*
X149644517Y-74977510D01*
X149669682Y-74942872D01*
X149725011Y-74900207D01*
X149794625Y-74894228D01*
X149856420Y-74926833D01*
X149870315Y-74942870D01*
X149895483Y-74977510D01*
X150062490Y-75144517D01*
X150253567Y-75283343D01*
X150306866Y-75310500D01*
X150464003Y-75390566D01*
X150464005Y-75390566D01*
X150464008Y-75390568D01*
X150543911Y-75416530D01*
X150688631Y-75463553D01*
X150921903Y-75500500D01*
X150921908Y-75500500D01*
X151158097Y-75500500D01*
X151391368Y-75463553D01*
X151424468Y-75452798D01*
X151615992Y-75390568D01*
X151826433Y-75283343D01*
X152017510Y-75144517D01*
X152184517Y-74977510D01*
X152209682Y-74942872D01*
X152265011Y-74900207D01*
X152334625Y-74894228D01*
X152396420Y-74926833D01*
X152410315Y-74942870D01*
X152435483Y-74977510D01*
X152602490Y-75144517D01*
X152793567Y-75283343D01*
X152846866Y-75310500D01*
X153004003Y-75390566D01*
X153004005Y-75390566D01*
X153004008Y-75390568D01*
X153083911Y-75416530D01*
X153228631Y-75463553D01*
X153461903Y-75500500D01*
X153461908Y-75500500D01*
X153698097Y-75500500D01*
X153931368Y-75463553D01*
X153964468Y-75452798D01*
X154155992Y-75390568D01*
X154366433Y-75283343D01*
X154557510Y-75144517D01*
X154724517Y-74977510D01*
X154863343Y-74786433D01*
X154970568Y-74575992D01*
X155043553Y-74351368D01*
X155048773Y-74318412D01*
X155080500Y-74118097D01*
X155080500Y-73881902D01*
X155043553Y-73648631D01*
X154994354Y-73497213D01*
X154970568Y-73424008D01*
X154970566Y-73424005D01*
X154970566Y-73424003D01*
X154914002Y-73312991D01*
X154863343Y-73213567D01*
X154724517Y-73022490D01*
X154557510Y-72855483D01*
X154366433Y-72716657D01*
X154155996Y-72609433D01*
X153931368Y-72536446D01*
X153698097Y-72499500D01*
X153698092Y-72499500D01*
X153461908Y-72499500D01*
X153461903Y-72499500D01*
X153228631Y-72536446D01*
X153004003Y-72609433D01*
X152793566Y-72716657D01*
X152684550Y-72795862D01*
X152602490Y-72855483D01*
X152602488Y-72855485D01*
X152602487Y-72855485D01*
X152435484Y-73022488D01*
X152410318Y-73057127D01*
X152354987Y-73099792D01*
X152285374Y-73105771D01*
X152223579Y-73073165D01*
X152209682Y-73057127D01*
X152198045Y-73041110D01*
X152184517Y-73022490D01*
X152017510Y-72855483D01*
X151826433Y-72716657D01*
X151615996Y-72609433D01*
X151391368Y-72536446D01*
X151158097Y-72499500D01*
X151158092Y-72499500D01*
X150921908Y-72499500D01*
X150921903Y-72499500D01*
X150688631Y-72536446D01*
X150464003Y-72609433D01*
X150253566Y-72716657D01*
X150144550Y-72795862D01*
X150062490Y-72855483D01*
X150062488Y-72855485D01*
X150062487Y-72855485D01*
X149895484Y-73022488D01*
X149870318Y-73057127D01*
X149814987Y-73099792D01*
X149745374Y-73105771D01*
X149683579Y-73073165D01*
X149669682Y-73057127D01*
X149658045Y-73041110D01*
X149644517Y-73022490D01*
X149477510Y-72855483D01*
X149286433Y-72716657D01*
X149075996Y-72609433D01*
X148851368Y-72536446D01*
X148618097Y-72499500D01*
X148618092Y-72499500D01*
X148381908Y-72499500D01*
X148381903Y-72499500D01*
X148148631Y-72536446D01*
X147924003Y-72609433D01*
X147713566Y-72716657D01*
X147604550Y-72795862D01*
X147522490Y-72855483D01*
X147522488Y-72855485D01*
X147522487Y-72855485D01*
X147355484Y-73022488D01*
X147330318Y-73057127D01*
X147274987Y-73099792D01*
X147205374Y-73105771D01*
X147143579Y-73073165D01*
X147129682Y-73057127D01*
X147118045Y-73041110D01*
X147104517Y-73022490D01*
X146937510Y-72855483D01*
X146746433Y-72716657D01*
X146535996Y-72609433D01*
X146311368Y-72536446D01*
X146078097Y-72499500D01*
X146078092Y-72499500D01*
X145841908Y-72499500D01*
X145841903Y-72499500D01*
X145608631Y-72536446D01*
X145384003Y-72609433D01*
X145173566Y-72716657D01*
X145064550Y-72795862D01*
X144982490Y-72855483D01*
X144982488Y-72855485D01*
X144982487Y-72855485D01*
X144815484Y-73022488D01*
X144790318Y-73057127D01*
X144734987Y-73099792D01*
X144665374Y-73105771D01*
X144603579Y-73073165D01*
X144589682Y-73057127D01*
X144578045Y-73041110D01*
X144564517Y-73022490D01*
X144397510Y-72855483D01*
X144206433Y-72716657D01*
X143995996Y-72609433D01*
X143771368Y-72536446D01*
X143538097Y-72499500D01*
X143538092Y-72499500D01*
X143301908Y-72499500D01*
X143301903Y-72499500D01*
X143068628Y-72536447D01*
X142942433Y-72577450D01*
X142872592Y-72579445D01*
X142816435Y-72547200D01*
X133836590Y-63567355D01*
X133836588Y-63567352D01*
X133717717Y-63448481D01*
X133717709Y-63448475D01*
X133623202Y-63393912D01*
X133623200Y-63393911D01*
X133580790Y-63369425D01*
X133580789Y-63369424D01*
X133568263Y-63366067D01*
X133428057Y-63328499D01*
X133269943Y-63328499D01*
X133262347Y-63328499D01*
X133262331Y-63328500D01*
X129130619Y-63328500D01*
X129130603Y-63328499D01*
X129123007Y-63328499D01*
X128964893Y-63328499D01*
X128857537Y-63357265D01*
X128812160Y-63369424D01*
X128812159Y-63369425D01*
X128769750Y-63393911D01*
X128769748Y-63393912D01*
X128675240Y-63448475D01*
X128675232Y-63448481D01*
X128563428Y-63560286D01*
X128034130Y-64089583D01*
X127972807Y-64123068D01*
X127903115Y-64118084D01*
X127858768Y-64089583D01*
X127807213Y-64038028D01*
X127641613Y-63917715D01*
X127641612Y-63917714D01*
X127641610Y-63917713D01*
X127584653Y-63888691D01*
X127459223Y-63824781D01*
X127264534Y-63761522D01*
X127089995Y-63733878D01*
X127062352Y-63729500D01*
X126857648Y-63729500D01*
X126833329Y-63733351D01*
X126655465Y-63761522D01*
X126460776Y-63824781D01*
X126278386Y-63917715D01*
X126112786Y-64038028D01*
X125968028Y-64182786D01*
X125847715Y-64348386D01*
X125754781Y-64530776D01*
X125691522Y-64725465D01*
X125668529Y-64870641D01*
X125659500Y-64927648D01*
X125659500Y-65132352D01*
X125659798Y-65134234D01*
X125691522Y-65334534D01*
X125754781Y-65529223D01*
X125847715Y-65711613D01*
X125968028Y-65877213D01*
X125968034Y-65877219D01*
X126112781Y-66021966D01*
X126278390Y-66142287D01*
X126291793Y-66149116D01*
X126302856Y-66159564D01*
X126316703Y-66165888D01*
X126327744Y-66183068D01*
X126342589Y-66197088D01*
X126346830Y-66212768D01*
X126354477Y-66224666D01*
X126359500Y-66259601D01*
X126359500Y-66500380D01*
X126359499Y-66500398D01*
X126359499Y-66666104D01*
X126359498Y-66666104D01*
X126359499Y-66666107D01*
X126386929Y-66768477D01*
X126400424Y-66818837D01*
X126411323Y-66837714D01*
X126411324Y-66837716D01*
X126479477Y-66955762D01*
X126479481Y-66955767D01*
X126598349Y-67074635D01*
X126598355Y-67074640D01*
X128559582Y-69035868D01*
X128593067Y-69097191D01*
X128588083Y-69166883D01*
X128559584Y-69211229D01*
X128508030Y-69262784D01*
X128387715Y-69428386D01*
X128294781Y-69610776D01*
X128231522Y-69805465D01*
X128199500Y-70007648D01*
X128199500Y-70212351D01*
X128231522Y-70414534D01*
X128294781Y-70609223D01*
X128331667Y-70681614D01*
X128383320Y-70782989D01*
X128387715Y-70791613D01*
X128508028Y-70957213D01*
X128652786Y-71101971D01*
X128794896Y-71205218D01*
X128818390Y-71222287D01*
X128909043Y-71268477D01*
X128911080Y-71269515D01*
X128961876Y-71317490D01*
X128978671Y-71385311D01*
X128956134Y-71451446D01*
X128911080Y-71490485D01*
X128818386Y-71537715D01*
X128652786Y-71658028D01*
X128508028Y-71802786D01*
X128387715Y-71968386D01*
X128294781Y-72150776D01*
X128231522Y-72345465D01*
X128199500Y-72547648D01*
X128199500Y-72752351D01*
X128231522Y-72954534D01*
X128294781Y-73149223D01*
X128336716Y-73231523D01*
X128362225Y-73281588D01*
X128387715Y-73331613D01*
X128508028Y-73497213D01*
X128652786Y-73641971D01*
X128807749Y-73754556D01*
X128818390Y-73762287D01*
X128909840Y-73808883D01*
X128911080Y-73809515D01*
X128961876Y-73857490D01*
X128978671Y-73925311D01*
X128956134Y-73991446D01*
X128911080Y-74030485D01*
X128818386Y-74077715D01*
X128652786Y-74198028D01*
X128508028Y-74342786D01*
X128387715Y-74508386D01*
X128294781Y-74690776D01*
X128231522Y-74885465D01*
X128199500Y-75087648D01*
X128199500Y-75292351D01*
X128231522Y-75494534D01*
X128294781Y-75689223D01*
X128352339Y-75802185D01*
X128380607Y-75857664D01*
X128387715Y-75871613D01*
X128508028Y-76037213D01*
X128652786Y-76181971D01*
X128807749Y-76294556D01*
X128818390Y-76302287D01*
X128876305Y-76331796D01*
X128911080Y-76349515D01*
X128961876Y-76397490D01*
X128978671Y-76465311D01*
X128956134Y-76531446D01*
X128911080Y-76570485D01*
X128818386Y-76617715D01*
X128652786Y-76738028D01*
X128508028Y-76882786D01*
X128387715Y-77048386D01*
X128294781Y-77230776D01*
X128231522Y-77425465D01*
X128199500Y-77627648D01*
X128199500Y-77832351D01*
X128231522Y-78034534D01*
X128294781Y-78229223D01*
X128346385Y-78330500D01*
X128382052Y-78400500D01*
X128387715Y-78411613D01*
X128508028Y-78577213D01*
X128652786Y-78721971D01*
X128807749Y-78834556D01*
X128818390Y-78842287D01*
X128909840Y-78888883D01*
X128911080Y-78889515D01*
X128961876Y-78937490D01*
X128978671Y-79005311D01*
X128956134Y-79071446D01*
X128911080Y-79110485D01*
X128818386Y-79157715D01*
X128652786Y-79278028D01*
X128508028Y-79422786D01*
X128387715Y-79588386D01*
X128294781Y-79770776D01*
X128231522Y-79965465D01*
X128199500Y-80167648D01*
X128199500Y-80372351D01*
X128231522Y-80574534D01*
X128294781Y-80769223D01*
X128346385Y-80870500D01*
X128375724Y-80928081D01*
X128387715Y-80951613D01*
X128508028Y-81117213D01*
X128652786Y-81261971D01*
X128807749Y-81374556D01*
X128818390Y-81382287D01*
X128909840Y-81428883D01*
X128911080Y-81429515D01*
X128961876Y-81477490D01*
X128978671Y-81545311D01*
X128956134Y-81611446D01*
X128911080Y-81650485D01*
X128818386Y-81697715D01*
X128652786Y-81818028D01*
X128508028Y-81962786D01*
X128387715Y-82128386D01*
X128340485Y-82221080D01*
X128292510Y-82271876D01*
X128224689Y-82288671D01*
X128158554Y-82266134D01*
X128119515Y-82221080D01*
X128095011Y-82172989D01*
X128072287Y-82128390D01*
X128047785Y-82094666D01*
X127951971Y-81962786D01*
X127807213Y-81818028D01*
X127641613Y-81697715D01*
X127641612Y-81697714D01*
X127641610Y-81697713D01*
X127562953Y-81657635D01*
X127459223Y-81604781D01*
X127264534Y-81541522D01*
X127089995Y-81513878D01*
X127062352Y-81509500D01*
X126857648Y-81509500D01*
X126833329Y-81513351D01*
X126655465Y-81541522D01*
X126460776Y-81604781D01*
X126278386Y-81697715D01*
X126112786Y-81818028D01*
X125968028Y-81962786D01*
X125847715Y-82128386D01*
X125754781Y-82310776D01*
X125691522Y-82505465D01*
X125659500Y-82707648D01*
X125659500Y-82912351D01*
X125691522Y-83114534D01*
X125754781Y-83309223D01*
X125818691Y-83434653D01*
X125822225Y-83441588D01*
X125847715Y-83491613D01*
X125968028Y-83657213D01*
X126112786Y-83801971D01*
X126267749Y-83914556D01*
X126278390Y-83922287D01*
X126371080Y-83969515D01*
X126460776Y-84015218D01*
X126460778Y-84015218D01*
X126460781Y-84015220D01*
X126542900Y-84041902D01*
X126655465Y-84078477D01*
X126674697Y-84081523D01*
X126857648Y-84110500D01*
X126857649Y-84110500D01*
X127062351Y-84110500D01*
X127062352Y-84110500D01*
X127264534Y-84078477D01*
X127459219Y-84015220D01*
X127641610Y-83922287D01*
X127766683Y-83831417D01*
X127807213Y-83801971D01*
X127807215Y-83801968D01*
X127807219Y-83801966D01*
X127951966Y-83657219D01*
X127951968Y-83657215D01*
X127951971Y-83657213D01*
X128072284Y-83491614D01*
X128072285Y-83491613D01*
X128072287Y-83491610D01*
X128119516Y-83398917D01*
X128167489Y-83348123D01*
X128235310Y-83331328D01*
X128301445Y-83353865D01*
X128340483Y-83398917D01*
X128384348Y-83485006D01*
X128387715Y-83491614D01*
X128508028Y-83657213D01*
X128652786Y-83801971D01*
X128807749Y-83914556D01*
X128818390Y-83922287D01*
X128909840Y-83968883D01*
X128911080Y-83969515D01*
X128961876Y-84017490D01*
X128978671Y-84085311D01*
X128956134Y-84151446D01*
X128911080Y-84190485D01*
X128818386Y-84237715D01*
X128652786Y-84358028D01*
X128508028Y-84502786D01*
X128387715Y-84668386D01*
X128294781Y-84850776D01*
X128231522Y-85045465D01*
X128199500Y-85247648D01*
X128199500Y-85452351D01*
X128231522Y-85654534D01*
X128294781Y-85849223D01*
X128358639Y-85974549D01*
X128380743Y-86017931D01*
X128387715Y-86031613D01*
X128508028Y-86197213D01*
X128652786Y-86341971D01*
X128807749Y-86454556D01*
X128818390Y-86462287D01*
X128909840Y-86508883D01*
X128911080Y-86509515D01*
X128961876Y-86557490D01*
X128978671Y-86625311D01*
X128956134Y-86691446D01*
X128911080Y-86730485D01*
X128818386Y-86777715D01*
X128652786Y-86898028D01*
X128508028Y-87042786D01*
X128387715Y-87208386D01*
X128294781Y-87390776D01*
X128231522Y-87585465D01*
X128199500Y-87787648D01*
X128199500Y-87992351D01*
X128231522Y-88194534D01*
X128294781Y-88389223D01*
X128320399Y-88439500D01*
X128362225Y-88521588D01*
X128387715Y-88571613D01*
X128508028Y-88737213D01*
X128652786Y-88881971D01*
X128807749Y-88994556D01*
X128818390Y-89002287D01*
X128909840Y-89048883D01*
X128911080Y-89049515D01*
X128961876Y-89097490D01*
X128978671Y-89165311D01*
X128956134Y-89231446D01*
X128911080Y-89270485D01*
X128818386Y-89317715D01*
X128652786Y-89438028D01*
X128508028Y-89582786D01*
X128387715Y-89748386D01*
X128294781Y-89930776D01*
X128231522Y-90125465D01*
X128199500Y-90327648D01*
X128199500Y-90532351D01*
X128231522Y-90734534D01*
X128294781Y-90929223D01*
X128387715Y-91111613D01*
X128508028Y-91277213D01*
X128652784Y-91421969D01*
X128689068Y-91448330D01*
X128731735Y-91503659D01*
X128737715Y-91573273D01*
X128705109Y-91635068D01*
X128644271Y-91669426D01*
X128629440Y-91671938D01*
X128592519Y-91675907D01*
X128457671Y-91726202D01*
X128457664Y-91726206D01*
X128342455Y-91812452D01*
X128342452Y-91812455D01*
X128256206Y-91927664D01*
X128256202Y-91927671D01*
X128205908Y-92062517D01*
X128199641Y-92120814D01*
X128199501Y-92122123D01*
X128199500Y-92122135D01*
X128199500Y-93817870D01*
X128199501Y-93817876D01*
X128204271Y-93862247D01*
X128191864Y-93931006D01*
X128144253Y-93982143D01*
X128080981Y-93999500D01*
X115362895Y-93999500D01*
X115295856Y-93979815D01*
X115250101Y-93927011D01*
X115240157Y-93857853D01*
X115262577Y-93802615D01*
X115311465Y-93735323D01*
X115372287Y-93651610D01*
X115465220Y-93469219D01*
X115528477Y-93274534D01*
X115560500Y-93072352D01*
X115560500Y-92867648D01*
X115552358Y-92816243D01*
X115528477Y-92665465D01*
X115491121Y-92550496D01*
X115465220Y-92470781D01*
X115465218Y-92470778D01*
X115465218Y-92470776D01*
X115395703Y-92334347D01*
X115372287Y-92288390D01*
X115356382Y-92266498D01*
X115251971Y-92122786D01*
X115107213Y-91978028D01*
X114941614Y-91857715D01*
X114935006Y-91854348D01*
X114848917Y-91810483D01*
X114798123Y-91762511D01*
X114781328Y-91694690D01*
X114803865Y-91628555D01*
X114848917Y-91589516D01*
X114941610Y-91542287D01*
X114962770Y-91526913D01*
X115107213Y-91421971D01*
X115107215Y-91421968D01*
X115107219Y-91421966D01*
X115251966Y-91277219D01*
X115251968Y-91277215D01*
X115251971Y-91277213D01*
X115340102Y-91155909D01*
X115372287Y-91111610D01*
X115465220Y-90929219D01*
X115528477Y-90734534D01*
X115560500Y-90532352D01*
X115560500Y-90327648D01*
X115528477Y-90125466D01*
X115510490Y-90070109D01*
X115499127Y-90035137D01*
X115465220Y-89930781D01*
X115465218Y-89930778D01*
X115465218Y-89930776D01*
X115431503Y-89864607D01*
X115372287Y-89748390D01*
X115343091Y-89708205D01*
X115251971Y-89582786D01*
X115107213Y-89438028D01*
X114941614Y-89317715D01*
X114935006Y-89314348D01*
X114848917Y-89270483D01*
X114798123Y-89222511D01*
X114781328Y-89154690D01*
X114803865Y-89088555D01*
X114848917Y-89049516D01*
X114941610Y-89002287D01*
X115035995Y-88933713D01*
X115107213Y-88881971D01*
X115107215Y-88881968D01*
X115107219Y-88881966D01*
X115251966Y-88737219D01*
X115251968Y-88737215D01*
X115251971Y-88737213D01*
X115304732Y-88664590D01*
X115372287Y-88571610D01*
X115465220Y-88389219D01*
X115528477Y-88194534D01*
X115560500Y-87992352D01*
X115560500Y-87787648D01*
X115550222Y-87722754D01*
X115528477Y-87585465D01*
X115499127Y-87495137D01*
X115465220Y-87390781D01*
X115465218Y-87390778D01*
X115465218Y-87390776D01*
X115431503Y-87324607D01*
X115372287Y-87208390D01*
X115364556Y-87197749D01*
X115251971Y-87042786D01*
X115107213Y-86898028D01*
X114941614Y-86777715D01*
X114935006Y-86774348D01*
X114848917Y-86730483D01*
X114798123Y-86682511D01*
X114781328Y-86614690D01*
X114803865Y-86548555D01*
X114848917Y-86509516D01*
X114941610Y-86462287D01*
X115042914Y-86388686D01*
X115107213Y-86341971D01*
X115107215Y-86341968D01*
X115107219Y-86341966D01*
X115251966Y-86197219D01*
X115251968Y-86197215D01*
X115251971Y-86197213D01*
X115304732Y-86124590D01*
X115372287Y-86031610D01*
X115465220Y-85849219D01*
X115528477Y-85654534D01*
X115560500Y-85452352D01*
X115560500Y-85247648D01*
X115555922Y-85218747D01*
X115528477Y-85045465D01*
X115496299Y-84946433D01*
X115465220Y-84850781D01*
X115465218Y-84850778D01*
X115465218Y-84850776D01*
X115402768Y-84728213D01*
X115372287Y-84668390D01*
X115357879Y-84648559D01*
X115251971Y-84502786D01*
X115107213Y-84358028D01*
X114941614Y-84237715D01*
X114935006Y-84234348D01*
X114848917Y-84190483D01*
X114798123Y-84142511D01*
X114781328Y-84074690D01*
X114803865Y-84008555D01*
X114848917Y-83969516D01*
X114941610Y-83922287D01*
X115035995Y-83853713D01*
X115107213Y-83801971D01*
X115107215Y-83801968D01*
X115107219Y-83801966D01*
X115251966Y-83657219D01*
X115251968Y-83657215D01*
X115251971Y-83657213D01*
X115372284Y-83491614D01*
X115372285Y-83491613D01*
X115372287Y-83491610D01*
X115419516Y-83398917D01*
X115467489Y-83348123D01*
X115535310Y-83331328D01*
X115601445Y-83353865D01*
X115640483Y-83398917D01*
X115684348Y-83485006D01*
X115687715Y-83491614D01*
X115808028Y-83657213D01*
X115952786Y-83801971D01*
X116107749Y-83914556D01*
X116118390Y-83922287D01*
X116211080Y-83969515D01*
X116300776Y-84015218D01*
X116300778Y-84015218D01*
X116300781Y-84015220D01*
X116382900Y-84041902D01*
X116495465Y-84078477D01*
X116514697Y-84081523D01*
X116697648Y-84110500D01*
X116697649Y-84110500D01*
X116902351Y-84110500D01*
X116902352Y-84110500D01*
X117104534Y-84078477D01*
X117299219Y-84015220D01*
X117481610Y-83922287D01*
X117606683Y-83831417D01*
X117647213Y-83801971D01*
X117647215Y-83801968D01*
X117647219Y-83801966D01*
X117791966Y-83657219D01*
X117791968Y-83657215D01*
X117791971Y-83657213D01*
X117870040Y-83549758D01*
X117912287Y-83491610D01*
X118005220Y-83309219D01*
X118068477Y-83114534D01*
X118100500Y-82912352D01*
X118100500Y-82707648D01*
X118083978Y-82603334D01*
X118068477Y-82505465D01*
X118039127Y-82415137D01*
X118005220Y-82310781D01*
X118005218Y-82310778D01*
X118005218Y-82310776D01*
X117935011Y-82172989D01*
X117912287Y-82128390D01*
X117887785Y-82094666D01*
X117791971Y-81962786D01*
X117647213Y-81818028D01*
X117481613Y-81697715D01*
X117481612Y-81697714D01*
X117481610Y-81697713D01*
X117402953Y-81657635D01*
X117299223Y-81604781D01*
X117104534Y-81541522D01*
X116929995Y-81513878D01*
X116902352Y-81509500D01*
X116697648Y-81509500D01*
X116673329Y-81513351D01*
X116495465Y-81541522D01*
X116300776Y-81604781D01*
X116118386Y-81697715D01*
X115952786Y-81818028D01*
X115808028Y-81962786D01*
X115687715Y-82128386D01*
X115640485Y-82221080D01*
X115592510Y-82271876D01*
X115524689Y-82288671D01*
X115458554Y-82266134D01*
X115419515Y-82221080D01*
X115395011Y-82172989D01*
X115372287Y-82128390D01*
X115347785Y-82094666D01*
X115251971Y-81962786D01*
X115107213Y-81818028D01*
X114941614Y-81697715D01*
X114933120Y-81693387D01*
X114862951Y-81657634D01*
X114854012Y-81649192D01*
X114842600Y-81644624D01*
X114829090Y-81625655D01*
X114812156Y-81609661D01*
X114809200Y-81597725D01*
X114802069Y-81587712D01*
X114800959Y-81564448D01*
X114795361Y-81541840D01*
X114799245Y-81528493D01*
X114798741Y-81517922D01*
X114811857Y-81485155D01*
X114819577Y-81471784D01*
X114819577Y-81471780D01*
X114823554Y-81464893D01*
X114874119Y-81416675D01*
X114874123Y-81416672D01*
X114941610Y-81382287D01*
X115107219Y-81261966D01*
X115251966Y-81117219D01*
X115251968Y-81117215D01*
X115251971Y-81117213D01*
X115304732Y-81044590D01*
X115372287Y-80951610D01*
X115465220Y-80769219D01*
X115528477Y-80574534D01*
X115560500Y-80372352D01*
X115560500Y-80167648D01*
X115528477Y-79965466D01*
X115519512Y-79937876D01*
X115465218Y-79770776D01*
X115419787Y-79681614D01*
X115372287Y-79588390D01*
X115320452Y-79517044D01*
X115251971Y-79422786D01*
X115107213Y-79278028D01*
X114941614Y-79157715D01*
X114935006Y-79154348D01*
X114848917Y-79110483D01*
X114798123Y-79062511D01*
X114781328Y-78994690D01*
X114803865Y-78928555D01*
X114848917Y-78889516D01*
X114941610Y-78842287D01*
X115035995Y-78773713D01*
X115107213Y-78721971D01*
X115107215Y-78721968D01*
X115107219Y-78721966D01*
X115251966Y-78577219D01*
X115251968Y-78577215D01*
X115251971Y-78577213D01*
X115307505Y-78500776D01*
X115372287Y-78411610D01*
X115465220Y-78229219D01*
X115528477Y-78034534D01*
X115560500Y-77832352D01*
X115560500Y-77627648D01*
X115528477Y-77425466D01*
X115510490Y-77370109D01*
X115465218Y-77230776D01*
X115431503Y-77164607D01*
X115372287Y-77048390D01*
X115316397Y-76971463D01*
X115251971Y-76882786D01*
X115107213Y-76738028D01*
X114941614Y-76617715D01*
X114935006Y-76614348D01*
X114848917Y-76570483D01*
X114798123Y-76522511D01*
X114781328Y-76454690D01*
X114803865Y-76388555D01*
X114848917Y-76349516D01*
X114941610Y-76302287D01*
X114962770Y-76286913D01*
X115107213Y-76181971D01*
X115107215Y-76181968D01*
X115107219Y-76181966D01*
X115251966Y-76037219D01*
X115251968Y-76037215D01*
X115251971Y-76037213D01*
X115323389Y-75938913D01*
X115372287Y-75871610D01*
X115465220Y-75689219D01*
X115528477Y-75494534D01*
X115560500Y-75292352D01*
X115560500Y-75087648D01*
X115553065Y-75040703D01*
X115528477Y-74885465D01*
X115496299Y-74786433D01*
X115465220Y-74690781D01*
X115465218Y-74690778D01*
X115465218Y-74690776D01*
X115420163Y-74602352D01*
X115372287Y-74508390D01*
X115364556Y-74497749D01*
X115251971Y-74342786D01*
X115107213Y-74198028D01*
X114941614Y-74077715D01*
X114919183Y-74066286D01*
X114848917Y-74030483D01*
X114798123Y-73982511D01*
X114781328Y-73914690D01*
X114803865Y-73848555D01*
X114848917Y-73809516D01*
X114941610Y-73762287D01*
X115038273Y-73692058D01*
X115107213Y-73641971D01*
X115107215Y-73641968D01*
X115107219Y-73641966D01*
X115251966Y-73497219D01*
X115251968Y-73497215D01*
X115251971Y-73497213D01*
X115325189Y-73396435D01*
X115372287Y-73331610D01*
X115465220Y-73149219D01*
X115528477Y-72954534D01*
X115560500Y-72752352D01*
X115560500Y-72547648D01*
X115528477Y-72345466D01*
X115510490Y-72290109D01*
X115492758Y-72235533D01*
X115465220Y-72150781D01*
X115465218Y-72150778D01*
X115465218Y-72150776D01*
X115384212Y-71991795D01*
X115372287Y-71968390D01*
X115372284Y-71968386D01*
X115370960Y-71965787D01*
X115368348Y-71951879D01*
X115361176Y-71939681D01*
X115362027Y-71918223D01*
X115358064Y-71897118D01*
X115363385Y-71884005D01*
X115363947Y-71869866D01*
X115376264Y-71852275D01*
X115384340Y-71832378D01*
X115396693Y-71823099D01*
X115404023Y-71812632D01*
X115424232Y-71802415D01*
X115434448Y-71794743D01*
X115441733Y-71791759D01*
X115520785Y-71770577D01*
X115580253Y-71736243D01*
X115657716Y-71691520D01*
X115769520Y-71579716D01*
X115769520Y-71579714D01*
X115779723Y-71569512D01*
X115779727Y-71569506D01*
X115868713Y-71480521D01*
X115868716Y-71480520D01*
X115980520Y-71368716D01*
X116030639Y-71281904D01*
X116059577Y-71231785D01*
X116100500Y-71079057D01*
X116100500Y-70920943D01*
X116100500Y-68899059D01*
X116100501Y-68899046D01*
X116100501Y-68730945D01*
X116100501Y-68730943D01*
X116059577Y-68578215D01*
X116020934Y-68511284D01*
X115980520Y-68441284D01*
X115868716Y-68329480D01*
X115868715Y-68329479D01*
X115864385Y-68325149D01*
X115864374Y-68325139D01*
X115554077Y-68014842D01*
X115520592Y-67953519D01*
X115523828Y-67888841D01*
X115528477Y-67874534D01*
X115560500Y-67672352D01*
X115560500Y-67467648D01*
X115528477Y-67265466D01*
X115465220Y-67070781D01*
X115465218Y-67070778D01*
X115465218Y-67070776D01*
X115406617Y-66955767D01*
X115372287Y-66888390D01*
X115364556Y-66877749D01*
X115251971Y-66722786D01*
X115107213Y-66578028D01*
X114941614Y-66457715D01*
X114935006Y-66454348D01*
X114848917Y-66410483D01*
X114798123Y-66362511D01*
X114781328Y-66294690D01*
X114803865Y-66228555D01*
X114848917Y-66189516D01*
X114941610Y-66142287D01*
X114974075Y-66118700D01*
X115107213Y-66021971D01*
X115107215Y-66021968D01*
X115107219Y-66021966D01*
X115251966Y-65877219D01*
X115251968Y-65877215D01*
X115251971Y-65877213D01*
X115372284Y-65711614D01*
X115372285Y-65711613D01*
X115372287Y-65711610D01*
X115419516Y-65618917D01*
X115467489Y-65568123D01*
X115535310Y-65551328D01*
X115601445Y-65573865D01*
X115640483Y-65618917D01*
X115664891Y-65666819D01*
X115687715Y-65711614D01*
X115808028Y-65877213D01*
X115952786Y-66021971D01*
X116085925Y-66118700D01*
X116118390Y-66142287D01*
X116199499Y-66183614D01*
X116300776Y-66235218D01*
X116300778Y-66235218D01*
X116300781Y-66235220D01*
X116375818Y-66259601D01*
X116495465Y-66298477D01*
X116538613Y-66305311D01*
X116697648Y-66330500D01*
X116697649Y-66330500D01*
X116902351Y-66330500D01*
X116902352Y-66330500D01*
X117104534Y-66298477D01*
X117299219Y-66235220D01*
X117481610Y-66142287D01*
X117574590Y-66074732D01*
X117647213Y-66021971D01*
X117647215Y-66021968D01*
X117647219Y-66021966D01*
X117791966Y-65877219D01*
X117791968Y-65877215D01*
X117791971Y-65877213D01*
X117912284Y-65711614D01*
X117912285Y-65711613D01*
X117912287Y-65711610D01*
X117959516Y-65618917D01*
X118007489Y-65568123D01*
X118075310Y-65551328D01*
X118141445Y-65573865D01*
X118180483Y-65618917D01*
X118204891Y-65666819D01*
X118227715Y-65711614D01*
X118348028Y-65877213D01*
X118492786Y-66021971D01*
X118625925Y-66118700D01*
X118658390Y-66142287D01*
X118739499Y-66183614D01*
X118840776Y-66235218D01*
X118840778Y-66235218D01*
X118840781Y-66235220D01*
X118915818Y-66259601D01*
X119035465Y-66298477D01*
X119078613Y-66305311D01*
X119237648Y-66330500D01*
X119237649Y-66330500D01*
X119442351Y-66330500D01*
X119442352Y-66330500D01*
X119644534Y-66298477D01*
X119839219Y-66235220D01*
X120021610Y-66142287D01*
X120114590Y-66074732D01*
X120187213Y-66021971D01*
X120187215Y-66021968D01*
X120187219Y-66021966D01*
X120331966Y-65877219D01*
X120331968Y-65877215D01*
X120331971Y-65877213D01*
X120452284Y-65711614D01*
X120452285Y-65711613D01*
X120452287Y-65711610D01*
X120499516Y-65618917D01*
X120547489Y-65568123D01*
X120615310Y-65551328D01*
X120681445Y-65573865D01*
X120720483Y-65618917D01*
X120744891Y-65666819D01*
X120767715Y-65711614D01*
X120888028Y-65877213D01*
X121032786Y-66021971D01*
X121165925Y-66118700D01*
X121198390Y-66142287D01*
X121279499Y-66183614D01*
X121380776Y-66235218D01*
X121380778Y-66235218D01*
X121380781Y-66235220D01*
X121455818Y-66259601D01*
X121575465Y-66298477D01*
X121618613Y-66305311D01*
X121777648Y-66330500D01*
X121777649Y-66330500D01*
X121982351Y-66330500D01*
X121982352Y-66330500D01*
X122184534Y-66298477D01*
X122379219Y-66235220D01*
X122561610Y-66142287D01*
X122654590Y-66074732D01*
X122727213Y-66021971D01*
X122727215Y-66021968D01*
X122727219Y-66021966D01*
X122871966Y-65877219D01*
X122871968Y-65877215D01*
X122871971Y-65877213D01*
X122924774Y-65804534D01*
X122992287Y-65711610D01*
X123085220Y-65529219D01*
X123148477Y-65334534D01*
X123180500Y-65132352D01*
X123180500Y-64927648D01*
X123148477Y-64725466D01*
X123085220Y-64530781D01*
X123085218Y-64530778D01*
X123085218Y-64530776D01*
X123032847Y-64427993D01*
X122992287Y-64348390D01*
X122984556Y-64337749D01*
X122871971Y-64182786D01*
X122727213Y-64038028D01*
X122561613Y-63917715D01*
X122561612Y-63917714D01*
X122561610Y-63917713D01*
X122504653Y-63888691D01*
X122379223Y-63824781D01*
X122184534Y-63761522D01*
X122009995Y-63733878D01*
X121982352Y-63729500D01*
X121789096Y-63729500D01*
X121722057Y-63709815D01*
X121676302Y-63657011D01*
X121666358Y-63587853D01*
X121695383Y-63524297D01*
X121701415Y-63517819D01*
X122127051Y-63092184D01*
X123582417Y-61636819D01*
X123643740Y-61603334D01*
X123670098Y-61600500D01*
X163096953Y-61600500D01*
X163163992Y-61620185D01*
G37*
%TD.AperFunction*%
%TD*%
%TA.AperFunction,Conductor*%
%TO.N,VBATT*%
G36*
X101751481Y-62920979D02*
G01*
X101754129Y-62923725D01*
X102628354Y-64192307D01*
X102630227Y-64201064D01*
X102626993Y-64207219D01*
X102282372Y-64551840D01*
X102277571Y-64554740D01*
X101282526Y-64863944D01*
X101273609Y-64863127D01*
X101269711Y-64859813D01*
X100011169Y-63190049D01*
X100008926Y-63181380D01*
X100013470Y-63173664D01*
X100018812Y-63171432D01*
X101742799Y-62918788D01*
X101751481Y-62920979D01*
G37*
%TD.AperFunction*%
%TD*%
%TA.AperFunction,Conductor*%
%TO.N,VBATT*%
G36*
X101752171Y-62179593D02*
G01*
X102745302Y-62921490D01*
X102749879Y-62929186D01*
X102750000Y-62930863D01*
X102750000Y-63419136D01*
X102746573Y-63427409D01*
X102745302Y-63428509D01*
X101752172Y-64170405D01*
X101743493Y-64172611D01*
X101739360Y-64171186D01*
X100016738Y-63185153D01*
X100011261Y-63178070D01*
X100012397Y-63169188D01*
X100016739Y-63164846D01*
X101739361Y-62178812D01*
X101748240Y-62177677D01*
X101752171Y-62179593D01*
G37*
%TD.AperFunction*%
%TD*%
M02*
