M48
; DRILL file {KiCad 9.0.1} date 2025-05-04T20:34:47+1000
; FORMAT={-:-/ absolute / metric / decimal}
; #@! TF.CreationDate,2025-05-04T20:34:47+10:00
; #@! TF.GenerationSoftware,Kicad,Pcbnew,9.0.1
; #@! TF.FileFunction,Plated,1,2,PTH
FMAT,2
METRIC
; #@! TA.AperFunction,Plated,PTH,ViaDrill
T1C0.300
; #@! TA.AperFunction,Plated,PTH,ComponentDrill
T2C0.800
; #@! TA.AperFunction,Plated,PTH,ComponentDrill
T3C0.900
; #@! TA.AperFunction,Plated,PTH,ComponentDrill
T4C1.000
; #@! TA.AperFunction,Plated,PTH,ComponentDrill
T5C1.020
; #@! TA.AperFunction,Plated,PTH,ComponentDrill
T6C1.100
; #@! TA.AperFunction,Plated,PTH,ComponentDrill
T7C1.900
; #@! TA.AperFunction,Plated,PTH,ComponentDrill
T8C3.200
%
G90
G05
T1
X125.0Y-59.0
X125.0Y-62.0
X130.0Y-59.0
X130.0Y-62.0
X145.0Y-58.5
X145.0Y-62.0
X150.0Y-58.5
X150.0Y-62.0
X155.0Y-58.5
X155.0Y-62.0
X178.0Y-51.5
X178.0Y-92.5
T2
X166.34Y-65.5
X166.38Y-70.0
X166.38Y-74.5
X166.38Y-79.0
X173.96Y-65.5
X174.0Y-70.0
X174.0Y-74.5
X174.0Y-79.0
T3
X179.96Y-58.0
X179.96Y-67.5
X179.96Y-77.0
X179.96Y-87.0
X182.5Y-58.0
X182.5Y-67.5
X182.5Y-77.0
X182.5Y-87.0
T4
X92.0Y-53.175
X97.46Y-71.26
X97.46Y-73.8
X97.46Y-76.34
X97.46Y-78.88
X97.46Y-81.42
X97.46Y-83.96
X97.46Y-86.5
X97.46Y-89.04
X100.0Y-71.26
X100.0Y-73.8
X100.0Y-76.34
X100.0Y-78.88
X100.0Y-81.42
X100.0Y-83.96
X100.0Y-86.5
X100.0Y-89.04
X103.0Y-53.175
X109.5Y-63.8
X109.5Y-66.34
X109.5Y-68.88
X109.5Y-71.42
X109.5Y-73.96
X109.5Y-76.5
X109.5Y-79.04
X138.46Y-92.5
X141.0Y-92.5
X147.5Y-92.5
X150.04Y-92.5
T5
X135.8Y-74.0
X135.8Y-84.16
X138.34Y-74.0
X138.34Y-84.16
X140.88Y-74.0
X140.88Y-84.16
X143.42Y-74.0
X143.42Y-84.16
X145.96Y-74.0
X145.96Y-84.16
X148.5Y-74.0
X148.5Y-84.16
X151.04Y-74.0
X151.04Y-84.16
X153.58Y-74.0
X153.58Y-84.16
T6
X114.26Y-65.03
X114.26Y-67.57
X114.26Y-70.11
X114.26Y-72.65
X114.26Y-75.19
X114.26Y-77.73
X114.26Y-80.27
X114.26Y-82.81
X114.26Y-85.35
X114.26Y-87.89
X114.26Y-90.43
X114.26Y-92.97
X115.27Y-52.96
X115.27Y-55.5
X115.27Y-58.04
X116.8Y-65.03
X116.8Y-82.81
X119.34Y-65.03
X121.88Y-65.03
X124.42Y-65.03
X126.96Y-65.03
X126.96Y-82.81
X129.5Y-65.03
X129.5Y-67.57
X129.5Y-70.11
X129.5Y-72.65
X129.5Y-75.19
X129.5Y-77.73
X129.5Y-80.27
X129.5Y-82.81
X129.5Y-85.35
X129.5Y-87.89
X129.5Y-90.43
X129.5Y-92.97
T7
X95.0Y-63.175
X100.0Y-63.175
T8
X109.0Y-54.5
X109.0Y-89.5
X164.0Y-54.5
X164.0Y-89.5
M30
