%TF.GenerationSoftware,KiCad,Pcbnew,9.0.1*%
%TF.CreationDate,2025-05-04T20:34:49+10:00*%
%TF.ProjectId,line-follower-mainboard,6c696e65-2d66-46f6-9c6c-6f7765722d6d,rev?*%
%TF.SameCoordinates,Original*%
%TF.FileFunction,Copper,L2,Bot*%
%TF.FilePolarity,Positive*%
%FSLAX46Y46*%
G04 Gerber Fmt 4.6, Leading zero omitted, Abs format (unit mm)*
G04 Created by KiCad (PCBNEW 9.0.1) date 2025-05-04 20:34:49*
%MOMM*%
%LPD*%
G01*
G04 APERTURE LIST*
G04 Aperture macros list*
%AMRoundRect*
0 Rectangle with rounded corners*
0 $1 Rounding radius*
0 $2 $3 $4 $5 $6 $7 $8 $9 X,Y pos of 4 corners*
0 Add a 4 corners polygon primitive as box body*
4,1,4,$2,$3,$4,$5,$6,$7,$8,$9,$2,$3,0*
0 Add four circle primitives for the rounded corners*
1,1,$1+$1,$2,$3*
1,1,$1+$1,$4,$5*
1,1,$1+$1,$6,$7*
1,1,$1+$1,$8,$9*
0 Add four rect primitives between the rounded corners*
20,1,$1+$1,$2,$3,$4,$5,0*
20,1,$1+$1,$4,$5,$6,$7,0*
20,1,$1+$1,$6,$7,$8,$9,0*
20,1,$1+$1,$8,$9,$2,$3,0*%
G04 Aperture macros list end*
%TA.AperFunction,ComponentPad*%
%ADD10R,1.600000X1.600000*%
%TD*%
%TA.AperFunction,ComponentPad*%
%ADD11C,1.600000*%
%TD*%
%TA.AperFunction,ComponentPad*%
%ADD12R,1.800000X1.800000*%
%TD*%
%TA.AperFunction,ComponentPad*%
%ADD13C,1.800000*%
%TD*%
%TA.AperFunction,ComponentPad*%
%ADD14C,2.000000*%
%TD*%
%TA.AperFunction,ComponentPad*%
%ADD15C,3.600000*%
%TD*%
%TA.AperFunction,ConnectorPad*%
%ADD16C,5.600000*%
%TD*%
%TA.AperFunction,ComponentPad*%
%ADD17R,1.700000X1.700000*%
%TD*%
%TA.AperFunction,ComponentPad*%
%ADD18C,1.700000*%
%TD*%
%TA.AperFunction,ComponentPad*%
%ADD19O,1.600000X1.600000*%
%TD*%
%TA.AperFunction,ComponentPad*%
%ADD20C,1.400000*%
%TD*%
%TA.AperFunction,ComponentPad*%
%ADD21RoundRect,0.770000X-0.980000X-0.980000X0.980000X-0.980000X0.980000X0.980000X-0.980000X0.980000X0*%
%TD*%
%TA.AperFunction,ComponentPad*%
%ADD22C,3.500000*%
%TD*%
%TA.AperFunction,ComponentPad*%
%ADD23R,2.000000X1.905000*%
%TD*%
%TA.AperFunction,ComponentPad*%
%ADD24O,2.000000X1.905000*%
%TD*%
%TA.AperFunction,ViaPad*%
%ADD25C,0.600000*%
%TD*%
%TA.AperFunction,Conductor*%
%ADD26C,0.500000*%
%TD*%
G04 APERTURE END LIST*
D10*
%TO.P,U3,1,GND*%
%TO.N,GND*%
X129500000Y-92970000D03*
D11*
%TO.P,U3,2,0*%
%TO.N,/Q0*%
X129500000Y-90430000D03*
%TO.P,U3,3,1*%
%TO.N,/Q1*%
X129500000Y-87890000D03*
%TO.P,U3,4,2*%
%TO.N,/Q2*%
X129500000Y-85350000D03*
%TO.P,U3,5,3*%
%TO.N,/Q3*%
X129500000Y-82810000D03*
%TO.P,U3,6,4_PWM*%
%TO.N,/MOT_B1_PWM*%
X129500000Y-80270000D03*
%TO.P,U3,7,5_INT0_PWM*%
%TO.N,/MOT_B2_PWM*%
X129500000Y-77730000D03*
%TO.P,U3,8,6_INT1*%
%TO.N,unconnected-(U3-6_INT1-Pad8)*%
X129500000Y-75190000D03*
%TO.P,U3,9,7_INT2_RX*%
%TO.N,unconnected-(U3-7_INT2_RX-Pad9)*%
X129500000Y-72650000D03*
%TO.P,U3,10,8_INT3_TX*%
%TO.N,unconnected-(U3-8_INT3_TX-Pad10)*%
X129500000Y-70110000D03*
%TO.P,U3,11,9_PWM*%
%TO.N,/MOT_A2_PWM*%
X129500000Y-67570000D03*
%TO.P,U3,12,10_PWM*%
%TO.N,/MOT_A1_PWM*%
X129500000Y-65030000D03*
%TO.P,U3,13,23*%
%TO.N,/MOT_FLT*%
X126960000Y-65030000D03*
%TO.P,U3,14,+5V*%
%TO.N,5V*%
X124420000Y-65030000D03*
%TO.P,U3,15,GND*%
%TO.N,GND*%
X121880000Y-65030000D03*
%TO.P,U3,16,RST*%
%TO.N,Net-(SW1-A)*%
X119340000Y-65030000D03*
%TO.P,U3,17,22_A11*%
%TO.N,Net-(U3-22_A11)*%
X116800000Y-65030000D03*
%TO.P,U3,18,11_A10_LED*%
%TO.N,unconnected-(U3-11_A10_LED-Pad18)*%
X114260000Y-65030000D03*
%TO.P,U3,19,12_A9_PWM*%
%TO.N,/TRK_SIG*%
X114260000Y-67570000D03*
%TO.P,U3,20,13_A8*%
%TO.N,/SZ_SIG*%
X114260000Y-70110000D03*
%TO.P,U3,21,14_A7_PWM*%
%TO.N,/S1*%
X114260000Y-72650000D03*
%TO.P,U3,22,15_A6_PWM*%
%TO.N,/S2*%
X114260000Y-75190000D03*
%TO.P,U3,23,16_A5*%
%TO.N,/S3*%
X114260000Y-77730000D03*
%TO.P,U3,24,17_A4*%
%TO.N,/S4*%
X114260000Y-80270000D03*
%TO.P,U3,25,18_A3*%
%TO.N,/S5*%
X114260000Y-82810000D03*
%TO.P,U3,26,19_A2*%
%TO.N,/S6*%
X114260000Y-85350000D03*
%TO.P,U3,27,20_A1*%
%TO.N,/S7*%
X114260000Y-87890000D03*
%TO.P,U3,28,21_A0*%
%TO.N,/S8*%
X114260000Y-90430000D03*
%TO.P,U3,29,+5V*%
%TO.N,unconnected-(U3-+5V-Pad29)*%
X114260000Y-92970000D03*
%TO.P,U3,30,24*%
%TO.N,unconnected-(U3-24-Pad30)*%
X126960000Y-82810000D03*
%TO.P,U3,31,AREF*%
%TO.N,unconnected-(U3-AREF-Pad31)*%
X116800000Y-82810000D03*
%TD*%
D12*
%TO.P,D2,1,K*%
%TO.N,GND*%
X182500000Y-77000000D03*
D13*
%TO.P,D2,2,A*%
%TO.N,Net-(D2-A)*%
X179960000Y-77000000D03*
%TD*%
D14*
%TO.P,U4,1,GND*%
%TO.N,GND*%
X153580000Y-74000000D03*
%TO.P,U4,2,VIN*%
%TO.N,VBATT*%
X151040000Y-74000000D03*
%TO.P,U4,3,BIN1*%
%TO.N,/MOT_B1_PWM*%
X148500000Y-74000000D03*
%TO.P,U4,4,BIN2*%
%TO.N,/MOT_B2_PWM*%
X145960000Y-74000000D03*
%TO.P,U4,5,AIN2*%
%TO.N,/MOT_A2_PWM*%
X143420000Y-74000000D03*
%TO.P,U4,6,AIN1*%
%TO.N,/MOT_A1_PWM*%
X140880000Y-74000000D03*
%TO.P,U4,7,nSLEEP*%
%TO.N,unconnected-(U4-nSLEEP-Pad7)*%
X138340000Y-74000000D03*
%TO.P,U4,8,nFAULT*%
%TO.N,/MOT_FLT*%
X135800000Y-74000000D03*
%TO.P,U4,9,GND*%
%TO.N,GND*%
X153580000Y-84160000D03*
%TO.P,U4,10,VMM*%
%TO.N,unconnected-(U4-VMM-Pad10)*%
X151040000Y-84160000D03*
%TO.P,U4,11,BOUT1*%
%TO.N,Net-(J4-Pin_1)*%
X148500000Y-84160000D03*
%TO.P,U4,12,BOUT2*%
%TO.N,Net-(J4-Pin_2)*%
X145960000Y-84160000D03*
%TO.P,U4,13,AOUT2*%
%TO.N,Net-(J5-Pin_1)*%
X143420000Y-84160000D03*
%TO.P,U4,14,AOUT1*%
%TO.N,Net-(J5-Pin_2)*%
X140880000Y-84160000D03*
%TO.P,U4,15,AISEN*%
%TO.N,unconnected-(U4-AISEN-Pad15)*%
X138340000Y-84160000D03*
%TO.P,U4,16,BISEN*%
%TO.N,unconnected-(U4-BISEN-Pad16)*%
X135800000Y-84160000D03*
%TD*%
D15*
%TO.P,H3,1,1*%
%TO.N,GND*%
X109000000Y-89500000D03*
D16*
X109000000Y-89500000D03*
%TD*%
D17*
%TO.P,J4,1,Pin_1*%
%TO.N,Net-(J4-Pin_1)*%
X150040000Y-92500000D03*
D18*
%TO.P,J4,2,Pin_2*%
%TO.N,Net-(J4-Pin_2)*%
X147500000Y-92500000D03*
%TD*%
D11*
%TO.P,R4,1*%
%TO.N,Net-(D4-A)*%
X173960000Y-65500000D03*
D19*
%TO.P,R4,2*%
%TO.N,/Q3*%
X166340000Y-65500000D03*
%TD*%
D15*
%TO.P,H2,1,1*%
%TO.N,GND*%
X164000000Y-54500000D03*
D16*
X164000000Y-54500000D03*
%TD*%
D17*
%TO.P,J3,1,Pin_1*%
%TO.N,GND*%
X109500000Y-79040000D03*
D18*
%TO.P,J3,2,Pin_2*%
%TO.N,5V*%
X109500000Y-76500000D03*
%TO.P,J3,3,Pin_3*%
%TO.N,/TRK_SIG*%
X109500000Y-73960000D03*
%TO.P,J3,4,Pin_4*%
%TO.N,VBATT*%
X109500000Y-71420000D03*
%TO.P,J3,5,Pin_5*%
%TO.N,/SZ_SIG*%
X109500000Y-68880000D03*
%TO.P,J3,6,Pin_6*%
%TO.N,5V*%
X109500000Y-66340000D03*
%TO.P,J3,7,Pin_7*%
%TO.N,GND*%
X109500000Y-63800000D03*
%TD*%
D12*
%TO.P,D1,1,K*%
%TO.N,GND*%
X182500000Y-87000000D03*
D13*
%TO.P,D1,2,A*%
%TO.N,Net-(D1-A)*%
X179960000Y-87000000D03*
%TD*%
D15*
%TO.P,H4,1,1*%
%TO.N,GND*%
X164000000Y-89500000D03*
D16*
X164000000Y-89500000D03*
%TD*%
D12*
%TO.P,D4,1,K*%
%TO.N,GND*%
X182500000Y-58000000D03*
D13*
%TO.P,D4,2,A*%
%TO.N,Net-(D4-A)*%
X179960000Y-58000000D03*
%TD*%
D17*
%TO.P,J2,1,Pin_1*%
%TO.N,GND*%
X97460000Y-71260000D03*
D18*
%TO.P,J2,2,Pin_2*%
%TO.N,/S1*%
X100000000Y-71260000D03*
%TO.P,J2,3,Pin_3*%
%TO.N,GND*%
X97460000Y-73800000D03*
%TO.P,J2,4,Pin_4*%
%TO.N,/S2*%
X100000000Y-73800000D03*
%TO.P,J2,5,Pin_5*%
%TO.N,GND*%
X97460000Y-76340000D03*
%TO.P,J2,6,Pin_6*%
%TO.N,/S3*%
X100000000Y-76340000D03*
%TO.P,J2,7,Pin_7*%
%TO.N,GND*%
X97460000Y-78880000D03*
%TO.P,J2,8,Pin_8*%
%TO.N,/S4*%
X100000000Y-78880000D03*
%TO.P,J2,9,Pin_9*%
%TO.N,GND*%
X97460000Y-81420000D03*
%TO.P,J2,10,Pin_10*%
%TO.N,/S5*%
X100000000Y-81420000D03*
%TO.P,J2,11,Pin_11*%
%TO.N,GND*%
X97460000Y-83960000D03*
%TO.P,J2,12,Pin_12*%
%TO.N,/S6*%
X100000000Y-83960000D03*
%TO.P,J2,13,Pin_13*%
%TO.N,5V*%
X97460000Y-86500000D03*
%TO.P,J2,14,Pin_14*%
%TO.N,/S7*%
X100000000Y-86500000D03*
%TO.P,J2,15,Pin_15*%
%TO.N,/SENSOR_LED*%
X97460000Y-89040000D03*
%TO.P,J2,16,Pin_16*%
%TO.N,/S8*%
X100000000Y-89040000D03*
%TD*%
D11*
%TO.P,R2,1*%
%TO.N,Net-(D2-A)*%
X174000000Y-74500000D03*
D19*
%TO.P,R2,2*%
%TO.N,/Q1*%
X166380000Y-74500000D03*
%TD*%
D20*
%TO.P,J1,*%
%TO.N,*%
X92000000Y-53175000D03*
X103000000Y-53175000D03*
D21*
%TO.P,J1,1,Pin_1*%
%TO.N,VBATT*%
X100000000Y-63175000D03*
D22*
%TO.P,J1,2,Pin_2*%
%TO.N,GND*%
X95000000Y-63175000D03*
%TD*%
D23*
%TO.P,U1,1,IN*%
%TO.N,VBATT*%
X115270000Y-52960000D03*
D24*
%TO.P,U1,2,GND*%
%TO.N,GND*%
X115270000Y-55500000D03*
%TO.P,U1,3,OUT*%
%TO.N,5V*%
X115270000Y-58040000D03*
%TD*%
D12*
%TO.P,D3,1,K*%
%TO.N,GND*%
X182500000Y-67500000D03*
D13*
%TO.P,D3,2,A*%
%TO.N,Net-(D3-A)*%
X179960000Y-67500000D03*
%TD*%
D15*
%TO.P,H1,1,1*%
%TO.N,GND*%
X109000000Y-54500000D03*
D16*
X109000000Y-54500000D03*
%TD*%
D11*
%TO.P,R3,1*%
%TO.N,Net-(D3-A)*%
X174000000Y-70000000D03*
D19*
%TO.P,R3,2*%
%TO.N,/Q2*%
X166380000Y-70000000D03*
%TD*%
D11*
%TO.P,R1,1*%
%TO.N,Net-(D1-A)*%
X174000000Y-79000000D03*
D19*
%TO.P,R1,2*%
%TO.N,/Q0*%
X166380000Y-79000000D03*
%TD*%
D17*
%TO.P,J5,1,Pin_1*%
%TO.N,Net-(J5-Pin_1)*%
X141000000Y-92500000D03*
D18*
%TO.P,J5,2,Pin_2*%
%TO.N,Net-(J5-Pin_2)*%
X138460000Y-92500000D03*
%TD*%
D25*
%TO.N,GND*%
X178000000Y-92500000D03*
X178000000Y-51500000D03*
%TO.N,5V*%
X125000000Y-62000000D03*
X155000000Y-62000000D03*
X130000000Y-62000000D03*
X150000000Y-58500000D03*
X150000000Y-62000000D03*
X130000000Y-59000000D03*
X155000000Y-58500000D03*
X145000000Y-58500000D03*
X125000000Y-59000000D03*
X145000000Y-62000000D03*
%TD*%
D26*
%TO.N,VBATT*%
X115270000Y-52960000D02*
X120061000Y-57751000D01*
X120061000Y-57751000D02*
X134791000Y-57751000D01*
X134791000Y-57751000D02*
X151040000Y-74000000D01*
%TO.N,5V*%
X155000000Y-58500000D02*
X155000000Y-62000000D01*
X150000000Y-58500000D02*
X150000000Y-62000000D01*
X145000000Y-58500000D02*
X145000000Y-62000000D01*
X130000000Y-59000000D02*
X130000000Y-62000000D01*
X125000000Y-59000000D02*
X125000000Y-62000000D01*
%TD*%
%TA.AperFunction,Conductor*%
%TO.N,GND*%
G36*
X184942539Y-50020185D02*
G01*
X184988294Y-50072989D01*
X184999500Y-50124500D01*
X184999500Y-93875500D01*
X184979815Y-93942539D01*
X184927011Y-93988294D01*
X184875500Y-93999500D01*
X151230103Y-93999500D01*
X151163064Y-93979815D01*
X151117309Y-93927011D01*
X151107365Y-93857853D01*
X151136390Y-93794297D01*
X151155792Y-93776234D01*
X151215240Y-93731730D01*
X151247546Y-93707546D01*
X151333796Y-93592331D01*
X151384091Y-93457483D01*
X151390500Y-93397873D01*
X151390499Y-91602128D01*
X151384091Y-91542517D01*
X151384005Y-91542287D01*
X151333797Y-91407671D01*
X151333793Y-91407664D01*
X151247547Y-91292455D01*
X151247544Y-91292452D01*
X151132335Y-91206206D01*
X151132328Y-91206202D01*
X150997482Y-91155908D01*
X150997483Y-91155908D01*
X150937883Y-91149501D01*
X150937881Y-91149500D01*
X150937873Y-91149500D01*
X150937864Y-91149500D01*
X149142129Y-91149500D01*
X149142123Y-91149501D01*
X149082516Y-91155908D01*
X148947671Y-91206202D01*
X148947664Y-91206206D01*
X148832455Y-91292452D01*
X148832452Y-91292455D01*
X148746206Y-91407664D01*
X148746203Y-91407669D01*
X148697189Y-91539083D01*
X148655317Y-91595016D01*
X148589853Y-91619433D01*
X148521580Y-91604581D01*
X148493326Y-91583430D01*
X148379786Y-91469890D01*
X148207820Y-91344951D01*
X148018414Y-91248444D01*
X148018413Y-91248443D01*
X148018412Y-91248443D01*
X147816243Y-91182754D01*
X147816241Y-91182753D01*
X147816240Y-91182753D01*
X147654957Y-91157208D01*
X147606287Y-91149500D01*
X147393713Y-91149500D01*
X147345042Y-91157208D01*
X147183760Y-91182753D01*
X146981585Y-91248444D01*
X146792179Y-91344951D01*
X146620213Y-91469890D01*
X146469890Y-91620213D01*
X146344951Y-91792179D01*
X146248444Y-91981585D01*
X146182753Y-92183760D01*
X146149500Y-92393713D01*
X146149500Y-92606286D01*
X146182753Y-92816239D01*
X146248444Y-93018414D01*
X146344951Y-93207820D01*
X146469890Y-93379786D01*
X146620213Y-93530109D01*
X146792179Y-93655048D01*
X146792181Y-93655049D01*
X146792184Y-93655051D01*
X146981588Y-93751557D01*
X147000092Y-93757569D01*
X147057768Y-93797006D01*
X147084966Y-93861365D01*
X147073051Y-93930211D01*
X147025807Y-93981687D01*
X146961774Y-93999500D01*
X142190103Y-93999500D01*
X142123064Y-93979815D01*
X142077309Y-93927011D01*
X142067365Y-93857853D01*
X142096390Y-93794297D01*
X142115792Y-93776234D01*
X142175240Y-93731730D01*
X142207546Y-93707546D01*
X142293796Y-93592331D01*
X142344091Y-93457483D01*
X142350500Y-93397873D01*
X142350499Y-91602128D01*
X142344091Y-91542517D01*
X142344005Y-91542287D01*
X142293797Y-91407671D01*
X142293793Y-91407664D01*
X142207547Y-91292455D01*
X142207544Y-91292452D01*
X142092335Y-91206206D01*
X142092328Y-91206202D01*
X141957482Y-91155908D01*
X141957483Y-91155908D01*
X141897883Y-91149501D01*
X141897881Y-91149500D01*
X141897873Y-91149500D01*
X141897864Y-91149500D01*
X140102129Y-91149500D01*
X140102123Y-91149501D01*
X140042516Y-91155908D01*
X139907671Y-91206202D01*
X139907664Y-91206206D01*
X139792455Y-91292452D01*
X139792452Y-91292455D01*
X139706206Y-91407664D01*
X139706203Y-91407669D01*
X139657189Y-91539083D01*
X139615317Y-91595016D01*
X139549853Y-91619433D01*
X139481580Y-91604581D01*
X139453326Y-91583430D01*
X139339786Y-91469890D01*
X139167820Y-91344951D01*
X138978414Y-91248444D01*
X138978413Y-91248443D01*
X138978412Y-91248443D01*
X138776243Y-91182754D01*
X138776241Y-91182753D01*
X138776240Y-91182753D01*
X138614957Y-91157208D01*
X138566287Y-91149500D01*
X138353713Y-91149500D01*
X138305042Y-91157208D01*
X138143760Y-91182753D01*
X137941585Y-91248444D01*
X137752179Y-91344951D01*
X137580213Y-91469890D01*
X137429890Y-91620213D01*
X137304951Y-91792179D01*
X137208444Y-91981585D01*
X137142753Y-92183760D01*
X137109500Y-92393713D01*
X137109500Y-92606286D01*
X137142753Y-92816239D01*
X137208444Y-93018414D01*
X137304951Y-93207820D01*
X137429890Y-93379786D01*
X137580213Y-93530109D01*
X137752179Y-93655048D01*
X137752181Y-93655049D01*
X137752184Y-93655051D01*
X137941588Y-93751557D01*
X137960092Y-93757569D01*
X138017768Y-93797006D01*
X138044966Y-93861365D01*
X138033051Y-93930211D01*
X137985807Y-93981687D01*
X137921774Y-93999500D01*
X115362895Y-93999500D01*
X115295856Y-93979815D01*
X115250101Y-93927011D01*
X115240157Y-93857853D01*
X115262577Y-93802615D01*
X115311465Y-93735323D01*
X115372287Y-93651610D01*
X115465220Y-93469219D01*
X115528477Y-93274534D01*
X115560500Y-93072352D01*
X115560500Y-92867648D01*
X115552358Y-92816243D01*
X115528477Y-92665465D01*
X115465218Y-92470776D01*
X115425952Y-92393713D01*
X115372287Y-92288390D01*
X115364556Y-92277749D01*
X115251971Y-92122786D01*
X115107213Y-91978028D01*
X114941614Y-91857715D01*
X114935006Y-91854348D01*
X114848917Y-91810483D01*
X114798123Y-91762511D01*
X114781328Y-91694690D01*
X114803865Y-91628555D01*
X114848917Y-91589516D01*
X114941610Y-91542287D01*
X114962770Y-91526913D01*
X115107213Y-91421971D01*
X115107215Y-91421968D01*
X115107219Y-91421966D01*
X115251966Y-91277219D01*
X115251968Y-91277215D01*
X115251971Y-91277213D01*
X115340102Y-91155909D01*
X115372287Y-91111610D01*
X115465220Y-90929219D01*
X115528477Y-90734534D01*
X115560500Y-90532352D01*
X115560500Y-90327648D01*
X115528477Y-90125466D01*
X115510490Y-90070109D01*
X115465218Y-89930776D01*
X115431503Y-89864607D01*
X115372287Y-89748390D01*
X115316397Y-89671463D01*
X115251971Y-89582786D01*
X115107213Y-89438028D01*
X114941614Y-89317715D01*
X114935006Y-89314348D01*
X114848917Y-89270483D01*
X114798123Y-89222511D01*
X114781328Y-89154690D01*
X114803865Y-89088555D01*
X114848917Y-89049516D01*
X114941610Y-89002287D01*
X115035995Y-88933713D01*
X115107213Y-88881971D01*
X115107215Y-88881968D01*
X115107219Y-88881966D01*
X115251966Y-88737219D01*
X115251968Y-88737215D01*
X115251971Y-88737213D01*
X115304732Y-88664590D01*
X115372287Y-88571610D01*
X115465220Y-88389219D01*
X115528477Y-88194534D01*
X115560500Y-87992352D01*
X115560500Y-87787648D01*
X115528477Y-87585466D01*
X115512925Y-87537603D01*
X115465218Y-87390776D01*
X115431503Y-87324607D01*
X115372287Y-87208390D01*
X115316397Y-87131463D01*
X115251971Y-87042786D01*
X115107213Y-86898028D01*
X114941614Y-86777715D01*
X114935006Y-86774348D01*
X114848917Y-86730483D01*
X114798123Y-86682511D01*
X114781328Y-86614690D01*
X114803865Y-86548555D01*
X114848917Y-86509516D01*
X114941610Y-86462287D01*
X115035995Y-86393713D01*
X115107213Y-86341971D01*
X115107215Y-86341968D01*
X115107219Y-86341966D01*
X115251966Y-86197219D01*
X115251968Y-86197215D01*
X115251971Y-86197213D01*
X115331582Y-86087636D01*
X115372287Y-86031610D01*
X115465220Y-85849219D01*
X115528477Y-85654534D01*
X115560500Y-85452352D01*
X115560500Y-85247648D01*
X115550222Y-85182754D01*
X115528477Y-85045465D01*
X115465218Y-84850776D01*
X115406732Y-84735992D01*
X115372287Y-84668390D01*
X115364556Y-84657749D01*
X115251971Y-84502786D01*
X115107213Y-84358028D01*
X114941614Y-84237715D01*
X114935006Y-84234348D01*
X114848917Y-84190483D01*
X114798123Y-84142511D01*
X114781328Y-84074690D01*
X114803865Y-84008555D01*
X114848917Y-83969516D01*
X114941610Y-83922287D01*
X115035995Y-83853713D01*
X115107213Y-83801971D01*
X115107215Y-83801968D01*
X115107219Y-83801966D01*
X115251966Y-83657219D01*
X115251968Y-83657215D01*
X115251971Y-83657213D01*
X115372284Y-83491614D01*
X115372285Y-83491613D01*
X115372287Y-83491610D01*
X115419516Y-83398917D01*
X115467489Y-83348123D01*
X115535310Y-83331328D01*
X115601445Y-83353865D01*
X115640483Y-83398917D01*
X115684348Y-83485006D01*
X115687715Y-83491614D01*
X115808028Y-83657213D01*
X115952786Y-83801971D01*
X116107749Y-83914556D01*
X116118390Y-83922287D01*
X116211080Y-83969515D01*
X116300776Y-84015218D01*
X116300778Y-84015218D01*
X116300781Y-84015220D01*
X116347276Y-84030327D01*
X116495465Y-84078477D01*
X116514697Y-84081523D01*
X116697648Y-84110500D01*
X116697649Y-84110500D01*
X116902351Y-84110500D01*
X116902352Y-84110500D01*
X117104534Y-84078477D01*
X117299219Y-84015220D01*
X117481610Y-83922287D01*
X117575995Y-83853713D01*
X117647213Y-83801971D01*
X117647215Y-83801968D01*
X117647219Y-83801966D01*
X117791966Y-83657219D01*
X117791968Y-83657215D01*
X117791971Y-83657213D01*
X117845160Y-83584003D01*
X117912287Y-83491610D01*
X118005220Y-83309219D01*
X118068477Y-83114534D01*
X118100500Y-82912352D01*
X118100500Y-82707648D01*
X118068477Y-82505466D01*
X118050490Y-82450109D01*
X118005218Y-82310776D01*
X117959515Y-82221080D01*
X117912287Y-82128390D01*
X117904556Y-82117749D01*
X117791971Y-81962786D01*
X117647213Y-81818028D01*
X117481613Y-81697715D01*
X117481612Y-81697714D01*
X117481610Y-81697713D01*
X117424653Y-81668691D01*
X117299223Y-81604781D01*
X117104534Y-81541522D01*
X116929995Y-81513878D01*
X116902352Y-81509500D01*
X116697648Y-81509500D01*
X116673329Y-81513351D01*
X116495465Y-81541522D01*
X116300776Y-81604781D01*
X116118386Y-81697715D01*
X115952786Y-81818028D01*
X115808028Y-81962786D01*
X115687715Y-82128386D01*
X115640485Y-82221080D01*
X115592510Y-82271876D01*
X115524689Y-82288671D01*
X115458554Y-82266134D01*
X115419515Y-82221080D01*
X115418883Y-82219840D01*
X115372287Y-82128390D01*
X115364556Y-82117749D01*
X115251971Y-81962786D01*
X115107213Y-81818028D01*
X114941614Y-81697715D01*
X114935006Y-81694348D01*
X114848917Y-81650483D01*
X114798123Y-81602511D01*
X114781328Y-81534690D01*
X114803865Y-81468555D01*
X114848917Y-81429516D01*
X114941610Y-81382287D01*
X115035995Y-81313713D01*
X115107213Y-81261971D01*
X115107215Y-81261968D01*
X115107219Y-81261966D01*
X115251966Y-81117219D01*
X115251968Y-81117215D01*
X115251971Y-81117213D01*
X115304732Y-81044590D01*
X115372287Y-80951610D01*
X115465220Y-80769219D01*
X115528477Y-80574534D01*
X115560500Y-80372352D01*
X115560500Y-80167648D01*
X115528477Y-79965466D01*
X115510490Y-79910109D01*
X115465218Y-79770776D01*
X115431503Y-79704607D01*
X115372287Y-79588390D01*
X115364556Y-79577749D01*
X115251971Y-79422786D01*
X115107213Y-79278028D01*
X114941614Y-79157715D01*
X114935006Y-79154348D01*
X114848917Y-79110483D01*
X114798123Y-79062511D01*
X114781328Y-78994690D01*
X114803865Y-78928555D01*
X114848917Y-78889516D01*
X114941610Y-78842287D01*
X115035995Y-78773713D01*
X115107213Y-78721971D01*
X115107215Y-78721968D01*
X115107219Y-78721966D01*
X115251966Y-78577219D01*
X115251968Y-78577215D01*
X115251971Y-78577213D01*
X115307505Y-78500776D01*
X115372287Y-78411610D01*
X115465220Y-78229219D01*
X115528477Y-78034534D01*
X115560500Y-77832352D01*
X115560500Y-77627648D01*
X115528477Y-77425466D01*
X115510490Y-77370109D01*
X115465218Y-77230776D01*
X115403792Y-77110222D01*
X115372287Y-77048390D01*
X115364556Y-77037749D01*
X115251971Y-76882786D01*
X115107213Y-76738028D01*
X114941614Y-76617715D01*
X114919183Y-76606286D01*
X114848917Y-76570483D01*
X114798123Y-76522511D01*
X114781328Y-76454690D01*
X114803865Y-76388555D01*
X114848917Y-76349516D01*
X114941610Y-76302287D01*
X114962770Y-76286913D01*
X115107213Y-76181971D01*
X115107215Y-76181968D01*
X115107219Y-76181966D01*
X115251966Y-76037219D01*
X115251968Y-76037215D01*
X115251971Y-76037213D01*
X115328587Y-75931758D01*
X115372287Y-75871610D01*
X115465220Y-75689219D01*
X115528477Y-75494534D01*
X115560500Y-75292352D01*
X115560500Y-75087648D01*
X115528477Y-74885466D01*
X115510490Y-74830109D01*
X115465218Y-74690776D01*
X115420163Y-74602352D01*
X115372287Y-74508390D01*
X115364556Y-74497749D01*
X115251971Y-74342786D01*
X115107213Y-74198028D01*
X114941614Y-74077715D01*
X114919183Y-74066286D01*
X114848917Y-74030483D01*
X114798123Y-73982511D01*
X114781328Y-73914690D01*
X114803865Y-73848555D01*
X114848917Y-73809516D01*
X114941610Y-73762287D01*
X115035995Y-73693713D01*
X115107213Y-73641971D01*
X115107215Y-73641968D01*
X115107219Y-73641966D01*
X115251966Y-73497219D01*
X115251968Y-73497215D01*
X115251971Y-73497213D01*
X115305160Y-73424003D01*
X115372287Y-73331610D01*
X115465220Y-73149219D01*
X115528477Y-72954534D01*
X115560500Y-72752352D01*
X115560500Y-72547648D01*
X115528477Y-72345466D01*
X115510490Y-72290109D01*
X115465218Y-72150776D01*
X115431503Y-72084607D01*
X115372287Y-71968390D01*
X115364556Y-71957749D01*
X115251971Y-71802786D01*
X115107213Y-71658028D01*
X114941614Y-71537715D01*
X114919183Y-71526286D01*
X114848917Y-71490483D01*
X114798123Y-71442511D01*
X114781328Y-71374690D01*
X114803865Y-71308555D01*
X114848917Y-71269516D01*
X114941610Y-71222287D01*
X115035995Y-71153713D01*
X115107213Y-71101971D01*
X115107215Y-71101968D01*
X115107219Y-71101966D01*
X115251966Y-70957219D01*
X115251968Y-70957215D01*
X115251971Y-70957213D01*
X115331889Y-70847213D01*
X115372287Y-70791610D01*
X115465220Y-70609219D01*
X115528477Y-70414534D01*
X115560500Y-70212352D01*
X115560500Y-70007648D01*
X115550222Y-69942754D01*
X115528477Y-69805465D01*
X115492736Y-69695466D01*
X115465220Y-69610781D01*
X115465218Y-69610778D01*
X115465218Y-69610776D01*
X115409172Y-69500781D01*
X115372287Y-69428390D01*
X115364556Y-69417749D01*
X115251971Y-69262786D01*
X115107213Y-69118028D01*
X114941614Y-68997715D01*
X114919183Y-68986286D01*
X114848917Y-68950483D01*
X114798123Y-68902511D01*
X114781328Y-68834690D01*
X114803865Y-68768555D01*
X114848917Y-68729516D01*
X114941610Y-68682287D01*
X114962770Y-68666913D01*
X115107213Y-68561971D01*
X115107215Y-68561968D01*
X115107219Y-68561966D01*
X115251966Y-68417219D01*
X115251968Y-68417215D01*
X115251971Y-68417213D01*
X115304732Y-68344590D01*
X115372287Y-68251610D01*
X115465220Y-68069219D01*
X115528477Y-67874534D01*
X115560500Y-67672352D01*
X115560500Y-67467648D01*
X115528477Y-67265466D01*
X115465220Y-67070781D01*
X115465218Y-67070778D01*
X115465218Y-67070776D01*
X115409993Y-66962393D01*
X115372287Y-66888390D01*
X115364556Y-66877749D01*
X115251971Y-66722786D01*
X115107213Y-66578028D01*
X114941614Y-66457715D01*
X114919183Y-66446286D01*
X114848917Y-66410483D01*
X114798123Y-66362511D01*
X114781328Y-66294690D01*
X114803865Y-66228555D01*
X114848917Y-66189516D01*
X114941610Y-66142287D01*
X115000502Y-66099500D01*
X115107213Y-66021971D01*
X115107215Y-66021968D01*
X115107219Y-66021966D01*
X115251966Y-65877219D01*
X115251968Y-65877215D01*
X115251971Y-65877213D01*
X115372284Y-65711614D01*
X115372285Y-65711613D01*
X115372287Y-65711610D01*
X115419516Y-65618917D01*
X115467489Y-65568123D01*
X115535310Y-65551328D01*
X115601445Y-65573865D01*
X115640483Y-65618917D01*
X115684348Y-65705006D01*
X115687715Y-65711614D01*
X115808028Y-65877213D01*
X115952786Y-66021971D01*
X116059498Y-66099500D01*
X116118390Y-66142287D01*
X116195566Y-66181610D01*
X116300776Y-66235218D01*
X116300778Y-66235218D01*
X116300781Y-66235220D01*
X116405137Y-66269127D01*
X116495465Y-66298477D01*
X116538613Y-66305311D01*
X116697648Y-66330500D01*
X116697649Y-66330500D01*
X116902351Y-66330500D01*
X116902352Y-66330500D01*
X117104534Y-66298477D01*
X117299219Y-66235220D01*
X117481610Y-66142287D01*
X117574590Y-66074732D01*
X117647213Y-66021971D01*
X117647215Y-66021968D01*
X117647219Y-66021966D01*
X117791966Y-65877219D01*
X117791968Y-65877215D01*
X117791971Y-65877213D01*
X117912284Y-65711614D01*
X117912285Y-65711613D01*
X117912287Y-65711610D01*
X117959516Y-65618917D01*
X118007489Y-65568123D01*
X118075310Y-65551328D01*
X118141445Y-65573865D01*
X118180483Y-65618917D01*
X118224348Y-65705006D01*
X118227715Y-65711614D01*
X118348028Y-65877213D01*
X118492786Y-66021971D01*
X118599498Y-66099500D01*
X118658390Y-66142287D01*
X118735566Y-66181610D01*
X118840776Y-66235218D01*
X118840778Y-66235218D01*
X118840781Y-66235220D01*
X118945137Y-66269127D01*
X119035465Y-66298477D01*
X119078613Y-66305311D01*
X119237648Y-66330500D01*
X119237649Y-66330500D01*
X119442351Y-66330500D01*
X119442352Y-66330500D01*
X119644534Y-66298477D01*
X119839219Y-66235220D01*
X120021610Y-66142287D01*
X120114590Y-66074732D01*
X120187213Y-66021971D01*
X120187215Y-66021968D01*
X120187219Y-66021966D01*
X120331966Y-65877219D01*
X120331968Y-65877215D01*
X120331971Y-65877213D01*
X120384774Y-65804534D01*
X120452287Y-65711610D01*
X120545220Y-65529219D01*
X120608477Y-65334534D01*
X120640500Y-65132352D01*
X120640500Y-64927648D01*
X123119500Y-64927648D01*
X123119500Y-65132352D01*
X123119798Y-65134234D01*
X123151522Y-65334534D01*
X123214781Y-65529223D01*
X123307715Y-65711613D01*
X123428028Y-65877213D01*
X123572786Y-66021971D01*
X123679498Y-66099500D01*
X123738390Y-66142287D01*
X123815566Y-66181610D01*
X123920776Y-66235218D01*
X123920778Y-66235218D01*
X123920781Y-66235220D01*
X124025137Y-66269127D01*
X124115465Y-66298477D01*
X124158613Y-66305311D01*
X124317648Y-66330500D01*
X124317649Y-66330500D01*
X124522351Y-66330500D01*
X124522352Y-66330500D01*
X124724534Y-66298477D01*
X124919219Y-66235220D01*
X125101610Y-66142287D01*
X125194590Y-66074732D01*
X125267213Y-66021971D01*
X125267215Y-66021968D01*
X125267219Y-66021966D01*
X125411966Y-65877219D01*
X125411968Y-65877215D01*
X125411971Y-65877213D01*
X125532284Y-65711614D01*
X125532285Y-65711613D01*
X125532287Y-65711610D01*
X125579516Y-65618917D01*
X125627489Y-65568123D01*
X125695310Y-65551328D01*
X125761445Y-65573865D01*
X125800483Y-65618917D01*
X125844348Y-65705006D01*
X125847715Y-65711614D01*
X125968028Y-65877213D01*
X126112786Y-66021971D01*
X126219498Y-66099500D01*
X126278390Y-66142287D01*
X126355566Y-66181610D01*
X126460776Y-66235218D01*
X126460778Y-66235218D01*
X126460781Y-66235220D01*
X126565137Y-66269127D01*
X126655465Y-66298477D01*
X126698613Y-66305311D01*
X126857648Y-66330500D01*
X126857649Y-66330500D01*
X127062351Y-66330500D01*
X127062352Y-66330500D01*
X127264534Y-66298477D01*
X127459219Y-66235220D01*
X127641610Y-66142287D01*
X127734590Y-66074732D01*
X127807213Y-66021971D01*
X127807215Y-66021968D01*
X127807219Y-66021966D01*
X127951966Y-65877219D01*
X127951968Y-65877215D01*
X127951971Y-65877213D01*
X128072284Y-65711614D01*
X128072285Y-65711613D01*
X128072287Y-65711610D01*
X128119516Y-65618917D01*
X128167489Y-65568123D01*
X128235310Y-65551328D01*
X128301445Y-65573865D01*
X128340483Y-65618917D01*
X128384348Y-65705006D01*
X128387715Y-65711614D01*
X128508028Y-65877213D01*
X128652786Y-66021971D01*
X128759498Y-66099500D01*
X128818390Y-66142287D01*
X128895566Y-66181610D01*
X128911080Y-66189515D01*
X128961876Y-66237490D01*
X128978671Y-66305311D01*
X128956134Y-66371446D01*
X128911080Y-66410485D01*
X128818386Y-66457715D01*
X128652786Y-66578028D01*
X128508028Y-66722786D01*
X128387715Y-66888386D01*
X128294781Y-67070776D01*
X128231522Y-67265465D01*
X128199500Y-67467648D01*
X128199500Y-67672351D01*
X128231522Y-67874534D01*
X128294781Y-68069223D01*
X128347241Y-68172179D01*
X128378751Y-68234022D01*
X128387715Y-68251613D01*
X128508028Y-68417213D01*
X128652786Y-68561971D01*
X128807749Y-68674556D01*
X128818390Y-68682287D01*
X128909840Y-68728883D01*
X128911080Y-68729515D01*
X128961876Y-68777490D01*
X128978671Y-68845311D01*
X128956134Y-68911446D01*
X128911080Y-68950485D01*
X128818386Y-68997715D01*
X128652786Y-69118028D01*
X128508028Y-69262786D01*
X128387715Y-69428386D01*
X128294781Y-69610776D01*
X128231522Y-69805465D01*
X128199500Y-70007648D01*
X128199500Y-70212351D01*
X128231522Y-70414534D01*
X128294781Y-70609223D01*
X128347241Y-70712179D01*
X128362225Y-70741588D01*
X128387715Y-70791613D01*
X128508028Y-70957213D01*
X128652786Y-71101971D01*
X128794896Y-71205218D01*
X128818390Y-71222287D01*
X128909043Y-71268477D01*
X128911080Y-71269515D01*
X128961876Y-71317490D01*
X128978671Y-71385311D01*
X128956134Y-71451446D01*
X128911080Y-71490485D01*
X128818386Y-71537715D01*
X128652786Y-71658028D01*
X128508028Y-71802786D01*
X128387715Y-71968386D01*
X128294781Y-72150776D01*
X128231522Y-72345465D01*
X128199500Y-72547648D01*
X128199500Y-72752351D01*
X128231522Y-72954534D01*
X128294781Y-73149223D01*
X128336716Y-73231523D01*
X128362225Y-73281588D01*
X128387715Y-73331613D01*
X128508028Y-73497213D01*
X128652786Y-73641971D01*
X128807749Y-73754556D01*
X128818390Y-73762287D01*
X128909840Y-73808883D01*
X128911080Y-73809515D01*
X128961876Y-73857490D01*
X128978671Y-73925311D01*
X128956134Y-73991446D01*
X128911080Y-74030485D01*
X128818386Y-74077715D01*
X128652786Y-74198028D01*
X128508028Y-74342786D01*
X128387715Y-74508386D01*
X128294781Y-74690776D01*
X128231522Y-74885465D01*
X128199500Y-75087648D01*
X128199500Y-75292351D01*
X128231522Y-75494534D01*
X128294781Y-75689223D01*
X128352339Y-75802185D01*
X128362225Y-75821588D01*
X128387715Y-75871613D01*
X128508028Y-76037213D01*
X128652786Y-76181971D01*
X128807749Y-76294556D01*
X128818390Y-76302287D01*
X128909840Y-76348883D01*
X128911080Y-76349515D01*
X128961876Y-76397490D01*
X128978671Y-76465311D01*
X128956134Y-76531446D01*
X128911080Y-76570485D01*
X128818386Y-76617715D01*
X128652786Y-76738028D01*
X128508028Y-76882786D01*
X128387715Y-77048386D01*
X128294781Y-77230776D01*
X128231522Y-77425465D01*
X128199500Y-77627648D01*
X128199500Y-77832351D01*
X128231522Y-78034534D01*
X128294781Y-78229223D01*
X128340213Y-78318386D01*
X128382052Y-78400500D01*
X128387715Y-78411613D01*
X128508028Y-78577213D01*
X128652786Y-78721971D01*
X128745500Y-78789330D01*
X128818390Y-78842287D01*
X128909840Y-78888883D01*
X128911080Y-78889515D01*
X128961876Y-78937490D01*
X128978671Y-79005311D01*
X128956134Y-79071446D01*
X128911080Y-79110485D01*
X128818386Y-79157715D01*
X128652786Y-79278028D01*
X128508028Y-79422786D01*
X128387715Y-79588386D01*
X128294781Y-79770776D01*
X128231522Y-79965465D01*
X128199500Y-80167648D01*
X128199500Y-80372351D01*
X128231522Y-80574534D01*
X128294781Y-80769223D01*
X128358691Y-80894653D01*
X128362225Y-80901588D01*
X128387715Y-80951613D01*
X128508028Y-81117213D01*
X128652786Y-81261971D01*
X128807749Y-81374556D01*
X128818390Y-81382287D01*
X128909840Y-81428883D01*
X128911080Y-81429515D01*
X128961876Y-81477490D01*
X128978671Y-81545311D01*
X128956134Y-81611446D01*
X128911080Y-81650485D01*
X128818386Y-81697715D01*
X128652786Y-81818028D01*
X128508028Y-81962786D01*
X128387715Y-82128386D01*
X128340485Y-82221080D01*
X128292510Y-82271876D01*
X128224689Y-82288671D01*
X128158554Y-82266134D01*
X128119515Y-82221080D01*
X128118883Y-82219840D01*
X128072287Y-82128390D01*
X128064556Y-82117749D01*
X127951971Y-81962786D01*
X127807213Y-81818028D01*
X127641613Y-81697715D01*
X127641612Y-81697714D01*
X127641610Y-81697713D01*
X127584653Y-81668691D01*
X127459223Y-81604781D01*
X127264534Y-81541522D01*
X127089995Y-81513878D01*
X127062352Y-81509500D01*
X126857648Y-81509500D01*
X126833329Y-81513351D01*
X126655465Y-81541522D01*
X126460776Y-81604781D01*
X126278386Y-81697715D01*
X126112786Y-81818028D01*
X125968028Y-81962786D01*
X125847715Y-82128386D01*
X125754781Y-82310776D01*
X125691522Y-82505465D01*
X125659500Y-82707648D01*
X125659500Y-82912351D01*
X125691522Y-83114534D01*
X125754781Y-83309223D01*
X125818691Y-83434653D01*
X125822225Y-83441588D01*
X125847715Y-83491613D01*
X125968028Y-83657213D01*
X126112786Y-83801971D01*
X126267749Y-83914556D01*
X126278390Y-83922287D01*
X126371080Y-83969515D01*
X126460776Y-84015218D01*
X126460778Y-84015218D01*
X126460781Y-84015220D01*
X126507276Y-84030327D01*
X126655465Y-84078477D01*
X126674697Y-84081523D01*
X126857648Y-84110500D01*
X126857649Y-84110500D01*
X127062351Y-84110500D01*
X127062352Y-84110500D01*
X127264534Y-84078477D01*
X127459219Y-84015220D01*
X127641610Y-83922287D01*
X127735995Y-83853713D01*
X127807213Y-83801971D01*
X127807215Y-83801968D01*
X127807219Y-83801966D01*
X127951966Y-83657219D01*
X127951968Y-83657215D01*
X127951971Y-83657213D01*
X128072284Y-83491614D01*
X128072285Y-83491613D01*
X128072287Y-83491610D01*
X128119516Y-83398917D01*
X128167489Y-83348123D01*
X128235310Y-83331328D01*
X128301445Y-83353865D01*
X128340483Y-83398917D01*
X128384348Y-83485006D01*
X128387715Y-83491614D01*
X128508028Y-83657213D01*
X128652786Y-83801971D01*
X128807749Y-83914556D01*
X128818390Y-83922287D01*
X128909840Y-83968883D01*
X128911080Y-83969515D01*
X128961876Y-84017490D01*
X128978671Y-84085311D01*
X128956134Y-84151446D01*
X128911080Y-84190485D01*
X128818386Y-84237715D01*
X128652786Y-84358028D01*
X128508028Y-84502786D01*
X128387715Y-84668386D01*
X128294781Y-84850776D01*
X128231522Y-85045465D01*
X128199500Y-85247648D01*
X128199500Y-85452351D01*
X128231522Y-85654534D01*
X128294781Y-85849223D01*
X128358691Y-85974653D01*
X128362225Y-85981588D01*
X128387715Y-86031613D01*
X128508028Y-86197213D01*
X128652786Y-86341971D01*
X128807749Y-86454556D01*
X128818390Y-86462287D01*
X128909840Y-86508883D01*
X128911080Y-86509515D01*
X128961876Y-86557490D01*
X128978671Y-86625311D01*
X128956134Y-86691446D01*
X128911080Y-86730485D01*
X128818386Y-86777715D01*
X128652786Y-86898028D01*
X128508028Y-87042786D01*
X128387715Y-87208386D01*
X128294781Y-87390776D01*
X128231522Y-87585465D01*
X128199500Y-87787648D01*
X128199500Y-87992351D01*
X128231522Y-88194534D01*
X128294781Y-88389223D01*
X128358691Y-88514653D01*
X128362225Y-88521588D01*
X128387715Y-88571613D01*
X128508028Y-88737213D01*
X128652786Y-88881971D01*
X128807749Y-88994556D01*
X128818390Y-89002287D01*
X128909840Y-89048883D01*
X128911080Y-89049515D01*
X128961876Y-89097490D01*
X128978671Y-89165311D01*
X128956134Y-89231446D01*
X128911080Y-89270485D01*
X128818386Y-89317715D01*
X128652786Y-89438028D01*
X128508028Y-89582786D01*
X128387715Y-89748386D01*
X128294781Y-89930776D01*
X128231522Y-90125465D01*
X128199500Y-90327648D01*
X128199500Y-90532351D01*
X128231522Y-90734534D01*
X128294781Y-90929223D01*
X128387715Y-91111613D01*
X128508028Y-91277213D01*
X128652786Y-91421971D01*
X128807749Y-91534556D01*
X128818390Y-91542287D01*
X128934607Y-91601503D01*
X129000776Y-91635218D01*
X129000778Y-91635218D01*
X129000781Y-91635220D01*
X129105137Y-91669127D01*
X129195465Y-91698477D01*
X129214697Y-91701523D01*
X129397648Y-91730500D01*
X129397649Y-91730500D01*
X129602351Y-91730500D01*
X129602352Y-91730500D01*
X129804534Y-91698477D01*
X129999219Y-91635220D01*
X130181610Y-91542287D01*
X130274590Y-91474732D01*
X130347213Y-91421971D01*
X130347215Y-91421968D01*
X130347219Y-91421966D01*
X130491966Y-91277219D01*
X130491968Y-91277215D01*
X130491971Y-91277213D01*
X130580102Y-91155909D01*
X130612287Y-91111610D01*
X130705220Y-90929219D01*
X130768477Y-90734534D01*
X130800500Y-90532352D01*
X130800500Y-90327648D01*
X130768477Y-90125466D01*
X130750490Y-90070109D01*
X130705218Y-89930776D01*
X130671503Y-89864607D01*
X130612287Y-89748390D01*
X130556397Y-89671463D01*
X130491971Y-89582786D01*
X130347213Y-89438028D01*
X130181614Y-89317715D01*
X130175006Y-89314348D01*
X130088917Y-89270483D01*
X130038123Y-89222511D01*
X130021328Y-89154690D01*
X130043865Y-89088555D01*
X130088917Y-89049516D01*
X130181610Y-89002287D01*
X130275995Y-88933713D01*
X130347213Y-88881971D01*
X130347215Y-88881968D01*
X130347219Y-88881966D01*
X130491966Y-88737219D01*
X130491968Y-88737215D01*
X130491971Y-88737213D01*
X130544732Y-88664590D01*
X130612287Y-88571610D01*
X130705220Y-88389219D01*
X130768477Y-88194534D01*
X130800500Y-87992352D01*
X130800500Y-87787648D01*
X130768477Y-87585466D01*
X130752925Y-87537603D01*
X130705218Y-87390776D01*
X130671503Y-87324607D01*
X130612287Y-87208390D01*
X130556397Y-87131463D01*
X130491971Y-87042786D01*
X130347213Y-86898028D01*
X130335858Y-86889778D01*
X178559500Y-86889778D01*
X178559500Y-87110222D01*
X178566434Y-87153999D01*
X178593985Y-87327952D01*
X178662103Y-87537603D01*
X178662104Y-87537606D01*
X178762187Y-87734025D01*
X178891752Y-87912358D01*
X178891756Y-87912363D01*
X179047636Y-88068243D01*
X179047641Y-88068247D01*
X179174216Y-88160208D01*
X179225978Y-88197815D01*
X179354375Y-88263237D01*
X179422393Y-88297895D01*
X179422396Y-88297896D01*
X179527221Y-88331955D01*
X179632049Y-88366015D01*
X179849778Y-88400500D01*
X179849779Y-88400500D01*
X180070221Y-88400500D01*
X180070222Y-88400500D01*
X180287951Y-88366015D01*
X180497606Y-88297895D01*
X180694022Y-88197815D01*
X180872365Y-88068242D01*
X181028242Y-87912365D01*
X181157815Y-87734022D01*
X181257895Y-87537606D01*
X181326015Y-87327951D01*
X181360500Y-87110222D01*
X181360500Y-86889778D01*
X181326015Y-86672049D01*
X181285890Y-86548555D01*
X181257896Y-86462396D01*
X181257895Y-86462393D01*
X181222900Y-86393713D01*
X181157815Y-86265978D01*
X181107855Y-86197213D01*
X181028247Y-86087641D01*
X181028243Y-86087636D01*
X180872363Y-85931756D01*
X180872358Y-85931752D01*
X180694025Y-85802187D01*
X180694024Y-85802186D01*
X180694022Y-85802185D01*
X180631096Y-85770122D01*
X180497606Y-85702104D01*
X180497603Y-85702103D01*
X180287952Y-85633985D01*
X180179086Y-85616742D01*
X180070222Y-85599500D01*
X179849778Y-85599500D01*
X179777201Y-85610995D01*
X179632047Y-85633985D01*
X179422396Y-85702103D01*
X179422393Y-85702104D01*
X179225974Y-85802187D01*
X179047641Y-85931752D01*
X179047636Y-85931756D01*
X178891756Y-86087636D01*
X178891752Y-86087641D01*
X178762187Y-86265974D01*
X178662104Y-86462393D01*
X178662103Y-86462396D01*
X178593985Y-86672047D01*
X178577249Y-86777713D01*
X178559500Y-86889778D01*
X130335858Y-86889778D01*
X130181614Y-86777715D01*
X130175006Y-86774348D01*
X130088917Y-86730483D01*
X130038123Y-86682511D01*
X130021328Y-86614690D01*
X130043865Y-86548555D01*
X130088917Y-86509516D01*
X130181610Y-86462287D01*
X130275995Y-86393713D01*
X130347213Y-86341971D01*
X130347215Y-86341968D01*
X130347219Y-86341966D01*
X130491966Y-86197219D01*
X130491968Y-86197215D01*
X130491971Y-86197213D01*
X130571582Y-86087636D01*
X130612287Y-86031610D01*
X130705220Y-85849219D01*
X130768477Y-85654534D01*
X130800500Y-85452352D01*
X130800500Y-85247648D01*
X130790222Y-85182754D01*
X130768477Y-85045465D01*
X130705218Y-84850776D01*
X130646732Y-84735992D01*
X130612287Y-84668390D01*
X130604556Y-84657749D01*
X130491971Y-84502786D01*
X130347213Y-84358028D01*
X130181614Y-84237715D01*
X130175006Y-84234348D01*
X130088917Y-84190483D01*
X130079764Y-84181838D01*
X130068099Y-84177104D01*
X130054847Y-84158306D01*
X130038123Y-84142511D01*
X130035096Y-84130288D01*
X130027842Y-84119998D01*
X130026856Y-84097017D01*
X130021328Y-84074690D01*
X130025389Y-84062772D01*
X130024850Y-84050192D01*
X130029689Y-84041902D01*
X134299500Y-84041902D01*
X134299500Y-84278097D01*
X134336446Y-84511368D01*
X134409433Y-84735996D01*
X134516657Y-84946433D01*
X134655483Y-85137510D01*
X134822490Y-85304517D01*
X135013567Y-85443343D01*
X135112991Y-85494002D01*
X135224003Y-85550566D01*
X135224005Y-85550566D01*
X135224008Y-85550568D01*
X135344412Y-85589689D01*
X135448631Y-85623553D01*
X135681903Y-85660500D01*
X135681908Y-85660500D01*
X135918097Y-85660500D01*
X136151368Y-85623553D01*
X136225395Y-85599500D01*
X136375992Y-85550568D01*
X136586433Y-85443343D01*
X136777510Y-85304517D01*
X136944517Y-85137510D01*
X136969682Y-85102872D01*
X137025011Y-85060207D01*
X137094625Y-85054228D01*
X137156420Y-85086833D01*
X137170315Y-85102870D01*
X137195483Y-85137510D01*
X137362490Y-85304517D01*
X137553567Y-85443343D01*
X137652991Y-85494002D01*
X137764003Y-85550566D01*
X137764005Y-85550566D01*
X137764008Y-85550568D01*
X137884412Y-85589689D01*
X137988631Y-85623553D01*
X138221903Y-85660500D01*
X138221908Y-85660500D01*
X138458097Y-85660500D01*
X138691368Y-85623553D01*
X138765395Y-85599500D01*
X138915992Y-85550568D01*
X139126433Y-85443343D01*
X139317510Y-85304517D01*
X139484517Y-85137510D01*
X139509682Y-85102872D01*
X139565011Y-85060207D01*
X139634625Y-85054228D01*
X139696420Y-85086833D01*
X139710315Y-85102870D01*
X139735483Y-85137510D01*
X139902490Y-85304517D01*
X140093567Y-85443343D01*
X140192991Y-85494002D01*
X140304003Y-85550566D01*
X140304005Y-85550566D01*
X140304008Y-85550568D01*
X140424412Y-85589689D01*
X140528631Y-85623553D01*
X140761903Y-85660500D01*
X140761908Y-85660500D01*
X140998097Y-85660500D01*
X141231368Y-85623553D01*
X141305395Y-85599500D01*
X141455992Y-85550568D01*
X141666433Y-85443343D01*
X141857510Y-85304517D01*
X142024517Y-85137510D01*
X142049682Y-85102872D01*
X142105011Y-85060207D01*
X142174625Y-85054228D01*
X142236420Y-85086833D01*
X142250315Y-85102870D01*
X142275483Y-85137510D01*
X142442490Y-85304517D01*
X142633567Y-85443343D01*
X142732991Y-85494002D01*
X142844003Y-85550566D01*
X142844005Y-85550566D01*
X142844008Y-85550568D01*
X142964412Y-85589689D01*
X143068631Y-85623553D01*
X143301903Y-85660500D01*
X143301908Y-85660500D01*
X143538097Y-85660500D01*
X143771368Y-85623553D01*
X143845395Y-85599500D01*
X143995992Y-85550568D01*
X144206433Y-85443343D01*
X144397510Y-85304517D01*
X144564517Y-85137510D01*
X144589682Y-85102872D01*
X144645011Y-85060207D01*
X144714625Y-85054228D01*
X144776420Y-85086833D01*
X144790315Y-85102870D01*
X144815483Y-85137510D01*
X144982490Y-85304517D01*
X145173567Y-85443343D01*
X145272991Y-85494002D01*
X145384003Y-85550566D01*
X145384005Y-85550566D01*
X145384008Y-85550568D01*
X145504412Y-85589689D01*
X145608631Y-85623553D01*
X145841903Y-85660500D01*
X145841908Y-85660500D01*
X146078097Y-85660500D01*
X146311368Y-85623553D01*
X146385395Y-85599500D01*
X146535992Y-85550568D01*
X146746433Y-85443343D01*
X146937510Y-85304517D01*
X147104517Y-85137510D01*
X147129682Y-85102872D01*
X147185011Y-85060207D01*
X147254625Y-85054228D01*
X147316420Y-85086833D01*
X147330315Y-85102870D01*
X147355483Y-85137510D01*
X147522490Y-85304517D01*
X147713567Y-85443343D01*
X147812991Y-85494002D01*
X147924003Y-85550566D01*
X147924005Y-85550566D01*
X147924008Y-85550568D01*
X148044412Y-85589689D01*
X148148631Y-85623553D01*
X148381903Y-85660500D01*
X148381908Y-85660500D01*
X148618097Y-85660500D01*
X148851368Y-85623553D01*
X148925395Y-85599500D01*
X149075992Y-85550568D01*
X149286433Y-85443343D01*
X149477510Y-85304517D01*
X149644517Y-85137510D01*
X149669682Y-85102872D01*
X149725011Y-85060207D01*
X149794625Y-85054228D01*
X149856420Y-85086833D01*
X149870315Y-85102870D01*
X149895483Y-85137510D01*
X150062490Y-85304517D01*
X150253567Y-85443343D01*
X150352991Y-85494002D01*
X150464003Y-85550566D01*
X150464005Y-85550566D01*
X150464008Y-85550568D01*
X150584412Y-85589689D01*
X150688631Y-85623553D01*
X150921903Y-85660500D01*
X150921908Y-85660500D01*
X151158097Y-85660500D01*
X151391368Y-85623553D01*
X151465395Y-85599500D01*
X151615992Y-85550568D01*
X151826433Y-85443343D01*
X152017510Y-85304517D01*
X152184517Y-85137510D01*
X152323343Y-84946433D01*
X152430568Y-84735992D01*
X152503553Y-84511368D01*
X152527839Y-84358034D01*
X152540500Y-84278097D01*
X152540500Y-84041902D01*
X152503553Y-83808631D01*
X152454354Y-83657213D01*
X152430568Y-83584008D01*
X152430566Y-83584005D01*
X152430566Y-83584003D01*
X152323342Y-83373566D01*
X152309999Y-83355201D01*
X152184517Y-83182490D01*
X152017510Y-83015483D01*
X151826433Y-82876657D01*
X151615996Y-82769433D01*
X151391368Y-82696446D01*
X151158097Y-82659500D01*
X151158092Y-82659500D01*
X150921908Y-82659500D01*
X150921903Y-82659500D01*
X150688631Y-82696446D01*
X150464003Y-82769433D01*
X150253566Y-82876657D01*
X150204437Y-82912352D01*
X150062490Y-83015483D01*
X150062488Y-83015485D01*
X150062487Y-83015485D01*
X149895484Y-83182488D01*
X149870318Y-83217127D01*
X149814987Y-83259792D01*
X149745374Y-83265771D01*
X149683579Y-83233165D01*
X149669682Y-83217127D01*
X149644517Y-83182490D01*
X149477510Y-83015483D01*
X149286433Y-82876657D01*
X149075996Y-82769433D01*
X148851368Y-82696446D01*
X148618097Y-82659500D01*
X148618092Y-82659500D01*
X148381908Y-82659500D01*
X148381903Y-82659500D01*
X148148631Y-82696446D01*
X147924003Y-82769433D01*
X147713566Y-82876657D01*
X147664437Y-82912352D01*
X147522490Y-83015483D01*
X147522488Y-83015485D01*
X147522487Y-83015485D01*
X147355484Y-83182488D01*
X147330318Y-83217127D01*
X147274987Y-83259792D01*
X147205374Y-83265771D01*
X147143579Y-83233165D01*
X147129682Y-83217127D01*
X147104517Y-83182490D01*
X146937510Y-83015483D01*
X146746433Y-82876657D01*
X146535996Y-82769433D01*
X146311368Y-82696446D01*
X146078097Y-82659500D01*
X146078092Y-82659500D01*
X145841908Y-82659500D01*
X145841903Y-82659500D01*
X145608631Y-82696446D01*
X145384003Y-82769433D01*
X145173566Y-82876657D01*
X145124437Y-82912352D01*
X144982490Y-83015483D01*
X144982488Y-83015485D01*
X144982487Y-83015485D01*
X144815484Y-83182488D01*
X144790318Y-83217127D01*
X144734987Y-83259792D01*
X144665374Y-83265771D01*
X144603579Y-83233165D01*
X144589682Y-83217127D01*
X144564517Y-83182490D01*
X144397510Y-83015483D01*
X144206433Y-82876657D01*
X143995996Y-82769433D01*
X143771368Y-82696446D01*
X143538097Y-82659500D01*
X143538092Y-82659500D01*
X143301908Y-82659500D01*
X143301903Y-82659500D01*
X143068631Y-82696446D01*
X142844003Y-82769433D01*
X142633566Y-82876657D01*
X142584437Y-82912352D01*
X142442490Y-83015483D01*
X142442488Y-83015485D01*
X142442487Y-83015485D01*
X142275484Y-83182488D01*
X142250318Y-83217127D01*
X142194987Y-83259792D01*
X142125374Y-83265771D01*
X142063579Y-83233165D01*
X142049682Y-83217127D01*
X142024517Y-83182490D01*
X141857510Y-83015483D01*
X141666433Y-82876657D01*
X141455996Y-82769433D01*
X141231368Y-82696446D01*
X140998097Y-82659500D01*
X140998092Y-82659500D01*
X140761908Y-82659500D01*
X140761903Y-82659500D01*
X140528631Y-82696446D01*
X140304003Y-82769433D01*
X140093566Y-82876657D01*
X140044437Y-82912352D01*
X139902490Y-83015483D01*
X139902488Y-83015485D01*
X139902487Y-83015485D01*
X139735484Y-83182488D01*
X139710318Y-83217127D01*
X139654987Y-83259792D01*
X139585374Y-83265771D01*
X139523579Y-83233165D01*
X139509682Y-83217127D01*
X139484517Y-83182490D01*
X139317510Y-83015483D01*
X139126433Y-82876657D01*
X138915996Y-82769433D01*
X138691368Y-82696446D01*
X138458097Y-82659500D01*
X138458092Y-82659500D01*
X138221908Y-82659500D01*
X138221903Y-82659500D01*
X137988631Y-82696446D01*
X137764003Y-82769433D01*
X137553566Y-82876657D01*
X137504437Y-82912352D01*
X137362490Y-83015483D01*
X137362488Y-83015485D01*
X137362487Y-83015485D01*
X137195484Y-83182488D01*
X137170318Y-83217127D01*
X137114987Y-83259792D01*
X137045374Y-83265771D01*
X136983579Y-83233165D01*
X136969682Y-83217127D01*
X136944517Y-83182490D01*
X136777510Y-83015483D01*
X136586433Y-82876657D01*
X136375996Y-82769433D01*
X136151368Y-82696446D01*
X135918097Y-82659500D01*
X135918092Y-82659500D01*
X135681908Y-82659500D01*
X135681903Y-82659500D01*
X135448631Y-82696446D01*
X135224003Y-82769433D01*
X135013566Y-82876657D01*
X134964437Y-82912352D01*
X134822490Y-83015483D01*
X134822488Y-83015485D01*
X134822487Y-83015485D01*
X134655485Y-83182487D01*
X134655485Y-83182488D01*
X134655483Y-83182490D01*
X134604851Y-83252179D01*
X134516657Y-83373566D01*
X134409433Y-83584003D01*
X134336446Y-83808631D01*
X134299500Y-84041902D01*
X130029689Y-84041902D01*
X130036445Y-84030327D01*
X130043865Y-84008555D01*
X130054569Y-83999279D01*
X130060073Y-83989851D01*
X130088916Y-83969516D01*
X130181610Y-83922287D01*
X130275995Y-83853713D01*
X130347213Y-83801971D01*
X130347215Y-83801968D01*
X130347219Y-83801966D01*
X130491966Y-83657219D01*
X130491968Y-83657215D01*
X130491971Y-83657213D01*
X130545160Y-83584003D01*
X130612287Y-83491610D01*
X130705220Y-83309219D01*
X130768477Y-83114534D01*
X130800500Y-82912352D01*
X130800500Y-82707648D01*
X130768477Y-82505466D01*
X130750490Y-82450109D01*
X130705218Y-82310776D01*
X130659515Y-82221080D01*
X130612287Y-82128390D01*
X130604556Y-82117749D01*
X130491971Y-81962786D01*
X130347213Y-81818028D01*
X130181614Y-81697715D01*
X130175006Y-81694348D01*
X130088917Y-81650483D01*
X130038123Y-81602511D01*
X130021328Y-81534690D01*
X130043865Y-81468555D01*
X130088917Y-81429516D01*
X130181610Y-81382287D01*
X130275995Y-81313713D01*
X130347213Y-81261971D01*
X130347215Y-81261968D01*
X130347219Y-81261966D01*
X130491966Y-81117219D01*
X130491968Y-81117215D01*
X130491971Y-81117213D01*
X130544732Y-81044590D01*
X130612287Y-80951610D01*
X130705220Y-80769219D01*
X130768477Y-80574534D01*
X130800500Y-80372352D01*
X130800500Y-80167648D01*
X130768477Y-79965466D01*
X130750490Y-79910109D01*
X130705218Y-79770776D01*
X130671503Y-79704607D01*
X130612287Y-79588390D01*
X130604556Y-79577749D01*
X130491971Y-79422786D01*
X130347213Y-79278028D01*
X130181614Y-79157715D01*
X130175006Y-79154348D01*
X130088917Y-79110483D01*
X130082978Y-79104874D01*
X130075209Y-79102349D01*
X165079499Y-79102349D01*
X165111522Y-79304534D01*
X165174781Y-79499223D01*
X165267715Y-79681613D01*
X165388028Y-79847213D01*
X165532786Y-79991971D01*
X165664261Y-80087491D01*
X165698390Y-80112287D01*
X165807042Y-80167648D01*
X165880776Y-80205218D01*
X165880778Y-80205218D01*
X165880781Y-80205220D01*
X165930723Y-80221447D01*
X166075465Y-80268477D01*
X166176557Y-80284488D01*
X166277648Y-80300500D01*
X166277649Y-80300500D01*
X166482351Y-80300500D01*
X166482352Y-80300500D01*
X166684534Y-80268477D01*
X166879219Y-80205220D01*
X167061610Y-80112287D01*
X167167917Y-80035051D01*
X167227213Y-79991971D01*
X167227215Y-79991968D01*
X167227219Y-79991966D01*
X167371966Y-79847219D01*
X167371968Y-79847215D01*
X167371971Y-79847213D01*
X167435489Y-79759786D01*
X167492287Y-79681610D01*
X167585220Y-79499219D01*
X167648477Y-79304534D01*
X167680500Y-79102352D01*
X167680500Y-79102349D01*
X172699499Y-79102349D01*
X172731522Y-79304534D01*
X172794781Y-79499223D01*
X172887715Y-79681613D01*
X173008028Y-79847213D01*
X173152786Y-79991971D01*
X173284261Y-80087491D01*
X173318390Y-80112287D01*
X173427042Y-80167648D01*
X173500776Y-80205218D01*
X173500778Y-80205218D01*
X173500781Y-80205220D01*
X173550723Y-80221447D01*
X173695465Y-80268477D01*
X173796557Y-80284488D01*
X173897648Y-80300500D01*
X173897649Y-80300500D01*
X174102351Y-80300500D01*
X174102352Y-80300500D01*
X174304534Y-80268477D01*
X174499219Y-80205220D01*
X174681610Y-80112287D01*
X174787917Y-80035051D01*
X174847213Y-79991971D01*
X174847215Y-79991968D01*
X174847219Y-79991966D01*
X174991966Y-79847219D01*
X174991968Y-79847215D01*
X174991971Y-79847213D01*
X175055489Y-79759786D01*
X175112287Y-79681610D01*
X175205220Y-79499219D01*
X175268477Y-79304534D01*
X175300500Y-79102352D01*
X175300500Y-78897648D01*
X175268477Y-78695466D01*
X175205220Y-78500781D01*
X175205218Y-78500778D01*
X175205218Y-78500776D01*
X175171503Y-78434607D01*
X175112287Y-78318390D01*
X175097397Y-78297895D01*
X174991971Y-78152786D01*
X174847213Y-78008028D01*
X174681613Y-77887715D01*
X174681612Y-77887714D01*
X174681610Y-77887713D01*
X174624653Y-77858691D01*
X174499223Y-77794781D01*
X174304534Y-77731522D01*
X174129995Y-77703878D01*
X174102352Y-77699500D01*
X173897648Y-77699500D01*
X173873329Y-77703351D01*
X173695465Y-77731522D01*
X173500776Y-77794781D01*
X173318386Y-77887715D01*
X173152786Y-78008028D01*
X173008028Y-78152786D01*
X172887715Y-78318386D01*
X172794781Y-78500776D01*
X172731522Y-78695465D01*
X172699500Y-78897648D01*
X172699500Y-79102349D01*
X172699499Y-79102349D01*
X167680500Y-79102349D01*
X167680500Y-78897648D01*
X167648477Y-78695466D01*
X167585220Y-78500781D01*
X167585218Y-78500778D01*
X167585218Y-78500776D01*
X167551503Y-78434607D01*
X167492287Y-78318390D01*
X167477397Y-78297895D01*
X167371971Y-78152786D01*
X167227213Y-78008028D01*
X167061613Y-77887715D01*
X167061612Y-77887714D01*
X167061610Y-77887713D01*
X167004653Y-77858691D01*
X166879223Y-77794781D01*
X166684534Y-77731522D01*
X166509995Y-77703878D01*
X166482352Y-77699500D01*
X166277648Y-77699500D01*
X166253329Y-77703351D01*
X166075465Y-77731522D01*
X165880776Y-77794781D01*
X165698386Y-77887715D01*
X165532786Y-78008028D01*
X165388028Y-78152786D01*
X165267715Y-78318386D01*
X165174781Y-78500776D01*
X165111522Y-78695465D01*
X165079500Y-78897648D01*
X165079500Y-79102349D01*
X165079499Y-79102349D01*
X130075209Y-79102349D01*
X130057950Y-79081237D01*
X130038123Y-79062511D01*
X130036158Y-79054579D01*
X130030988Y-79048254D01*
X130027883Y-79021160D01*
X130021328Y-78994690D01*
X130023963Y-78986956D01*
X130023033Y-78978839D01*
X130035068Y-78954369D01*
X130043865Y-78928555D01*
X130051058Y-78921858D01*
X130053870Y-78916142D01*
X130071972Y-78902389D01*
X130081195Y-78893804D01*
X130084976Y-78891524D01*
X130181610Y-78842287D01*
X130347219Y-78721966D01*
X130491966Y-78577219D01*
X130491968Y-78577215D01*
X130491971Y-78577213D01*
X130547505Y-78500776D01*
X130612287Y-78411610D01*
X130705220Y-78229219D01*
X130768477Y-78034534D01*
X130800500Y-77832352D01*
X130800500Y-77627648D01*
X130768477Y-77425466D01*
X130750490Y-77370109D01*
X130705218Y-77230776D01*
X130643792Y-77110222D01*
X130612287Y-77048390D01*
X130497050Y-76889778D01*
X178559500Y-76889778D01*
X178559500Y-77110221D01*
X178593985Y-77327952D01*
X178662103Y-77537603D01*
X178662104Y-77537606D01*
X178707984Y-77627648D01*
X178760911Y-77731522D01*
X178762187Y-77734025D01*
X178891752Y-77912358D01*
X178891756Y-77912363D01*
X179047636Y-78068243D01*
X179047641Y-78068247D01*
X179190693Y-78172179D01*
X179225978Y-78197815D01*
X179354375Y-78263237D01*
X179422393Y-78297895D01*
X179422396Y-78297896D01*
X179485472Y-78318390D01*
X179632049Y-78366015D01*
X179849778Y-78400500D01*
X179849779Y-78400500D01*
X180070221Y-78400500D01*
X180070222Y-78400500D01*
X180287951Y-78366015D01*
X180497606Y-78297895D01*
X180694022Y-78197815D01*
X180872365Y-78068242D01*
X181028242Y-77912365D01*
X181157815Y-77734022D01*
X181257895Y-77537606D01*
X181326015Y-77327951D01*
X181360500Y-77110222D01*
X181360500Y-76889778D01*
X181326015Y-76672049D01*
X181257895Y-76462394D01*
X181257895Y-76462393D01*
X181220272Y-76388555D01*
X181157815Y-76265978D01*
X181134373Y-76233713D01*
X181028247Y-76087641D01*
X181028243Y-76087636D01*
X180872363Y-75931756D01*
X180872358Y-75931752D01*
X180694025Y-75802187D01*
X180694024Y-75802186D01*
X180694022Y-75802185D01*
X180627867Y-75768477D01*
X180497606Y-75702104D01*
X180497603Y-75702103D01*
X180287952Y-75633985D01*
X180179086Y-75616742D01*
X180070222Y-75599500D01*
X179849778Y-75599500D01*
X179777201Y-75610995D01*
X179632047Y-75633985D01*
X179422396Y-75702103D01*
X179422393Y-75702104D01*
X179225974Y-75802187D01*
X179047641Y-75931752D01*
X179047636Y-75931756D01*
X178891756Y-76087636D01*
X178891752Y-76087641D01*
X178762187Y-76265974D01*
X178662104Y-76462393D01*
X178662103Y-76462396D01*
X178593985Y-76672047D01*
X178559500Y-76889778D01*
X130497050Y-76889778D01*
X130491966Y-76882781D01*
X130347219Y-76738034D01*
X130347213Y-76738028D01*
X130181614Y-76617715D01*
X130159183Y-76606286D01*
X130088917Y-76570483D01*
X130038123Y-76522511D01*
X130021328Y-76454690D01*
X130043865Y-76388555D01*
X130088917Y-76349516D01*
X130181610Y-76302287D01*
X130202770Y-76286913D01*
X130347213Y-76181971D01*
X130347215Y-76181968D01*
X130347219Y-76181966D01*
X130491966Y-76037219D01*
X130491968Y-76037215D01*
X130491971Y-76037213D01*
X130568587Y-75931758D01*
X130612287Y-75871610D01*
X130705220Y-75689219D01*
X130768477Y-75494534D01*
X130800500Y-75292352D01*
X130800500Y-75087648D01*
X130768477Y-74885466D01*
X130750490Y-74830109D01*
X130705218Y-74690776D01*
X130660163Y-74602352D01*
X130612287Y-74508390D01*
X130604556Y-74497749D01*
X130491971Y-74342786D01*
X130347213Y-74198028D01*
X130181614Y-74077715D01*
X130159183Y-74066286D01*
X130088917Y-74030483D01*
X130038123Y-73982511D01*
X130021328Y-73914690D01*
X130043865Y-73848555D01*
X130088917Y-73809516D01*
X130181610Y-73762287D01*
X130275995Y-73693713D01*
X130347213Y-73641971D01*
X130347215Y-73641968D01*
X130347219Y-73641966D01*
X130491966Y-73497219D01*
X130491968Y-73497215D01*
X130491971Y-73497213D01*
X130545160Y-73424003D01*
X130612287Y-73331610D01*
X130705220Y-73149219D01*
X130768477Y-72954534D01*
X130800500Y-72752352D01*
X130800500Y-72547648D01*
X130768477Y-72345466D01*
X130750490Y-72290109D01*
X130705218Y-72150776D01*
X130671503Y-72084607D01*
X130612287Y-71968390D01*
X130604556Y-71957749D01*
X130491971Y-71802786D01*
X130347213Y-71658028D01*
X130181614Y-71537715D01*
X130159183Y-71526286D01*
X130088917Y-71490483D01*
X130038123Y-71442511D01*
X130021328Y-71374690D01*
X130043865Y-71308555D01*
X130088917Y-71269516D01*
X130181610Y-71222287D01*
X130275995Y-71153713D01*
X130347213Y-71101971D01*
X130347215Y-71101968D01*
X130347219Y-71101966D01*
X130491966Y-70957219D01*
X130491968Y-70957215D01*
X130491971Y-70957213D01*
X130571889Y-70847213D01*
X130612287Y-70791610D01*
X130705220Y-70609219D01*
X130768477Y-70414534D01*
X130800500Y-70212352D01*
X130800500Y-70007648D01*
X130790222Y-69942754D01*
X130768477Y-69805465D01*
X130732736Y-69695466D01*
X130705220Y-69610781D01*
X130705218Y-69610778D01*
X130705218Y-69610776D01*
X130649172Y-69500781D01*
X130612287Y-69428390D01*
X130604556Y-69417749D01*
X130491971Y-69262786D01*
X130347213Y-69118028D01*
X130181614Y-68997715D01*
X130159183Y-68986286D01*
X130088917Y-68950483D01*
X130038123Y-68902511D01*
X130021328Y-68834690D01*
X130043865Y-68768555D01*
X130088917Y-68729516D01*
X130181610Y-68682287D01*
X130202770Y-68666913D01*
X130347213Y-68561971D01*
X130347215Y-68561968D01*
X130347219Y-68561966D01*
X130491966Y-68417219D01*
X130491968Y-68417215D01*
X130491971Y-68417213D01*
X130544732Y-68344590D01*
X130612287Y-68251610D01*
X130705220Y-68069219D01*
X130768477Y-67874534D01*
X130800500Y-67672352D01*
X130800500Y-67467648D01*
X130768477Y-67265466D01*
X130705220Y-67070781D01*
X130705218Y-67070778D01*
X130705218Y-67070776D01*
X130649993Y-66962393D01*
X130612287Y-66888390D01*
X130604556Y-66877749D01*
X130491971Y-66722786D01*
X130347213Y-66578028D01*
X130181614Y-66457715D01*
X130159183Y-66446286D01*
X130088917Y-66410483D01*
X130038123Y-66362511D01*
X130021328Y-66294690D01*
X130043865Y-66228555D01*
X130088917Y-66189516D01*
X130181610Y-66142287D01*
X130240502Y-66099500D01*
X130347213Y-66021971D01*
X130347215Y-66021968D01*
X130347219Y-66021966D01*
X130491966Y-65877219D01*
X130491968Y-65877215D01*
X130491971Y-65877213D01*
X130544774Y-65804534D01*
X130612287Y-65711610D01*
X130705220Y-65529219D01*
X130768477Y-65334534D01*
X130800500Y-65132352D01*
X130800500Y-64927648D01*
X130768477Y-64725466D01*
X130705220Y-64530781D01*
X130705218Y-64530778D01*
X130705218Y-64530776D01*
X130659515Y-64441080D01*
X130612287Y-64348390D01*
X130573338Y-64294781D01*
X130491971Y-64182786D01*
X130347213Y-64038028D01*
X130181613Y-63917715D01*
X130181612Y-63917714D01*
X130181610Y-63917713D01*
X130124653Y-63888691D01*
X129999223Y-63824781D01*
X129804534Y-63761522D01*
X129629995Y-63733878D01*
X129602352Y-63729500D01*
X129397648Y-63729500D01*
X129373329Y-63733351D01*
X129195465Y-63761522D01*
X129000776Y-63824781D01*
X128818386Y-63917715D01*
X128652786Y-64038028D01*
X128508028Y-64182786D01*
X128387715Y-64348386D01*
X128340485Y-64441080D01*
X128292510Y-64491876D01*
X128224689Y-64508671D01*
X128158554Y-64486134D01*
X128119515Y-64441080D01*
X128092323Y-64387713D01*
X128072287Y-64348390D01*
X128033338Y-64294781D01*
X127951971Y-64182786D01*
X127807213Y-64038028D01*
X127641613Y-63917715D01*
X127641612Y-63917714D01*
X127641610Y-63917713D01*
X127584653Y-63888691D01*
X127459223Y-63824781D01*
X127264534Y-63761522D01*
X127089995Y-63733878D01*
X127062352Y-63729500D01*
X126857648Y-63729500D01*
X126833329Y-63733351D01*
X126655465Y-63761522D01*
X126460776Y-63824781D01*
X126278386Y-63917715D01*
X126112786Y-64038028D01*
X125968028Y-64182786D01*
X125847715Y-64348386D01*
X125800485Y-64441080D01*
X125752510Y-64491876D01*
X125684689Y-64508671D01*
X125618554Y-64486134D01*
X125579515Y-64441080D01*
X125552323Y-64387713D01*
X125532287Y-64348390D01*
X125493338Y-64294781D01*
X125411971Y-64182786D01*
X125267213Y-64038028D01*
X125101613Y-63917715D01*
X125101612Y-63917714D01*
X125101610Y-63917713D01*
X125044653Y-63888691D01*
X124919223Y-63824781D01*
X124724534Y-63761522D01*
X124549995Y-63733878D01*
X124522352Y-63729500D01*
X124317648Y-63729500D01*
X124293329Y-63733351D01*
X124115465Y-63761522D01*
X123920776Y-63824781D01*
X123738386Y-63917715D01*
X123572786Y-64038028D01*
X123428028Y-64182786D01*
X123307715Y-64348386D01*
X123214781Y-64530776D01*
X123151522Y-64725465D01*
X123119500Y-64927648D01*
X120640500Y-64927648D01*
X120608477Y-64725466D01*
X120545220Y-64530781D01*
X120545218Y-64530778D01*
X120545218Y-64530776D01*
X120499515Y-64441080D01*
X120452287Y-64348390D01*
X120413338Y-64294781D01*
X120331971Y-64182786D01*
X120187213Y-64038028D01*
X120021613Y-63917715D01*
X120021612Y-63917714D01*
X120021610Y-63917713D01*
X119964653Y-63888691D01*
X119839223Y-63824781D01*
X119644534Y-63761522D01*
X119469995Y-63733878D01*
X119442352Y-63729500D01*
X119237648Y-63729500D01*
X119213329Y-63733351D01*
X119035465Y-63761522D01*
X118840776Y-63824781D01*
X118658386Y-63917715D01*
X118492786Y-64038028D01*
X118348028Y-64182786D01*
X118227715Y-64348386D01*
X118180485Y-64441080D01*
X118132510Y-64491876D01*
X118064689Y-64508671D01*
X117998554Y-64486134D01*
X117959515Y-64441080D01*
X117932323Y-64387713D01*
X117912287Y-64348390D01*
X117873338Y-64294781D01*
X117791971Y-64182786D01*
X117647213Y-64038028D01*
X117481613Y-63917715D01*
X117481612Y-63917714D01*
X117481610Y-63917713D01*
X117424653Y-63888691D01*
X117299223Y-63824781D01*
X117104534Y-63761522D01*
X116929995Y-63733878D01*
X116902352Y-63729500D01*
X116697648Y-63729500D01*
X116673329Y-63733351D01*
X116495465Y-63761522D01*
X116300776Y-63824781D01*
X116118386Y-63917715D01*
X115952786Y-64038028D01*
X115808028Y-64182786D01*
X115687715Y-64348386D01*
X115640485Y-64441080D01*
X115592510Y-64491876D01*
X115524689Y-64508671D01*
X115458554Y-64486134D01*
X115419515Y-64441080D01*
X115392323Y-64387713D01*
X115372287Y-64348390D01*
X115333338Y-64294781D01*
X115251971Y-64182786D01*
X115107213Y-64038028D01*
X114941613Y-63917715D01*
X114941612Y-63917714D01*
X114941610Y-63917713D01*
X114884653Y-63888691D01*
X114759223Y-63824781D01*
X114564534Y-63761522D01*
X114389995Y-63733878D01*
X114362352Y-63729500D01*
X114157648Y-63729500D01*
X114133329Y-63733351D01*
X113955465Y-63761522D01*
X113760776Y-63824781D01*
X113578386Y-63917715D01*
X113412786Y-64038028D01*
X113268028Y-64182786D01*
X113147715Y-64348386D01*
X113054781Y-64530776D01*
X112991522Y-64725465D01*
X112959500Y-64927648D01*
X112959500Y-65132352D01*
X112959798Y-65134234D01*
X112991522Y-65334534D01*
X113054781Y-65529223D01*
X113147715Y-65711613D01*
X113268028Y-65877213D01*
X113412786Y-66021971D01*
X113519498Y-66099500D01*
X113578390Y-66142287D01*
X113655566Y-66181610D01*
X113671080Y-66189515D01*
X113721876Y-66237490D01*
X113738671Y-66305311D01*
X113716134Y-66371446D01*
X113671080Y-66410485D01*
X113578386Y-66457715D01*
X113412786Y-66578028D01*
X113268028Y-66722786D01*
X113147715Y-66888386D01*
X113054781Y-67070776D01*
X112991522Y-67265465D01*
X112959500Y-67467648D01*
X112959500Y-67672351D01*
X112991522Y-67874534D01*
X113054781Y-68069223D01*
X113107241Y-68172179D01*
X113138751Y-68234022D01*
X113147715Y-68251613D01*
X113268028Y-68417213D01*
X113412786Y-68561971D01*
X113567749Y-68674556D01*
X113578390Y-68682287D01*
X113669840Y-68728883D01*
X113671080Y-68729515D01*
X113721876Y-68777490D01*
X113738671Y-68845311D01*
X113716134Y-68911446D01*
X113671080Y-68950485D01*
X113578386Y-68997715D01*
X113412786Y-69118028D01*
X113268028Y-69262786D01*
X113147715Y-69428386D01*
X113054781Y-69610776D01*
X112991522Y-69805465D01*
X112959500Y-70007648D01*
X112959500Y-70212351D01*
X112991522Y-70414534D01*
X113054781Y-70609223D01*
X113107241Y-70712179D01*
X113122225Y-70741588D01*
X113147715Y-70791613D01*
X113268028Y-70957213D01*
X113412786Y-71101971D01*
X113554896Y-71205218D01*
X113578390Y-71222287D01*
X113669043Y-71268477D01*
X113671080Y-71269515D01*
X113721876Y-71317490D01*
X113738671Y-71385311D01*
X113716134Y-71451446D01*
X113671080Y-71490485D01*
X113578386Y-71537715D01*
X113412786Y-71658028D01*
X113268028Y-71802786D01*
X113147715Y-71968386D01*
X113054781Y-72150776D01*
X112991522Y-72345465D01*
X112959500Y-72547648D01*
X112959500Y-72752351D01*
X112991522Y-72954534D01*
X113054781Y-73149223D01*
X113096716Y-73231523D01*
X113122225Y-73281588D01*
X113147715Y-73331613D01*
X113268028Y-73497213D01*
X113412786Y-73641971D01*
X113567749Y-73754556D01*
X113578390Y-73762287D01*
X113669840Y-73808883D01*
X113671080Y-73809515D01*
X113721876Y-73857490D01*
X113738671Y-73925311D01*
X113716134Y-73991446D01*
X113671080Y-74030485D01*
X113578386Y-74077715D01*
X113412786Y-74198028D01*
X113268028Y-74342786D01*
X113147715Y-74508386D01*
X113054781Y-74690776D01*
X112991522Y-74885465D01*
X112959500Y-75087648D01*
X112959500Y-75292351D01*
X112991522Y-75494534D01*
X113054781Y-75689223D01*
X113112339Y-75802185D01*
X113122225Y-75821588D01*
X113147715Y-75871613D01*
X113268028Y-76037213D01*
X113412786Y-76181971D01*
X113567749Y-76294556D01*
X113578390Y-76302287D01*
X113669840Y-76348883D01*
X113671080Y-76349515D01*
X113721876Y-76397490D01*
X113738671Y-76465311D01*
X113716134Y-76531446D01*
X113671080Y-76570485D01*
X113578386Y-76617715D01*
X113412786Y-76738028D01*
X113268028Y-76882786D01*
X113147715Y-77048386D01*
X113054781Y-77230776D01*
X112991522Y-77425465D01*
X112959500Y-77627648D01*
X112959500Y-77832351D01*
X112991522Y-78034534D01*
X113054781Y-78229223D01*
X113100213Y-78318386D01*
X113142052Y-78400500D01*
X113147715Y-78411613D01*
X113268028Y-78577213D01*
X113412786Y-78721971D01*
X113505500Y-78789330D01*
X113578390Y-78842287D01*
X113669840Y-78888883D01*
X113671080Y-78889515D01*
X113721876Y-78937490D01*
X113738671Y-79005311D01*
X113716134Y-79071446D01*
X113671080Y-79110485D01*
X113578386Y-79157715D01*
X113412786Y-79278028D01*
X113268028Y-79422786D01*
X113147715Y-79588386D01*
X113054781Y-79770776D01*
X112991522Y-79965465D01*
X112959500Y-80167648D01*
X112959500Y-80372351D01*
X112991522Y-80574534D01*
X113054781Y-80769223D01*
X113118691Y-80894653D01*
X113122225Y-80901588D01*
X113147715Y-80951613D01*
X113268028Y-81117213D01*
X113412786Y-81261971D01*
X113567749Y-81374556D01*
X113578390Y-81382287D01*
X113669840Y-81428883D01*
X113671080Y-81429515D01*
X113721876Y-81477490D01*
X113738671Y-81545311D01*
X113716134Y-81611446D01*
X113671080Y-81650485D01*
X113578386Y-81697715D01*
X113412786Y-81818028D01*
X113268028Y-81962786D01*
X113147715Y-82128386D01*
X113054781Y-82310776D01*
X112991522Y-82505465D01*
X112959500Y-82707648D01*
X112959500Y-82912351D01*
X112991522Y-83114534D01*
X113054781Y-83309223D01*
X113118691Y-83434653D01*
X113122225Y-83441588D01*
X113147715Y-83491613D01*
X113268028Y-83657213D01*
X113412786Y-83801971D01*
X113567749Y-83914556D01*
X113578390Y-83922287D01*
X113669840Y-83968883D01*
X113671080Y-83969515D01*
X113721876Y-84017490D01*
X113738671Y-84085311D01*
X113716134Y-84151446D01*
X113671080Y-84190485D01*
X113578386Y-84237715D01*
X113412786Y-84358028D01*
X113268028Y-84502786D01*
X113147715Y-84668386D01*
X113054781Y-84850776D01*
X112991522Y-85045465D01*
X112959500Y-85247648D01*
X112959500Y-85452351D01*
X112991522Y-85654534D01*
X113054781Y-85849223D01*
X113118691Y-85974653D01*
X113122225Y-85981588D01*
X113147715Y-86031613D01*
X113268028Y-86197213D01*
X113412786Y-86341971D01*
X113567749Y-86454556D01*
X113578390Y-86462287D01*
X113669840Y-86508883D01*
X113671080Y-86509515D01*
X113721876Y-86557490D01*
X113738671Y-86625311D01*
X113716134Y-86691446D01*
X113671080Y-86730485D01*
X113578386Y-86777715D01*
X113412786Y-86898028D01*
X113268028Y-87042786D01*
X113147715Y-87208386D01*
X113054781Y-87390776D01*
X112991522Y-87585465D01*
X112959500Y-87787648D01*
X112959500Y-87992351D01*
X112991522Y-88194534D01*
X113054781Y-88389223D01*
X113118691Y-88514653D01*
X113122225Y-88521588D01*
X113147715Y-88571613D01*
X113268028Y-88737213D01*
X113412786Y-88881971D01*
X113567749Y-88994556D01*
X113578390Y-89002287D01*
X113669840Y-89048883D01*
X113671080Y-89049515D01*
X113721876Y-89097490D01*
X113738671Y-89165311D01*
X113716134Y-89231446D01*
X113671080Y-89270485D01*
X113578386Y-89317715D01*
X113412786Y-89438028D01*
X113268028Y-89582786D01*
X113147715Y-89748386D01*
X113054781Y-89930776D01*
X112991522Y-90125465D01*
X112959500Y-90327648D01*
X112959500Y-90532351D01*
X112991522Y-90734534D01*
X113054781Y-90929223D01*
X113147715Y-91111613D01*
X113268028Y-91277213D01*
X113412786Y-91421971D01*
X113567749Y-91534556D01*
X113578390Y-91542287D01*
X113659138Y-91583430D01*
X113671080Y-91589515D01*
X113721876Y-91637490D01*
X113738671Y-91705311D01*
X113716134Y-91771446D01*
X113671080Y-91810485D01*
X113578386Y-91857715D01*
X113412786Y-91978028D01*
X113268028Y-92122786D01*
X113147715Y-92288386D01*
X113054781Y-92470776D01*
X112991522Y-92665465D01*
X112959500Y-92867648D01*
X112959500Y-93072351D01*
X112991522Y-93274534D01*
X113054781Y-93469223D01*
X113147715Y-93651613D01*
X113257423Y-93802615D01*
X113280903Y-93868421D01*
X113265077Y-93936475D01*
X113214971Y-93985170D01*
X113157105Y-93999500D01*
X91124500Y-93999500D01*
X91057461Y-93979815D01*
X91011706Y-93927011D01*
X91000500Y-93875500D01*
X91000500Y-86393713D01*
X96109500Y-86393713D01*
X96109500Y-86606286D01*
X96142753Y-86816239D01*
X96208444Y-87018414D01*
X96304951Y-87207820D01*
X96429890Y-87379786D01*
X96580213Y-87530109D01*
X96752182Y-87655050D01*
X96760946Y-87659516D01*
X96811742Y-87707491D01*
X96828536Y-87775312D01*
X96805998Y-87841447D01*
X96760946Y-87880484D01*
X96752182Y-87884949D01*
X96580213Y-88009890D01*
X96429890Y-88160213D01*
X96304951Y-88332179D01*
X96208444Y-88521585D01*
X96142753Y-88723760D01*
X96109500Y-88933713D01*
X96109500Y-89146286D01*
X96142753Y-89356239D01*
X96208444Y-89558414D01*
X96304951Y-89747820D01*
X96429890Y-89919786D01*
X96580213Y-90070109D01*
X96752179Y-90195048D01*
X96752181Y-90195049D01*
X96752184Y-90195051D01*
X96941588Y-90291557D01*
X97143757Y-90357246D01*
X97353713Y-90390500D01*
X97353714Y-90390500D01*
X97566286Y-90390500D01*
X97566287Y-90390500D01*
X97776243Y-90357246D01*
X97978412Y-90291557D01*
X98167816Y-90195051D01*
X98189789Y-90179086D01*
X98339786Y-90070109D01*
X98339788Y-90070106D01*
X98339792Y-90070104D01*
X98490104Y-89919792D01*
X98490106Y-89919788D01*
X98490109Y-89919786D01*
X98615048Y-89747820D01*
X98615047Y-89747820D01*
X98615051Y-89747816D01*
X98619514Y-89739054D01*
X98667488Y-89688259D01*
X98735308Y-89671463D01*
X98801444Y-89693999D01*
X98840486Y-89739056D01*
X98844951Y-89747820D01*
X98969890Y-89919786D01*
X99120213Y-90070109D01*
X99292179Y-90195048D01*
X99292181Y-90195049D01*
X99292184Y-90195051D01*
X99481588Y-90291557D01*
X99683757Y-90357246D01*
X99893713Y-90390500D01*
X99893714Y-90390500D01*
X100106286Y-90390500D01*
X100106287Y-90390500D01*
X100316243Y-90357246D01*
X100518412Y-90291557D01*
X100707816Y-90195051D01*
X100729789Y-90179086D01*
X100879786Y-90070109D01*
X100879788Y-90070106D01*
X100879792Y-90070104D01*
X101030104Y-89919792D01*
X101030106Y-89919788D01*
X101030109Y-89919786D01*
X101155048Y-89747820D01*
X101155047Y-89747820D01*
X101155051Y-89747816D01*
X101251557Y-89558412D01*
X101317246Y-89356243D01*
X101350500Y-89146287D01*
X101350500Y-88933713D01*
X101317246Y-88723757D01*
X101251557Y-88521588D01*
X101155051Y-88332184D01*
X101155049Y-88332181D01*
X101155048Y-88332179D01*
X101030109Y-88160213D01*
X100879786Y-88009890D01*
X100707820Y-87884951D01*
X100707115Y-87884591D01*
X100699054Y-87880485D01*
X100648259Y-87832512D01*
X100631463Y-87764692D01*
X100653999Y-87698556D01*
X100699054Y-87659515D01*
X100707816Y-87655051D01*
X100729789Y-87639086D01*
X100879786Y-87530109D01*
X100879788Y-87530106D01*
X100879792Y-87530104D01*
X101030104Y-87379792D01*
X101030106Y-87379788D01*
X101030109Y-87379786D01*
X101155048Y-87207820D01*
X101155047Y-87207820D01*
X101155051Y-87207816D01*
X101251557Y-87018412D01*
X101317246Y-86816243D01*
X101350500Y-86606287D01*
X101350500Y-86393713D01*
X101317246Y-86183757D01*
X101251557Y-85981588D01*
X101155051Y-85792184D01*
X101155049Y-85792181D01*
X101155048Y-85792179D01*
X101030109Y-85620213D01*
X100879786Y-85469890D01*
X100707820Y-85344951D01*
X100707115Y-85344591D01*
X100699054Y-85340485D01*
X100648259Y-85292512D01*
X100631463Y-85224692D01*
X100653999Y-85158556D01*
X100699054Y-85119515D01*
X100707816Y-85115051D01*
X100783303Y-85060207D01*
X100879786Y-84990109D01*
X100879788Y-84990106D01*
X100879792Y-84990104D01*
X101030104Y-84839792D01*
X101030106Y-84839788D01*
X101030109Y-84839786D01*
X101155048Y-84667820D01*
X101155047Y-84667820D01*
X101155051Y-84667816D01*
X101251557Y-84478412D01*
X101317246Y-84276243D01*
X101350500Y-84066287D01*
X101350500Y-83853713D01*
X101317246Y-83643757D01*
X101251557Y-83441588D01*
X101155051Y-83252184D01*
X101155049Y-83252181D01*
X101155048Y-83252179D01*
X101030109Y-83080213D01*
X100879786Y-82929890D01*
X100707820Y-82804951D01*
X100707115Y-82804591D01*
X100699054Y-82800485D01*
X100648259Y-82752512D01*
X100631463Y-82684692D01*
X100653999Y-82618556D01*
X100699054Y-82579515D01*
X100707816Y-82575051D01*
X100729789Y-82559086D01*
X100879786Y-82450109D01*
X100879788Y-82450106D01*
X100879792Y-82450104D01*
X101030104Y-82299792D01*
X101030106Y-82299788D01*
X101030109Y-82299786D01*
X101155048Y-82127820D01*
X101155047Y-82127820D01*
X101155051Y-82127816D01*
X101251557Y-81938412D01*
X101317246Y-81736243D01*
X101350500Y-81526287D01*
X101350500Y-81313713D01*
X101317246Y-81103757D01*
X101251557Y-80901588D01*
X101155051Y-80712184D01*
X101155049Y-80712181D01*
X101155048Y-80712179D01*
X101030109Y-80540213D01*
X100879786Y-80389890D01*
X100707820Y-80264951D01*
X100707115Y-80264591D01*
X100699054Y-80260485D01*
X100648259Y-80212512D01*
X100631463Y-80144692D01*
X100653999Y-80078556D01*
X100699054Y-80039515D01*
X100707816Y-80035051D01*
X100767118Y-79991966D01*
X100879786Y-79910109D01*
X100879788Y-79910106D01*
X100879792Y-79910104D01*
X101030104Y-79759792D01*
X101030106Y-79759788D01*
X101030109Y-79759786D01*
X101155048Y-79587820D01*
X101155047Y-79587820D01*
X101155051Y-79587816D01*
X101251557Y-79398412D01*
X101317246Y-79196243D01*
X101350500Y-78986287D01*
X101350500Y-78773713D01*
X101317246Y-78563757D01*
X101251557Y-78361588D01*
X101155051Y-78172184D01*
X101155049Y-78172181D01*
X101155048Y-78172179D01*
X101030109Y-78000213D01*
X100879786Y-77849890D01*
X100707820Y-77724951D01*
X100707115Y-77724591D01*
X100699054Y-77720485D01*
X100648259Y-77672512D01*
X100631463Y-77604692D01*
X100653999Y-77538556D01*
X100699054Y-77499515D01*
X100707816Y-77495051D01*
X100729789Y-77479086D01*
X100879786Y-77370109D01*
X100879788Y-77370106D01*
X100879792Y-77370104D01*
X101030104Y-77219792D01*
X101030106Y-77219788D01*
X101030109Y-77219786D01*
X101155048Y-77047820D01*
X101155047Y-77047820D01*
X101155051Y-77047816D01*
X101251557Y-76858412D01*
X101317246Y-76656243D01*
X101350500Y-76446287D01*
X101350500Y-76233713D01*
X101317246Y-76023757D01*
X101251557Y-75821588D01*
X101155051Y-75632184D01*
X101155049Y-75632181D01*
X101155048Y-75632179D01*
X101030109Y-75460213D01*
X100879786Y-75309890D01*
X100707820Y-75184951D01*
X100707115Y-75184591D01*
X100699054Y-75180485D01*
X100648259Y-75132512D01*
X100631463Y-75064692D01*
X100653999Y-74998556D01*
X100699054Y-74959515D01*
X100707816Y-74955051D01*
X100783303Y-74900207D01*
X100879786Y-74830109D01*
X100879788Y-74830106D01*
X100879792Y-74830104D01*
X101030104Y-74679792D01*
X101030106Y-74679788D01*
X101030109Y-74679786D01*
X101155048Y-74507820D01*
X101155047Y-74507820D01*
X101155051Y-74507816D01*
X101251557Y-74318412D01*
X101317246Y-74116243D01*
X101350500Y-73906287D01*
X101350500Y-73693713D01*
X101317246Y-73483757D01*
X101251557Y-73281588D01*
X101155051Y-73092184D01*
X101155049Y-73092181D01*
X101155048Y-73092179D01*
X101030109Y-72920213D01*
X100879786Y-72769890D01*
X100707820Y-72644951D01*
X100707115Y-72644591D01*
X100699054Y-72640485D01*
X100648259Y-72592512D01*
X100631463Y-72524692D01*
X100653999Y-72458556D01*
X100699054Y-72419515D01*
X100707816Y-72415051D01*
X100762141Y-72375582D01*
X100879786Y-72290109D01*
X100879788Y-72290106D01*
X100879792Y-72290104D01*
X101030104Y-72139792D01*
X101030106Y-72139788D01*
X101030109Y-72139786D01*
X101155048Y-71967820D01*
X101155047Y-71967820D01*
X101155051Y-71967816D01*
X101251557Y-71778412D01*
X101317246Y-71576243D01*
X101350500Y-71366287D01*
X101350500Y-71153713D01*
X101317246Y-70943757D01*
X101251557Y-70741588D01*
X101155051Y-70552184D01*
X101155049Y-70552181D01*
X101155048Y-70552179D01*
X101030109Y-70380213D01*
X100879786Y-70229890D01*
X100707820Y-70104951D01*
X100518414Y-70008444D01*
X100518413Y-70008443D01*
X100518412Y-70008443D01*
X100316243Y-69942754D01*
X100316241Y-69942753D01*
X100316240Y-69942753D01*
X100154957Y-69917208D01*
X100106287Y-69909500D01*
X99893713Y-69909500D01*
X99845042Y-69917208D01*
X99683760Y-69942753D01*
X99481585Y-70008444D01*
X99292179Y-70104951D01*
X99120213Y-70229890D01*
X98969890Y-70380213D01*
X98844951Y-70552179D01*
X98748444Y-70741585D01*
X98682753Y-70943760D01*
X98649500Y-71153713D01*
X98649500Y-71366286D01*
X98676651Y-71537715D01*
X98682754Y-71576243D01*
X98734741Y-71736243D01*
X98748444Y-71778414D01*
X98844951Y-71967820D01*
X98969890Y-72139786D01*
X99120213Y-72290109D01*
X99292182Y-72415050D01*
X99300946Y-72419516D01*
X99351742Y-72467491D01*
X99368536Y-72535312D01*
X99345998Y-72601447D01*
X99300946Y-72640484D01*
X99292182Y-72644949D01*
X99120213Y-72769890D01*
X98969890Y-72920213D01*
X98844951Y-73092179D01*
X98748444Y-73281585D01*
X98682753Y-73483760D01*
X98649500Y-73693713D01*
X98649500Y-73906286D01*
X98676651Y-74077715D01*
X98682754Y-74116243D01*
X98734741Y-74276243D01*
X98748444Y-74318414D01*
X98844951Y-74507820D01*
X98969890Y-74679786D01*
X99120213Y-74830109D01*
X99292182Y-74955050D01*
X99300946Y-74959516D01*
X99351742Y-75007491D01*
X99368536Y-75075312D01*
X99345998Y-75141447D01*
X99300946Y-75180484D01*
X99292182Y-75184949D01*
X99120213Y-75309890D01*
X98969890Y-75460213D01*
X98844951Y-75632179D01*
X98748444Y-75821585D01*
X98682753Y-76023760D01*
X98657696Y-76181966D01*
X98649500Y-76233713D01*
X98649500Y-76446287D01*
X98652513Y-76465311D01*
X98676651Y-76617715D01*
X98682754Y-76656243D01*
X98734741Y-76816243D01*
X98748444Y-76858414D01*
X98844951Y-77047820D01*
X98969890Y-77219786D01*
X99120213Y-77370109D01*
X99292182Y-77495050D01*
X99300946Y-77499516D01*
X99351742Y-77547491D01*
X99368536Y-77615312D01*
X99345998Y-77681447D01*
X99300946Y-77720484D01*
X99292182Y-77724949D01*
X99120213Y-77849890D01*
X98969890Y-78000213D01*
X98844951Y-78172179D01*
X98748444Y-78361585D01*
X98682753Y-78563760D01*
X98649500Y-78773713D01*
X98649500Y-78986286D01*
X98682753Y-79196239D01*
X98748444Y-79398414D01*
X98844951Y-79587820D01*
X98969890Y-79759786D01*
X99120213Y-79910109D01*
X99292182Y-80035050D01*
X99300946Y-80039516D01*
X99351742Y-80087491D01*
X99368536Y-80155312D01*
X99345998Y-80221447D01*
X99300946Y-80260484D01*
X99292182Y-80264949D01*
X99120213Y-80389890D01*
X98969890Y-80540213D01*
X98844951Y-80712179D01*
X98748444Y-80901585D01*
X98682753Y-81103760D01*
X98649500Y-81313713D01*
X98649500Y-81526286D01*
X98682753Y-81736239D01*
X98748444Y-81938414D01*
X98844951Y-82127820D01*
X98969890Y-82299786D01*
X99120213Y-82450109D01*
X99292182Y-82575050D01*
X99300946Y-82579516D01*
X99351742Y-82627491D01*
X99368536Y-82695312D01*
X99345998Y-82761447D01*
X99300946Y-82800484D01*
X99292182Y-82804949D01*
X99120213Y-82929890D01*
X98969890Y-83080213D01*
X98844951Y-83252179D01*
X98748444Y-83441585D01*
X98748443Y-83441587D01*
X98748443Y-83441588D01*
X98715598Y-83542672D01*
X98682753Y-83643760D01*
X98649500Y-83853713D01*
X98649500Y-84066286D01*
X98676651Y-84237715D01*
X98682754Y-84276243D01*
X98683356Y-84278097D01*
X98748444Y-84478414D01*
X98844951Y-84667820D01*
X98969890Y-84839786D01*
X99120213Y-84990109D01*
X99292182Y-85115050D01*
X99300946Y-85119516D01*
X99351742Y-85167491D01*
X99368536Y-85235312D01*
X99345998Y-85301447D01*
X99300946Y-85340484D01*
X99292182Y-85344949D01*
X99120213Y-85469890D01*
X98969890Y-85620213D01*
X98844949Y-85792182D01*
X98840484Y-85800946D01*
X98792509Y-85851742D01*
X98724688Y-85868536D01*
X98658553Y-85845998D01*
X98619516Y-85800946D01*
X98615050Y-85792182D01*
X98490109Y-85620213D01*
X98339786Y-85469890D01*
X98167820Y-85344951D01*
X97978414Y-85248444D01*
X97978413Y-85248443D01*
X97978412Y-85248443D01*
X97776243Y-85182754D01*
X97776241Y-85182753D01*
X97776240Y-85182753D01*
X97614957Y-85157208D01*
X97566287Y-85149500D01*
X97353713Y-85149500D01*
X97305042Y-85157208D01*
X97143760Y-85182753D01*
X96941585Y-85248444D01*
X96752179Y-85344951D01*
X96580213Y-85469890D01*
X96429890Y-85620213D01*
X96304951Y-85792179D01*
X96208444Y-85981585D01*
X96142753Y-86183760D01*
X96109500Y-86393713D01*
X91000500Y-86393713D01*
X91000500Y-66233713D01*
X108149500Y-66233713D01*
X108149500Y-66446286D01*
X108175791Y-66612284D01*
X108182754Y-66656243D01*
X108219221Y-66768477D01*
X108248444Y-66858414D01*
X108344951Y-67047820D01*
X108469890Y-67219786D01*
X108620213Y-67370109D01*
X108792182Y-67495050D01*
X108800946Y-67499516D01*
X108851742Y-67547491D01*
X108868536Y-67615312D01*
X108845998Y-67681447D01*
X108800946Y-67720484D01*
X108792182Y-67724949D01*
X108620213Y-67849890D01*
X108469890Y-68000213D01*
X108344951Y-68172179D01*
X108248444Y-68361585D01*
X108182753Y-68563760D01*
X108161521Y-68697815D01*
X108149500Y-68773713D01*
X108149500Y-68986287D01*
X108182754Y-69196243D01*
X108204375Y-69262786D01*
X108248444Y-69398414D01*
X108344951Y-69587820D01*
X108469890Y-69759786D01*
X108620213Y-69910109D01*
X108792182Y-70035050D01*
X108800946Y-70039516D01*
X108851742Y-70087491D01*
X108868536Y-70155312D01*
X108845998Y-70221447D01*
X108800946Y-70260484D01*
X108792182Y-70264949D01*
X108620213Y-70389890D01*
X108469890Y-70540213D01*
X108344951Y-70712179D01*
X108248444Y-70901585D01*
X108182753Y-71103760D01*
X108156665Y-71268477D01*
X108149500Y-71313713D01*
X108149500Y-71526287D01*
X108182754Y-71736243D01*
X108204375Y-71802786D01*
X108248444Y-71938414D01*
X108344951Y-72127820D01*
X108469890Y-72299786D01*
X108620213Y-72450109D01*
X108792182Y-72575050D01*
X108800946Y-72579516D01*
X108851742Y-72627491D01*
X108868536Y-72695312D01*
X108845998Y-72761447D01*
X108800946Y-72800484D01*
X108792182Y-72804949D01*
X108620213Y-72929890D01*
X108469890Y-73080213D01*
X108344951Y-73252179D01*
X108248444Y-73441585D01*
X108182753Y-73643760D01*
X108156500Y-73809515D01*
X108149500Y-73853713D01*
X108149500Y-74066287D01*
X108182754Y-74276243D01*
X108208167Y-74354457D01*
X108248444Y-74478414D01*
X108344951Y-74667820D01*
X108469890Y-74839786D01*
X108620213Y-74990109D01*
X108792182Y-75115050D01*
X108800946Y-75119516D01*
X108851742Y-75167491D01*
X108868536Y-75235312D01*
X108845998Y-75301447D01*
X108800946Y-75340484D01*
X108792182Y-75344949D01*
X108620213Y-75469890D01*
X108469890Y-75620213D01*
X108344951Y-75792179D01*
X108248444Y-75981585D01*
X108182753Y-76183760D01*
X108156500Y-76349515D01*
X108149500Y-76393713D01*
X108149500Y-76606287D01*
X108182754Y-76816243D01*
X108204375Y-76882786D01*
X108248444Y-77018414D01*
X108344951Y-77207820D01*
X108469890Y-77379786D01*
X108620213Y-77530109D01*
X108792179Y-77655048D01*
X108792181Y-77655049D01*
X108792184Y-77655051D01*
X108981588Y-77751557D01*
X109183757Y-77817246D01*
X109393713Y-77850500D01*
X109393714Y-77850500D01*
X109606286Y-77850500D01*
X109606287Y-77850500D01*
X109816243Y-77817246D01*
X110018412Y-77751557D01*
X110207816Y-77655051D01*
X110245533Y-77627648D01*
X110379786Y-77530109D01*
X110379788Y-77530106D01*
X110379792Y-77530104D01*
X110530104Y-77379792D01*
X110530106Y-77379788D01*
X110530109Y-77379786D01*
X110655048Y-77207820D01*
X110655047Y-77207820D01*
X110655051Y-77207816D01*
X110751557Y-77018412D01*
X110817246Y-76816243D01*
X110850500Y-76606287D01*
X110850500Y-76393713D01*
X110817246Y-76183757D01*
X110751557Y-75981588D01*
X110655051Y-75792184D01*
X110655049Y-75792181D01*
X110655048Y-75792179D01*
X110530109Y-75620213D01*
X110379786Y-75469890D01*
X110207820Y-75344951D01*
X110207115Y-75344591D01*
X110199054Y-75340485D01*
X110148259Y-75292512D01*
X110131463Y-75224692D01*
X110153999Y-75158556D01*
X110199054Y-75119515D01*
X110207816Y-75115051D01*
X110245533Y-75087648D01*
X110379786Y-74990109D01*
X110379788Y-74990106D01*
X110379792Y-74990104D01*
X110530104Y-74839792D01*
X110530106Y-74839788D01*
X110530109Y-74839786D01*
X110655048Y-74667820D01*
X110655047Y-74667820D01*
X110655051Y-74667816D01*
X110751557Y-74478412D01*
X110817246Y-74276243D01*
X110850500Y-74066287D01*
X110850500Y-73853713D01*
X110817246Y-73643757D01*
X110751557Y-73441588D01*
X110655051Y-73252184D01*
X110655049Y-73252181D01*
X110655048Y-73252179D01*
X110530109Y-73080213D01*
X110379786Y-72929890D01*
X110207820Y-72804951D01*
X110207115Y-72804591D01*
X110199054Y-72800485D01*
X110148259Y-72752512D01*
X110131463Y-72684692D01*
X110153999Y-72618556D01*
X110199054Y-72579515D01*
X110207816Y-72575051D01*
X110260952Y-72536446D01*
X110379786Y-72450109D01*
X110379788Y-72450106D01*
X110379792Y-72450104D01*
X110530104Y-72299792D01*
X110530106Y-72299788D01*
X110530109Y-72299786D01*
X110655048Y-72127820D01*
X110655047Y-72127820D01*
X110655051Y-72127816D01*
X110751557Y-71938412D01*
X110817246Y-71736243D01*
X110850500Y-71526287D01*
X110850500Y-71313713D01*
X110817246Y-71103757D01*
X110751557Y-70901588D01*
X110655051Y-70712184D01*
X110655049Y-70712181D01*
X110655048Y-70712179D01*
X110530109Y-70540213D01*
X110379786Y-70389890D01*
X110207820Y-70264951D01*
X110207115Y-70264591D01*
X110199054Y-70260485D01*
X110148259Y-70212512D01*
X110131463Y-70144692D01*
X110153999Y-70078556D01*
X110199054Y-70039515D01*
X110207816Y-70035051D01*
X110334853Y-69942754D01*
X110379786Y-69910109D01*
X110379788Y-69910106D01*
X110379792Y-69910104D01*
X110530104Y-69759792D01*
X110530106Y-69759788D01*
X110530109Y-69759786D01*
X110655048Y-69587820D01*
X110655047Y-69587820D01*
X110655051Y-69587816D01*
X110751557Y-69398412D01*
X110817246Y-69196243D01*
X110850500Y-68986287D01*
X110850500Y-68773713D01*
X110817246Y-68563757D01*
X110751557Y-68361588D01*
X110655051Y-68172184D01*
X110655049Y-68172181D01*
X110655048Y-68172179D01*
X110530109Y-68000213D01*
X110379786Y-67849890D01*
X110207820Y-67724951D01*
X110207115Y-67724591D01*
X110199054Y-67720485D01*
X110148259Y-67672512D01*
X110131463Y-67604692D01*
X110153999Y-67538556D01*
X110199054Y-67499515D01*
X110207816Y-67495051D01*
X110245533Y-67467648D01*
X110379786Y-67370109D01*
X110379788Y-67370106D01*
X110379792Y-67370104D01*
X110530104Y-67219792D01*
X110530106Y-67219788D01*
X110530109Y-67219786D01*
X110655048Y-67047820D01*
X110655047Y-67047820D01*
X110655051Y-67047816D01*
X110751557Y-66858412D01*
X110817246Y-66656243D01*
X110850500Y-66446287D01*
X110850500Y-66233713D01*
X110817246Y-66023757D01*
X110751557Y-65821588D01*
X110655051Y-65632184D01*
X110655049Y-65632181D01*
X110655048Y-65632179D01*
X110530109Y-65460213D01*
X110379786Y-65309890D01*
X110207820Y-65184951D01*
X110018414Y-65088444D01*
X110018413Y-65088443D01*
X110018412Y-65088443D01*
X109816243Y-65022754D01*
X109816241Y-65022753D01*
X109816240Y-65022753D01*
X109654957Y-64997208D01*
X109606287Y-64989500D01*
X109393713Y-64989500D01*
X109345042Y-64997208D01*
X109183760Y-65022753D01*
X108981585Y-65088444D01*
X108792179Y-65184951D01*
X108620213Y-65309890D01*
X108469890Y-65460213D01*
X108344951Y-65632179D01*
X108248444Y-65821585D01*
X108182753Y-66023760D01*
X108149500Y-66233713D01*
X91000500Y-66233713D01*
X91000500Y-62129747D01*
X97749500Y-62129747D01*
X97749500Y-64220238D01*
X97749501Y-64220253D01*
X97750388Y-64231522D01*
X97760070Y-64354553D01*
X97815949Y-64576316D01*
X97850684Y-64652786D01*
X97910528Y-64784537D01*
X97910531Y-64784543D01*
X98040759Y-64972514D01*
X98040763Y-64972519D01*
X98040766Y-64972523D01*
X98202477Y-65134234D01*
X98202481Y-65134237D01*
X98202485Y-65134240D01*
X98390456Y-65264468D01*
X98390462Y-65264471D01*
X98390463Y-65264471D01*
X98390464Y-65264472D01*
X98598684Y-65359051D01*
X98820447Y-65414930D01*
X98954753Y-65425500D01*
X101045246Y-65425499D01*
X101179553Y-65414930D01*
X101401316Y-65359051D01*
X101609536Y-65264472D01*
X101609538Y-65264470D01*
X101609543Y-65264468D01*
X101797514Y-65134240D01*
X101797523Y-65134234D01*
X101959234Y-64972523D01*
X102066021Y-64818386D01*
X102089468Y-64784543D01*
X102089471Y-64784537D01*
X102089472Y-64784536D01*
X102184051Y-64576316D01*
X102239930Y-64354553D01*
X102250500Y-64220247D01*
X102250499Y-62129754D01*
X102239930Y-61995447D01*
X102184051Y-61773684D01*
X102089472Y-61565464D01*
X102089471Y-61565462D01*
X102089468Y-61565456D01*
X101959240Y-61377485D01*
X101959237Y-61377481D01*
X101959234Y-61377477D01*
X101797523Y-61215766D01*
X101797519Y-61215763D01*
X101797514Y-61215759D01*
X101609543Y-61085531D01*
X101609537Y-61085528D01*
X101505426Y-61038238D01*
X101401316Y-60990949D01*
X101179553Y-60935070D01*
X101045247Y-60924500D01*
X101045245Y-60924500D01*
X98954761Y-60924500D01*
X98954746Y-60924501D01*
X98820447Y-60935070D01*
X98598684Y-60990949D01*
X98390462Y-61085528D01*
X98390456Y-61085531D01*
X98202485Y-61215759D01*
X98202473Y-61215769D01*
X98040769Y-61377473D01*
X98040759Y-61377485D01*
X97910531Y-61565456D01*
X97910528Y-61565462D01*
X97815949Y-61773684D01*
X97760070Y-61995447D01*
X97749500Y-62129747D01*
X91000500Y-62129747D01*
X91000500Y-57925646D01*
X113769500Y-57925646D01*
X113769500Y-58154353D01*
X113805278Y-58380246D01*
X113805278Y-58380249D01*
X113875950Y-58597755D01*
X113914265Y-58672952D01*
X113979783Y-58801538D01*
X114114214Y-58986566D01*
X114275934Y-59148286D01*
X114460962Y-59282717D01*
X114503918Y-59304604D01*
X114664744Y-59386549D01*
X114882251Y-59457221D01*
X114882252Y-59457221D01*
X114882255Y-59457222D01*
X115108146Y-59493000D01*
X115108147Y-59493000D01*
X115431853Y-59493000D01*
X115431854Y-59493000D01*
X115657745Y-59457222D01*
X115657748Y-59457221D01*
X115657749Y-59457221D01*
X115875255Y-59386549D01*
X115875255Y-59386548D01*
X115875258Y-59386548D01*
X116079038Y-59282717D01*
X116264066Y-59148286D01*
X116425786Y-58986566D01*
X116560217Y-58801538D01*
X116664048Y-58597758D01*
X116683523Y-58537819D01*
X116734721Y-58380249D01*
X116734721Y-58380248D01*
X116734722Y-58380245D01*
X116770500Y-58154354D01*
X116770500Y-57925646D01*
X116734722Y-57699755D01*
X116734721Y-57699751D01*
X116734721Y-57699750D01*
X116664049Y-57482244D01*
X116560216Y-57278461D01*
X116425786Y-57093434D01*
X116264066Y-56931714D01*
X116079038Y-56797283D01*
X115875255Y-56693450D01*
X115657748Y-56622778D01*
X115488326Y-56595944D01*
X115431854Y-56587000D01*
X115108146Y-56587000D01*
X115032849Y-56598926D01*
X114882253Y-56622778D01*
X114882250Y-56622778D01*
X114664744Y-56693450D01*
X114460961Y-56797283D01*
X114376218Y-56858853D01*
X114275934Y-56931714D01*
X114275932Y-56931716D01*
X114275931Y-56931716D01*
X114114216Y-57093431D01*
X114114216Y-57093432D01*
X114114214Y-57093434D01*
X114102862Y-57109059D01*
X113979783Y-57278461D01*
X113875950Y-57482244D01*
X113805278Y-57699750D01*
X113805278Y-57699753D01*
X113769500Y-57925646D01*
X91000500Y-57925646D01*
X91000500Y-54172625D01*
X91020185Y-54105586D01*
X91072989Y-54059831D01*
X91142147Y-54049887D01*
X91205703Y-54078912D01*
X91212181Y-54084944D01*
X91217927Y-54090690D01*
X91370801Y-54201760D01*
X91450347Y-54242290D01*
X91539163Y-54287545D01*
X91539165Y-54287545D01*
X91539168Y-54287547D01*
X91635497Y-54318846D01*
X91718881Y-54345940D01*
X91905514Y-54375500D01*
X91905519Y-54375500D01*
X92094486Y-54375500D01*
X92281118Y-54345940D01*
X92460832Y-54287547D01*
X92629199Y-54201760D01*
X92782073Y-54090690D01*
X92915690Y-53957073D01*
X93026760Y-53804199D01*
X93112547Y-53635832D01*
X93170940Y-53456118D01*
X93200500Y-53269486D01*
X93200500Y-53080513D01*
X101799500Y-53080513D01*
X101799500Y-53269486D01*
X101829059Y-53456118D01*
X101887454Y-53635836D01*
X101973240Y-53804199D01*
X102084310Y-53957073D01*
X102217927Y-54090690D01*
X102370801Y-54201760D01*
X102450347Y-54242290D01*
X102539163Y-54287545D01*
X102539165Y-54287545D01*
X102539168Y-54287547D01*
X102635497Y-54318846D01*
X102718881Y-54345940D01*
X102905514Y-54375500D01*
X102905519Y-54375500D01*
X103094486Y-54375500D01*
X103281118Y-54345940D01*
X103460832Y-54287547D01*
X103629199Y-54201760D01*
X103782073Y-54090690D01*
X103915690Y-53957073D01*
X104026760Y-53804199D01*
X104112547Y-53635832D01*
X104170940Y-53456118D01*
X104200500Y-53269486D01*
X104200500Y-53080513D01*
X104170940Y-52893881D01*
X104112545Y-52714163D01*
X104026759Y-52545800D01*
X103915690Y-52392927D01*
X103782073Y-52259310D01*
X103629199Y-52148240D01*
X103469346Y-52066791D01*
X103460836Y-52062454D01*
X103281118Y-52004059D01*
X103094486Y-51974500D01*
X103094481Y-51974500D01*
X102905519Y-51974500D01*
X102905514Y-51974500D01*
X102718881Y-52004059D01*
X102539163Y-52062454D01*
X102370800Y-52148240D01*
X102283579Y-52211610D01*
X102217927Y-52259310D01*
X102217925Y-52259312D01*
X102217924Y-52259312D01*
X102084312Y-52392924D01*
X102084312Y-52392925D01*
X102084310Y-52392927D01*
X102036610Y-52458579D01*
X101973240Y-52545800D01*
X101887454Y-52714163D01*
X101829059Y-52893881D01*
X101799500Y-53080513D01*
X93200500Y-53080513D01*
X93170940Y-52893881D01*
X93112545Y-52714163D01*
X93026759Y-52545800D01*
X92915690Y-52392927D01*
X92782073Y-52259310D01*
X92629199Y-52148240D01*
X92460836Y-52062454D01*
X92281118Y-52004059D01*
X92094486Y-51974500D01*
X92094481Y-51974500D01*
X91905519Y-51974500D01*
X91905514Y-51974500D01*
X91718881Y-52004059D01*
X91539163Y-52062454D01*
X91370800Y-52148240D01*
X91283579Y-52211610D01*
X91217927Y-52259310D01*
X91217925Y-52259312D01*
X91217924Y-52259312D01*
X91212181Y-52265056D01*
X91150858Y-52298541D01*
X91081166Y-52293557D01*
X91025233Y-52251685D01*
X91000816Y-52186221D01*
X91000500Y-52177375D01*
X91000500Y-51959635D01*
X113769500Y-51959635D01*
X113769500Y-53960370D01*
X113769501Y-53960376D01*
X113775908Y-54019983D01*
X113826202Y-54154828D01*
X113826206Y-54154835D01*
X113912452Y-54270044D01*
X113912455Y-54270047D01*
X114027664Y-54356293D01*
X114027671Y-54356297D01*
X114162517Y-54406591D01*
X114162516Y-54406591D01*
X114169444Y-54407335D01*
X114222127Y-54413000D01*
X115610269Y-54412999D01*
X115677308Y-54432684D01*
X115697950Y-54449318D01*
X119478049Y-58229416D01*
X119576584Y-58327951D01*
X119582585Y-58333952D01*
X119705498Y-58416080D01*
X119705511Y-58416087D01*
X119842082Y-58472656D01*
X119842087Y-58472658D01*
X119842091Y-58472658D01*
X119842092Y-58472659D01*
X119987079Y-58501500D01*
X119987082Y-58501500D01*
X124154451Y-58501500D01*
X124221490Y-58521185D01*
X124267245Y-58573989D01*
X124277189Y-58643147D01*
X124269012Y-58672952D01*
X124230264Y-58766498D01*
X124230261Y-58766510D01*
X124199500Y-58921153D01*
X124199500Y-59078846D01*
X124230261Y-59233489D01*
X124230263Y-59233497D01*
X124240061Y-59257151D01*
X124249500Y-59304604D01*
X124249500Y-61695396D01*
X124240062Y-61742844D01*
X124230263Y-61766503D01*
X124230262Y-61766506D01*
X124230260Y-61766511D01*
X124199500Y-61921153D01*
X124199500Y-62078846D01*
X124230261Y-62233489D01*
X124230264Y-62233501D01*
X124290602Y-62379172D01*
X124290609Y-62379185D01*
X124378210Y-62510288D01*
X124378213Y-62510292D01*
X124489707Y-62621786D01*
X124489711Y-62621789D01*
X124620814Y-62709390D01*
X124620827Y-62709397D01*
X124766498Y-62769735D01*
X124766503Y-62769737D01*
X124921153Y-62800499D01*
X124921156Y-62800500D01*
X124921158Y-62800500D01*
X125078844Y-62800500D01*
X125078845Y-62800499D01*
X125233497Y-62769737D01*
X125379179Y-62709394D01*
X125510289Y-62621789D01*
X125621789Y-62510289D01*
X125709394Y-62379179D01*
X125769737Y-62233497D01*
X125800500Y-62078842D01*
X125800500Y-61921158D01*
X125800500Y-61921155D01*
X125800499Y-61921153D01*
X125769739Y-61766511D01*
X125769738Y-61766508D01*
X125769737Y-61766503D01*
X125759937Y-61742844D01*
X125750500Y-61695396D01*
X125750500Y-59304604D01*
X125759939Y-59257151D01*
X125769737Y-59233497D01*
X125800500Y-59078842D01*
X125800500Y-58921158D01*
X125800500Y-58921155D01*
X125800499Y-58921153D01*
X125776706Y-58801538D01*
X125769737Y-58766503D01*
X125765863Y-58757151D01*
X125730988Y-58672952D01*
X125723519Y-58603482D01*
X125754795Y-58541003D01*
X125814884Y-58505352D01*
X125845549Y-58501500D01*
X129154451Y-58501500D01*
X129221490Y-58521185D01*
X129267245Y-58573989D01*
X129277189Y-58643147D01*
X129269012Y-58672952D01*
X129230264Y-58766498D01*
X129230261Y-58766510D01*
X129199500Y-58921153D01*
X129199500Y-59078846D01*
X129230261Y-59233489D01*
X129230263Y-59233497D01*
X129240061Y-59257151D01*
X129249500Y-59304604D01*
X129249500Y-61695396D01*
X129240062Y-61742844D01*
X129230263Y-61766503D01*
X129230262Y-61766506D01*
X129230260Y-61766511D01*
X129199500Y-61921153D01*
X129199500Y-62078846D01*
X129230261Y-62233489D01*
X129230264Y-62233501D01*
X129290602Y-62379172D01*
X129290609Y-62379185D01*
X129378210Y-62510288D01*
X129378213Y-62510292D01*
X129489707Y-62621786D01*
X129489711Y-62621789D01*
X129620814Y-62709390D01*
X129620827Y-62709397D01*
X129766498Y-62769735D01*
X129766503Y-62769737D01*
X129921153Y-62800499D01*
X129921156Y-62800500D01*
X129921158Y-62800500D01*
X130078844Y-62800500D01*
X130078845Y-62800499D01*
X130233497Y-62769737D01*
X130379179Y-62709394D01*
X130510289Y-62621789D01*
X130621789Y-62510289D01*
X130709394Y-62379179D01*
X130769737Y-62233497D01*
X130800500Y-62078842D01*
X130800500Y-61921158D01*
X130800500Y-61921155D01*
X130800499Y-61921153D01*
X130769739Y-61766511D01*
X130769738Y-61766508D01*
X130769737Y-61766503D01*
X130759937Y-61742844D01*
X130750500Y-61695396D01*
X130750500Y-59304604D01*
X130759939Y-59257151D01*
X130769737Y-59233497D01*
X130800500Y-59078842D01*
X130800500Y-58921158D01*
X130800500Y-58921155D01*
X130800499Y-58921153D01*
X130776706Y-58801538D01*
X130769737Y-58766503D01*
X130765863Y-58757151D01*
X130730988Y-58672952D01*
X130723519Y-58603482D01*
X130754795Y-58541003D01*
X130814884Y-58505352D01*
X130845549Y-58501500D01*
X134428770Y-58501500D01*
X134495809Y-58521185D01*
X134516451Y-58537819D01*
X141459089Y-65480457D01*
X148292892Y-72314259D01*
X148326377Y-72375582D01*
X148321393Y-72445274D01*
X148279521Y-72501207D01*
X148224609Y-72524413D01*
X148148631Y-72536446D01*
X147924003Y-72609433D01*
X147713566Y-72716657D01*
X147651919Y-72761447D01*
X147522490Y-72855483D01*
X147522488Y-72855485D01*
X147522487Y-72855485D01*
X147355484Y-73022488D01*
X147330318Y-73057127D01*
X147274987Y-73099792D01*
X147205374Y-73105771D01*
X147143579Y-73073165D01*
X147129682Y-73057127D01*
X147104517Y-73022490D01*
X146937510Y-72855483D01*
X146746433Y-72716657D01*
X146694116Y-72690000D01*
X146535996Y-72609433D01*
X146311368Y-72536446D01*
X146078097Y-72499500D01*
X146078092Y-72499500D01*
X145841908Y-72499500D01*
X145841903Y-72499500D01*
X145608631Y-72536446D01*
X145384003Y-72609433D01*
X145173566Y-72716657D01*
X145111919Y-72761447D01*
X144982490Y-72855483D01*
X144982488Y-72855485D01*
X144982487Y-72855485D01*
X144815484Y-73022488D01*
X144790318Y-73057127D01*
X144734987Y-73099792D01*
X144665374Y-73105771D01*
X144603579Y-73073165D01*
X144589682Y-73057127D01*
X144564517Y-73022490D01*
X144397510Y-72855483D01*
X144206433Y-72716657D01*
X144154116Y-72690000D01*
X143995996Y-72609433D01*
X143771368Y-72536446D01*
X143538097Y-72499500D01*
X143538092Y-72499500D01*
X143301908Y-72499500D01*
X143301903Y-72499500D01*
X143068631Y-72536446D01*
X142844003Y-72609433D01*
X142633566Y-72716657D01*
X142571919Y-72761447D01*
X142442490Y-72855483D01*
X142442488Y-72855485D01*
X142442487Y-72855485D01*
X142275484Y-73022488D01*
X142250318Y-73057127D01*
X142194987Y-73099792D01*
X142125374Y-73105771D01*
X142063579Y-73073165D01*
X142049682Y-73057127D01*
X142024517Y-73022490D01*
X141857510Y-72855483D01*
X141666433Y-72716657D01*
X141614116Y-72690000D01*
X141455996Y-72609433D01*
X141231368Y-72536446D01*
X140998097Y-72499500D01*
X140998092Y-72499500D01*
X140761908Y-72499500D01*
X140761903Y-72499500D01*
X140528631Y-72536446D01*
X140304003Y-72609433D01*
X140093566Y-72716657D01*
X140031919Y-72761447D01*
X139902490Y-72855483D01*
X139902488Y-72855485D01*
X139902487Y-72855485D01*
X139735484Y-73022488D01*
X139710318Y-73057127D01*
X139654987Y-73099792D01*
X139585374Y-73105771D01*
X139523579Y-73073165D01*
X139509682Y-73057127D01*
X139484517Y-73022490D01*
X139317510Y-72855483D01*
X139126433Y-72716657D01*
X139074116Y-72690000D01*
X138915996Y-72609433D01*
X138691368Y-72536446D01*
X138458097Y-72499500D01*
X138458092Y-72499500D01*
X138221908Y-72499500D01*
X138221903Y-72499500D01*
X137988631Y-72536446D01*
X137764003Y-72609433D01*
X137553566Y-72716657D01*
X137491919Y-72761447D01*
X137362490Y-72855483D01*
X137362488Y-72855485D01*
X137362487Y-72855485D01*
X137195484Y-73022488D01*
X137170318Y-73057127D01*
X137114987Y-73099792D01*
X137045374Y-73105771D01*
X136983579Y-73073165D01*
X136969682Y-73057127D01*
X136944517Y-73022490D01*
X136777510Y-72855483D01*
X136586433Y-72716657D01*
X136534116Y-72690000D01*
X136375996Y-72609433D01*
X136151368Y-72536446D01*
X135918097Y-72499500D01*
X135918092Y-72499500D01*
X135681908Y-72499500D01*
X135681903Y-72499500D01*
X135448631Y-72536446D01*
X135224003Y-72609433D01*
X135013566Y-72716657D01*
X134951919Y-72761447D01*
X134822490Y-72855483D01*
X134822488Y-72855485D01*
X134822487Y-72855485D01*
X134655485Y-73022487D01*
X134655485Y-73022488D01*
X134655483Y-73022490D01*
X134613548Y-73080208D01*
X134516657Y-73213566D01*
X134409433Y-73424003D01*
X134336446Y-73648631D01*
X134299500Y-73881902D01*
X134299500Y-74118097D01*
X134336446Y-74351368D01*
X134409433Y-74575996D01*
X134516657Y-74786433D01*
X134655483Y-74977510D01*
X134822490Y-75144517D01*
X135013567Y-75283343D01*
X135112991Y-75334002D01*
X135224003Y-75390566D01*
X135224005Y-75390566D01*
X135224008Y-75390568D01*
X135344412Y-75429689D01*
X135448631Y-75463553D01*
X135681903Y-75500500D01*
X135681908Y-75500500D01*
X135918097Y-75500500D01*
X136151368Y-75463553D01*
X136161663Y-75460208D01*
X136375992Y-75390568D01*
X136586433Y-75283343D01*
X136777510Y-75144517D01*
X136944517Y-74977510D01*
X136969682Y-74942872D01*
X137025011Y-74900207D01*
X137094625Y-74894228D01*
X137156420Y-74926833D01*
X137170315Y-74942870D01*
X137195483Y-74977510D01*
X137362490Y-75144517D01*
X137553567Y-75283343D01*
X137652991Y-75334002D01*
X137764003Y-75390566D01*
X137764005Y-75390566D01*
X137764008Y-75390568D01*
X137884412Y-75429689D01*
X137988631Y-75463553D01*
X138221903Y-75500500D01*
X138221908Y-75500500D01*
X138458097Y-75500500D01*
X138691368Y-75463553D01*
X138701663Y-75460208D01*
X138915992Y-75390568D01*
X139126433Y-75283343D01*
X139317510Y-75144517D01*
X139484517Y-74977510D01*
X139509682Y-74942872D01*
X139565011Y-74900207D01*
X139634625Y-74894228D01*
X139696420Y-74926833D01*
X139710315Y-74942870D01*
X139735483Y-74977510D01*
X139902490Y-75144517D01*
X140093567Y-75283343D01*
X140192991Y-75334002D01*
X140304003Y-75390566D01*
X140304005Y-75390566D01*
X140304008Y-75390568D01*
X140424412Y-75429689D01*
X140528631Y-75463553D01*
X140761903Y-75500500D01*
X140761908Y-75500500D01*
X140998097Y-75500500D01*
X141231368Y-75463553D01*
X141241663Y-75460208D01*
X141455992Y-75390568D01*
X141666433Y-75283343D01*
X141857510Y-75144517D01*
X142024517Y-74977510D01*
X142049682Y-74942872D01*
X142105011Y-74900207D01*
X142174625Y-74894228D01*
X142236420Y-74926833D01*
X142250315Y-74942870D01*
X142275483Y-74977510D01*
X142442490Y-75144517D01*
X142633567Y-75283343D01*
X142732991Y-75334002D01*
X142844003Y-75390566D01*
X142844005Y-75390566D01*
X142844008Y-75390568D01*
X142964412Y-75429689D01*
X143068631Y-75463553D01*
X143301903Y-75500500D01*
X143301908Y-75500500D01*
X143538097Y-75500500D01*
X143771368Y-75463553D01*
X143781663Y-75460208D01*
X143995992Y-75390568D01*
X144206433Y-75283343D01*
X144397510Y-75144517D01*
X144564517Y-74977510D01*
X144589682Y-74942872D01*
X144645011Y-74900207D01*
X144714625Y-74894228D01*
X144776420Y-74926833D01*
X144790315Y-74942870D01*
X144815483Y-74977510D01*
X144982490Y-75144517D01*
X145173567Y-75283343D01*
X145272991Y-75334002D01*
X145384003Y-75390566D01*
X145384005Y-75390566D01*
X145384008Y-75390568D01*
X145504412Y-75429689D01*
X145608631Y-75463553D01*
X145841903Y-75500500D01*
X145841908Y-75500500D01*
X146078097Y-75500500D01*
X146311368Y-75463553D01*
X146321663Y-75460208D01*
X146535992Y-75390568D01*
X146746433Y-75283343D01*
X146937510Y-75144517D01*
X147104517Y-74977510D01*
X147129682Y-74942872D01*
X147185011Y-74900207D01*
X147254625Y-74894228D01*
X147316420Y-74926833D01*
X147330315Y-74942870D01*
X147355483Y-74977510D01*
X147522490Y-75144517D01*
X147713567Y-75283343D01*
X147812991Y-75334002D01*
X147924003Y-75390566D01*
X147924005Y-75390566D01*
X147924008Y-75390568D01*
X148044412Y-75429689D01*
X148148631Y-75463553D01*
X148381903Y-75500500D01*
X148381908Y-75500500D01*
X148618097Y-75500500D01*
X148851368Y-75463553D01*
X148861663Y-75460208D01*
X149075992Y-75390568D01*
X149286433Y-75283343D01*
X149477510Y-75144517D01*
X149644517Y-74977510D01*
X149669682Y-74942872D01*
X149725011Y-74900207D01*
X149794625Y-74894228D01*
X149856420Y-74926833D01*
X149870315Y-74942870D01*
X149895483Y-74977510D01*
X150062490Y-75144517D01*
X150253567Y-75283343D01*
X150352991Y-75334002D01*
X150464003Y-75390566D01*
X150464005Y-75390566D01*
X150464008Y-75390568D01*
X150584412Y-75429689D01*
X150688631Y-75463553D01*
X150921903Y-75500500D01*
X150921908Y-75500500D01*
X151158097Y-75500500D01*
X151391368Y-75463553D01*
X151401663Y-75460208D01*
X151615992Y-75390568D01*
X151826433Y-75283343D01*
X152017510Y-75144517D01*
X152184517Y-74977510D01*
X152323343Y-74786433D01*
X152430568Y-74575992D01*
X152488516Y-74397648D01*
X165079500Y-74397648D01*
X165079500Y-74602351D01*
X165111522Y-74804534D01*
X165174781Y-74999223D01*
X165213551Y-75075312D01*
X165267140Y-75180486D01*
X165267715Y-75181613D01*
X165388028Y-75347213D01*
X165532786Y-75491971D01*
X165680790Y-75599500D01*
X165698390Y-75612287D01*
X165814607Y-75671503D01*
X165880776Y-75705218D01*
X165880778Y-75705218D01*
X165880781Y-75705220D01*
X165985137Y-75739127D01*
X166075465Y-75768477D01*
X166176557Y-75784488D01*
X166277648Y-75800500D01*
X166277649Y-75800500D01*
X166482351Y-75800500D01*
X166482352Y-75800500D01*
X166684534Y-75768477D01*
X166879219Y-75705220D01*
X167061610Y-75612287D01*
X167154590Y-75544732D01*
X167227213Y-75491971D01*
X167227215Y-75491968D01*
X167227219Y-75491966D01*
X167371966Y-75347219D01*
X167371968Y-75347215D01*
X167371971Y-75347213D01*
X167443730Y-75248443D01*
X167492287Y-75181610D01*
X167585220Y-74999219D01*
X167648477Y-74804534D01*
X167680500Y-74602352D01*
X167680500Y-74397648D01*
X172699500Y-74397648D01*
X172699500Y-74602351D01*
X172731522Y-74804534D01*
X172794781Y-74999223D01*
X172833551Y-75075312D01*
X172887140Y-75180486D01*
X172887715Y-75181613D01*
X173008028Y-75347213D01*
X173152786Y-75491971D01*
X173300790Y-75599500D01*
X173318390Y-75612287D01*
X173434607Y-75671503D01*
X173500776Y-75705218D01*
X173500778Y-75705218D01*
X173500781Y-75705220D01*
X173605137Y-75739127D01*
X173695465Y-75768477D01*
X173796557Y-75784488D01*
X173897648Y-75800500D01*
X173897649Y-75800500D01*
X174102351Y-75800500D01*
X174102352Y-75800500D01*
X174304534Y-75768477D01*
X174499219Y-75705220D01*
X174681610Y-75612287D01*
X174774590Y-75544732D01*
X174847213Y-75491971D01*
X174847215Y-75491968D01*
X174847219Y-75491966D01*
X174991966Y-75347219D01*
X174991968Y-75347215D01*
X174991971Y-75347213D01*
X175063730Y-75248443D01*
X175112287Y-75181610D01*
X175205220Y-74999219D01*
X175268477Y-74804534D01*
X175300500Y-74602352D01*
X175300500Y-74397648D01*
X175268477Y-74195466D01*
X175205220Y-74000781D01*
X175205218Y-74000778D01*
X175205218Y-74000776D01*
X175132209Y-73857490D01*
X175112287Y-73818390D01*
X175104556Y-73807749D01*
X174991971Y-73652786D01*
X174847213Y-73508028D01*
X174681613Y-73387715D01*
X174681612Y-73387714D01*
X174681610Y-73387713D01*
X174624653Y-73358691D01*
X174499223Y-73294781D01*
X174304534Y-73231522D01*
X174129995Y-73203878D01*
X174102352Y-73199500D01*
X173897648Y-73199500D01*
X173873329Y-73203351D01*
X173695465Y-73231522D01*
X173500776Y-73294781D01*
X173318386Y-73387715D01*
X173152786Y-73508028D01*
X173008028Y-73652786D01*
X172887715Y-73818386D01*
X172794781Y-74000776D01*
X172731522Y-74195465D01*
X172699500Y-74397648D01*
X167680500Y-74397648D01*
X167648477Y-74195466D01*
X167585220Y-74000781D01*
X167585218Y-74000778D01*
X167585218Y-74000776D01*
X167512209Y-73857490D01*
X167492287Y-73818390D01*
X167484556Y-73807749D01*
X167371971Y-73652786D01*
X167227213Y-73508028D01*
X167061613Y-73387715D01*
X167061612Y-73387714D01*
X167061610Y-73387713D01*
X167004653Y-73358691D01*
X166879223Y-73294781D01*
X166684534Y-73231522D01*
X166509995Y-73203878D01*
X166482352Y-73199500D01*
X166277648Y-73199500D01*
X166253329Y-73203351D01*
X166075465Y-73231522D01*
X165880776Y-73294781D01*
X165698386Y-73387715D01*
X165532786Y-73508028D01*
X165388028Y-73652786D01*
X165267715Y-73818386D01*
X165174781Y-74000776D01*
X165111522Y-74195465D01*
X165079500Y-74397648D01*
X152488516Y-74397648D01*
X152502550Y-74354457D01*
X152503552Y-74351370D01*
X152503553Y-74351368D01*
X152527839Y-74198034D01*
X152540500Y-74118097D01*
X152540500Y-73881902D01*
X152503553Y-73648631D01*
X152454354Y-73497213D01*
X152430568Y-73424008D01*
X152430566Y-73424005D01*
X152430566Y-73424003D01*
X152374002Y-73312991D01*
X152323343Y-73213567D01*
X152184517Y-73022490D01*
X152017510Y-72855483D01*
X151826433Y-72716657D01*
X151774116Y-72690000D01*
X151615996Y-72609433D01*
X151391368Y-72536446D01*
X151158097Y-72499500D01*
X151158092Y-72499500D01*
X150921908Y-72499500D01*
X150921903Y-72499500D01*
X150707165Y-72533511D01*
X150637871Y-72524556D01*
X150600086Y-72498719D01*
X148081824Y-69980457D01*
X147999015Y-69897648D01*
X165079500Y-69897648D01*
X165079500Y-70102351D01*
X165111522Y-70304534D01*
X165174781Y-70499223D01*
X165267715Y-70681613D01*
X165388028Y-70847213D01*
X165532786Y-70991971D01*
X165684184Y-71101966D01*
X165698390Y-71112287D01*
X165814607Y-71171503D01*
X165880776Y-71205218D01*
X165880778Y-71205218D01*
X165880781Y-71205220D01*
X165933299Y-71222284D01*
X166075465Y-71268477D01*
X166176557Y-71284488D01*
X166277648Y-71300500D01*
X166277649Y-71300500D01*
X166482351Y-71300500D01*
X166482352Y-71300500D01*
X166684534Y-71268477D01*
X166879219Y-71205220D01*
X167061610Y-71112287D01*
X167154590Y-71044732D01*
X167227213Y-70991971D01*
X167227215Y-70991968D01*
X167227219Y-70991966D01*
X167371966Y-70847219D01*
X167371968Y-70847215D01*
X167371971Y-70847213D01*
X167424732Y-70774590D01*
X167492287Y-70681610D01*
X167585220Y-70499219D01*
X167648477Y-70304534D01*
X167680500Y-70102352D01*
X167680500Y-69897648D01*
X172699500Y-69897648D01*
X172699500Y-70102351D01*
X172731522Y-70304534D01*
X172794781Y-70499223D01*
X172887715Y-70681613D01*
X173008028Y-70847213D01*
X173152786Y-70991971D01*
X173304184Y-71101966D01*
X173318390Y-71112287D01*
X173434607Y-71171503D01*
X173500776Y-71205218D01*
X173500778Y-71205218D01*
X173500781Y-71205220D01*
X173553299Y-71222284D01*
X173695465Y-71268477D01*
X173796557Y-71284488D01*
X173897648Y-71300500D01*
X173897649Y-71300500D01*
X174102351Y-71300500D01*
X174102352Y-71300500D01*
X174304534Y-71268477D01*
X174499219Y-71205220D01*
X174681610Y-71112287D01*
X174774590Y-71044732D01*
X174847213Y-70991971D01*
X174847215Y-70991968D01*
X174847219Y-70991966D01*
X174991966Y-70847219D01*
X174991968Y-70847215D01*
X174991971Y-70847213D01*
X175044732Y-70774590D01*
X175112287Y-70681610D01*
X175205220Y-70499219D01*
X175268477Y-70304534D01*
X175300500Y-70102352D01*
X175300500Y-69897648D01*
X175285899Y-69805465D01*
X175268477Y-69695465D01*
X175205218Y-69500776D01*
X175153060Y-69398412D01*
X175112287Y-69318390D01*
X175071885Y-69262781D01*
X174991971Y-69152786D01*
X174847213Y-69008028D01*
X174681613Y-68887715D01*
X174681612Y-68887714D01*
X174681610Y-68887713D01*
X174598392Y-68845311D01*
X174499223Y-68794781D01*
X174304534Y-68731522D01*
X174129995Y-68703878D01*
X174102352Y-68699500D01*
X173897648Y-68699500D01*
X173873329Y-68703351D01*
X173695465Y-68731522D01*
X173500776Y-68794781D01*
X173318386Y-68887715D01*
X173152786Y-69008028D01*
X173008028Y-69152786D01*
X172887715Y-69318386D01*
X172794781Y-69500776D01*
X172731522Y-69695465D01*
X172699500Y-69897648D01*
X167680500Y-69897648D01*
X167665899Y-69805465D01*
X167648477Y-69695465D01*
X167585218Y-69500776D01*
X167533060Y-69398412D01*
X167492287Y-69318390D01*
X167451885Y-69262781D01*
X167371971Y-69152786D01*
X167227213Y-69008028D01*
X167061613Y-68887715D01*
X167061612Y-68887714D01*
X167061610Y-68887713D01*
X166978392Y-68845311D01*
X166879223Y-68794781D01*
X166684534Y-68731522D01*
X166509995Y-68703878D01*
X166482352Y-68699500D01*
X166277648Y-68699500D01*
X166253329Y-68703351D01*
X166075465Y-68731522D01*
X165880776Y-68794781D01*
X165698386Y-68887715D01*
X165532786Y-69008028D01*
X165388028Y-69152786D01*
X165267715Y-69318386D01*
X165174781Y-69500776D01*
X165111522Y-69695465D01*
X165079500Y-69897648D01*
X147999015Y-69897648D01*
X145573955Y-67472587D01*
X145491146Y-67389778D01*
X178559500Y-67389778D01*
X178559500Y-67610222D01*
X178569366Y-67672512D01*
X178593985Y-67827952D01*
X178662103Y-68037603D01*
X178662104Y-68037606D01*
X178762187Y-68234025D01*
X178891752Y-68412358D01*
X178891756Y-68412363D01*
X179047636Y-68568243D01*
X179047641Y-68568247D01*
X179203192Y-68681260D01*
X179225978Y-68697815D01*
X179354375Y-68763237D01*
X179422393Y-68797895D01*
X179422396Y-68797896D01*
X179527221Y-68831955D01*
X179632049Y-68866015D01*
X179849778Y-68900500D01*
X179849779Y-68900500D01*
X180070221Y-68900500D01*
X180070222Y-68900500D01*
X180287951Y-68866015D01*
X180497606Y-68797895D01*
X180694022Y-68697815D01*
X180872365Y-68568242D01*
X181028242Y-68412365D01*
X181157815Y-68234022D01*
X181257895Y-68037606D01*
X181326015Y-67827951D01*
X181360500Y-67610222D01*
X181360500Y-67389778D01*
X181326015Y-67172049D01*
X181257895Y-66962394D01*
X181257895Y-66962393D01*
X181204913Y-66858412D01*
X181157815Y-66765978D01*
X181113671Y-66705218D01*
X181028247Y-66587641D01*
X181028243Y-66587636D01*
X180872363Y-66431756D01*
X180872358Y-66431752D01*
X180694025Y-66302187D01*
X180694024Y-66302186D01*
X180694022Y-66302185D01*
X180631096Y-66270122D01*
X180497606Y-66202104D01*
X180497603Y-66202103D01*
X180287952Y-66133985D01*
X180179086Y-66116742D01*
X180070222Y-66099500D01*
X179849778Y-66099500D01*
X179777201Y-66110995D01*
X179632047Y-66133985D01*
X179422396Y-66202103D01*
X179422393Y-66202104D01*
X179225974Y-66302187D01*
X179047641Y-66431752D01*
X179047636Y-66431756D01*
X178891756Y-66587636D01*
X178891752Y-66587641D01*
X178762187Y-66765974D01*
X178662104Y-66962393D01*
X178662103Y-66962396D01*
X178593985Y-67172047D01*
X178593985Y-67172049D01*
X178559500Y-67389778D01*
X145491146Y-67389778D01*
X143581825Y-65480457D01*
X143499016Y-65397648D01*
X165039500Y-65397648D01*
X165039500Y-65602351D01*
X165071522Y-65804534D01*
X165134781Y-65999223D01*
X165185876Y-66099500D01*
X165207675Y-66142284D01*
X165227715Y-66181613D01*
X165348028Y-66347213D01*
X165492786Y-66491971D01*
X165624467Y-66587641D01*
X165658390Y-66612287D01*
X165774607Y-66671503D01*
X165840776Y-66705218D01*
X165840778Y-66705218D01*
X165840781Y-66705220D01*
X165894844Y-66722786D01*
X166035465Y-66768477D01*
X166136557Y-66784488D01*
X166237648Y-66800500D01*
X166237649Y-66800500D01*
X166442351Y-66800500D01*
X166442352Y-66800500D01*
X166644534Y-66768477D01*
X166839219Y-66705220D01*
X167021610Y-66612287D01*
X167114590Y-66544732D01*
X167187213Y-66491971D01*
X167187215Y-66491968D01*
X167187219Y-66491966D01*
X167331966Y-66347219D01*
X167331968Y-66347215D01*
X167331971Y-66347213D01*
X167413337Y-66235220D01*
X167452287Y-66181610D01*
X167545220Y-65999219D01*
X167608477Y-65804534D01*
X167640500Y-65602352D01*
X167640500Y-65397648D01*
X172659500Y-65397648D01*
X172659500Y-65602351D01*
X172691522Y-65804534D01*
X172754781Y-65999223D01*
X172805876Y-66099500D01*
X172827675Y-66142284D01*
X172847715Y-66181613D01*
X172968028Y-66347213D01*
X173112786Y-66491971D01*
X173244467Y-66587641D01*
X173278390Y-66612287D01*
X173394607Y-66671503D01*
X173460776Y-66705218D01*
X173460778Y-66705218D01*
X173460781Y-66705220D01*
X173514844Y-66722786D01*
X173655465Y-66768477D01*
X173756557Y-66784488D01*
X173857648Y-66800500D01*
X173857649Y-66800500D01*
X174062351Y-66800500D01*
X174062352Y-66800500D01*
X174264534Y-66768477D01*
X174459219Y-66705220D01*
X174641610Y-66612287D01*
X174734590Y-66544732D01*
X174807213Y-66491971D01*
X174807215Y-66491968D01*
X174807219Y-66491966D01*
X174951966Y-66347219D01*
X174951968Y-66347215D01*
X174951971Y-66347213D01*
X175033337Y-66235220D01*
X175072287Y-66181610D01*
X175165220Y-65999219D01*
X175228477Y-65804534D01*
X175260500Y-65602352D01*
X175260500Y-65397648D01*
X175239407Y-65264472D01*
X175228477Y-65195465D01*
X175165218Y-65000776D01*
X175127957Y-64927648D01*
X175072287Y-64818390D01*
X175047691Y-64784536D01*
X174951971Y-64652786D01*
X174807213Y-64508028D01*
X174641613Y-64387715D01*
X174641612Y-64387714D01*
X174641610Y-64387713D01*
X174576528Y-64354552D01*
X174459223Y-64294781D01*
X174264534Y-64231522D01*
X174089995Y-64203878D01*
X174062352Y-64199500D01*
X173857648Y-64199500D01*
X173833329Y-64203351D01*
X173655465Y-64231522D01*
X173460776Y-64294781D01*
X173278386Y-64387715D01*
X173112786Y-64508028D01*
X172968028Y-64652786D01*
X172847715Y-64818386D01*
X172754781Y-65000776D01*
X172691522Y-65195465D01*
X172659500Y-65397648D01*
X167640500Y-65397648D01*
X167619407Y-65264472D01*
X167608477Y-65195465D01*
X167545218Y-65000776D01*
X167507957Y-64927648D01*
X167452287Y-64818390D01*
X167427691Y-64784536D01*
X167331971Y-64652786D01*
X167187213Y-64508028D01*
X167021613Y-64387715D01*
X167021612Y-64387714D01*
X167021610Y-64387713D01*
X166956528Y-64354552D01*
X166839223Y-64294781D01*
X166644534Y-64231522D01*
X166469995Y-64203878D01*
X166442352Y-64199500D01*
X166237648Y-64199500D01*
X166213329Y-64203351D01*
X166035465Y-64231522D01*
X165840776Y-64294781D01*
X165658386Y-64387715D01*
X165492786Y-64508028D01*
X165348028Y-64652786D01*
X165227715Y-64818386D01*
X165134781Y-65000776D01*
X165071522Y-65195465D01*
X165039500Y-65397648D01*
X143499016Y-65397648D01*
X136604116Y-58502747D01*
X136522522Y-58421153D01*
X144199500Y-58421153D01*
X144199500Y-58578846D01*
X144230261Y-58733489D01*
X144230263Y-58733497D01*
X144240061Y-58757151D01*
X144249500Y-58804604D01*
X144249500Y-61695396D01*
X144240062Y-61742844D01*
X144230263Y-61766503D01*
X144230262Y-61766506D01*
X144230260Y-61766511D01*
X144199500Y-61921153D01*
X144199500Y-62078846D01*
X144230261Y-62233489D01*
X144230264Y-62233501D01*
X144290602Y-62379172D01*
X144290609Y-62379185D01*
X144378210Y-62510288D01*
X144378213Y-62510292D01*
X144489707Y-62621786D01*
X144489711Y-62621789D01*
X144620814Y-62709390D01*
X144620827Y-62709397D01*
X144766498Y-62769735D01*
X144766503Y-62769737D01*
X144921153Y-62800499D01*
X144921156Y-62800500D01*
X144921158Y-62800500D01*
X145078844Y-62800500D01*
X145078845Y-62800499D01*
X145233497Y-62769737D01*
X145379179Y-62709394D01*
X145510289Y-62621789D01*
X145621789Y-62510289D01*
X145709394Y-62379179D01*
X145769737Y-62233497D01*
X145800500Y-62078842D01*
X145800500Y-61921158D01*
X145800500Y-61921155D01*
X145800499Y-61921153D01*
X145769739Y-61766511D01*
X145769738Y-61766508D01*
X145769737Y-61766503D01*
X145759937Y-61742844D01*
X145750500Y-61695396D01*
X145750500Y-58804604D01*
X145759939Y-58757151D01*
X145769737Y-58733497D01*
X145800500Y-58578842D01*
X145800500Y-58421158D01*
X145800500Y-58421155D01*
X145800499Y-58421153D01*
X149199500Y-58421153D01*
X149199500Y-58578846D01*
X149230261Y-58733489D01*
X149230263Y-58733497D01*
X149240061Y-58757151D01*
X149249500Y-58804604D01*
X149249500Y-61695396D01*
X149240062Y-61742844D01*
X149230263Y-61766503D01*
X149230262Y-61766506D01*
X149230260Y-61766511D01*
X149199500Y-61921153D01*
X149199500Y-62078846D01*
X149230261Y-62233489D01*
X149230264Y-62233501D01*
X149290602Y-62379172D01*
X149290609Y-62379185D01*
X149378210Y-62510288D01*
X149378213Y-62510292D01*
X149489707Y-62621786D01*
X149489711Y-62621789D01*
X149620814Y-62709390D01*
X149620827Y-62709397D01*
X149766498Y-62769735D01*
X149766503Y-62769737D01*
X149921153Y-62800499D01*
X149921156Y-62800500D01*
X149921158Y-62800500D01*
X150078844Y-62800500D01*
X150078845Y-62800499D01*
X150233497Y-62769737D01*
X150379179Y-62709394D01*
X150510289Y-62621789D01*
X150621789Y-62510289D01*
X150709394Y-62379179D01*
X150769737Y-62233497D01*
X150800500Y-62078842D01*
X150800500Y-61921158D01*
X150800500Y-61921155D01*
X150800499Y-61921153D01*
X150769739Y-61766511D01*
X150769738Y-61766508D01*
X150769737Y-61766503D01*
X150759937Y-61742844D01*
X150750500Y-61695396D01*
X150750500Y-58804604D01*
X150759939Y-58757151D01*
X150769737Y-58733497D01*
X150800500Y-58578842D01*
X150800500Y-58421158D01*
X150800500Y-58421155D01*
X150800499Y-58421153D01*
X154199500Y-58421153D01*
X154199500Y-58578846D01*
X154230261Y-58733489D01*
X154230263Y-58733497D01*
X154240061Y-58757151D01*
X154249500Y-58804604D01*
X154249500Y-61695396D01*
X154240062Y-61742844D01*
X154230263Y-61766503D01*
X154230262Y-61766506D01*
X154230260Y-61766511D01*
X154199500Y-61921153D01*
X154199500Y-62078846D01*
X154230261Y-62233489D01*
X154230264Y-62233501D01*
X154290602Y-62379172D01*
X154290609Y-62379185D01*
X154378210Y-62510288D01*
X154378213Y-62510292D01*
X154489707Y-62621786D01*
X154489711Y-62621789D01*
X154620814Y-62709390D01*
X154620827Y-62709397D01*
X154766498Y-62769735D01*
X154766503Y-62769737D01*
X154921153Y-62800499D01*
X154921156Y-62800500D01*
X154921158Y-62800500D01*
X155078844Y-62800500D01*
X155078845Y-62800499D01*
X155233497Y-62769737D01*
X155379179Y-62709394D01*
X155510289Y-62621789D01*
X155621789Y-62510289D01*
X155709394Y-62379179D01*
X155769737Y-62233497D01*
X155800500Y-62078842D01*
X155800500Y-61921158D01*
X155800500Y-61921155D01*
X155800499Y-61921153D01*
X155769739Y-61766511D01*
X155769738Y-61766508D01*
X155769737Y-61766503D01*
X155759937Y-61742844D01*
X155750500Y-61695396D01*
X155750500Y-58804604D01*
X155759939Y-58757151D01*
X155769737Y-58733497D01*
X155800500Y-58578842D01*
X155800500Y-58421158D01*
X155800500Y-58421155D01*
X155800499Y-58421153D01*
X155792362Y-58380245D01*
X155769737Y-58266503D01*
X155723284Y-58154354D01*
X155709397Y-58120827D01*
X155709390Y-58120814D01*
X155621789Y-57989711D01*
X155621786Y-57989707D01*
X155521857Y-57889778D01*
X178559500Y-57889778D01*
X178559500Y-58110221D01*
X178593985Y-58327952D01*
X178662103Y-58537603D01*
X178662104Y-58537606D01*
X178715881Y-58643147D01*
X178761917Y-58733497D01*
X178762187Y-58734025D01*
X178891752Y-58912358D01*
X178891756Y-58912363D01*
X179047636Y-59068243D01*
X179047641Y-59068247D01*
X179157807Y-59148286D01*
X179225978Y-59197815D01*
X179342430Y-59257151D01*
X179422393Y-59297895D01*
X179422396Y-59297896D01*
X179443042Y-59304604D01*
X179632049Y-59366015D01*
X179849778Y-59400500D01*
X179849779Y-59400500D01*
X180070221Y-59400500D01*
X180070222Y-59400500D01*
X180287951Y-59366015D01*
X180497606Y-59297895D01*
X180694022Y-59197815D01*
X180872365Y-59068242D01*
X181028242Y-58912365D01*
X181157815Y-58734022D01*
X181257895Y-58537606D01*
X181326015Y-58327951D01*
X181360500Y-58110222D01*
X181360500Y-57889778D01*
X181326015Y-57672049D01*
X181257895Y-57462394D01*
X181257895Y-57462393D01*
X181223237Y-57394375D01*
X181157815Y-57265978D01*
X181086664Y-57168046D01*
X181028247Y-57087641D01*
X181028243Y-57087636D01*
X180872363Y-56931756D01*
X180872358Y-56931752D01*
X180694025Y-56802187D01*
X180694024Y-56802186D01*
X180694022Y-56802185D01*
X180631096Y-56770122D01*
X180497606Y-56702104D01*
X180497603Y-56702103D01*
X180287952Y-56633985D01*
X180160489Y-56613797D01*
X180070222Y-56599500D01*
X179849778Y-56599500D01*
X179777201Y-56610995D01*
X179632047Y-56633985D01*
X179422396Y-56702103D01*
X179422393Y-56702104D01*
X179225974Y-56802187D01*
X179047641Y-56931752D01*
X179047636Y-56931756D01*
X178891756Y-57087636D01*
X178891752Y-57087641D01*
X178762187Y-57265974D01*
X178662104Y-57462393D01*
X178662103Y-57462396D01*
X178593985Y-57672047D01*
X178559500Y-57889778D01*
X155521857Y-57889778D01*
X155510292Y-57878213D01*
X155510288Y-57878210D01*
X155379185Y-57790609D01*
X155379172Y-57790602D01*
X155233501Y-57730264D01*
X155233489Y-57730261D01*
X155078845Y-57699500D01*
X155078842Y-57699500D01*
X154921158Y-57699500D01*
X154921155Y-57699500D01*
X154766510Y-57730261D01*
X154766498Y-57730264D01*
X154620827Y-57790602D01*
X154620814Y-57790609D01*
X154489711Y-57878210D01*
X154489707Y-57878213D01*
X154378213Y-57989707D01*
X154378210Y-57989711D01*
X154290609Y-58120814D01*
X154290602Y-58120827D01*
X154230264Y-58266498D01*
X154230261Y-58266510D01*
X154199500Y-58421153D01*
X150800499Y-58421153D01*
X150792362Y-58380245D01*
X150769737Y-58266503D01*
X150723284Y-58154354D01*
X150709397Y-58120827D01*
X150709390Y-58120814D01*
X150621789Y-57989711D01*
X150621786Y-57989707D01*
X150510292Y-57878213D01*
X150510288Y-57878210D01*
X150379185Y-57790609D01*
X150379172Y-57790602D01*
X150233501Y-57730264D01*
X150233489Y-57730261D01*
X150078845Y-57699500D01*
X150078842Y-57699500D01*
X149921158Y-57699500D01*
X149921155Y-57699500D01*
X149766510Y-57730261D01*
X149766498Y-57730264D01*
X149620827Y-57790602D01*
X149620814Y-57790609D01*
X149489711Y-57878210D01*
X149489707Y-57878213D01*
X149378213Y-57989707D01*
X149378210Y-57989711D01*
X149290609Y-58120814D01*
X149290602Y-58120827D01*
X149230264Y-58266498D01*
X149230261Y-58266510D01*
X149199500Y-58421153D01*
X145800499Y-58421153D01*
X145792362Y-58380245D01*
X145769737Y-58266503D01*
X145723284Y-58154354D01*
X145709397Y-58120827D01*
X145709390Y-58120814D01*
X145621789Y-57989711D01*
X145621786Y-57989707D01*
X145510292Y-57878213D01*
X145510288Y-57878210D01*
X145379185Y-57790609D01*
X145379172Y-57790602D01*
X145233501Y-57730264D01*
X145233489Y-57730261D01*
X145078845Y-57699500D01*
X145078842Y-57699500D01*
X144921158Y-57699500D01*
X144921155Y-57699500D01*
X144766510Y-57730261D01*
X144766498Y-57730264D01*
X144620827Y-57790602D01*
X144620814Y-57790609D01*
X144489711Y-57878210D01*
X144489707Y-57878213D01*
X144378213Y-57989707D01*
X144378210Y-57989711D01*
X144290609Y-58120814D01*
X144290602Y-58120827D01*
X144230264Y-58266498D01*
X144230261Y-58266510D01*
X144199500Y-58421153D01*
X136522522Y-58421153D01*
X135269421Y-57168052D01*
X135269414Y-57168046D01*
X135181131Y-57109058D01*
X135181130Y-57109058D01*
X135146500Y-57085919D01*
X135146488Y-57085912D01*
X135009917Y-57029343D01*
X135009907Y-57029340D01*
X134864920Y-57000500D01*
X134864918Y-57000500D01*
X133551647Y-57000500D01*
X133484608Y-56980815D01*
X133438853Y-56928011D01*
X133428909Y-56858853D01*
X133453270Y-56801014D01*
X133596924Y-56613803D01*
X133728043Y-56386697D01*
X133828398Y-56144419D01*
X133896270Y-55891116D01*
X133930500Y-55631120D01*
X133930500Y-55368880D01*
X133896270Y-55108884D01*
X133828398Y-54855581D01*
X133828394Y-54855571D01*
X133728046Y-54613309D01*
X133728041Y-54613299D01*
X133596924Y-54386196D01*
X133437281Y-54178148D01*
X133437274Y-54178140D01*
X133251860Y-53992726D01*
X133251851Y-53992718D01*
X133043803Y-53833075D01*
X132816700Y-53701958D01*
X132816690Y-53701953D01*
X132574428Y-53601605D01*
X132574421Y-53601603D01*
X132574419Y-53601602D01*
X132321116Y-53533730D01*
X132263339Y-53526123D01*
X132061127Y-53499500D01*
X132061120Y-53499500D01*
X131798880Y-53499500D01*
X131798872Y-53499500D01*
X131567772Y-53529926D01*
X131538884Y-53533730D01*
X131285581Y-53601602D01*
X131285571Y-53601605D01*
X131043309Y-53701953D01*
X131043299Y-53701958D01*
X130816196Y-53833075D01*
X130608148Y-53992718D01*
X130422718Y-54178148D01*
X130263075Y-54386196D01*
X130131958Y-54613299D01*
X130131953Y-54613309D01*
X130031605Y-54855571D01*
X130031602Y-54855581D01*
X129963730Y-55108885D01*
X129929500Y-55368872D01*
X129929500Y-55631127D01*
X129956123Y-55833339D01*
X129963730Y-55891116D01*
X130031602Y-56144418D01*
X130031605Y-56144428D01*
X130131953Y-56386690D01*
X130131958Y-56386700D01*
X130263072Y-56613797D01*
X130263074Y-56613799D01*
X130263076Y-56613803D01*
X130406729Y-56801014D01*
X130431923Y-56866182D01*
X130417885Y-56934627D01*
X130369071Y-56984617D01*
X130308353Y-57000500D01*
X120423229Y-57000500D01*
X120356190Y-56980815D01*
X120335548Y-56964181D01*
X116806818Y-53435450D01*
X116773333Y-53374127D01*
X116770499Y-53347769D01*
X116770499Y-51959629D01*
X116770498Y-51959623D01*
X116770497Y-51959616D01*
X116764091Y-51900017D01*
X116713796Y-51765169D01*
X116713795Y-51765168D01*
X116713793Y-51765164D01*
X116627547Y-51649955D01*
X116627544Y-51649952D01*
X116512335Y-51563706D01*
X116512328Y-51563702D01*
X116377482Y-51513408D01*
X116377483Y-51513408D01*
X116317883Y-51507001D01*
X116317881Y-51507000D01*
X116317873Y-51507000D01*
X116317864Y-51507000D01*
X114222129Y-51507000D01*
X114222123Y-51507001D01*
X114162516Y-51513408D01*
X114027671Y-51563702D01*
X114027664Y-51563706D01*
X113912455Y-51649952D01*
X113912452Y-51649955D01*
X113826206Y-51765164D01*
X113826202Y-51765171D01*
X113775908Y-51900017D01*
X113769501Y-51959616D01*
X113769501Y-51959623D01*
X113769500Y-51959635D01*
X91000500Y-51959635D01*
X91000500Y-50124500D01*
X91020185Y-50057461D01*
X91072989Y-50011706D01*
X91124500Y-50000500D01*
X184875500Y-50000500D01*
X184942539Y-50020185D01*
G37*
%TD.AperFunction*%
%TD*%
M02*
