%TF.GenerationSoftware,KiCad,Pcbnew,9.0.1*%
%TF.CreationDate,2025-05-04T20:41:54+10:00*%
%TF.ProjectId,payload_controlboard,7061796c-6f61-4645-9f63-6f6e74726f6c,rev?*%
%TF.SameCoordinates,Original*%
%TF.FileFunction,Soldermask,Top*%
%TF.FilePolarity,Negative*%
%FSLAX46Y46*%
G04 Gerber Fmt 4.6, Leading zero omitted, Abs format (unit mm)*
G04 Created by KiCad (PCBNEW 9.0.1) date 2025-05-04 20:41:54*
%MOMM*%
%LPD*%
G01*
G04 APERTURE LIST*
%ADD10C,0.250000*%
%ADD11C,0.300000*%
%ADD12R,1.700000X1.700000*%
%ADD13O,1.700000X1.700000*%
%ADD14C,3.200000*%
%ADD15C,1.600000*%
%ADD16O,1.600000X1.600000*%
%ADD17R,1.549908X1.400048*%
%ADD18R,1.800000X1.800000*%
%ADD19C,1.800000*%
%ADD20R,1.600000X1.600000*%
G04 APERTURE END LIST*
D10*
X112402568Y-77864619D02*
X112402568Y-76864619D01*
X112402568Y-76864619D02*
X112640663Y-76864619D01*
X112640663Y-76864619D02*
X112783520Y-76912238D01*
X112783520Y-76912238D02*
X112878758Y-77007476D01*
X112878758Y-77007476D02*
X112926377Y-77102714D01*
X112926377Y-77102714D02*
X112973996Y-77293190D01*
X112973996Y-77293190D02*
X112973996Y-77436047D01*
X112973996Y-77436047D02*
X112926377Y-77626523D01*
X112926377Y-77626523D02*
X112878758Y-77721761D01*
X112878758Y-77721761D02*
X112783520Y-77817000D01*
X112783520Y-77817000D02*
X112640663Y-77864619D01*
X112640663Y-77864619D02*
X112402568Y-77864619D01*
X113783520Y-77817000D02*
X113688282Y-77864619D01*
X113688282Y-77864619D02*
X113497806Y-77864619D01*
X113497806Y-77864619D02*
X113402568Y-77817000D01*
X113402568Y-77817000D02*
X113354949Y-77721761D01*
X113354949Y-77721761D02*
X113354949Y-77340809D01*
X113354949Y-77340809D02*
X113402568Y-77245571D01*
X113402568Y-77245571D02*
X113497806Y-77197952D01*
X113497806Y-77197952D02*
X113688282Y-77197952D01*
X113688282Y-77197952D02*
X113783520Y-77245571D01*
X113783520Y-77245571D02*
X113831139Y-77340809D01*
X113831139Y-77340809D02*
X113831139Y-77436047D01*
X113831139Y-77436047D02*
X113354949Y-77531285D01*
X114212092Y-77817000D02*
X114307330Y-77864619D01*
X114307330Y-77864619D02*
X114497806Y-77864619D01*
X114497806Y-77864619D02*
X114593044Y-77817000D01*
X114593044Y-77817000D02*
X114640663Y-77721761D01*
X114640663Y-77721761D02*
X114640663Y-77674142D01*
X114640663Y-77674142D02*
X114593044Y-77578904D01*
X114593044Y-77578904D02*
X114497806Y-77531285D01*
X114497806Y-77531285D02*
X114354949Y-77531285D01*
X114354949Y-77531285D02*
X114259711Y-77483666D01*
X114259711Y-77483666D02*
X114212092Y-77388428D01*
X114212092Y-77388428D02*
X114212092Y-77340809D01*
X114212092Y-77340809D02*
X114259711Y-77245571D01*
X114259711Y-77245571D02*
X114354949Y-77197952D01*
X114354949Y-77197952D02*
X114497806Y-77197952D01*
X114497806Y-77197952D02*
X114593044Y-77245571D01*
X115069235Y-77864619D02*
X115069235Y-77197952D01*
X115069235Y-76864619D02*
X115021616Y-76912238D01*
X115021616Y-76912238D02*
X115069235Y-76959857D01*
X115069235Y-76959857D02*
X115116854Y-76912238D01*
X115116854Y-76912238D02*
X115069235Y-76864619D01*
X115069235Y-76864619D02*
X115069235Y-76959857D01*
X115973996Y-77197952D02*
X115973996Y-78007476D01*
X115973996Y-78007476D02*
X115926377Y-78102714D01*
X115926377Y-78102714D02*
X115878758Y-78150333D01*
X115878758Y-78150333D02*
X115783520Y-78197952D01*
X115783520Y-78197952D02*
X115640663Y-78197952D01*
X115640663Y-78197952D02*
X115545425Y-78150333D01*
X115973996Y-77817000D02*
X115878758Y-77864619D01*
X115878758Y-77864619D02*
X115688282Y-77864619D01*
X115688282Y-77864619D02*
X115593044Y-77817000D01*
X115593044Y-77817000D02*
X115545425Y-77769380D01*
X115545425Y-77769380D02*
X115497806Y-77674142D01*
X115497806Y-77674142D02*
X115497806Y-77388428D01*
X115497806Y-77388428D02*
X115545425Y-77293190D01*
X115545425Y-77293190D02*
X115593044Y-77245571D01*
X115593044Y-77245571D02*
X115688282Y-77197952D01*
X115688282Y-77197952D02*
X115878758Y-77197952D01*
X115878758Y-77197952D02*
X115973996Y-77245571D01*
X116450187Y-77197952D02*
X116450187Y-77864619D01*
X116450187Y-77293190D02*
X116497806Y-77245571D01*
X116497806Y-77245571D02*
X116593044Y-77197952D01*
X116593044Y-77197952D02*
X116735901Y-77197952D01*
X116735901Y-77197952D02*
X116831139Y-77245571D01*
X116831139Y-77245571D02*
X116878758Y-77340809D01*
X116878758Y-77340809D02*
X116878758Y-77864619D01*
X117735901Y-77817000D02*
X117640663Y-77864619D01*
X117640663Y-77864619D02*
X117450187Y-77864619D01*
X117450187Y-77864619D02*
X117354949Y-77817000D01*
X117354949Y-77817000D02*
X117307330Y-77721761D01*
X117307330Y-77721761D02*
X117307330Y-77340809D01*
X117307330Y-77340809D02*
X117354949Y-77245571D01*
X117354949Y-77245571D02*
X117450187Y-77197952D01*
X117450187Y-77197952D02*
X117640663Y-77197952D01*
X117640663Y-77197952D02*
X117735901Y-77245571D01*
X117735901Y-77245571D02*
X117783520Y-77340809D01*
X117783520Y-77340809D02*
X117783520Y-77436047D01*
X117783520Y-77436047D02*
X117307330Y-77531285D01*
X118640663Y-77864619D02*
X118640663Y-76864619D01*
X118640663Y-77817000D02*
X118545425Y-77864619D01*
X118545425Y-77864619D02*
X118354949Y-77864619D01*
X118354949Y-77864619D02*
X118259711Y-77817000D01*
X118259711Y-77817000D02*
X118212092Y-77769380D01*
X118212092Y-77769380D02*
X118164473Y-77674142D01*
X118164473Y-77674142D02*
X118164473Y-77388428D01*
X118164473Y-77388428D02*
X118212092Y-77293190D01*
X118212092Y-77293190D02*
X118259711Y-77245571D01*
X118259711Y-77245571D02*
X118354949Y-77197952D01*
X118354949Y-77197952D02*
X118545425Y-77197952D01*
X118545425Y-77197952D02*
X118640663Y-77245571D01*
X119878759Y-77864619D02*
X119878759Y-76864619D01*
X119878759Y-77245571D02*
X119973997Y-77197952D01*
X119973997Y-77197952D02*
X120164473Y-77197952D01*
X120164473Y-77197952D02*
X120259711Y-77245571D01*
X120259711Y-77245571D02*
X120307330Y-77293190D01*
X120307330Y-77293190D02*
X120354949Y-77388428D01*
X120354949Y-77388428D02*
X120354949Y-77674142D01*
X120354949Y-77674142D02*
X120307330Y-77769380D01*
X120307330Y-77769380D02*
X120259711Y-77817000D01*
X120259711Y-77817000D02*
X120164473Y-77864619D01*
X120164473Y-77864619D02*
X119973997Y-77864619D01*
X119973997Y-77864619D02*
X119878759Y-77817000D01*
X120688283Y-77197952D02*
X120926378Y-77864619D01*
X121164473Y-77197952D02*
X120926378Y-77864619D01*
X120926378Y-77864619D02*
X120831140Y-78102714D01*
X120831140Y-78102714D02*
X120783521Y-78150333D01*
X120783521Y-78150333D02*
X120688283Y-78197952D01*
X122307331Y-77864619D02*
X122307331Y-76864619D01*
X122307331Y-76864619D02*
X122640664Y-77578904D01*
X122640664Y-77578904D02*
X122973997Y-76864619D01*
X122973997Y-76864619D02*
X122973997Y-77864619D01*
X123878759Y-77864619D02*
X123878759Y-77340809D01*
X123878759Y-77340809D02*
X123831140Y-77245571D01*
X123831140Y-77245571D02*
X123735902Y-77197952D01*
X123735902Y-77197952D02*
X123545426Y-77197952D01*
X123545426Y-77197952D02*
X123450188Y-77245571D01*
X123878759Y-77817000D02*
X123783521Y-77864619D01*
X123783521Y-77864619D02*
X123545426Y-77864619D01*
X123545426Y-77864619D02*
X123450188Y-77817000D01*
X123450188Y-77817000D02*
X123402569Y-77721761D01*
X123402569Y-77721761D02*
X123402569Y-77626523D01*
X123402569Y-77626523D02*
X123450188Y-77531285D01*
X123450188Y-77531285D02*
X123545426Y-77483666D01*
X123545426Y-77483666D02*
X123783521Y-77483666D01*
X123783521Y-77483666D02*
X123878759Y-77436047D01*
X124783521Y-77197952D02*
X124783521Y-77864619D01*
X124354950Y-77197952D02*
X124354950Y-77721761D01*
X124354950Y-77721761D02*
X124402569Y-77817000D01*
X124402569Y-77817000D02*
X124497807Y-77864619D01*
X124497807Y-77864619D02*
X124640664Y-77864619D01*
X124640664Y-77864619D02*
X124735902Y-77817000D01*
X124735902Y-77817000D02*
X124783521Y-77769380D01*
X125259712Y-77864619D02*
X125259712Y-77197952D01*
X125259712Y-77388428D02*
X125307331Y-77293190D01*
X125307331Y-77293190D02*
X125354950Y-77245571D01*
X125354950Y-77245571D02*
X125450188Y-77197952D01*
X125450188Y-77197952D02*
X125545426Y-77197952D01*
X125878760Y-77864619D02*
X125878760Y-77197952D01*
X125878760Y-76864619D02*
X125831141Y-76912238D01*
X125831141Y-76912238D02*
X125878760Y-76959857D01*
X125878760Y-76959857D02*
X125926379Y-76912238D01*
X125926379Y-76912238D02*
X125878760Y-76864619D01*
X125878760Y-76864619D02*
X125878760Y-76959857D01*
X126783521Y-77817000D02*
X126688283Y-77864619D01*
X126688283Y-77864619D02*
X126497807Y-77864619D01*
X126497807Y-77864619D02*
X126402569Y-77817000D01*
X126402569Y-77817000D02*
X126354950Y-77769380D01*
X126354950Y-77769380D02*
X126307331Y-77674142D01*
X126307331Y-77674142D02*
X126307331Y-77388428D01*
X126307331Y-77388428D02*
X126354950Y-77293190D01*
X126354950Y-77293190D02*
X126402569Y-77245571D01*
X126402569Y-77245571D02*
X126497807Y-77197952D01*
X126497807Y-77197952D02*
X126688283Y-77197952D01*
X126688283Y-77197952D02*
X126783521Y-77245571D01*
X127593045Y-77817000D02*
X127497807Y-77864619D01*
X127497807Y-77864619D02*
X127307331Y-77864619D01*
X127307331Y-77864619D02*
X127212093Y-77817000D01*
X127212093Y-77817000D02*
X127164474Y-77721761D01*
X127164474Y-77721761D02*
X127164474Y-77340809D01*
X127164474Y-77340809D02*
X127212093Y-77245571D01*
X127212093Y-77245571D02*
X127307331Y-77197952D01*
X127307331Y-77197952D02*
X127497807Y-77197952D01*
X127497807Y-77197952D02*
X127593045Y-77245571D01*
X127593045Y-77245571D02*
X127640664Y-77340809D01*
X127640664Y-77340809D02*
X127640664Y-77436047D01*
X127640664Y-77436047D02*
X127164474Y-77531285D01*
X129164474Y-77340809D02*
X129307331Y-77388428D01*
X129307331Y-77388428D02*
X129354950Y-77436047D01*
X129354950Y-77436047D02*
X129402569Y-77531285D01*
X129402569Y-77531285D02*
X129402569Y-77674142D01*
X129402569Y-77674142D02*
X129354950Y-77769380D01*
X129354950Y-77769380D02*
X129307331Y-77817000D01*
X129307331Y-77817000D02*
X129212093Y-77864619D01*
X129212093Y-77864619D02*
X128831141Y-77864619D01*
X128831141Y-77864619D02*
X128831141Y-76864619D01*
X128831141Y-76864619D02*
X129164474Y-76864619D01*
X129164474Y-76864619D02*
X129259712Y-76912238D01*
X129259712Y-76912238D02*
X129307331Y-76959857D01*
X129307331Y-76959857D02*
X129354950Y-77055095D01*
X129354950Y-77055095D02*
X129354950Y-77150333D01*
X129354950Y-77150333D02*
X129307331Y-77245571D01*
X129307331Y-77245571D02*
X129259712Y-77293190D01*
X129259712Y-77293190D02*
X129164474Y-77340809D01*
X129164474Y-77340809D02*
X128831141Y-77340809D01*
X129973998Y-77864619D02*
X129878760Y-77817000D01*
X129878760Y-77817000D02*
X129831141Y-77721761D01*
X129831141Y-77721761D02*
X129831141Y-76864619D01*
X130783522Y-77864619D02*
X130783522Y-77340809D01*
X130783522Y-77340809D02*
X130735903Y-77245571D01*
X130735903Y-77245571D02*
X130640665Y-77197952D01*
X130640665Y-77197952D02*
X130450189Y-77197952D01*
X130450189Y-77197952D02*
X130354951Y-77245571D01*
X130783522Y-77817000D02*
X130688284Y-77864619D01*
X130688284Y-77864619D02*
X130450189Y-77864619D01*
X130450189Y-77864619D02*
X130354951Y-77817000D01*
X130354951Y-77817000D02*
X130307332Y-77721761D01*
X130307332Y-77721761D02*
X130307332Y-77626523D01*
X130307332Y-77626523D02*
X130354951Y-77531285D01*
X130354951Y-77531285D02*
X130450189Y-77483666D01*
X130450189Y-77483666D02*
X130688284Y-77483666D01*
X130688284Y-77483666D02*
X130783522Y-77436047D01*
X131259713Y-77864619D02*
X131259713Y-76864619D01*
X131354951Y-77483666D02*
X131640665Y-77864619D01*
X131640665Y-77197952D02*
X131259713Y-77578904D01*
X132450189Y-77817000D02*
X132354951Y-77864619D01*
X132354951Y-77864619D02*
X132164475Y-77864619D01*
X132164475Y-77864619D02*
X132069237Y-77817000D01*
X132069237Y-77817000D02*
X132021618Y-77721761D01*
X132021618Y-77721761D02*
X132021618Y-77340809D01*
X132021618Y-77340809D02*
X132069237Y-77245571D01*
X132069237Y-77245571D02*
X132164475Y-77197952D01*
X132164475Y-77197952D02*
X132354951Y-77197952D01*
X132354951Y-77197952D02*
X132450189Y-77245571D01*
X132450189Y-77245571D02*
X132497808Y-77340809D01*
X132497808Y-77340809D02*
X132497808Y-77436047D01*
X132497808Y-77436047D02*
X132021618Y-77531285D01*
D11*
X112054510Y-75015114D02*
X112554510Y-75015114D01*
X112768796Y-75800828D02*
X112054510Y-75800828D01*
X112054510Y-75800828D02*
X112054510Y-74300828D01*
X112054510Y-74300828D02*
X112768796Y-74300828D01*
X114197368Y-74372257D02*
X114054511Y-74300828D01*
X114054511Y-74300828D02*
X113840225Y-74300828D01*
X113840225Y-74300828D02*
X113625939Y-74372257D01*
X113625939Y-74372257D02*
X113483082Y-74515114D01*
X113483082Y-74515114D02*
X113411653Y-74657971D01*
X113411653Y-74657971D02*
X113340225Y-74943685D01*
X113340225Y-74943685D02*
X113340225Y-75157971D01*
X113340225Y-75157971D02*
X113411653Y-75443685D01*
X113411653Y-75443685D02*
X113483082Y-75586542D01*
X113483082Y-75586542D02*
X113625939Y-75729400D01*
X113625939Y-75729400D02*
X113840225Y-75800828D01*
X113840225Y-75800828D02*
X113983082Y-75800828D01*
X113983082Y-75800828D02*
X114197368Y-75729400D01*
X114197368Y-75729400D02*
X114268796Y-75657971D01*
X114268796Y-75657971D02*
X114268796Y-75157971D01*
X114268796Y-75157971D02*
X113983082Y-75157971D01*
X115411653Y-75015114D02*
X115625939Y-75086542D01*
X115625939Y-75086542D02*
X115697368Y-75157971D01*
X115697368Y-75157971D02*
X115768796Y-75300828D01*
X115768796Y-75300828D02*
X115768796Y-75515114D01*
X115768796Y-75515114D02*
X115697368Y-75657971D01*
X115697368Y-75657971D02*
X115625939Y-75729400D01*
X115625939Y-75729400D02*
X115483082Y-75800828D01*
X115483082Y-75800828D02*
X114911653Y-75800828D01*
X114911653Y-75800828D02*
X114911653Y-74300828D01*
X114911653Y-74300828D02*
X115411653Y-74300828D01*
X115411653Y-74300828D02*
X115554511Y-74372257D01*
X115554511Y-74372257D02*
X115625939Y-74443685D01*
X115625939Y-74443685D02*
X115697368Y-74586542D01*
X115697368Y-74586542D02*
X115697368Y-74729400D01*
X115697368Y-74729400D02*
X115625939Y-74872257D01*
X115625939Y-74872257D02*
X115554511Y-74943685D01*
X115554511Y-74943685D02*
X115411653Y-75015114D01*
X115411653Y-75015114D02*
X114911653Y-75015114D01*
X116340225Y-74443685D02*
X116411653Y-74372257D01*
X116411653Y-74372257D02*
X116554511Y-74300828D01*
X116554511Y-74300828D02*
X116911653Y-74300828D01*
X116911653Y-74300828D02*
X117054511Y-74372257D01*
X117054511Y-74372257D02*
X117125939Y-74443685D01*
X117125939Y-74443685D02*
X117197368Y-74586542D01*
X117197368Y-74586542D02*
X117197368Y-74729400D01*
X117197368Y-74729400D02*
X117125939Y-74943685D01*
X117125939Y-74943685D02*
X116268796Y-75800828D01*
X116268796Y-75800828D02*
X117197368Y-75800828D01*
X117768796Y-74443685D02*
X117840224Y-74372257D01*
X117840224Y-74372257D02*
X117983082Y-74300828D01*
X117983082Y-74300828D02*
X118340224Y-74300828D01*
X118340224Y-74300828D02*
X118483082Y-74372257D01*
X118483082Y-74372257D02*
X118554510Y-74443685D01*
X118554510Y-74443685D02*
X118625939Y-74586542D01*
X118625939Y-74586542D02*
X118625939Y-74729400D01*
X118625939Y-74729400D02*
X118554510Y-74943685D01*
X118554510Y-74943685D02*
X117697367Y-75800828D01*
X117697367Y-75800828D02*
X118625939Y-75800828D01*
X119554510Y-74300828D02*
X119697367Y-74300828D01*
X119697367Y-74300828D02*
X119840224Y-74372257D01*
X119840224Y-74372257D02*
X119911653Y-74443685D01*
X119911653Y-74443685D02*
X119983081Y-74586542D01*
X119983081Y-74586542D02*
X120054510Y-74872257D01*
X120054510Y-74872257D02*
X120054510Y-75229400D01*
X120054510Y-75229400D02*
X119983081Y-75515114D01*
X119983081Y-75515114D02*
X119911653Y-75657971D01*
X119911653Y-75657971D02*
X119840224Y-75729400D01*
X119840224Y-75729400D02*
X119697367Y-75800828D01*
X119697367Y-75800828D02*
X119554510Y-75800828D01*
X119554510Y-75800828D02*
X119411653Y-75729400D01*
X119411653Y-75729400D02*
X119340224Y-75657971D01*
X119340224Y-75657971D02*
X119268795Y-75515114D01*
X119268795Y-75515114D02*
X119197367Y-75229400D01*
X119197367Y-75229400D02*
X119197367Y-74872257D01*
X119197367Y-74872257D02*
X119268795Y-74586542D01*
X119268795Y-74586542D02*
X119340224Y-74443685D01*
X119340224Y-74443685D02*
X119411653Y-74372257D01*
X119411653Y-74372257D02*
X119554510Y-74300828D01*
X120697366Y-75229400D02*
X121840224Y-75229400D01*
X122483081Y-75372257D02*
X123197367Y-75372257D01*
X122340224Y-75800828D02*
X122840224Y-74300828D01*
X122840224Y-74300828D02*
X123340224Y-75800828D01*
X124625938Y-75800828D02*
X123768795Y-75800828D01*
X124197366Y-75800828D02*
X124197366Y-74300828D01*
X124197366Y-74300828D02*
X124054509Y-74515114D01*
X124054509Y-74515114D02*
X123911652Y-74657971D01*
X123911652Y-74657971D02*
X123768795Y-74729400D01*
X125554509Y-74300828D02*
X125697366Y-74300828D01*
X125697366Y-74300828D02*
X125840223Y-74372257D01*
X125840223Y-74372257D02*
X125911652Y-74443685D01*
X125911652Y-74443685D02*
X125983080Y-74586542D01*
X125983080Y-74586542D02*
X126054509Y-74872257D01*
X126054509Y-74872257D02*
X126054509Y-75229400D01*
X126054509Y-75229400D02*
X125983080Y-75515114D01*
X125983080Y-75515114D02*
X125911652Y-75657971D01*
X125911652Y-75657971D02*
X125840223Y-75729400D01*
X125840223Y-75729400D02*
X125697366Y-75800828D01*
X125697366Y-75800828D02*
X125554509Y-75800828D01*
X125554509Y-75800828D02*
X125411652Y-75729400D01*
X125411652Y-75729400D02*
X125340223Y-75657971D01*
X125340223Y-75657971D02*
X125268794Y-75515114D01*
X125268794Y-75515114D02*
X125197366Y-75229400D01*
X125197366Y-75229400D02*
X125197366Y-74872257D01*
X125197366Y-74872257D02*
X125268794Y-74586542D01*
X125268794Y-74586542D02*
X125340223Y-74443685D01*
X125340223Y-74443685D02*
X125411652Y-74372257D01*
X125411652Y-74372257D02*
X125554509Y-74300828D01*
X127840222Y-75800828D02*
X127840222Y-74300828D01*
X127840222Y-74300828D02*
X128411651Y-74300828D01*
X128411651Y-74300828D02*
X128554508Y-74372257D01*
X128554508Y-74372257D02*
X128625937Y-74443685D01*
X128625937Y-74443685D02*
X128697365Y-74586542D01*
X128697365Y-74586542D02*
X128697365Y-74800828D01*
X128697365Y-74800828D02*
X128625937Y-74943685D01*
X128625937Y-74943685D02*
X128554508Y-75015114D01*
X128554508Y-75015114D02*
X128411651Y-75086542D01*
X128411651Y-75086542D02*
X127840222Y-75086542D01*
X129983080Y-75800828D02*
X129983080Y-75015114D01*
X129983080Y-75015114D02*
X129911651Y-74872257D01*
X129911651Y-74872257D02*
X129768794Y-74800828D01*
X129768794Y-74800828D02*
X129483080Y-74800828D01*
X129483080Y-74800828D02*
X129340222Y-74872257D01*
X129983080Y-75729400D02*
X129840222Y-75800828D01*
X129840222Y-75800828D02*
X129483080Y-75800828D01*
X129483080Y-75800828D02*
X129340222Y-75729400D01*
X129340222Y-75729400D02*
X129268794Y-75586542D01*
X129268794Y-75586542D02*
X129268794Y-75443685D01*
X129268794Y-75443685D02*
X129340222Y-75300828D01*
X129340222Y-75300828D02*
X129483080Y-75229400D01*
X129483080Y-75229400D02*
X129840222Y-75229400D01*
X129840222Y-75229400D02*
X129983080Y-75157971D01*
X130554508Y-74800828D02*
X130911651Y-75800828D01*
X131268794Y-74800828D02*
X130911651Y-75800828D01*
X130911651Y-75800828D02*
X130768794Y-76157971D01*
X130768794Y-76157971D02*
X130697365Y-76229400D01*
X130697365Y-76229400D02*
X130554508Y-76300828D01*
X132054508Y-75800828D02*
X131911651Y-75729400D01*
X131911651Y-75729400D02*
X131840222Y-75586542D01*
X131840222Y-75586542D02*
X131840222Y-74300828D01*
X132840222Y-75800828D02*
X132697365Y-75729400D01*
X132697365Y-75729400D02*
X132625936Y-75657971D01*
X132625936Y-75657971D02*
X132554508Y-75515114D01*
X132554508Y-75515114D02*
X132554508Y-75086542D01*
X132554508Y-75086542D02*
X132625936Y-74943685D01*
X132625936Y-74943685D02*
X132697365Y-74872257D01*
X132697365Y-74872257D02*
X132840222Y-74800828D01*
X132840222Y-74800828D02*
X133054508Y-74800828D01*
X133054508Y-74800828D02*
X133197365Y-74872257D01*
X133197365Y-74872257D02*
X133268794Y-74943685D01*
X133268794Y-74943685D02*
X133340222Y-75086542D01*
X133340222Y-75086542D02*
X133340222Y-75515114D01*
X133340222Y-75515114D02*
X133268794Y-75657971D01*
X133268794Y-75657971D02*
X133197365Y-75729400D01*
X133197365Y-75729400D02*
X133054508Y-75800828D01*
X133054508Y-75800828D02*
X132840222Y-75800828D01*
X134625937Y-75800828D02*
X134625937Y-75015114D01*
X134625937Y-75015114D02*
X134554508Y-74872257D01*
X134554508Y-74872257D02*
X134411651Y-74800828D01*
X134411651Y-74800828D02*
X134125937Y-74800828D01*
X134125937Y-74800828D02*
X133983079Y-74872257D01*
X134625937Y-75729400D02*
X134483079Y-75800828D01*
X134483079Y-75800828D02*
X134125937Y-75800828D01*
X134125937Y-75800828D02*
X133983079Y-75729400D01*
X133983079Y-75729400D02*
X133911651Y-75586542D01*
X133911651Y-75586542D02*
X133911651Y-75443685D01*
X133911651Y-75443685D02*
X133983079Y-75300828D01*
X133983079Y-75300828D02*
X134125937Y-75229400D01*
X134125937Y-75229400D02*
X134483079Y-75229400D01*
X134483079Y-75229400D02*
X134625937Y-75157971D01*
X135983080Y-75800828D02*
X135983080Y-74300828D01*
X135983080Y-75729400D02*
X135840222Y-75800828D01*
X135840222Y-75800828D02*
X135554508Y-75800828D01*
X135554508Y-75800828D02*
X135411651Y-75729400D01*
X135411651Y-75729400D02*
X135340222Y-75657971D01*
X135340222Y-75657971D02*
X135268794Y-75515114D01*
X135268794Y-75515114D02*
X135268794Y-75086542D01*
X135268794Y-75086542D02*
X135340222Y-74943685D01*
X135340222Y-74943685D02*
X135411651Y-74872257D01*
X135411651Y-74872257D02*
X135554508Y-74800828D01*
X135554508Y-74800828D02*
X135840222Y-74800828D01*
X135840222Y-74800828D02*
X135983080Y-74872257D01*
X138697365Y-75657971D02*
X138625937Y-75729400D01*
X138625937Y-75729400D02*
X138411651Y-75800828D01*
X138411651Y-75800828D02*
X138268794Y-75800828D01*
X138268794Y-75800828D02*
X138054508Y-75729400D01*
X138054508Y-75729400D02*
X137911651Y-75586542D01*
X137911651Y-75586542D02*
X137840222Y-75443685D01*
X137840222Y-75443685D02*
X137768794Y-75157971D01*
X137768794Y-75157971D02*
X137768794Y-74943685D01*
X137768794Y-74943685D02*
X137840222Y-74657971D01*
X137840222Y-74657971D02*
X137911651Y-74515114D01*
X137911651Y-74515114D02*
X138054508Y-74372257D01*
X138054508Y-74372257D02*
X138268794Y-74300828D01*
X138268794Y-74300828D02*
X138411651Y-74300828D01*
X138411651Y-74300828D02*
X138625937Y-74372257D01*
X138625937Y-74372257D02*
X138697365Y-74443685D01*
X139554508Y-75800828D02*
X139411651Y-75729400D01*
X139411651Y-75729400D02*
X139340222Y-75657971D01*
X139340222Y-75657971D02*
X139268794Y-75515114D01*
X139268794Y-75515114D02*
X139268794Y-75086542D01*
X139268794Y-75086542D02*
X139340222Y-74943685D01*
X139340222Y-74943685D02*
X139411651Y-74872257D01*
X139411651Y-74872257D02*
X139554508Y-74800828D01*
X139554508Y-74800828D02*
X139768794Y-74800828D01*
X139768794Y-74800828D02*
X139911651Y-74872257D01*
X139911651Y-74872257D02*
X139983080Y-74943685D01*
X139983080Y-74943685D02*
X140054508Y-75086542D01*
X140054508Y-75086542D02*
X140054508Y-75515114D01*
X140054508Y-75515114D02*
X139983080Y-75657971D01*
X139983080Y-75657971D02*
X139911651Y-75729400D01*
X139911651Y-75729400D02*
X139768794Y-75800828D01*
X139768794Y-75800828D02*
X139554508Y-75800828D01*
X140697365Y-74800828D02*
X140697365Y-75800828D01*
X140697365Y-74943685D02*
X140768794Y-74872257D01*
X140768794Y-74872257D02*
X140911651Y-74800828D01*
X140911651Y-74800828D02*
X141125937Y-74800828D01*
X141125937Y-74800828D02*
X141268794Y-74872257D01*
X141268794Y-74872257D02*
X141340223Y-75015114D01*
X141340223Y-75015114D02*
X141340223Y-75800828D01*
X141840223Y-74800828D02*
X142411651Y-74800828D01*
X142054508Y-74300828D02*
X142054508Y-75586542D01*
X142054508Y-75586542D02*
X142125937Y-75729400D01*
X142125937Y-75729400D02*
X142268794Y-75800828D01*
X142268794Y-75800828D02*
X142411651Y-75800828D01*
X142911651Y-75800828D02*
X142911651Y-74800828D01*
X142911651Y-75086542D02*
X142983080Y-74943685D01*
X142983080Y-74943685D02*
X143054509Y-74872257D01*
X143054509Y-74872257D02*
X143197366Y-74800828D01*
X143197366Y-74800828D02*
X143340223Y-74800828D01*
X144054508Y-75800828D02*
X143911651Y-75729400D01*
X143911651Y-75729400D02*
X143840222Y-75657971D01*
X143840222Y-75657971D02*
X143768794Y-75515114D01*
X143768794Y-75515114D02*
X143768794Y-75086542D01*
X143768794Y-75086542D02*
X143840222Y-74943685D01*
X143840222Y-74943685D02*
X143911651Y-74872257D01*
X143911651Y-74872257D02*
X144054508Y-74800828D01*
X144054508Y-74800828D02*
X144268794Y-74800828D01*
X144268794Y-74800828D02*
X144411651Y-74872257D01*
X144411651Y-74872257D02*
X144483080Y-74943685D01*
X144483080Y-74943685D02*
X144554508Y-75086542D01*
X144554508Y-75086542D02*
X144554508Y-75515114D01*
X144554508Y-75515114D02*
X144483080Y-75657971D01*
X144483080Y-75657971D02*
X144411651Y-75729400D01*
X144411651Y-75729400D02*
X144268794Y-75800828D01*
X144268794Y-75800828D02*
X144054508Y-75800828D01*
X145411651Y-75800828D02*
X145268794Y-75729400D01*
X145268794Y-75729400D02*
X145197365Y-75586542D01*
X145197365Y-75586542D02*
X145197365Y-74300828D01*
X145983079Y-75800828D02*
X145983079Y-74300828D01*
X145983079Y-74872257D02*
X146125937Y-74800828D01*
X146125937Y-74800828D02*
X146411651Y-74800828D01*
X146411651Y-74800828D02*
X146554508Y-74872257D01*
X146554508Y-74872257D02*
X146625937Y-74943685D01*
X146625937Y-74943685D02*
X146697365Y-75086542D01*
X146697365Y-75086542D02*
X146697365Y-75515114D01*
X146697365Y-75515114D02*
X146625937Y-75657971D01*
X146625937Y-75657971D02*
X146554508Y-75729400D01*
X146554508Y-75729400D02*
X146411651Y-75800828D01*
X146411651Y-75800828D02*
X146125937Y-75800828D01*
X146125937Y-75800828D02*
X145983079Y-75729400D01*
X147554508Y-75800828D02*
X147411651Y-75729400D01*
X147411651Y-75729400D02*
X147340222Y-75657971D01*
X147340222Y-75657971D02*
X147268794Y-75515114D01*
X147268794Y-75515114D02*
X147268794Y-75086542D01*
X147268794Y-75086542D02*
X147340222Y-74943685D01*
X147340222Y-74943685D02*
X147411651Y-74872257D01*
X147411651Y-74872257D02*
X147554508Y-74800828D01*
X147554508Y-74800828D02*
X147768794Y-74800828D01*
X147768794Y-74800828D02*
X147911651Y-74872257D01*
X147911651Y-74872257D02*
X147983080Y-74943685D01*
X147983080Y-74943685D02*
X148054508Y-75086542D01*
X148054508Y-75086542D02*
X148054508Y-75515114D01*
X148054508Y-75515114D02*
X147983080Y-75657971D01*
X147983080Y-75657971D02*
X147911651Y-75729400D01*
X147911651Y-75729400D02*
X147768794Y-75800828D01*
X147768794Y-75800828D02*
X147554508Y-75800828D01*
X149340223Y-75800828D02*
X149340223Y-75015114D01*
X149340223Y-75015114D02*
X149268794Y-74872257D01*
X149268794Y-74872257D02*
X149125937Y-74800828D01*
X149125937Y-74800828D02*
X148840223Y-74800828D01*
X148840223Y-74800828D02*
X148697365Y-74872257D01*
X149340223Y-75729400D02*
X149197365Y-75800828D01*
X149197365Y-75800828D02*
X148840223Y-75800828D01*
X148840223Y-75800828D02*
X148697365Y-75729400D01*
X148697365Y-75729400D02*
X148625937Y-75586542D01*
X148625937Y-75586542D02*
X148625937Y-75443685D01*
X148625937Y-75443685D02*
X148697365Y-75300828D01*
X148697365Y-75300828D02*
X148840223Y-75229400D01*
X148840223Y-75229400D02*
X149197365Y-75229400D01*
X149197365Y-75229400D02*
X149340223Y-75157971D01*
X150054508Y-75800828D02*
X150054508Y-74800828D01*
X150054508Y-75086542D02*
X150125937Y-74943685D01*
X150125937Y-74943685D02*
X150197366Y-74872257D01*
X150197366Y-74872257D02*
X150340223Y-74800828D01*
X150340223Y-74800828D02*
X150483080Y-74800828D01*
X151625937Y-75800828D02*
X151625937Y-74300828D01*
X151625937Y-75729400D02*
X151483079Y-75800828D01*
X151483079Y-75800828D02*
X151197365Y-75800828D01*
X151197365Y-75800828D02*
X151054508Y-75729400D01*
X151054508Y-75729400D02*
X150983079Y-75657971D01*
X150983079Y-75657971D02*
X150911651Y-75515114D01*
X150911651Y-75515114D02*
X150911651Y-75086542D01*
X150911651Y-75086542D02*
X150983079Y-74943685D01*
X150983079Y-74943685D02*
X151054508Y-74872257D01*
X151054508Y-74872257D02*
X151197365Y-74800828D01*
X151197365Y-74800828D02*
X151483079Y-74800828D01*
X151483079Y-74800828D02*
X151625937Y-74872257D01*
X153268794Y-74300828D02*
X153768794Y-75800828D01*
X153768794Y-75800828D02*
X154268794Y-74300828D01*
X155554508Y-75800828D02*
X154697365Y-75800828D01*
X155125936Y-75800828D02*
X155125936Y-74300828D01*
X155125936Y-74300828D02*
X154983079Y-74515114D01*
X154983079Y-74515114D02*
X154840222Y-74657971D01*
X154840222Y-74657971D02*
X154697365Y-74729400D01*
X156197364Y-75657971D02*
X156268793Y-75729400D01*
X156268793Y-75729400D02*
X156197364Y-75800828D01*
X156197364Y-75800828D02*
X156125936Y-75729400D01*
X156125936Y-75729400D02*
X156197364Y-75657971D01*
X156197364Y-75657971D02*
X156197364Y-75800828D01*
X157197365Y-74300828D02*
X157340222Y-74300828D01*
X157340222Y-74300828D02*
X157483079Y-74372257D01*
X157483079Y-74372257D02*
X157554508Y-74443685D01*
X157554508Y-74443685D02*
X157625936Y-74586542D01*
X157625936Y-74586542D02*
X157697365Y-74872257D01*
X157697365Y-74872257D02*
X157697365Y-75229400D01*
X157697365Y-75229400D02*
X157625936Y-75515114D01*
X157625936Y-75515114D02*
X157554508Y-75657971D01*
X157554508Y-75657971D02*
X157483079Y-75729400D01*
X157483079Y-75729400D02*
X157340222Y-75800828D01*
X157340222Y-75800828D02*
X157197365Y-75800828D01*
X157197365Y-75800828D02*
X157054508Y-75729400D01*
X157054508Y-75729400D02*
X156983079Y-75657971D01*
X156983079Y-75657971D02*
X156911650Y-75515114D01*
X156911650Y-75515114D02*
X156840222Y-75229400D01*
X156840222Y-75229400D02*
X156840222Y-74872257D01*
X156840222Y-74872257D02*
X156911650Y-74586542D01*
X156911650Y-74586542D02*
X156983079Y-74443685D01*
X156983079Y-74443685D02*
X157054508Y-74372257D01*
X157054508Y-74372257D02*
X157197365Y-74300828D01*
D12*
%TO.C,J5*%
X107500000Y-102540000D03*
D13*
X107500000Y-100000000D03*
X107500000Y-97460000D03*
X107500000Y-94920000D03*
X107500000Y-92380000D03*
X107500000Y-89840000D03*
X107500000Y-87300000D03*
%TD*%
D14*
%TO.C,H2*%
X162000000Y-78000000D03*
%TD*%
%TO.C,H1*%
X107000000Y-78000000D03*
%TD*%
D15*
%TO.C,R1*%
X113500000Y-90920000D03*
D16*
X113500000Y-101080000D03*
%TD*%
D12*
%TO.C,J2*%
X147500000Y-92475000D03*
D13*
X147500000Y-95015000D03*
X147500000Y-97555000D03*
%TD*%
D17*
%TO.C,SW1*%
X145974998Y-115000000D03*
X145974998Y-110499998D03*
X138025002Y-115000000D03*
X138025002Y-110499998D03*
%TD*%
D12*
%TO.C,J1*%
X147500000Y-101475000D03*
D13*
X147500000Y-104015000D03*
X147500000Y-106555000D03*
%TD*%
D18*
%TO.C,D1*%
X112460000Y-107500000D03*
D19*
X115000000Y-107500000D03*
%TD*%
D17*
%TO.C,SW2*%
X157000000Y-115000002D03*
X157000000Y-110500000D03*
X149050004Y-115000002D03*
X149050004Y-110500000D03*
%TD*%
D14*
%TO.C,H3*%
X107000000Y-113000000D03*
%TD*%
%TO.C,H4*%
X162000000Y-113000000D03*
%TD*%
D12*
%TO.C,J3*%
X162500000Y-87420000D03*
D13*
X162500000Y-89960000D03*
X162500000Y-92500000D03*
X162500000Y-95040000D03*
X162500000Y-97580000D03*
X162500000Y-100120000D03*
X162500000Y-102660000D03*
%TD*%
D20*
%TO.C,U2*%
X119880000Y-81530000D03*
D15*
X119880000Y-84070000D03*
X119880000Y-86610000D03*
X119880000Y-89150000D03*
X119880000Y-91690000D03*
X119880000Y-94230000D03*
X119880000Y-96770000D03*
X119880000Y-99310000D03*
X119880000Y-101850000D03*
X119880000Y-104390000D03*
X119880000Y-106930000D03*
X119880000Y-109470000D03*
X122420000Y-109470000D03*
X124960000Y-109470000D03*
X127500000Y-109470000D03*
X130040000Y-109470000D03*
X132580000Y-109470000D03*
X135120000Y-109470000D03*
X135120000Y-106930000D03*
X135120000Y-104390000D03*
X135120000Y-101850000D03*
X135120000Y-99310000D03*
X135120000Y-96770000D03*
X135120000Y-94230000D03*
X135120000Y-91690000D03*
X135120000Y-89150000D03*
X135120000Y-86610000D03*
X135120000Y-84070000D03*
X135120000Y-81530000D03*
X122420000Y-91690000D03*
X132580000Y-91690000D03*
%TD*%
D12*
%TO.C,J4*%
X147500000Y-83475000D03*
D13*
X147500000Y-86015000D03*
X147500000Y-88555000D03*
%TD*%
M02*
