%TF.GenerationSoftware,KiCad,Pcbnew,9.0.1*%
%TF.CreationDate,2025-05-04T20:41:54+10:00*%
%TF.ProjectId,payload_controlboard,7061796c-6f61-4645-9f63-6f6e74726f6c,rev?*%
%TF.SameCoordinates,Original*%
%TF.FileFunction,Soldermask,Bot*%
%TF.FilePolarity,Negative*%
%FSLAX46Y46*%
G04 Gerber Fmt 4.6, Leading zero omitted, Abs format (unit mm)*
G04 Created by KiCad (PCBNEW 9.0.1) date 2025-05-04 20:41:54*
%MOMM*%
%LPD*%
G01*
G04 APERTURE LIST*
%ADD10R,1.700000X1.700000*%
%ADD11O,1.700000X1.700000*%
%ADD12C,3.200000*%
%ADD13C,1.600000*%
%ADD14O,1.600000X1.600000*%
%ADD15R,1.800000X1.800000*%
%ADD16C,1.800000*%
%ADD17R,1.600000X1.600000*%
G04 APERTURE END LIST*
D10*
%TO.C,J5*%
X107500000Y-102540000D03*
D11*
X107500000Y-100000000D03*
X107500000Y-97460000D03*
X107500000Y-94920000D03*
X107500000Y-92380000D03*
X107500000Y-89840000D03*
X107500000Y-87300000D03*
%TD*%
D12*
%TO.C,H2*%
X162000000Y-78000000D03*
%TD*%
%TO.C,H1*%
X107000000Y-78000000D03*
%TD*%
D13*
%TO.C,R1*%
X113500000Y-90920000D03*
D14*
X113500000Y-101080000D03*
%TD*%
D10*
%TO.C,J2*%
X147500000Y-92475000D03*
D11*
X147500000Y-95015000D03*
X147500000Y-97555000D03*
%TD*%
D10*
%TO.C,J1*%
X147500000Y-101475000D03*
D11*
X147500000Y-104015000D03*
X147500000Y-106555000D03*
%TD*%
D15*
%TO.C,D1*%
X112460000Y-107500000D03*
D16*
X115000000Y-107500000D03*
%TD*%
D12*
%TO.C,H3*%
X107000000Y-113000000D03*
%TD*%
%TO.C,H4*%
X162000000Y-113000000D03*
%TD*%
D10*
%TO.C,J3*%
X162500000Y-87420000D03*
D11*
X162500000Y-89960000D03*
X162500000Y-92500000D03*
X162500000Y-95040000D03*
X162500000Y-97580000D03*
X162500000Y-100120000D03*
X162500000Y-102660000D03*
%TD*%
D17*
%TO.C,U2*%
X119880000Y-81530000D03*
D13*
X119880000Y-84070000D03*
X119880000Y-86610000D03*
X119880000Y-89150000D03*
X119880000Y-91690000D03*
X119880000Y-94230000D03*
X119880000Y-96770000D03*
X119880000Y-99310000D03*
X119880000Y-101850000D03*
X119880000Y-104390000D03*
X119880000Y-106930000D03*
X119880000Y-109470000D03*
X122420000Y-109470000D03*
X124960000Y-109470000D03*
X127500000Y-109470000D03*
X130040000Y-109470000D03*
X132580000Y-109470000D03*
X135120000Y-109470000D03*
X135120000Y-106930000D03*
X135120000Y-104390000D03*
X135120000Y-101850000D03*
X135120000Y-99310000D03*
X135120000Y-96770000D03*
X135120000Y-94230000D03*
X135120000Y-91690000D03*
X135120000Y-89150000D03*
X135120000Y-86610000D03*
X135120000Y-84070000D03*
X135120000Y-81530000D03*
X122420000Y-91690000D03*
X132580000Y-91690000D03*
%TD*%
D10*
%TO.C,J4*%
X147500000Y-83475000D03*
D11*
X147500000Y-86015000D03*
X147500000Y-88555000D03*
%TD*%
M02*
