%TF.GenerationSoftware,KiCad,Pcbnew,9.0.1*%
%TF.CreationDate,2025-05-04T20:41:54+10:00*%
%TF.ProjectId,payload_controlboard,7061796c-6f61-4645-9f63-6f6e74726f6c,rev?*%
%TF.SameCoordinates,Original*%
%TF.FileFunction,Legend,Top*%
%TF.FilePolarity,Positive*%
%FSLAX46Y46*%
G04 Gerber Fmt 4.6, Leading zero omitted, Abs format (unit mm)*
G04 Created by KiCad (PCBNEW 9.0.1) date 2025-05-04 20:41:54*
%MOMM*%
%LPD*%
G01*
G04 APERTURE LIST*
%ADD10C,0.150000*%
%ADD11C,0.120000*%
%ADD12C,0.152400*%
%ADD13C,0.100000*%
G04 APERTURE END LIST*
D10*
X105454819Y-102939048D02*
X105407200Y-103034286D01*
X105407200Y-103034286D02*
X105311961Y-103081905D01*
X105311961Y-103081905D02*
X104454819Y-103081905D01*
X105454819Y-102558095D02*
X104788152Y-102558095D01*
X104454819Y-102558095D02*
X104502438Y-102605714D01*
X104502438Y-102605714D02*
X104550057Y-102558095D01*
X104550057Y-102558095D02*
X104502438Y-102510476D01*
X104502438Y-102510476D02*
X104454819Y-102558095D01*
X104454819Y-102558095D02*
X104550057Y-102558095D01*
X104788152Y-102081905D02*
X105454819Y-102081905D01*
X104883390Y-102081905D02*
X104835771Y-102034286D01*
X104835771Y-102034286D02*
X104788152Y-101939048D01*
X104788152Y-101939048D02*
X104788152Y-101796191D01*
X104788152Y-101796191D02*
X104835771Y-101700953D01*
X104835771Y-101700953D02*
X104931009Y-101653334D01*
X104931009Y-101653334D02*
X105454819Y-101653334D01*
X105407200Y-100796191D02*
X105454819Y-100891429D01*
X105454819Y-100891429D02*
X105454819Y-101081905D01*
X105454819Y-101081905D02*
X105407200Y-101177143D01*
X105407200Y-101177143D02*
X105311961Y-101224762D01*
X105311961Y-101224762D02*
X104931009Y-101224762D01*
X104931009Y-101224762D02*
X104835771Y-101177143D01*
X104835771Y-101177143D02*
X104788152Y-101081905D01*
X104788152Y-101081905D02*
X104788152Y-100891429D01*
X104788152Y-100891429D02*
X104835771Y-100796191D01*
X104835771Y-100796191D02*
X104931009Y-100748572D01*
X104931009Y-100748572D02*
X105026247Y-100748572D01*
X105026247Y-100748572D02*
X105121485Y-101224762D01*
X104788152Y-100462857D02*
X104788152Y-100081905D01*
X105454819Y-100320000D02*
X104597676Y-100320000D01*
X104597676Y-100320000D02*
X104502438Y-100272381D01*
X104502438Y-100272381D02*
X104454819Y-100177143D01*
X104454819Y-100177143D02*
X104454819Y-100081905D01*
X105454819Y-99605714D02*
X105407200Y-99700952D01*
X105407200Y-99700952D02*
X105359580Y-99748571D01*
X105359580Y-99748571D02*
X105264342Y-99796190D01*
X105264342Y-99796190D02*
X104978628Y-99796190D01*
X104978628Y-99796190D02*
X104883390Y-99748571D01*
X104883390Y-99748571D02*
X104835771Y-99700952D01*
X104835771Y-99700952D02*
X104788152Y-99605714D01*
X104788152Y-99605714D02*
X104788152Y-99462857D01*
X104788152Y-99462857D02*
X104835771Y-99367619D01*
X104835771Y-99367619D02*
X104883390Y-99320000D01*
X104883390Y-99320000D02*
X104978628Y-99272381D01*
X104978628Y-99272381D02*
X105264342Y-99272381D01*
X105264342Y-99272381D02*
X105359580Y-99320000D01*
X105359580Y-99320000D02*
X105407200Y-99367619D01*
X105407200Y-99367619D02*
X105454819Y-99462857D01*
X105454819Y-99462857D02*
X105454819Y-99605714D01*
X105454819Y-98700952D02*
X105407200Y-98796190D01*
X105407200Y-98796190D02*
X105311961Y-98843809D01*
X105311961Y-98843809D02*
X104454819Y-98843809D01*
X105454819Y-98177142D02*
X105407200Y-98272380D01*
X105407200Y-98272380D02*
X105311961Y-98319999D01*
X105311961Y-98319999D02*
X104454819Y-98319999D01*
X105454819Y-97653332D02*
X105407200Y-97748570D01*
X105407200Y-97748570D02*
X105359580Y-97796189D01*
X105359580Y-97796189D02*
X105264342Y-97843808D01*
X105264342Y-97843808D02*
X104978628Y-97843808D01*
X104978628Y-97843808D02*
X104883390Y-97796189D01*
X104883390Y-97796189D02*
X104835771Y-97748570D01*
X104835771Y-97748570D02*
X104788152Y-97653332D01*
X104788152Y-97653332D02*
X104788152Y-97510475D01*
X104788152Y-97510475D02*
X104835771Y-97415237D01*
X104835771Y-97415237D02*
X104883390Y-97367618D01*
X104883390Y-97367618D02*
X104978628Y-97319999D01*
X104978628Y-97319999D02*
X105264342Y-97319999D01*
X105264342Y-97319999D02*
X105359580Y-97367618D01*
X105359580Y-97367618D02*
X105407200Y-97415237D01*
X105407200Y-97415237D02*
X105454819Y-97510475D01*
X105454819Y-97510475D02*
X105454819Y-97653332D01*
X104788152Y-96986665D02*
X105454819Y-96796189D01*
X105454819Y-96796189D02*
X104978628Y-96605713D01*
X104978628Y-96605713D02*
X105454819Y-96415237D01*
X105454819Y-96415237D02*
X104788152Y-96224761D01*
X105407200Y-95462856D02*
X105454819Y-95558094D01*
X105454819Y-95558094D02*
X105454819Y-95748570D01*
X105454819Y-95748570D02*
X105407200Y-95843808D01*
X105407200Y-95843808D02*
X105311961Y-95891427D01*
X105311961Y-95891427D02*
X104931009Y-95891427D01*
X104931009Y-95891427D02*
X104835771Y-95843808D01*
X104835771Y-95843808D02*
X104788152Y-95748570D01*
X104788152Y-95748570D02*
X104788152Y-95558094D01*
X104788152Y-95558094D02*
X104835771Y-95462856D01*
X104835771Y-95462856D02*
X104931009Y-95415237D01*
X104931009Y-95415237D02*
X105026247Y-95415237D01*
X105026247Y-95415237D02*
X105121485Y-95891427D01*
X105454819Y-94986665D02*
X104788152Y-94986665D01*
X104978628Y-94986665D02*
X104883390Y-94939046D01*
X104883390Y-94939046D02*
X104835771Y-94891427D01*
X104835771Y-94891427D02*
X104788152Y-94796189D01*
X104788152Y-94796189D02*
X104788152Y-94700951D01*
X105073866Y-94367617D02*
X105073866Y-93605713D01*
X104788152Y-93129522D02*
X105073866Y-92367618D01*
X105073866Y-92367618D02*
X105359580Y-93129522D01*
X104788152Y-91891427D02*
X105788152Y-91891427D01*
X104835771Y-91891427D02*
X104788152Y-91796189D01*
X104788152Y-91796189D02*
X104788152Y-91605713D01*
X104788152Y-91605713D02*
X104835771Y-91510475D01*
X104835771Y-91510475D02*
X104883390Y-91462856D01*
X104883390Y-91462856D02*
X104978628Y-91415237D01*
X104978628Y-91415237D02*
X105264342Y-91415237D01*
X105264342Y-91415237D02*
X105359580Y-91462856D01*
X105359580Y-91462856D02*
X105407200Y-91510475D01*
X105407200Y-91510475D02*
X105454819Y-91605713D01*
X105454819Y-91605713D02*
X105454819Y-91796189D01*
X105454819Y-91796189D02*
X105407200Y-91891427D01*
X105454819Y-90558094D02*
X104931009Y-90558094D01*
X104931009Y-90558094D02*
X104835771Y-90605713D01*
X104835771Y-90605713D02*
X104788152Y-90700951D01*
X104788152Y-90700951D02*
X104788152Y-90891427D01*
X104788152Y-90891427D02*
X104835771Y-90986665D01*
X105407200Y-90558094D02*
X105454819Y-90653332D01*
X105454819Y-90653332D02*
X105454819Y-90891427D01*
X105454819Y-90891427D02*
X105407200Y-90986665D01*
X105407200Y-90986665D02*
X105311961Y-91034284D01*
X105311961Y-91034284D02*
X105216723Y-91034284D01*
X105216723Y-91034284D02*
X105121485Y-90986665D01*
X105121485Y-90986665D02*
X105073866Y-90891427D01*
X105073866Y-90891427D02*
X105073866Y-90653332D01*
X105073866Y-90653332D02*
X105026247Y-90558094D01*
X104788152Y-90177141D02*
X105454819Y-89939046D01*
X104788152Y-89700951D02*
X105454819Y-89939046D01*
X105454819Y-89939046D02*
X105692914Y-90034284D01*
X105692914Y-90034284D02*
X105740533Y-90081903D01*
X105740533Y-90081903D02*
X105788152Y-90177141D01*
X105454819Y-89177141D02*
X105407200Y-89272379D01*
X105407200Y-89272379D02*
X105311961Y-89319998D01*
X105311961Y-89319998D02*
X104454819Y-89319998D01*
X105454819Y-88653331D02*
X105407200Y-88748569D01*
X105407200Y-88748569D02*
X105359580Y-88796188D01*
X105359580Y-88796188D02*
X105264342Y-88843807D01*
X105264342Y-88843807D02*
X104978628Y-88843807D01*
X104978628Y-88843807D02*
X104883390Y-88796188D01*
X104883390Y-88796188D02*
X104835771Y-88748569D01*
X104835771Y-88748569D02*
X104788152Y-88653331D01*
X104788152Y-88653331D02*
X104788152Y-88510474D01*
X104788152Y-88510474D02*
X104835771Y-88415236D01*
X104835771Y-88415236D02*
X104883390Y-88367617D01*
X104883390Y-88367617D02*
X104978628Y-88319998D01*
X104978628Y-88319998D02*
X105264342Y-88319998D01*
X105264342Y-88319998D02*
X105359580Y-88367617D01*
X105359580Y-88367617D02*
X105407200Y-88415236D01*
X105407200Y-88415236D02*
X105454819Y-88510474D01*
X105454819Y-88510474D02*
X105454819Y-88653331D01*
X105454819Y-87462855D02*
X104931009Y-87462855D01*
X104931009Y-87462855D02*
X104835771Y-87510474D01*
X104835771Y-87510474D02*
X104788152Y-87605712D01*
X104788152Y-87605712D02*
X104788152Y-87796188D01*
X104788152Y-87796188D02*
X104835771Y-87891426D01*
X105407200Y-87462855D02*
X105454819Y-87558093D01*
X105454819Y-87558093D02*
X105454819Y-87796188D01*
X105454819Y-87796188D02*
X105407200Y-87891426D01*
X105407200Y-87891426D02*
X105311961Y-87939045D01*
X105311961Y-87939045D02*
X105216723Y-87939045D01*
X105216723Y-87939045D02*
X105121485Y-87891426D01*
X105121485Y-87891426D02*
X105073866Y-87796188D01*
X105073866Y-87796188D02*
X105073866Y-87558093D01*
X105073866Y-87558093D02*
X105026247Y-87462855D01*
X105454819Y-86558093D02*
X104454819Y-86558093D01*
X105407200Y-86558093D02*
X105454819Y-86653331D01*
X105454819Y-86653331D02*
X105454819Y-86843807D01*
X105454819Y-86843807D02*
X105407200Y-86939045D01*
X105407200Y-86939045D02*
X105359580Y-86986664D01*
X105359580Y-86986664D02*
X105264342Y-87034283D01*
X105264342Y-87034283D02*
X104978628Y-87034283D01*
X104978628Y-87034283D02*
X104883390Y-86986664D01*
X104883390Y-86986664D02*
X104835771Y-86939045D01*
X104835771Y-86939045D02*
X104788152Y-86843807D01*
X104788152Y-86843807D02*
X104788152Y-86653331D01*
X104788152Y-86653331D02*
X104835771Y-86558093D01*
X116324819Y-96166666D02*
X115848628Y-96499999D01*
X116324819Y-96738094D02*
X115324819Y-96738094D01*
X115324819Y-96738094D02*
X115324819Y-96357142D01*
X115324819Y-96357142D02*
X115372438Y-96261904D01*
X115372438Y-96261904D02*
X115420057Y-96214285D01*
X115420057Y-96214285D02*
X115515295Y-96166666D01*
X115515295Y-96166666D02*
X115658152Y-96166666D01*
X115658152Y-96166666D02*
X115753390Y-96214285D01*
X115753390Y-96214285D02*
X115801009Y-96261904D01*
X115801009Y-96261904D02*
X115848628Y-96357142D01*
X115848628Y-96357142D02*
X115848628Y-96738094D01*
X116324819Y-95214285D02*
X116324819Y-95785713D01*
X116324819Y-95499999D02*
X115324819Y-95499999D01*
X115324819Y-95499999D02*
X115467676Y-95595237D01*
X115467676Y-95595237D02*
X115562914Y-95690475D01*
X115562914Y-95690475D02*
X115610533Y-95785713D01*
X145407200Y-98641666D02*
X145454819Y-98498809D01*
X145454819Y-98498809D02*
X145454819Y-98260714D01*
X145454819Y-98260714D02*
X145407200Y-98165476D01*
X145407200Y-98165476D02*
X145359580Y-98117857D01*
X145359580Y-98117857D02*
X145264342Y-98070238D01*
X145264342Y-98070238D02*
X145169104Y-98070238D01*
X145169104Y-98070238D02*
X145073866Y-98117857D01*
X145073866Y-98117857D02*
X145026247Y-98165476D01*
X145026247Y-98165476D02*
X144978628Y-98260714D01*
X144978628Y-98260714D02*
X144931009Y-98451190D01*
X144931009Y-98451190D02*
X144883390Y-98546428D01*
X144883390Y-98546428D02*
X144835771Y-98594047D01*
X144835771Y-98594047D02*
X144740533Y-98641666D01*
X144740533Y-98641666D02*
X144645295Y-98641666D01*
X144645295Y-98641666D02*
X144550057Y-98594047D01*
X144550057Y-98594047D02*
X144502438Y-98546428D01*
X144502438Y-98546428D02*
X144454819Y-98451190D01*
X144454819Y-98451190D02*
X144454819Y-98213095D01*
X144454819Y-98213095D02*
X144502438Y-98070238D01*
X145407200Y-97260714D02*
X145454819Y-97355952D01*
X145454819Y-97355952D02*
X145454819Y-97546428D01*
X145454819Y-97546428D02*
X145407200Y-97641666D01*
X145407200Y-97641666D02*
X145311961Y-97689285D01*
X145311961Y-97689285D02*
X144931009Y-97689285D01*
X144931009Y-97689285D02*
X144835771Y-97641666D01*
X144835771Y-97641666D02*
X144788152Y-97546428D01*
X144788152Y-97546428D02*
X144788152Y-97355952D01*
X144788152Y-97355952D02*
X144835771Y-97260714D01*
X144835771Y-97260714D02*
X144931009Y-97213095D01*
X144931009Y-97213095D02*
X145026247Y-97213095D01*
X145026247Y-97213095D02*
X145121485Y-97689285D01*
X145454819Y-96784523D02*
X144788152Y-96784523D01*
X144978628Y-96784523D02*
X144883390Y-96736904D01*
X144883390Y-96736904D02*
X144835771Y-96689285D01*
X144835771Y-96689285D02*
X144788152Y-96594047D01*
X144788152Y-96594047D02*
X144788152Y-96498809D01*
X144788152Y-96260713D02*
X145454819Y-96022618D01*
X145454819Y-96022618D02*
X144788152Y-95784523D01*
X145454819Y-95260713D02*
X145407200Y-95355951D01*
X145407200Y-95355951D02*
X145359580Y-95403570D01*
X145359580Y-95403570D02*
X145264342Y-95451189D01*
X145264342Y-95451189D02*
X144978628Y-95451189D01*
X144978628Y-95451189D02*
X144883390Y-95403570D01*
X144883390Y-95403570D02*
X144835771Y-95355951D01*
X144835771Y-95355951D02*
X144788152Y-95260713D01*
X144788152Y-95260713D02*
X144788152Y-95117856D01*
X144788152Y-95117856D02*
X144835771Y-95022618D01*
X144835771Y-95022618D02*
X144883390Y-94974999D01*
X144883390Y-94974999D02*
X144978628Y-94927380D01*
X144978628Y-94927380D02*
X145264342Y-94927380D01*
X145264342Y-94927380D02*
X145359580Y-94974999D01*
X145359580Y-94974999D02*
X145407200Y-95022618D01*
X145407200Y-95022618D02*
X145454819Y-95117856D01*
X145454819Y-95117856D02*
X145454819Y-95260713D01*
X145550057Y-94736904D02*
X145550057Y-93974999D01*
X144978628Y-93546427D02*
X145454819Y-93546427D01*
X144454819Y-93879760D02*
X144978628Y-93546427D01*
X144978628Y-93546427D02*
X144454819Y-93213094D01*
X140666667Y-113157199D02*
X140809524Y-113204818D01*
X140809524Y-113204818D02*
X141047619Y-113204818D01*
X141047619Y-113204818D02*
X141142857Y-113157199D01*
X141142857Y-113157199D02*
X141190476Y-113109579D01*
X141190476Y-113109579D02*
X141238095Y-113014341D01*
X141238095Y-113014341D02*
X141238095Y-112919103D01*
X141238095Y-112919103D02*
X141190476Y-112823865D01*
X141190476Y-112823865D02*
X141142857Y-112776246D01*
X141142857Y-112776246D02*
X141047619Y-112728627D01*
X141047619Y-112728627D02*
X140857143Y-112681008D01*
X140857143Y-112681008D02*
X140761905Y-112633389D01*
X140761905Y-112633389D02*
X140714286Y-112585770D01*
X140714286Y-112585770D02*
X140666667Y-112490532D01*
X140666667Y-112490532D02*
X140666667Y-112395294D01*
X140666667Y-112395294D02*
X140714286Y-112300056D01*
X140714286Y-112300056D02*
X140761905Y-112252437D01*
X140761905Y-112252437D02*
X140857143Y-112204818D01*
X140857143Y-112204818D02*
X141095238Y-112204818D01*
X141095238Y-112204818D02*
X141238095Y-112252437D01*
X141571429Y-112204818D02*
X141809524Y-113204818D01*
X141809524Y-113204818D02*
X142000000Y-112490532D01*
X142000000Y-112490532D02*
X142190476Y-113204818D01*
X142190476Y-113204818D02*
X142428572Y-112204818D01*
X143333333Y-113204818D02*
X142761905Y-113204818D01*
X143047619Y-113204818D02*
X143047619Y-112204818D01*
X143047619Y-112204818D02*
X142952381Y-112347675D01*
X142952381Y-112347675D02*
X142857143Y-112442913D01*
X142857143Y-112442913D02*
X142761905Y-112490532D01*
X141452380Y-108454817D02*
X141119047Y-107978626D01*
X140880952Y-108454817D02*
X140880952Y-107454817D01*
X140880952Y-107454817D02*
X141261904Y-107454817D01*
X141261904Y-107454817D02*
X141357142Y-107502436D01*
X141357142Y-107502436D02*
X141404761Y-107550055D01*
X141404761Y-107550055D02*
X141452380Y-107645293D01*
X141452380Y-107645293D02*
X141452380Y-107788150D01*
X141452380Y-107788150D02*
X141404761Y-107883388D01*
X141404761Y-107883388D02*
X141357142Y-107931007D01*
X141357142Y-107931007D02*
X141261904Y-107978626D01*
X141261904Y-107978626D02*
X140880952Y-107978626D01*
X141833333Y-108407198D02*
X141976190Y-108454817D01*
X141976190Y-108454817D02*
X142214285Y-108454817D01*
X142214285Y-108454817D02*
X142309523Y-108407198D01*
X142309523Y-108407198D02*
X142357142Y-108359578D01*
X142357142Y-108359578D02*
X142404761Y-108264340D01*
X142404761Y-108264340D02*
X142404761Y-108169102D01*
X142404761Y-108169102D02*
X142357142Y-108073864D01*
X142357142Y-108073864D02*
X142309523Y-108026245D01*
X142309523Y-108026245D02*
X142214285Y-107978626D01*
X142214285Y-107978626D02*
X142023809Y-107931007D01*
X142023809Y-107931007D02*
X141928571Y-107883388D01*
X141928571Y-107883388D02*
X141880952Y-107835769D01*
X141880952Y-107835769D02*
X141833333Y-107740531D01*
X141833333Y-107740531D02*
X141833333Y-107645293D01*
X141833333Y-107645293D02*
X141880952Y-107550055D01*
X141880952Y-107550055D02*
X141928571Y-107502436D01*
X141928571Y-107502436D02*
X142023809Y-107454817D01*
X142023809Y-107454817D02*
X142261904Y-107454817D01*
X142261904Y-107454817D02*
X142404761Y-107502436D01*
X142690476Y-107454817D02*
X143261904Y-107454817D01*
X142976190Y-108454817D02*
X142976190Y-107454817D01*
X112991905Y-103994819D02*
X112991905Y-102994819D01*
X112991905Y-102994819D02*
X113230000Y-102994819D01*
X113230000Y-102994819D02*
X113372857Y-103042438D01*
X113372857Y-103042438D02*
X113468095Y-103137676D01*
X113468095Y-103137676D02*
X113515714Y-103232914D01*
X113515714Y-103232914D02*
X113563333Y-103423390D01*
X113563333Y-103423390D02*
X113563333Y-103566247D01*
X113563333Y-103566247D02*
X113515714Y-103756723D01*
X113515714Y-103756723D02*
X113468095Y-103851961D01*
X113468095Y-103851961D02*
X113372857Y-103947200D01*
X113372857Y-103947200D02*
X113230000Y-103994819D01*
X113230000Y-103994819D02*
X112991905Y-103994819D01*
X114515714Y-103994819D02*
X113944286Y-103994819D01*
X114230000Y-103994819D02*
X114230000Y-102994819D01*
X114230000Y-102994819D02*
X114134762Y-103137676D01*
X114134762Y-103137676D02*
X114039524Y-103232914D01*
X114039524Y-103232914D02*
X113944286Y-103280533D01*
X151691669Y-113157201D02*
X151834526Y-113204820D01*
X151834526Y-113204820D02*
X152072621Y-113204820D01*
X152072621Y-113204820D02*
X152167859Y-113157201D01*
X152167859Y-113157201D02*
X152215478Y-113109581D01*
X152215478Y-113109581D02*
X152263097Y-113014343D01*
X152263097Y-113014343D02*
X152263097Y-112919105D01*
X152263097Y-112919105D02*
X152215478Y-112823867D01*
X152215478Y-112823867D02*
X152167859Y-112776248D01*
X152167859Y-112776248D02*
X152072621Y-112728629D01*
X152072621Y-112728629D02*
X151882145Y-112681010D01*
X151882145Y-112681010D02*
X151786907Y-112633391D01*
X151786907Y-112633391D02*
X151739288Y-112585772D01*
X151739288Y-112585772D02*
X151691669Y-112490534D01*
X151691669Y-112490534D02*
X151691669Y-112395296D01*
X151691669Y-112395296D02*
X151739288Y-112300058D01*
X151739288Y-112300058D02*
X151786907Y-112252439D01*
X151786907Y-112252439D02*
X151882145Y-112204820D01*
X151882145Y-112204820D02*
X152120240Y-112204820D01*
X152120240Y-112204820D02*
X152263097Y-112252439D01*
X152596431Y-112204820D02*
X152834526Y-113204820D01*
X152834526Y-113204820D02*
X153025002Y-112490534D01*
X153025002Y-112490534D02*
X153215478Y-113204820D01*
X153215478Y-113204820D02*
X153453574Y-112204820D01*
X153786907Y-112300058D02*
X153834526Y-112252439D01*
X153834526Y-112252439D02*
X153929764Y-112204820D01*
X153929764Y-112204820D02*
X154167859Y-112204820D01*
X154167859Y-112204820D02*
X154263097Y-112252439D01*
X154263097Y-112252439D02*
X154310716Y-112300058D01*
X154310716Y-112300058D02*
X154358335Y-112395296D01*
X154358335Y-112395296D02*
X154358335Y-112490534D01*
X154358335Y-112490534D02*
X154310716Y-112633391D01*
X154310716Y-112633391D02*
X153739288Y-113204820D01*
X153739288Y-113204820D02*
X154358335Y-113204820D01*
X151215478Y-108204820D02*
X151215478Y-107204820D01*
X151215478Y-107204820D02*
X151548811Y-107919105D01*
X151548811Y-107919105D02*
X151882144Y-107204820D01*
X151882144Y-107204820D02*
X151882144Y-108204820D01*
X152548811Y-107204820D02*
X152739287Y-107204820D01*
X152739287Y-107204820D02*
X152834525Y-107252439D01*
X152834525Y-107252439D02*
X152929763Y-107347677D01*
X152929763Y-107347677D02*
X152977382Y-107538153D01*
X152977382Y-107538153D02*
X152977382Y-107871486D01*
X152977382Y-107871486D02*
X152929763Y-108061962D01*
X152929763Y-108061962D02*
X152834525Y-108157201D01*
X152834525Y-108157201D02*
X152739287Y-108204820D01*
X152739287Y-108204820D02*
X152548811Y-108204820D01*
X152548811Y-108204820D02*
X152453573Y-108157201D01*
X152453573Y-108157201D02*
X152358335Y-108061962D01*
X152358335Y-108061962D02*
X152310716Y-107871486D01*
X152310716Y-107871486D02*
X152310716Y-107538153D01*
X152310716Y-107538153D02*
X152358335Y-107347677D01*
X152358335Y-107347677D02*
X152453573Y-107252439D01*
X152453573Y-107252439D02*
X152548811Y-107204820D01*
X153405954Y-108204820D02*
X153405954Y-107204820D01*
X153405954Y-107204820D02*
X153644049Y-107204820D01*
X153644049Y-107204820D02*
X153786906Y-107252439D01*
X153786906Y-107252439D02*
X153882144Y-107347677D01*
X153882144Y-107347677D02*
X153929763Y-107442915D01*
X153929763Y-107442915D02*
X153977382Y-107633391D01*
X153977382Y-107633391D02*
X153977382Y-107776248D01*
X153977382Y-107776248D02*
X153929763Y-107966724D01*
X153929763Y-107966724D02*
X153882144Y-108061962D01*
X153882144Y-108061962D02*
X153786906Y-108157201D01*
X153786906Y-108157201D02*
X153644049Y-108204820D01*
X153644049Y-108204820D02*
X153405954Y-108204820D01*
X154405954Y-107681010D02*
X154739287Y-107681010D01*
X154882144Y-108204820D02*
X154405954Y-108204820D01*
X154405954Y-108204820D02*
X154405954Y-107204820D01*
X154405954Y-107204820D02*
X154882144Y-107204820D01*
X159954819Y-99095238D02*
X158954819Y-99095238D01*
X159954819Y-98047620D02*
X159478628Y-98380953D01*
X159954819Y-98619048D02*
X158954819Y-98619048D01*
X158954819Y-98619048D02*
X158954819Y-98238096D01*
X158954819Y-98238096D02*
X159002438Y-98142858D01*
X159002438Y-98142858D02*
X159050057Y-98095239D01*
X159050057Y-98095239D02*
X159145295Y-98047620D01*
X159145295Y-98047620D02*
X159288152Y-98047620D01*
X159288152Y-98047620D02*
X159383390Y-98095239D01*
X159383390Y-98095239D02*
X159431009Y-98142858D01*
X159431009Y-98142858D02*
X159478628Y-98238096D01*
X159478628Y-98238096D02*
X159478628Y-98619048D01*
X160050057Y-97857144D02*
X160050057Y-97095239D01*
X158954819Y-97000000D02*
X158954819Y-96428572D01*
X159954819Y-96714286D02*
X158954819Y-96714286D01*
X159954819Y-96095238D02*
X159288152Y-96095238D01*
X159478628Y-96095238D02*
X159383390Y-96047619D01*
X159383390Y-96047619D02*
X159335771Y-96000000D01*
X159335771Y-96000000D02*
X159288152Y-95904762D01*
X159288152Y-95904762D02*
X159288152Y-95809524D01*
X159954819Y-95047619D02*
X159431009Y-95047619D01*
X159431009Y-95047619D02*
X159335771Y-95095238D01*
X159335771Y-95095238D02*
X159288152Y-95190476D01*
X159288152Y-95190476D02*
X159288152Y-95380952D01*
X159288152Y-95380952D02*
X159335771Y-95476190D01*
X159907200Y-95047619D02*
X159954819Y-95142857D01*
X159954819Y-95142857D02*
X159954819Y-95380952D01*
X159954819Y-95380952D02*
X159907200Y-95476190D01*
X159907200Y-95476190D02*
X159811961Y-95523809D01*
X159811961Y-95523809D02*
X159716723Y-95523809D01*
X159716723Y-95523809D02*
X159621485Y-95476190D01*
X159621485Y-95476190D02*
X159573866Y-95380952D01*
X159573866Y-95380952D02*
X159573866Y-95142857D01*
X159573866Y-95142857D02*
X159526247Y-95047619D01*
X159907200Y-94142857D02*
X159954819Y-94238095D01*
X159954819Y-94238095D02*
X159954819Y-94428571D01*
X159954819Y-94428571D02*
X159907200Y-94523809D01*
X159907200Y-94523809D02*
X159859580Y-94571428D01*
X159859580Y-94571428D02*
X159764342Y-94619047D01*
X159764342Y-94619047D02*
X159478628Y-94619047D01*
X159478628Y-94619047D02*
X159383390Y-94571428D01*
X159383390Y-94571428D02*
X159335771Y-94523809D01*
X159335771Y-94523809D02*
X159288152Y-94428571D01*
X159288152Y-94428571D02*
X159288152Y-94238095D01*
X159288152Y-94238095D02*
X159335771Y-94142857D01*
X159954819Y-93714285D02*
X158954819Y-93714285D01*
X159573866Y-93619047D02*
X159954819Y-93333333D01*
X159288152Y-93333333D02*
X159669104Y-93714285D01*
X159907200Y-92523809D02*
X159954819Y-92619047D01*
X159954819Y-92619047D02*
X159954819Y-92809523D01*
X159954819Y-92809523D02*
X159907200Y-92904761D01*
X159907200Y-92904761D02*
X159811961Y-92952380D01*
X159811961Y-92952380D02*
X159431009Y-92952380D01*
X159431009Y-92952380D02*
X159335771Y-92904761D01*
X159335771Y-92904761D02*
X159288152Y-92809523D01*
X159288152Y-92809523D02*
X159288152Y-92619047D01*
X159288152Y-92619047D02*
X159335771Y-92523809D01*
X159335771Y-92523809D02*
X159431009Y-92476190D01*
X159431009Y-92476190D02*
X159526247Y-92476190D01*
X159526247Y-92476190D02*
X159621485Y-92952380D01*
X159954819Y-92047618D02*
X159288152Y-92047618D01*
X159478628Y-92047618D02*
X159383390Y-91999999D01*
X159383390Y-91999999D02*
X159335771Y-91952380D01*
X159335771Y-91952380D02*
X159288152Y-91857142D01*
X159288152Y-91857142D02*
X159288152Y-91761904D01*
X137114819Y-96261904D02*
X137924342Y-96261904D01*
X137924342Y-96261904D02*
X138019580Y-96214285D01*
X138019580Y-96214285D02*
X138067200Y-96166666D01*
X138067200Y-96166666D02*
X138114819Y-96071428D01*
X138114819Y-96071428D02*
X138114819Y-95880952D01*
X138114819Y-95880952D02*
X138067200Y-95785714D01*
X138067200Y-95785714D02*
X138019580Y-95738095D01*
X138019580Y-95738095D02*
X137924342Y-95690476D01*
X137924342Y-95690476D02*
X137114819Y-95690476D01*
X137210057Y-95261904D02*
X137162438Y-95214285D01*
X137162438Y-95214285D02*
X137114819Y-95119047D01*
X137114819Y-95119047D02*
X137114819Y-94880952D01*
X137114819Y-94880952D02*
X137162438Y-94785714D01*
X137162438Y-94785714D02*
X137210057Y-94738095D01*
X137210057Y-94738095D02*
X137305295Y-94690476D01*
X137305295Y-94690476D02*
X137400533Y-94690476D01*
X137400533Y-94690476D02*
X137543390Y-94738095D01*
X137543390Y-94738095D02*
X138114819Y-95309523D01*
X138114819Y-95309523D02*
X138114819Y-94690476D01*
X126673033Y-100606666D02*
X125973033Y-100606666D01*
X125973033Y-100606666D02*
X126473033Y-100373333D01*
X126473033Y-100373333D02*
X125973033Y-100139999D01*
X125973033Y-100139999D02*
X126673033Y-100139999D01*
X126306366Y-99806666D02*
X126306366Y-99573333D01*
X126673033Y-99473333D02*
X126673033Y-99806666D01*
X126673033Y-99806666D02*
X125973033Y-99806666D01*
X125973033Y-99806666D02*
X125973033Y-99473333D01*
X126006366Y-98806666D02*
X125973033Y-98873333D01*
X125973033Y-98873333D02*
X125973033Y-98973333D01*
X125973033Y-98973333D02*
X126006366Y-99073333D01*
X126006366Y-99073333D02*
X126073033Y-99140000D01*
X126073033Y-99140000D02*
X126139700Y-99173333D01*
X126139700Y-99173333D02*
X126273033Y-99206666D01*
X126273033Y-99206666D02*
X126373033Y-99206666D01*
X126373033Y-99206666D02*
X126506366Y-99173333D01*
X126506366Y-99173333D02*
X126573033Y-99140000D01*
X126573033Y-99140000D02*
X126639700Y-99073333D01*
X126639700Y-99073333D02*
X126673033Y-98973333D01*
X126673033Y-98973333D02*
X126673033Y-98906666D01*
X126673033Y-98906666D02*
X126639700Y-98806666D01*
X126639700Y-98806666D02*
X126606366Y-98773333D01*
X126606366Y-98773333D02*
X126373033Y-98773333D01*
X126373033Y-98773333D02*
X126373033Y-98906666D01*
X126473033Y-98506666D02*
X126473033Y-98173333D01*
X126673033Y-98573333D02*
X125973033Y-98340000D01*
X125973033Y-98340000D02*
X126673033Y-98106666D01*
X125973033Y-97940000D02*
X125973033Y-97506666D01*
X125973033Y-97506666D02*
X126239700Y-97740000D01*
X126239700Y-97740000D02*
X126239700Y-97640000D01*
X126239700Y-97640000D02*
X126273033Y-97573333D01*
X126273033Y-97573333D02*
X126306366Y-97540000D01*
X126306366Y-97540000D02*
X126373033Y-97506666D01*
X126373033Y-97506666D02*
X126539700Y-97506666D01*
X126539700Y-97506666D02*
X126606366Y-97540000D01*
X126606366Y-97540000D02*
X126639700Y-97573333D01*
X126639700Y-97573333D02*
X126673033Y-97640000D01*
X126673033Y-97640000D02*
X126673033Y-97840000D01*
X126673033Y-97840000D02*
X126639700Y-97906666D01*
X126639700Y-97906666D02*
X126606366Y-97940000D01*
X126039700Y-97239999D02*
X126006366Y-97206666D01*
X126006366Y-97206666D02*
X125973033Y-97139999D01*
X125973033Y-97139999D02*
X125973033Y-96973333D01*
X125973033Y-96973333D02*
X126006366Y-96906666D01*
X126006366Y-96906666D02*
X126039700Y-96873333D01*
X126039700Y-96873333D02*
X126106366Y-96839999D01*
X126106366Y-96839999D02*
X126173033Y-96839999D01*
X126173033Y-96839999D02*
X126273033Y-96873333D01*
X126273033Y-96873333D02*
X126673033Y-97273333D01*
X126673033Y-97273333D02*
X126673033Y-96839999D01*
X125973033Y-96539999D02*
X126539700Y-96539999D01*
X126539700Y-96539999D02*
X126606366Y-96506666D01*
X126606366Y-96506666D02*
X126639700Y-96473332D01*
X126639700Y-96473332D02*
X126673033Y-96406666D01*
X126673033Y-96406666D02*
X126673033Y-96273332D01*
X126673033Y-96273332D02*
X126639700Y-96206666D01*
X126639700Y-96206666D02*
X126606366Y-96173332D01*
X126606366Y-96173332D02*
X126539700Y-96139999D01*
X126539700Y-96139999D02*
X125973033Y-96139999D01*
X126206366Y-95506666D02*
X126673033Y-95506666D01*
X125939700Y-95673333D02*
X126439700Y-95839999D01*
X126439700Y-95839999D02*
X126439700Y-95406666D01*
X145454819Y-89260714D02*
X145454819Y-89736904D01*
X145454819Y-89736904D02*
X144454819Y-89736904D01*
X145454819Y-88498809D02*
X144931009Y-88498809D01*
X144931009Y-88498809D02*
X144835771Y-88546428D01*
X144835771Y-88546428D02*
X144788152Y-88641666D01*
X144788152Y-88641666D02*
X144788152Y-88832142D01*
X144788152Y-88832142D02*
X144835771Y-88927380D01*
X145407200Y-88498809D02*
X145454819Y-88594047D01*
X145454819Y-88594047D02*
X145454819Y-88832142D01*
X145454819Y-88832142D02*
X145407200Y-88927380D01*
X145407200Y-88927380D02*
X145311961Y-88974999D01*
X145311961Y-88974999D02*
X145216723Y-88974999D01*
X145216723Y-88974999D02*
X145121485Y-88927380D01*
X145121485Y-88927380D02*
X145073866Y-88832142D01*
X145073866Y-88832142D02*
X145073866Y-88594047D01*
X145073866Y-88594047D02*
X145026247Y-88498809D01*
X145407200Y-88070237D02*
X145454819Y-87974999D01*
X145454819Y-87974999D02*
X145454819Y-87784523D01*
X145454819Y-87784523D02*
X145407200Y-87689285D01*
X145407200Y-87689285D02*
X145311961Y-87641666D01*
X145311961Y-87641666D02*
X145264342Y-87641666D01*
X145264342Y-87641666D02*
X145169104Y-87689285D01*
X145169104Y-87689285D02*
X145121485Y-87784523D01*
X145121485Y-87784523D02*
X145121485Y-87927380D01*
X145121485Y-87927380D02*
X145073866Y-88022618D01*
X145073866Y-88022618D02*
X144978628Y-88070237D01*
X144978628Y-88070237D02*
X144931009Y-88070237D01*
X144931009Y-88070237D02*
X144835771Y-88022618D01*
X144835771Y-88022618D02*
X144788152Y-87927380D01*
X144788152Y-87927380D02*
X144788152Y-87784523D01*
X144788152Y-87784523D02*
X144835771Y-87689285D01*
X145407200Y-86832142D02*
X145454819Y-86927380D01*
X145454819Y-86927380D02*
X145454819Y-87117856D01*
X145454819Y-87117856D02*
X145407200Y-87213094D01*
X145407200Y-87213094D02*
X145311961Y-87260713D01*
X145311961Y-87260713D02*
X144931009Y-87260713D01*
X144931009Y-87260713D02*
X144835771Y-87213094D01*
X144835771Y-87213094D02*
X144788152Y-87117856D01*
X144788152Y-87117856D02*
X144788152Y-86927380D01*
X144788152Y-86927380D02*
X144835771Y-86832142D01*
X144835771Y-86832142D02*
X144931009Y-86784523D01*
X144931009Y-86784523D02*
X145026247Y-86784523D01*
X145026247Y-86784523D02*
X145121485Y-87260713D01*
X145454819Y-86355951D02*
X144788152Y-86355951D01*
X144978628Y-86355951D02*
X144883390Y-86308332D01*
X144883390Y-86308332D02*
X144835771Y-86260713D01*
X144835771Y-86260713D02*
X144788152Y-86165475D01*
X144788152Y-86165475D02*
X144788152Y-86070237D01*
D11*
%TO.C,J5*%
X106170000Y-101270000D02*
X106170000Y-85970000D01*
X108830000Y-85970000D02*
X106170000Y-85970000D01*
X108830000Y-101270000D02*
X106170000Y-101270000D01*
X108830000Y-101270000D02*
X108830000Y-85970000D01*
X108830000Y-102540000D02*
X108830000Y-103870000D01*
X108830000Y-103870000D02*
X107500000Y-103870000D01*
%TO.C,R1*%
X112130000Y-92730000D02*
X112130000Y-99270000D01*
X112130000Y-99270000D02*
X114870000Y-99270000D01*
X113500000Y-91960000D02*
X113500000Y-92730000D01*
X113500000Y-100040000D02*
X113500000Y-99270000D01*
X114870000Y-92730000D02*
X112130000Y-92730000D01*
X114870000Y-99270000D02*
X114870000Y-92730000D01*
%TO.C,J2*%
X146170000Y-91145000D02*
X147500000Y-91145000D01*
X146170000Y-92475000D02*
X146170000Y-91145000D01*
X146170000Y-93745000D02*
X146170000Y-98885000D01*
X146170000Y-93745000D02*
X148830000Y-93745000D01*
X146170000Y-98885000D02*
X148830000Y-98885000D01*
X148830000Y-93745000D02*
X148830000Y-98885000D01*
D12*
%TO.C,SW1*%
X138672600Y-111532762D02*
X138672600Y-113967236D01*
X138672600Y-116077399D02*
X145327400Y-116077399D01*
X145327400Y-109422599D02*
X138672600Y-109422599D01*
X145327400Y-113967236D02*
X145327400Y-111532762D01*
X147842199Y-115000000D02*
G75*
G02*
X147435799Y-115000000I-203200J0D01*
G01*
X147435799Y-115000000D02*
G75*
G02*
X147842199Y-115000000I203200J0D01*
G01*
D11*
%TO.C,J1*%
X146170000Y-100145000D02*
X147500000Y-100145000D01*
X146170000Y-101475000D02*
X146170000Y-100145000D01*
X146170000Y-102745000D02*
X146170000Y-107885000D01*
X146170000Y-102745000D02*
X148830000Y-102745000D01*
X146170000Y-107885000D02*
X148830000Y-107885000D01*
X148830000Y-102745000D02*
X148830000Y-107885000D01*
%TO.C,D1*%
X111170000Y-105955000D02*
X111170000Y-109045000D01*
X111170000Y-105955170D02*
G75*
G02*
X116720000Y-107499952I2560000J-1544830D01*
G01*
X116720000Y-107500048D02*
G75*
G02*
X111170000Y-109044830I-2990000J48D01*
G01*
X116230000Y-107500000D02*
G75*
G02*
X111230000Y-107500000I-2500000J0D01*
G01*
X111230000Y-107500000D02*
G75*
G02*
X116230000Y-107500000I2500000J0D01*
G01*
D12*
%TO.C,SW2*%
X149697602Y-111532764D02*
X149697602Y-113967238D01*
X149697602Y-116077401D02*
X156352402Y-116077401D01*
X156352402Y-109422601D02*
X149697602Y-109422601D01*
X156352402Y-113967238D02*
X156352402Y-111532764D01*
X158867201Y-115000002D02*
G75*
G02*
X158460801Y-115000002I-203200J0D01*
G01*
X158460801Y-115000002D02*
G75*
G02*
X158867201Y-115000002I203200J0D01*
G01*
D11*
%TO.C,J3*%
X161170000Y-86090000D02*
X162500000Y-86090000D01*
X161170000Y-87420000D02*
X161170000Y-86090000D01*
X161170000Y-88690000D02*
X161170000Y-103990000D01*
X161170000Y-88690000D02*
X163830000Y-88690000D01*
X161170000Y-103990000D02*
X163830000Y-103990000D01*
X163830000Y-88690000D02*
X163830000Y-103990000D01*
D10*
%TO.C,U2*%
X118610000Y-80260000D02*
X136390000Y-80260000D01*
X118610000Y-110740000D02*
X118610000Y-80260000D01*
X122420000Y-104390000D02*
X122420000Y-108200000D01*
X122420000Y-108200000D02*
X124960000Y-108200000D01*
X123690000Y-78990000D02*
X131310000Y-78990000D01*
X123690000Y-87880000D02*
X123690000Y-78990000D01*
X123690000Y-94230000D02*
X123690000Y-101850000D01*
X123690000Y-101850000D02*
X131310000Y-101850000D01*
X124960000Y-104390000D02*
X122420000Y-104390000D01*
X124960000Y-108200000D02*
X124960000Y-104390000D01*
X126230000Y-104390000D02*
X126230000Y-108200000D01*
X126230000Y-108200000D02*
X130040000Y-108200000D01*
X127500000Y-104390000D02*
X126230000Y-104390000D01*
X130040000Y-104390000D02*
X127500000Y-104390000D01*
X130040000Y-108200000D02*
X130040000Y-104390000D01*
X131310000Y-78990000D02*
X131310000Y-87880000D01*
X131310000Y-87880000D02*
X123690000Y-87880000D01*
X131310000Y-94230000D02*
X123690000Y-94230000D01*
X131310000Y-101850000D02*
X131310000Y-94230000D01*
X136390000Y-80260000D02*
X136390000Y-110740000D01*
X136390000Y-110740000D02*
X118610000Y-110740000D01*
D13*
X128262000Y-99945000D02*
X128008000Y-99818000D01*
X128008000Y-96135000D01*
X128262000Y-96135000D01*
X128262000Y-99945000D01*
G36*
X128262000Y-99945000D02*
G01*
X128008000Y-99818000D01*
X128008000Y-96135000D01*
X128262000Y-96135000D01*
X128262000Y-99945000D01*
G37*
X129405000Y-99564000D02*
X128643000Y-99564000D01*
X128643000Y-100072000D01*
X128389000Y-99945000D01*
X128389000Y-99310000D01*
X129405000Y-99310000D01*
X129405000Y-99564000D01*
G36*
X129405000Y-99564000D02*
G01*
X128643000Y-99564000D01*
X128643000Y-100072000D01*
X128389000Y-99945000D01*
X128389000Y-99310000D01*
X129405000Y-99310000D01*
X129405000Y-99564000D01*
G37*
X129405000Y-96516000D02*
X129405000Y-96897000D01*
X128389000Y-96897000D01*
X128389000Y-96643000D01*
X129151000Y-96643000D01*
X128389000Y-96389000D01*
X128389000Y-96135000D01*
X129405000Y-96516000D01*
G36*
X129405000Y-96516000D02*
G01*
X129405000Y-96897000D01*
X128389000Y-96897000D01*
X128389000Y-96643000D01*
X129151000Y-96643000D01*
X128389000Y-96389000D01*
X128389000Y-96135000D01*
X129405000Y-96516000D01*
G37*
X129786000Y-96643000D02*
X129786000Y-99564000D01*
X129532000Y-99564000D01*
X129532000Y-97278000D01*
X128389000Y-97278000D01*
X128389000Y-97024000D01*
X129532000Y-97024000D01*
X129532000Y-96516000D01*
X129786000Y-96643000D01*
G36*
X129786000Y-96643000D02*
G01*
X129786000Y-99564000D01*
X129532000Y-99564000D01*
X129532000Y-97278000D01*
X128389000Y-97278000D01*
X128389000Y-97024000D01*
X129532000Y-97024000D01*
X129532000Y-96516000D01*
X129786000Y-96643000D01*
G37*
X129405000Y-98421000D02*
X128389000Y-98421000D01*
X128389000Y-98167000D01*
X129151000Y-98167000D01*
X129151000Y-98040000D01*
X128389000Y-98040000D01*
X128389000Y-97786000D01*
X129151000Y-97786000D01*
X129151000Y-97659000D01*
X128389000Y-97659000D01*
X128389000Y-97405000D01*
X129405000Y-97405000D01*
X129405000Y-98421000D01*
G36*
X129405000Y-98421000D02*
G01*
X128389000Y-98421000D01*
X128389000Y-98167000D01*
X129151000Y-98167000D01*
X129151000Y-98040000D01*
X128389000Y-98040000D01*
X128389000Y-97786000D01*
X129151000Y-97786000D01*
X129151000Y-97659000D01*
X128389000Y-97659000D01*
X128389000Y-97405000D01*
X129405000Y-97405000D01*
X129405000Y-98421000D01*
G37*
X129405000Y-99183000D02*
X129151000Y-99183000D01*
X129151000Y-98802000D01*
X129024000Y-98802000D01*
X129024000Y-99183000D01*
X128770000Y-99183000D01*
X128770000Y-98802000D01*
X128643000Y-98802000D01*
X128643000Y-99183000D01*
X128389000Y-99183000D01*
X128389000Y-98548000D01*
X129405000Y-98548000D01*
X129405000Y-99183000D01*
G36*
X129405000Y-99183000D02*
G01*
X129151000Y-99183000D01*
X129151000Y-98802000D01*
X129024000Y-98802000D01*
X129024000Y-99183000D01*
X128770000Y-99183000D01*
X128770000Y-98802000D01*
X128643000Y-98802000D01*
X128643000Y-99183000D01*
X128389000Y-99183000D01*
X128389000Y-98548000D01*
X129405000Y-98548000D01*
X129405000Y-99183000D01*
G37*
D11*
%TO.C,J4*%
X146170000Y-82145000D02*
X147500000Y-82145000D01*
X146170000Y-83475000D02*
X146170000Y-82145000D01*
X146170000Y-84745000D02*
X146170000Y-89885000D01*
X146170000Y-84745000D02*
X148830000Y-84745000D01*
X146170000Y-89885000D02*
X148830000Y-89885000D01*
X148830000Y-84745000D02*
X148830000Y-89885000D01*
%TD*%
M02*
